M48
INCH,LZ
T1C0.031
T2C0.032
%
G90
G05
T2
X07625Y-062
X07625Y-063
X07625Y-064
X07625Y-065
X07625Y-066
X0785Y-0625
X0785Y-0655
X08Y-0605
X08Y-0625
X08Y-0655
X08Y-0675
X081Y-0625
X081Y-0655
X082Y-0605
X082Y-0625
X082Y-0655
X082Y-0675
X083Y-0625
X083Y-0655
X0845Y-0605
X0845Y-0675
X085Y-063
X085Y-065
X087Y-063
X087Y-065
X0875Y-0605
X0875Y-0675
T1
X089169Y-062031G85X088894Y-062031
G05
X089169Y-065969G85X088894Y-065969
G05
X091Y-064138G85X091Y-063862
G05
T0
M30
