G04 (created by PCBNEW (2013-07-07 BZR 4022)-stable) date 1/7/2015 2:01:18 PM*
%MOIN*%
G04 Gerber Fmt 3.4, Leading zero omitted, Abs format*
%FSLAX34Y34*%
G01*
G70*
G90*
G04 APERTURE LIST*
%ADD10C,0.00590551*%
%ADD11C,0.01*%
%ADD12C,0.0001*%
G04 APERTURE END LIST*
G54D10*
G54D11*
X90133Y-68861D02*
X90361Y-68861D01*
X90247Y-68861D02*
X90247Y-68461D01*
X90285Y-68519D01*
X90323Y-68557D01*
X90361Y-68576D01*
X89885Y-68461D02*
X89847Y-68461D01*
X89809Y-68480D01*
X89790Y-68500D01*
X89771Y-68538D01*
X89752Y-68614D01*
X89752Y-68709D01*
X89771Y-68785D01*
X89790Y-68823D01*
X89809Y-68842D01*
X89847Y-68861D01*
X89885Y-68861D01*
X89923Y-68842D01*
X89942Y-68823D01*
X89961Y-68785D01*
X89980Y-68709D01*
X89980Y-68614D01*
X89961Y-68538D01*
X89942Y-68500D01*
X89923Y-68480D01*
X89885Y-68461D01*
X89504Y-68461D02*
X89466Y-68461D01*
X89428Y-68480D01*
X89409Y-68500D01*
X89390Y-68538D01*
X89371Y-68614D01*
X89371Y-68709D01*
X89390Y-68785D01*
X89409Y-68823D01*
X89428Y-68842D01*
X89466Y-68861D01*
X89504Y-68861D01*
X89542Y-68842D01*
X89561Y-68823D01*
X89580Y-68785D01*
X89600Y-68709D01*
X89600Y-68614D01*
X89580Y-68538D01*
X89561Y-68500D01*
X89542Y-68480D01*
X89504Y-68461D01*
X89200Y-68861D02*
X89200Y-68595D01*
X89200Y-68633D02*
X89180Y-68614D01*
X89142Y-68595D01*
X89085Y-68595D01*
X89047Y-68614D01*
X89028Y-68652D01*
X89028Y-68861D01*
X89028Y-68652D02*
X89009Y-68614D01*
X88971Y-68595D01*
X88914Y-68595D01*
X88876Y-68614D01*
X88857Y-68652D01*
X88857Y-68861D01*
X88666Y-68861D02*
X88666Y-68595D01*
X88666Y-68461D02*
X88685Y-68480D01*
X88666Y-68500D01*
X88647Y-68480D01*
X88666Y-68461D01*
X88666Y-68500D01*
X88419Y-68861D02*
X88457Y-68842D01*
X88476Y-68804D01*
X88476Y-68461D01*
X92761Y-68500D02*
X92742Y-68480D01*
X92704Y-68461D01*
X92609Y-68461D01*
X92571Y-68480D01*
X92552Y-68500D01*
X92533Y-68538D01*
X92533Y-68576D01*
X92552Y-68633D01*
X92780Y-68861D01*
X92533Y-68861D01*
X92285Y-68461D02*
X92247Y-68461D01*
X92209Y-68480D01*
X92190Y-68500D01*
X92171Y-68538D01*
X92152Y-68614D01*
X92152Y-68709D01*
X92171Y-68785D01*
X92190Y-68823D01*
X92209Y-68842D01*
X92247Y-68861D01*
X92285Y-68861D01*
X92323Y-68842D01*
X92342Y-68823D01*
X92361Y-68785D01*
X92380Y-68709D01*
X92380Y-68614D01*
X92361Y-68538D01*
X92342Y-68500D01*
X92323Y-68480D01*
X92285Y-68461D01*
X91904Y-68461D02*
X91866Y-68461D01*
X91828Y-68480D01*
X91809Y-68500D01*
X91790Y-68538D01*
X91771Y-68614D01*
X91771Y-68709D01*
X91790Y-68785D01*
X91809Y-68823D01*
X91828Y-68842D01*
X91866Y-68861D01*
X91904Y-68861D01*
X91942Y-68842D01*
X91961Y-68823D01*
X91980Y-68785D01*
X92000Y-68709D01*
X92000Y-68614D01*
X91980Y-68538D01*
X91961Y-68500D01*
X91942Y-68480D01*
X91904Y-68461D01*
X91600Y-68861D02*
X91600Y-68595D01*
X91600Y-68633D02*
X91580Y-68614D01*
X91542Y-68595D01*
X91485Y-68595D01*
X91447Y-68614D01*
X91428Y-68652D01*
X91428Y-68861D01*
X91428Y-68652D02*
X91409Y-68614D01*
X91371Y-68595D01*
X91314Y-68595D01*
X91276Y-68614D01*
X91257Y-68652D01*
X91257Y-68861D01*
X91066Y-68861D02*
X91066Y-68595D01*
X91066Y-68461D02*
X91085Y-68480D01*
X91066Y-68500D01*
X91047Y-68480D01*
X91066Y-68461D01*
X91066Y-68500D01*
X90819Y-68861D02*
X90857Y-68842D01*
X90876Y-68804D01*
X90876Y-68461D01*
G54D12*
G36*
X90840Y-67338D02*
X90843Y-67420D01*
X90852Y-67501D01*
X90869Y-67582D01*
X90892Y-67661D01*
X90923Y-67739D01*
X90960Y-67814D01*
X91005Y-67887D01*
X91057Y-67956D01*
X91074Y-67977D01*
X91132Y-68038D01*
X91194Y-68094D01*
X91250Y-68136D01*
X91250Y-67609D01*
X91255Y-67601D01*
X91256Y-67600D01*
X91264Y-67591D01*
X91293Y-67620D01*
X91307Y-67634D01*
X91318Y-67643D01*
X91326Y-67648D01*
X91332Y-67650D01*
X91335Y-67650D01*
X91349Y-67647D01*
X91360Y-67636D01*
X91365Y-67626D01*
X91366Y-67620D01*
X91367Y-67606D01*
X91369Y-67587D01*
X91370Y-67563D01*
X91371Y-67537D01*
X91372Y-67512D01*
X91373Y-67478D01*
X91374Y-67451D01*
X91375Y-67429D01*
X91377Y-67412D01*
X91379Y-67399D01*
X91382Y-67388D01*
X91386Y-67378D01*
X91391Y-67369D01*
X91394Y-67364D01*
X91409Y-67343D01*
X91429Y-67325D01*
X91454Y-67310D01*
X91485Y-67298D01*
X91523Y-67288D01*
X91560Y-67282D01*
X91581Y-67279D01*
X91595Y-67276D01*
X91601Y-67274D01*
X91600Y-67271D01*
X91592Y-67266D01*
X91577Y-67260D01*
X91568Y-67256D01*
X91526Y-67238D01*
X91490Y-67220D01*
X91460Y-67202D01*
X91434Y-67183D01*
X91411Y-67163D01*
X91404Y-67156D01*
X91383Y-67130D01*
X91367Y-67104D01*
X91355Y-67075D01*
X91348Y-67042D01*
X91344Y-67004D01*
X91343Y-66972D01*
X91344Y-66933D01*
X91348Y-66900D01*
X91355Y-66870D01*
X91366Y-66844D01*
X91382Y-66817D01*
X91402Y-66790D01*
X91408Y-66783D01*
X91423Y-66767D01*
X91440Y-66750D01*
X91459Y-66732D01*
X91477Y-66716D01*
X91495Y-66702D01*
X91512Y-66690D01*
X91524Y-66682D01*
X91533Y-66678D01*
X91534Y-66678D01*
X91538Y-66681D01*
X91546Y-66689D01*
X91557Y-66701D01*
X91570Y-66716D01*
X91576Y-66722D01*
X91593Y-66742D01*
X91611Y-66762D01*
X91630Y-66781D01*
X91652Y-66802D01*
X91677Y-66824D01*
X91705Y-66849D01*
X91739Y-66878D01*
X91770Y-66904D01*
X91850Y-66970D01*
X91852Y-66883D01*
X91854Y-66848D01*
X91855Y-66820D01*
X91857Y-66798D01*
X91860Y-66780D01*
X91864Y-66766D01*
X91870Y-66755D01*
X91877Y-66745D01*
X91881Y-66740D01*
X91892Y-66728D01*
X91905Y-66719D01*
X91920Y-66712D01*
X91937Y-66708D01*
X91959Y-66705D01*
X91985Y-66704D01*
X92018Y-66705D01*
X92057Y-66707D01*
X92064Y-66708D01*
X92109Y-66711D01*
X92146Y-66713D01*
X92176Y-66714D01*
X92201Y-66714D01*
X92221Y-66713D01*
X92236Y-66710D01*
X92247Y-66707D01*
X92255Y-66702D01*
X92261Y-66696D01*
X92265Y-66688D01*
X92265Y-66688D01*
X92270Y-66678D01*
X92277Y-66674D01*
X92278Y-66674D01*
X92283Y-66676D01*
X92287Y-66681D01*
X92290Y-66691D01*
X92291Y-66707D01*
X92292Y-66729D01*
X92292Y-66742D01*
X92291Y-66786D01*
X92287Y-66825D01*
X92281Y-66859D01*
X92273Y-66886D01*
X92263Y-66907D01*
X92255Y-66917D01*
X92246Y-66925D01*
X92237Y-66931D01*
X92227Y-66936D01*
X92215Y-66940D01*
X92200Y-66942D01*
X92179Y-66944D01*
X92154Y-66945D01*
X92123Y-66946D01*
X92115Y-66949D01*
X92108Y-66954D01*
X92105Y-66957D01*
X92103Y-66961D01*
X92102Y-66968D01*
X92101Y-66977D01*
X92100Y-66992D01*
X92100Y-67011D01*
X92100Y-67038D01*
X92100Y-67040D01*
X92100Y-67118D01*
X92125Y-67118D01*
X92143Y-67119D01*
X92164Y-67120D01*
X92177Y-67122D01*
X92204Y-67128D01*
X92226Y-67138D01*
X92245Y-67153D01*
X92260Y-67172D01*
X92271Y-67197D01*
X92280Y-67228D01*
X92285Y-67265D01*
X92288Y-67309D01*
X92288Y-67338D01*
X92288Y-67402D01*
X92279Y-67402D01*
X92274Y-67401D01*
X92271Y-67398D01*
X92269Y-67392D01*
X92266Y-67379D01*
X92265Y-67370D01*
X92262Y-67350D01*
X92258Y-67335D01*
X92251Y-67324D01*
X92241Y-67315D01*
X92227Y-67310D01*
X92207Y-67306D01*
X92181Y-67304D01*
X92160Y-67303D01*
X92100Y-67301D01*
X92101Y-67395D01*
X92101Y-67426D01*
X92102Y-67451D01*
X92103Y-67470D01*
X92105Y-67484D01*
X92108Y-67496D01*
X92114Y-67505D01*
X92122Y-67513D01*
X92132Y-67522D01*
X92146Y-67533D01*
X92153Y-67538D01*
X92169Y-67550D01*
X92185Y-67563D01*
X92197Y-67573D01*
X92202Y-67578D01*
X92224Y-67602D01*
X92245Y-67633D01*
X92264Y-67667D01*
X92280Y-67703D01*
X92289Y-67726D01*
X92295Y-67755D01*
X92298Y-67789D01*
X92298Y-67824D01*
X92293Y-67859D01*
X92289Y-67879D01*
X92273Y-67923D01*
X92250Y-67962D01*
X92223Y-67998D01*
X92190Y-68027D01*
X92153Y-68051D01*
X92133Y-68060D01*
X92094Y-68072D01*
X92051Y-68079D01*
X92006Y-68082D01*
X91961Y-68079D01*
X91951Y-68078D01*
X91914Y-68069D01*
X91877Y-68056D01*
X91842Y-68039D01*
X91827Y-68030D01*
X91801Y-68010D01*
X91774Y-67986D01*
X91750Y-67958D01*
X91729Y-67930D01*
X91716Y-67909D01*
X91704Y-67883D01*
X91696Y-67860D01*
X91691Y-67836D01*
X91689Y-67810D01*
X91688Y-67787D01*
X91688Y-67742D01*
X91703Y-67742D01*
X91718Y-67742D01*
X91718Y-67781D01*
X91720Y-67812D01*
X91726Y-67837D01*
X91735Y-67859D01*
X91750Y-67880D01*
X91759Y-67890D01*
X91787Y-67915D01*
X91818Y-67934D01*
X91846Y-67945D01*
X91853Y-67947D01*
X91861Y-67948D01*
X91871Y-67950D01*
X91883Y-67950D01*
X91899Y-67951D01*
X91919Y-67952D01*
X91945Y-67952D01*
X91976Y-67952D01*
X92006Y-67952D01*
X92044Y-67952D01*
X92075Y-67952D01*
X92100Y-67951D01*
X92120Y-67951D01*
X92136Y-67950D01*
X92148Y-67949D01*
X92158Y-67947D01*
X92167Y-67946D01*
X92169Y-67945D01*
X92204Y-67934D01*
X92232Y-67919D01*
X92253Y-67901D01*
X92267Y-67880D01*
X92274Y-67854D01*
X92276Y-67834D01*
X92273Y-67806D01*
X92263Y-67782D01*
X92247Y-67762D01*
X92224Y-67746D01*
X92217Y-67743D01*
X92206Y-67738D01*
X92196Y-67735D01*
X92184Y-67733D01*
X92169Y-67732D01*
X92150Y-67732D01*
X92120Y-67733D01*
X92092Y-67737D01*
X92067Y-67745D01*
X92042Y-67757D01*
X92016Y-67773D01*
X91989Y-67794D01*
X91959Y-67822D01*
X91948Y-67833D01*
X91931Y-67849D01*
X91918Y-67861D01*
X91910Y-67867D01*
X91904Y-67870D01*
X91902Y-67869D01*
X91898Y-67865D01*
X91890Y-67856D01*
X91877Y-67842D01*
X91861Y-67824D01*
X91842Y-67802D01*
X91820Y-67777D01*
X91796Y-67750D01*
X91773Y-67725D01*
X91648Y-67585D01*
X91655Y-67575D01*
X91662Y-67565D01*
X91707Y-67612D01*
X91752Y-67660D01*
X91752Y-67477D01*
X91752Y-67294D01*
X91721Y-67294D01*
X91693Y-67296D01*
X91671Y-67303D01*
X91653Y-67314D01*
X91638Y-67332D01*
X91629Y-67350D01*
X91618Y-67372D01*
X91616Y-67546D01*
X91616Y-67590D01*
X91615Y-67626D01*
X91614Y-67656D01*
X91614Y-67680D01*
X91613Y-67700D01*
X91611Y-67715D01*
X91609Y-67727D01*
X91606Y-67736D01*
X91603Y-67744D01*
X91599Y-67751D01*
X91593Y-67757D01*
X91587Y-67764D01*
X91586Y-67766D01*
X91578Y-67773D01*
X91567Y-67784D01*
X91553Y-67797D01*
X91537Y-67811D01*
X91520Y-67826D01*
X91504Y-67840D01*
X91489Y-67853D01*
X91476Y-67864D01*
X91467Y-67871D01*
X91463Y-67874D01*
X91463Y-67874D01*
X91460Y-67870D01*
X91453Y-67861D01*
X91441Y-67848D01*
X91427Y-67830D01*
X91409Y-67808D01*
X91389Y-67784D01*
X91367Y-67757D01*
X91358Y-67746D01*
X91336Y-67719D01*
X91315Y-67693D01*
X91296Y-67670D01*
X91279Y-67650D01*
X91266Y-67634D01*
X91257Y-67622D01*
X91252Y-67616D01*
X91251Y-67615D01*
X91250Y-67609D01*
X91250Y-68136D01*
X91260Y-68144D01*
X91332Y-68188D01*
X91406Y-68225D01*
X91483Y-68256D01*
X91564Y-68280D01*
X91647Y-68297D01*
X91730Y-68307D01*
X91814Y-68310D01*
X91888Y-68306D01*
X91974Y-68294D01*
X92058Y-68274D01*
X92139Y-68247D01*
X92218Y-68214D01*
X92293Y-68173D01*
X92364Y-68127D01*
X92430Y-68074D01*
X92492Y-68015D01*
X92548Y-67951D01*
X92591Y-67893D01*
X92638Y-67817D01*
X92677Y-67740D01*
X92708Y-67659D01*
X92732Y-67577D01*
X92749Y-67494D01*
X92758Y-67410D01*
X92760Y-67325D01*
X92754Y-67240D01*
X92740Y-67156D01*
X92719Y-67072D01*
X92689Y-66990D01*
X92676Y-66958D01*
X92637Y-66880D01*
X92591Y-66807D01*
X92539Y-66738D01*
X92481Y-66674D01*
X92427Y-66624D01*
X92358Y-66570D01*
X92286Y-66523D01*
X92210Y-66483D01*
X92132Y-66450D01*
X92052Y-66424D01*
X91970Y-66405D01*
X91887Y-66394D01*
X91803Y-66390D01*
X91719Y-66394D01*
X91634Y-66405D01*
X91551Y-66423D01*
X91468Y-66450D01*
X91408Y-66474D01*
X91330Y-66513D01*
X91257Y-66559D01*
X91188Y-66611D01*
X91124Y-66669D01*
X91074Y-66723D01*
X91020Y-66792D01*
X90973Y-66863D01*
X90933Y-66938D01*
X90901Y-67015D01*
X90875Y-67094D01*
X90857Y-67174D01*
X90845Y-67256D01*
X90840Y-67338D01*
X90840Y-67338D01*
X90840Y-67338D01*
G37*
G36*
X91777Y-67375D02*
X91777Y-67426D01*
X91777Y-67460D01*
X91778Y-67633D01*
X91794Y-67621D01*
X91847Y-67586D01*
X91902Y-67558D01*
X91958Y-67537D01*
X92016Y-67524D01*
X92040Y-67521D01*
X92089Y-67516D01*
X92071Y-67509D01*
X92045Y-67499D01*
X92013Y-67491D01*
X91979Y-67483D01*
X91945Y-67478D01*
X91913Y-67476D01*
X91885Y-67475D01*
X91877Y-67476D01*
X91852Y-67479D01*
X91852Y-67239D01*
X91852Y-67000D01*
X91815Y-66969D01*
X91778Y-66939D01*
X91777Y-67112D01*
X91777Y-67158D01*
X91777Y-67210D01*
X91777Y-67265D01*
X91777Y-67321D01*
X91777Y-67375D01*
X91777Y-67375D01*
X91777Y-67375D01*
G37*
G36*
X91588Y-67063D02*
X91590Y-67111D01*
X91598Y-67153D01*
X91610Y-67189D01*
X91627Y-67219D01*
X91650Y-67242D01*
X91659Y-67249D01*
X91678Y-67259D01*
X91701Y-67267D01*
X91724Y-67273D01*
X91739Y-67274D01*
X91752Y-67274D01*
X91751Y-67095D01*
X91750Y-66916D01*
X91733Y-66904D01*
X91721Y-66897D01*
X91711Y-66893D01*
X91698Y-66892D01*
X91691Y-66892D01*
X91668Y-66894D01*
X91650Y-66901D01*
X91634Y-66914D01*
X91629Y-66919D01*
X91613Y-66941D01*
X91600Y-66969D01*
X91592Y-67002D01*
X91589Y-67042D01*
X91588Y-67063D01*
X91588Y-67063D01*
X91588Y-67063D01*
G37*
G36*
X89020Y-67794D02*
X89021Y-67835D01*
X89026Y-67876D01*
X89034Y-67916D01*
X89046Y-67956D01*
X89061Y-67994D01*
X89080Y-68032D01*
X89102Y-68068D01*
X89128Y-68103D01*
X89137Y-68113D01*
X89166Y-68144D01*
X89197Y-68172D01*
X89225Y-68193D01*
X89225Y-67929D01*
X89228Y-67925D01*
X89228Y-67925D01*
X89232Y-67920D01*
X89247Y-67935D01*
X89254Y-67942D01*
X89259Y-67947D01*
X89263Y-67949D01*
X89266Y-67950D01*
X89267Y-67950D01*
X89275Y-67948D01*
X89280Y-67943D01*
X89282Y-67938D01*
X89283Y-67935D01*
X89284Y-67928D01*
X89284Y-67919D01*
X89285Y-67907D01*
X89286Y-67893D01*
X89286Y-67881D01*
X89287Y-67864D01*
X89287Y-67850D01*
X89288Y-67839D01*
X89289Y-67831D01*
X89290Y-67824D01*
X89291Y-67819D01*
X89293Y-67814D01*
X89295Y-67809D01*
X89297Y-67807D01*
X89305Y-67796D01*
X89315Y-67788D01*
X89327Y-67780D01*
X89343Y-67774D01*
X89361Y-67769D01*
X89380Y-67766D01*
X89391Y-67764D01*
X89398Y-67763D01*
X89401Y-67762D01*
X89400Y-67760D01*
X89396Y-67758D01*
X89389Y-67755D01*
X89384Y-67753D01*
X89363Y-67744D01*
X89345Y-67735D01*
X89330Y-67726D01*
X89317Y-67717D01*
X89306Y-67706D01*
X89302Y-67703D01*
X89292Y-67690D01*
X89284Y-67677D01*
X89278Y-67662D01*
X89274Y-67646D01*
X89272Y-67627D01*
X89271Y-67611D01*
X89272Y-67591D01*
X89274Y-67575D01*
X89277Y-67560D01*
X89283Y-67547D01*
X89291Y-67534D01*
X89301Y-67520D01*
X89304Y-67516D01*
X89311Y-67508D01*
X89320Y-67500D01*
X89329Y-67491D01*
X89339Y-67483D01*
X89348Y-67476D01*
X89356Y-67470D01*
X89362Y-67466D01*
X89367Y-67464D01*
X89367Y-67464D01*
X89369Y-67465D01*
X89373Y-67469D01*
X89378Y-67475D01*
X89385Y-67483D01*
X89388Y-67486D01*
X89397Y-67496D01*
X89405Y-67506D01*
X89415Y-67516D01*
X89426Y-67526D01*
X89438Y-67537D01*
X89453Y-67550D01*
X89469Y-67564D01*
X89485Y-67577D01*
X89525Y-67610D01*
X89526Y-67567D01*
X89527Y-67549D01*
X89528Y-67535D01*
X89529Y-67524D01*
X89530Y-67515D01*
X89532Y-67508D01*
X89535Y-67502D01*
X89538Y-67497D01*
X89540Y-67495D01*
X89546Y-67489D01*
X89552Y-67485D01*
X89560Y-67481D01*
X89569Y-67479D01*
X89579Y-67478D01*
X89593Y-67477D01*
X89609Y-67477D01*
X89629Y-67479D01*
X89632Y-67479D01*
X89654Y-67480D01*
X89673Y-67481D01*
X89688Y-67482D01*
X89701Y-67482D01*
X89710Y-67481D01*
X89718Y-67480D01*
X89724Y-67478D01*
X89728Y-67476D01*
X89730Y-67473D01*
X89732Y-67469D01*
X89732Y-67469D01*
X89735Y-67464D01*
X89739Y-67462D01*
X89739Y-67462D01*
X89742Y-67463D01*
X89744Y-67465D01*
X89745Y-67470D01*
X89746Y-67478D01*
X89746Y-67489D01*
X89746Y-67496D01*
X89745Y-67518D01*
X89743Y-67538D01*
X89741Y-67554D01*
X89737Y-67568D01*
X89732Y-67578D01*
X89728Y-67583D01*
X89723Y-67588D01*
X89719Y-67591D01*
X89714Y-67593D01*
X89708Y-67595D01*
X89700Y-67596D01*
X89690Y-67597D01*
X89677Y-67597D01*
X89662Y-67598D01*
X89658Y-67599D01*
X89654Y-67602D01*
X89653Y-67604D01*
X89652Y-67606D01*
X89651Y-67609D01*
X89650Y-67614D01*
X89650Y-67621D01*
X89650Y-67631D01*
X89650Y-67644D01*
X89650Y-67645D01*
X89650Y-67684D01*
X89662Y-67684D01*
X89672Y-67684D01*
X89682Y-67685D01*
X89689Y-67686D01*
X89702Y-67689D01*
X89713Y-67694D01*
X89722Y-67701D01*
X89730Y-67711D01*
X89736Y-67723D01*
X89740Y-67739D01*
X89742Y-67758D01*
X89744Y-67780D01*
X89744Y-67794D01*
X89744Y-67826D01*
X89739Y-67826D01*
X89737Y-67826D01*
X89735Y-67824D01*
X89734Y-67821D01*
X89733Y-67815D01*
X89733Y-67810D01*
X89731Y-67800D01*
X89729Y-67792D01*
X89725Y-67787D01*
X89720Y-67783D01*
X89713Y-67780D01*
X89704Y-67778D01*
X89691Y-67777D01*
X89680Y-67777D01*
X89650Y-67775D01*
X89650Y-67823D01*
X89651Y-67838D01*
X89651Y-67850D01*
X89651Y-67860D01*
X89652Y-67867D01*
X89654Y-67873D01*
X89657Y-67877D01*
X89661Y-67882D01*
X89666Y-67886D01*
X89673Y-67891D01*
X89677Y-67894D01*
X89685Y-67900D01*
X89692Y-67906D01*
X89698Y-67912D01*
X89701Y-67914D01*
X89712Y-67926D01*
X89722Y-67941D01*
X89732Y-67958D01*
X89740Y-67976D01*
X89744Y-67988D01*
X89748Y-68003D01*
X89749Y-68020D01*
X89749Y-68037D01*
X89747Y-68054D01*
X89744Y-68065D01*
X89736Y-68086D01*
X89725Y-68106D01*
X89711Y-68124D01*
X89695Y-68139D01*
X89677Y-68150D01*
X89666Y-68155D01*
X89647Y-68161D01*
X89626Y-68165D01*
X89603Y-68166D01*
X89581Y-68165D01*
X89575Y-68164D01*
X89557Y-68160D01*
X89538Y-68153D01*
X89521Y-68145D01*
X89513Y-68140D01*
X89500Y-68130D01*
X89487Y-68118D01*
X89475Y-68104D01*
X89464Y-68090D01*
X89458Y-68079D01*
X89452Y-68066D01*
X89448Y-68055D01*
X89445Y-68043D01*
X89444Y-68030D01*
X89444Y-68019D01*
X89444Y-67996D01*
X89452Y-67996D01*
X89459Y-67996D01*
X89459Y-68016D01*
X89460Y-68031D01*
X89463Y-68043D01*
X89468Y-68054D01*
X89475Y-68065D01*
X89479Y-68070D01*
X89493Y-68083D01*
X89509Y-68092D01*
X89523Y-68097D01*
X89527Y-68098D01*
X89531Y-68099D01*
X89535Y-68100D01*
X89542Y-68100D01*
X89549Y-68101D01*
X89560Y-68101D01*
X89572Y-68101D01*
X89588Y-68101D01*
X89603Y-68101D01*
X89622Y-68101D01*
X89638Y-68101D01*
X89650Y-68101D01*
X89660Y-68100D01*
X89668Y-68100D01*
X89674Y-68099D01*
X89679Y-68099D01*
X89683Y-68098D01*
X89685Y-68097D01*
X89702Y-68092D01*
X89716Y-68085D01*
X89726Y-68076D01*
X89733Y-68065D01*
X89737Y-68052D01*
X89738Y-68042D01*
X89736Y-68028D01*
X89732Y-68016D01*
X89724Y-68006D01*
X89712Y-67998D01*
X89709Y-67996D01*
X89703Y-67994D01*
X89698Y-67992D01*
X89692Y-67991D01*
X89685Y-67991D01*
X89675Y-67991D01*
X89660Y-67992D01*
X89646Y-67994D01*
X89633Y-67998D01*
X89621Y-68003D01*
X89608Y-68012D01*
X89595Y-68022D01*
X89580Y-68036D01*
X89574Y-68041D01*
X89565Y-68050D01*
X89559Y-68055D01*
X89555Y-68059D01*
X89552Y-68060D01*
X89551Y-68059D01*
X89549Y-68057D01*
X89545Y-68053D01*
X89539Y-68046D01*
X89530Y-68037D01*
X89521Y-68026D01*
X89510Y-68014D01*
X89498Y-68000D01*
X89486Y-67987D01*
X89424Y-67918D01*
X89428Y-67913D01*
X89431Y-67907D01*
X89453Y-67931D01*
X89476Y-67955D01*
X89476Y-67863D01*
X89476Y-67772D01*
X89461Y-67772D01*
X89446Y-67773D01*
X89435Y-67776D01*
X89426Y-67782D01*
X89419Y-67791D01*
X89414Y-67800D01*
X89409Y-67811D01*
X89408Y-67898D01*
X89408Y-67920D01*
X89408Y-67938D01*
X89407Y-67953D01*
X89407Y-67965D01*
X89406Y-67975D01*
X89405Y-67983D01*
X89404Y-67988D01*
X89403Y-67993D01*
X89401Y-67997D01*
X89399Y-68000D01*
X89397Y-68004D01*
X89394Y-68007D01*
X89393Y-68008D01*
X89389Y-68012D01*
X89384Y-68017D01*
X89376Y-68024D01*
X89368Y-68031D01*
X89360Y-68038D01*
X89352Y-68045D01*
X89344Y-68052D01*
X89338Y-68057D01*
X89334Y-68060D01*
X89331Y-68062D01*
X89331Y-68062D01*
X89330Y-68060D01*
X89326Y-68056D01*
X89321Y-68049D01*
X89313Y-68040D01*
X89305Y-68029D01*
X89295Y-68017D01*
X89284Y-68004D01*
X89279Y-67998D01*
X89268Y-67984D01*
X89257Y-67971D01*
X89248Y-67960D01*
X89240Y-67950D01*
X89233Y-67942D01*
X89228Y-67936D01*
X89226Y-67933D01*
X89225Y-67932D01*
X89225Y-67929D01*
X89225Y-68193D01*
X89230Y-68197D01*
X89266Y-68219D01*
X89303Y-68238D01*
X89342Y-68253D01*
X89382Y-68265D01*
X89423Y-68273D01*
X89465Y-68278D01*
X89507Y-68280D01*
X89544Y-68278D01*
X89587Y-68272D01*
X89629Y-68262D01*
X89670Y-68249D01*
X89709Y-68232D01*
X89746Y-68212D01*
X89782Y-68188D01*
X89815Y-68162D01*
X89846Y-68133D01*
X89874Y-68101D01*
X89896Y-68071D01*
X89919Y-68034D01*
X89938Y-67995D01*
X89954Y-67955D01*
X89966Y-67914D01*
X89974Y-67872D01*
X89979Y-67830D01*
X89980Y-67788D01*
X89977Y-67745D01*
X89970Y-67703D01*
X89959Y-67661D01*
X89945Y-67620D01*
X89938Y-67604D01*
X89919Y-67565D01*
X89896Y-67528D01*
X89870Y-67494D01*
X89840Y-67462D01*
X89813Y-67437D01*
X89779Y-67410D01*
X89743Y-67386D01*
X89705Y-67366D01*
X89666Y-67350D01*
X89626Y-67337D01*
X89585Y-67328D01*
X89543Y-67322D01*
X89501Y-67320D01*
X89459Y-67322D01*
X89417Y-67327D01*
X89375Y-67337D01*
X89334Y-67350D01*
X89304Y-67362D01*
X89265Y-67381D01*
X89228Y-67404D01*
X89194Y-67430D01*
X89162Y-67460D01*
X89137Y-67487D01*
X89110Y-67521D01*
X89087Y-67557D01*
X89067Y-67594D01*
X89050Y-67632D01*
X89038Y-67672D01*
X89028Y-67712D01*
X89022Y-67753D01*
X89020Y-67794D01*
X89020Y-67794D01*
X89020Y-67794D01*
G37*
G36*
X89488Y-67813D02*
X89488Y-67838D01*
X89488Y-67855D01*
X89489Y-67942D01*
X89497Y-67936D01*
X89523Y-67918D01*
X89551Y-67904D01*
X89579Y-67894D01*
X89608Y-67887D01*
X89620Y-67886D01*
X89644Y-67883D01*
X89636Y-67879D01*
X89622Y-67875D01*
X89607Y-67870D01*
X89590Y-67867D01*
X89573Y-67864D01*
X89557Y-67863D01*
X89543Y-67863D01*
X89539Y-67863D01*
X89526Y-67864D01*
X89526Y-67745D01*
X89526Y-67625D01*
X89507Y-67610D01*
X89489Y-67594D01*
X89488Y-67681D01*
X89488Y-67704D01*
X89488Y-67730D01*
X89488Y-67757D01*
X89488Y-67785D01*
X89488Y-67813D01*
X89488Y-67813D01*
X89488Y-67813D01*
G37*
G36*
X89394Y-67656D02*
X89395Y-67680D01*
X89399Y-67702D01*
X89405Y-67719D01*
X89414Y-67734D01*
X89425Y-67746D01*
X89429Y-67749D01*
X89439Y-67755D01*
X89450Y-67759D01*
X89462Y-67761D01*
X89469Y-67762D01*
X89476Y-67762D01*
X89476Y-67673D01*
X89475Y-67583D01*
X89466Y-67577D01*
X89461Y-67574D01*
X89455Y-67572D01*
X89449Y-67571D01*
X89445Y-67571D01*
X89434Y-67572D01*
X89425Y-67576D01*
X89417Y-67582D01*
X89415Y-67584D01*
X89406Y-67596D01*
X89400Y-67609D01*
X89396Y-67626D01*
X89394Y-67646D01*
X89394Y-67656D01*
X89394Y-67656D01*
X89394Y-67656D01*
G37*
G36*
X77540Y-67838D02*
X77543Y-67920D01*
X77552Y-68001D01*
X77569Y-68082D01*
X77592Y-68161D01*
X77623Y-68239D01*
X77660Y-68314D01*
X77705Y-68387D01*
X77757Y-68456D01*
X77774Y-68477D01*
X77832Y-68538D01*
X77894Y-68594D01*
X77950Y-68636D01*
X77950Y-68109D01*
X77955Y-68101D01*
X77956Y-68100D01*
X77964Y-68091D01*
X77993Y-68120D01*
X78007Y-68134D01*
X78018Y-68143D01*
X78026Y-68148D01*
X78032Y-68150D01*
X78035Y-68150D01*
X78049Y-68147D01*
X78060Y-68136D01*
X78065Y-68126D01*
X78066Y-68120D01*
X78067Y-68106D01*
X78069Y-68087D01*
X78070Y-68063D01*
X78071Y-68037D01*
X78072Y-68012D01*
X78073Y-67978D01*
X78074Y-67951D01*
X78075Y-67929D01*
X78077Y-67912D01*
X78079Y-67899D01*
X78082Y-67888D01*
X78086Y-67878D01*
X78091Y-67869D01*
X78094Y-67864D01*
X78109Y-67843D01*
X78129Y-67825D01*
X78154Y-67810D01*
X78185Y-67798D01*
X78223Y-67788D01*
X78260Y-67782D01*
X78281Y-67779D01*
X78295Y-67776D01*
X78301Y-67774D01*
X78300Y-67771D01*
X78292Y-67766D01*
X78277Y-67760D01*
X78268Y-67756D01*
X78226Y-67738D01*
X78190Y-67720D01*
X78160Y-67702D01*
X78134Y-67683D01*
X78111Y-67663D01*
X78104Y-67656D01*
X78083Y-67630D01*
X78067Y-67604D01*
X78055Y-67575D01*
X78048Y-67542D01*
X78044Y-67504D01*
X78043Y-67472D01*
X78044Y-67433D01*
X78048Y-67400D01*
X78055Y-67370D01*
X78066Y-67344D01*
X78082Y-67317D01*
X78102Y-67290D01*
X78108Y-67283D01*
X78123Y-67267D01*
X78140Y-67250D01*
X78159Y-67232D01*
X78177Y-67216D01*
X78195Y-67202D01*
X78212Y-67190D01*
X78224Y-67182D01*
X78233Y-67178D01*
X78234Y-67178D01*
X78238Y-67181D01*
X78246Y-67189D01*
X78257Y-67201D01*
X78270Y-67216D01*
X78276Y-67222D01*
X78293Y-67242D01*
X78311Y-67262D01*
X78330Y-67281D01*
X78352Y-67302D01*
X78377Y-67324D01*
X78405Y-67349D01*
X78439Y-67378D01*
X78470Y-67404D01*
X78550Y-67470D01*
X78552Y-67383D01*
X78554Y-67348D01*
X78555Y-67320D01*
X78557Y-67298D01*
X78560Y-67280D01*
X78564Y-67266D01*
X78570Y-67255D01*
X78577Y-67245D01*
X78581Y-67240D01*
X78592Y-67228D01*
X78605Y-67219D01*
X78620Y-67212D01*
X78637Y-67208D01*
X78659Y-67205D01*
X78685Y-67204D01*
X78718Y-67205D01*
X78757Y-67207D01*
X78764Y-67208D01*
X78809Y-67211D01*
X78846Y-67213D01*
X78876Y-67214D01*
X78901Y-67214D01*
X78921Y-67213D01*
X78936Y-67210D01*
X78947Y-67207D01*
X78955Y-67202D01*
X78961Y-67196D01*
X78965Y-67188D01*
X78965Y-67188D01*
X78970Y-67178D01*
X78977Y-67174D01*
X78978Y-67174D01*
X78983Y-67176D01*
X78987Y-67181D01*
X78990Y-67191D01*
X78991Y-67207D01*
X78992Y-67229D01*
X78992Y-67242D01*
X78991Y-67286D01*
X78987Y-67325D01*
X78981Y-67359D01*
X78973Y-67386D01*
X78963Y-67407D01*
X78955Y-67417D01*
X78946Y-67425D01*
X78937Y-67431D01*
X78927Y-67436D01*
X78915Y-67440D01*
X78900Y-67442D01*
X78879Y-67444D01*
X78854Y-67445D01*
X78823Y-67446D01*
X78815Y-67449D01*
X78808Y-67454D01*
X78805Y-67457D01*
X78803Y-67461D01*
X78802Y-67468D01*
X78801Y-67477D01*
X78800Y-67492D01*
X78800Y-67511D01*
X78800Y-67538D01*
X78800Y-67540D01*
X78800Y-67618D01*
X78825Y-67618D01*
X78843Y-67619D01*
X78864Y-67620D01*
X78877Y-67622D01*
X78904Y-67628D01*
X78926Y-67638D01*
X78945Y-67653D01*
X78960Y-67672D01*
X78971Y-67697D01*
X78980Y-67728D01*
X78985Y-67765D01*
X78988Y-67809D01*
X78988Y-67838D01*
X78988Y-67902D01*
X78979Y-67902D01*
X78974Y-67901D01*
X78971Y-67898D01*
X78969Y-67892D01*
X78966Y-67879D01*
X78965Y-67870D01*
X78962Y-67850D01*
X78958Y-67835D01*
X78951Y-67824D01*
X78941Y-67815D01*
X78927Y-67810D01*
X78907Y-67806D01*
X78881Y-67804D01*
X78860Y-67803D01*
X78800Y-67801D01*
X78801Y-67895D01*
X78801Y-67926D01*
X78802Y-67951D01*
X78803Y-67970D01*
X78805Y-67984D01*
X78808Y-67996D01*
X78814Y-68005D01*
X78822Y-68013D01*
X78832Y-68022D01*
X78846Y-68033D01*
X78853Y-68038D01*
X78869Y-68050D01*
X78885Y-68063D01*
X78897Y-68073D01*
X78902Y-68078D01*
X78924Y-68102D01*
X78945Y-68133D01*
X78964Y-68167D01*
X78980Y-68203D01*
X78989Y-68226D01*
X78995Y-68255D01*
X78998Y-68289D01*
X78998Y-68324D01*
X78993Y-68359D01*
X78989Y-68379D01*
X78973Y-68423D01*
X78950Y-68462D01*
X78923Y-68498D01*
X78890Y-68527D01*
X78853Y-68551D01*
X78833Y-68560D01*
X78794Y-68572D01*
X78751Y-68579D01*
X78706Y-68582D01*
X78661Y-68579D01*
X78651Y-68578D01*
X78614Y-68569D01*
X78577Y-68556D01*
X78542Y-68539D01*
X78527Y-68530D01*
X78501Y-68510D01*
X78474Y-68486D01*
X78450Y-68458D01*
X78429Y-68430D01*
X78416Y-68409D01*
X78404Y-68383D01*
X78396Y-68360D01*
X78391Y-68336D01*
X78389Y-68310D01*
X78388Y-68287D01*
X78388Y-68242D01*
X78403Y-68242D01*
X78418Y-68242D01*
X78418Y-68281D01*
X78420Y-68312D01*
X78426Y-68337D01*
X78435Y-68359D01*
X78450Y-68380D01*
X78459Y-68390D01*
X78487Y-68415D01*
X78518Y-68434D01*
X78546Y-68445D01*
X78553Y-68447D01*
X78561Y-68448D01*
X78571Y-68450D01*
X78583Y-68450D01*
X78599Y-68451D01*
X78619Y-68452D01*
X78645Y-68452D01*
X78676Y-68452D01*
X78706Y-68452D01*
X78744Y-68452D01*
X78775Y-68452D01*
X78800Y-68451D01*
X78820Y-68451D01*
X78836Y-68450D01*
X78848Y-68449D01*
X78858Y-68447D01*
X78867Y-68446D01*
X78869Y-68445D01*
X78904Y-68434D01*
X78932Y-68419D01*
X78953Y-68401D01*
X78967Y-68380D01*
X78974Y-68354D01*
X78976Y-68334D01*
X78973Y-68306D01*
X78963Y-68282D01*
X78947Y-68262D01*
X78924Y-68246D01*
X78917Y-68243D01*
X78906Y-68238D01*
X78896Y-68235D01*
X78884Y-68233D01*
X78869Y-68232D01*
X78850Y-68232D01*
X78820Y-68233D01*
X78792Y-68237D01*
X78767Y-68245D01*
X78742Y-68257D01*
X78716Y-68273D01*
X78689Y-68294D01*
X78659Y-68322D01*
X78648Y-68333D01*
X78631Y-68349D01*
X78618Y-68361D01*
X78610Y-68367D01*
X78604Y-68370D01*
X78602Y-68369D01*
X78598Y-68365D01*
X78590Y-68356D01*
X78577Y-68342D01*
X78561Y-68324D01*
X78542Y-68302D01*
X78520Y-68277D01*
X78496Y-68250D01*
X78473Y-68225D01*
X78348Y-68085D01*
X78355Y-68075D01*
X78362Y-68065D01*
X78407Y-68112D01*
X78452Y-68160D01*
X78452Y-67977D01*
X78452Y-67794D01*
X78421Y-67794D01*
X78393Y-67796D01*
X78371Y-67803D01*
X78353Y-67814D01*
X78338Y-67832D01*
X78329Y-67850D01*
X78318Y-67872D01*
X78316Y-68046D01*
X78316Y-68090D01*
X78315Y-68126D01*
X78314Y-68156D01*
X78314Y-68180D01*
X78313Y-68200D01*
X78311Y-68215D01*
X78309Y-68227D01*
X78306Y-68236D01*
X78303Y-68244D01*
X78299Y-68251D01*
X78293Y-68257D01*
X78287Y-68264D01*
X78286Y-68266D01*
X78278Y-68273D01*
X78267Y-68284D01*
X78253Y-68297D01*
X78237Y-68311D01*
X78220Y-68326D01*
X78204Y-68340D01*
X78189Y-68353D01*
X78176Y-68364D01*
X78167Y-68371D01*
X78163Y-68374D01*
X78163Y-68374D01*
X78160Y-68370D01*
X78153Y-68361D01*
X78141Y-68348D01*
X78127Y-68330D01*
X78109Y-68308D01*
X78089Y-68284D01*
X78067Y-68257D01*
X78058Y-68246D01*
X78036Y-68219D01*
X78015Y-68193D01*
X77996Y-68170D01*
X77979Y-68150D01*
X77966Y-68134D01*
X77957Y-68122D01*
X77952Y-68116D01*
X77951Y-68115D01*
X77950Y-68109D01*
X77950Y-68636D01*
X77960Y-68644D01*
X78032Y-68688D01*
X78106Y-68725D01*
X78183Y-68756D01*
X78264Y-68780D01*
X78347Y-68797D01*
X78430Y-68807D01*
X78514Y-68810D01*
X78588Y-68806D01*
X78674Y-68794D01*
X78758Y-68774D01*
X78839Y-68747D01*
X78918Y-68714D01*
X78993Y-68673D01*
X79064Y-68627D01*
X79130Y-68574D01*
X79192Y-68515D01*
X79248Y-68451D01*
X79291Y-68393D01*
X79338Y-68317D01*
X79377Y-68240D01*
X79408Y-68159D01*
X79432Y-68077D01*
X79449Y-67994D01*
X79458Y-67910D01*
X79460Y-67825D01*
X79454Y-67740D01*
X79440Y-67656D01*
X79419Y-67572D01*
X79389Y-67490D01*
X79376Y-67458D01*
X79337Y-67380D01*
X79291Y-67307D01*
X79239Y-67238D01*
X79181Y-67174D01*
X79127Y-67124D01*
X79058Y-67070D01*
X78986Y-67023D01*
X78910Y-66983D01*
X78832Y-66950D01*
X78752Y-66924D01*
X78670Y-66905D01*
X78587Y-66894D01*
X78503Y-66890D01*
X78419Y-66894D01*
X78334Y-66905D01*
X78251Y-66923D01*
X78168Y-66950D01*
X78108Y-66974D01*
X78030Y-67013D01*
X77957Y-67059D01*
X77888Y-67111D01*
X77824Y-67169D01*
X77774Y-67223D01*
X77720Y-67292D01*
X77673Y-67363D01*
X77633Y-67438D01*
X77601Y-67515D01*
X77575Y-67594D01*
X77557Y-67674D01*
X77545Y-67756D01*
X77540Y-67838D01*
X77540Y-67838D01*
X77540Y-67838D01*
G37*
G36*
X78477Y-67875D02*
X78477Y-67926D01*
X78477Y-67960D01*
X78478Y-68133D01*
X78494Y-68121D01*
X78547Y-68086D01*
X78602Y-68058D01*
X78658Y-68037D01*
X78716Y-68024D01*
X78740Y-68021D01*
X78789Y-68016D01*
X78771Y-68009D01*
X78745Y-67999D01*
X78713Y-67991D01*
X78679Y-67983D01*
X78645Y-67978D01*
X78613Y-67976D01*
X78585Y-67975D01*
X78577Y-67976D01*
X78552Y-67979D01*
X78552Y-67739D01*
X78552Y-67500D01*
X78515Y-67469D01*
X78478Y-67439D01*
X78477Y-67612D01*
X78477Y-67658D01*
X78477Y-67710D01*
X78477Y-67765D01*
X78477Y-67821D01*
X78477Y-67875D01*
X78477Y-67875D01*
X78477Y-67875D01*
G37*
G36*
X78288Y-67563D02*
X78290Y-67611D01*
X78298Y-67653D01*
X78310Y-67689D01*
X78327Y-67719D01*
X78350Y-67742D01*
X78359Y-67749D01*
X78378Y-67759D01*
X78401Y-67767D01*
X78424Y-67773D01*
X78439Y-67774D01*
X78452Y-67774D01*
X78451Y-67595D01*
X78450Y-67416D01*
X78433Y-67404D01*
X78421Y-67397D01*
X78411Y-67393D01*
X78398Y-67392D01*
X78391Y-67392D01*
X78368Y-67394D01*
X78350Y-67401D01*
X78334Y-67414D01*
X78329Y-67419D01*
X78313Y-67441D01*
X78300Y-67469D01*
X78292Y-67502D01*
X78289Y-67542D01*
X78288Y-67563D01*
X78288Y-67563D01*
X78288Y-67563D01*
G37*
M02*
