G04 (created by PCBNEW (2013-07-07 BZR 4022)-stable) date 1/7/2015 2:01:18 PM*
%MOIN*%
G04 Gerber Fmt 3.4, Leading zero omitted, Abs format*
%FSLAX34Y34*%
G01*
G70*
G90*
G04 APERTURE LIST*
%ADD10C,0.00590551*%
%ADD11C,0.01*%
%ADD12C,0.0075*%
%ADD13C,0.008*%
%ADD14C,0.012*%
%ADD15C,0.0001*%
G04 APERTURE END LIST*
G54D10*
G54D11*
X76690Y-59761D02*
X76690Y-59361D01*
X76823Y-59647D01*
X76957Y-59361D01*
X76957Y-59761D01*
X77128Y-59742D02*
X77185Y-59761D01*
X77280Y-59761D01*
X77319Y-59742D01*
X77338Y-59723D01*
X77357Y-59685D01*
X77357Y-59647D01*
X77338Y-59609D01*
X77319Y-59590D01*
X77280Y-59571D01*
X77204Y-59552D01*
X77166Y-59533D01*
X77147Y-59514D01*
X77128Y-59476D01*
X77128Y-59438D01*
X77147Y-59400D01*
X77166Y-59380D01*
X77204Y-59361D01*
X77300Y-59361D01*
X77357Y-59380D01*
X77738Y-59380D02*
X77700Y-59361D01*
X77642Y-59361D01*
X77585Y-59380D01*
X77547Y-59419D01*
X77528Y-59457D01*
X77509Y-59533D01*
X77509Y-59590D01*
X77528Y-59666D01*
X77547Y-59704D01*
X77585Y-59742D01*
X77642Y-59761D01*
X77680Y-59761D01*
X77738Y-59742D01*
X77757Y-59723D01*
X77757Y-59590D01*
X77680Y-59590D01*
X77928Y-59552D02*
X78061Y-59552D01*
X78119Y-59761D02*
X77928Y-59761D01*
X77928Y-59361D01*
X78119Y-59361D01*
X78557Y-59800D02*
X78519Y-59780D01*
X78480Y-59742D01*
X78423Y-59685D01*
X78385Y-59666D01*
X78347Y-59666D01*
X78366Y-59761D02*
X78328Y-59742D01*
X78290Y-59704D01*
X78271Y-59628D01*
X78271Y-59495D01*
X78290Y-59419D01*
X78328Y-59380D01*
X78366Y-59361D01*
X78442Y-59361D01*
X78480Y-59380D01*
X78519Y-59419D01*
X78538Y-59495D01*
X78538Y-59628D01*
X78519Y-59704D01*
X78480Y-59742D01*
X78442Y-59761D01*
X78366Y-59761D01*
X78671Y-59361D02*
X78938Y-59361D01*
X78766Y-59761D01*
X79528Y-59552D02*
X79585Y-59571D01*
X79604Y-59590D01*
X79623Y-59628D01*
X79623Y-59685D01*
X79604Y-59723D01*
X79585Y-59742D01*
X79547Y-59761D01*
X79395Y-59761D01*
X79395Y-59361D01*
X79528Y-59361D01*
X79566Y-59380D01*
X79585Y-59400D01*
X79604Y-59438D01*
X79604Y-59476D01*
X79585Y-59514D01*
X79566Y-59533D01*
X79528Y-59552D01*
X79395Y-59552D01*
X80023Y-59761D02*
X79890Y-59571D01*
X79795Y-59761D02*
X79795Y-59361D01*
X79947Y-59361D01*
X79985Y-59380D01*
X80004Y-59400D01*
X80023Y-59438D01*
X80023Y-59495D01*
X80004Y-59533D01*
X79985Y-59552D01*
X79947Y-59571D01*
X79795Y-59571D01*
X80195Y-59552D02*
X80328Y-59552D01*
X80385Y-59761D02*
X80195Y-59761D01*
X80195Y-59361D01*
X80385Y-59361D01*
X80538Y-59647D02*
X80728Y-59647D01*
X80500Y-59761D02*
X80633Y-59361D01*
X80766Y-59761D01*
X80900Y-59761D02*
X80900Y-59361D01*
X81128Y-59761D02*
X80957Y-59533D01*
X81128Y-59361D02*
X80900Y-59590D01*
X81376Y-59361D02*
X81452Y-59361D01*
X81490Y-59380D01*
X81528Y-59419D01*
X81547Y-59495D01*
X81547Y-59628D01*
X81528Y-59704D01*
X81490Y-59742D01*
X81452Y-59761D01*
X81376Y-59761D01*
X81338Y-59742D01*
X81300Y-59704D01*
X81280Y-59628D01*
X81280Y-59495D01*
X81300Y-59419D01*
X81338Y-59380D01*
X81376Y-59361D01*
X81719Y-59361D02*
X81719Y-59685D01*
X81738Y-59723D01*
X81757Y-59742D01*
X81795Y-59761D01*
X81871Y-59761D01*
X81909Y-59742D01*
X81928Y-59723D01*
X81947Y-59685D01*
X81947Y-59361D01*
X82080Y-59361D02*
X82309Y-59361D01*
X82195Y-59761D02*
X82195Y-59361D01*
X82880Y-59552D02*
X82938Y-59571D01*
X82957Y-59590D01*
X82976Y-59628D01*
X82976Y-59685D01*
X82957Y-59723D01*
X82938Y-59742D01*
X82900Y-59761D01*
X82747Y-59761D01*
X82747Y-59361D01*
X82880Y-59361D01*
X82919Y-59380D01*
X82938Y-59400D01*
X82957Y-59438D01*
X82957Y-59476D01*
X82938Y-59514D01*
X82919Y-59533D01*
X82880Y-59552D01*
X82747Y-59552D01*
X83223Y-59361D02*
X83300Y-59361D01*
X83338Y-59380D01*
X83376Y-59419D01*
X83395Y-59495D01*
X83395Y-59628D01*
X83376Y-59704D01*
X83338Y-59742D01*
X83300Y-59761D01*
X83223Y-59761D01*
X83185Y-59742D01*
X83147Y-59704D01*
X83128Y-59628D01*
X83128Y-59495D01*
X83147Y-59419D01*
X83185Y-59380D01*
X83223Y-59361D01*
X83547Y-59647D02*
X83738Y-59647D01*
X83509Y-59761D02*
X83642Y-59361D01*
X83776Y-59761D01*
X84138Y-59761D02*
X84004Y-59571D01*
X83909Y-59761D02*
X83909Y-59361D01*
X84061Y-59361D01*
X84100Y-59380D01*
X84119Y-59400D01*
X84138Y-59438D01*
X84138Y-59495D01*
X84119Y-59533D01*
X84100Y-59552D01*
X84061Y-59571D01*
X83909Y-59571D01*
X84309Y-59761D02*
X84309Y-59361D01*
X84404Y-59361D01*
X84461Y-59380D01*
X84500Y-59419D01*
X84519Y-59457D01*
X84538Y-59533D01*
X84538Y-59590D01*
X84519Y-59666D01*
X84500Y-59704D01*
X84461Y-59742D01*
X84404Y-59761D01*
X84309Y-59761D01*
X85014Y-59761D02*
X85014Y-59361D01*
X85166Y-59361D01*
X85204Y-59380D01*
X85223Y-59400D01*
X85242Y-59438D01*
X85242Y-59495D01*
X85223Y-59533D01*
X85204Y-59552D01*
X85166Y-59571D01*
X85014Y-59571D01*
X85414Y-59761D02*
X85414Y-59495D01*
X85414Y-59571D02*
X85433Y-59533D01*
X85452Y-59514D01*
X85490Y-59495D01*
X85528Y-59495D01*
X85719Y-59761D02*
X85680Y-59742D01*
X85661Y-59723D01*
X85642Y-59685D01*
X85642Y-59571D01*
X85661Y-59533D01*
X85680Y-59514D01*
X85719Y-59495D01*
X85776Y-59495D01*
X85814Y-59514D01*
X85833Y-59533D01*
X85852Y-59571D01*
X85852Y-59685D01*
X85833Y-59723D01*
X85814Y-59742D01*
X85776Y-59761D01*
X85719Y-59761D01*
X85966Y-59495D02*
X86119Y-59495D01*
X86023Y-59361D02*
X86023Y-59704D01*
X86042Y-59742D01*
X86080Y-59761D01*
X86119Y-59761D01*
X86309Y-59761D02*
X86271Y-59742D01*
X86252Y-59723D01*
X86233Y-59685D01*
X86233Y-59571D01*
X86252Y-59533D01*
X86271Y-59514D01*
X86309Y-59495D01*
X86366Y-59495D01*
X86404Y-59514D01*
X86423Y-59533D01*
X86442Y-59571D01*
X86442Y-59685D01*
X86423Y-59723D01*
X86404Y-59742D01*
X86366Y-59761D01*
X86309Y-59761D01*
X86557Y-59495D02*
X86709Y-59495D01*
X86614Y-59361D02*
X86614Y-59704D01*
X86633Y-59742D01*
X86671Y-59761D01*
X86709Y-59761D01*
X86804Y-59495D02*
X86900Y-59761D01*
X86995Y-59495D02*
X86900Y-59761D01*
X86861Y-59857D01*
X86842Y-59876D01*
X86804Y-59895D01*
X87147Y-59495D02*
X87147Y-59895D01*
X87147Y-59514D02*
X87185Y-59495D01*
X87261Y-59495D01*
X87299Y-59514D01*
X87319Y-59533D01*
X87338Y-59571D01*
X87338Y-59685D01*
X87319Y-59723D01*
X87299Y-59742D01*
X87261Y-59761D01*
X87185Y-59761D01*
X87147Y-59742D01*
X87661Y-59742D02*
X87623Y-59761D01*
X87547Y-59761D01*
X87509Y-59742D01*
X87490Y-59704D01*
X87490Y-59552D01*
X87509Y-59514D01*
X87547Y-59495D01*
X87623Y-59495D01*
X87661Y-59514D01*
X87680Y-59552D01*
X87680Y-59590D01*
X87490Y-59628D01*
X88233Y-59361D02*
X88271Y-59361D01*
X88309Y-59380D01*
X88328Y-59400D01*
X88347Y-59438D01*
X88366Y-59514D01*
X88366Y-59609D01*
X88347Y-59685D01*
X88328Y-59723D01*
X88309Y-59742D01*
X88271Y-59761D01*
X88233Y-59761D01*
X88195Y-59742D01*
X88176Y-59723D01*
X88157Y-59685D01*
X88138Y-59609D01*
X88138Y-59514D01*
X88157Y-59438D01*
X88176Y-59400D01*
X88195Y-59380D01*
X88233Y-59361D01*
X88499Y-59361D02*
X88766Y-59361D01*
X88595Y-59761D01*
X88919Y-59609D02*
X89223Y-59609D01*
X89528Y-59361D02*
X89528Y-59647D01*
X89509Y-59704D01*
X89471Y-59742D01*
X89414Y-59761D01*
X89376Y-59761D01*
X89699Y-59647D02*
X89890Y-59647D01*
X89661Y-59761D02*
X89795Y-59361D01*
X89928Y-59761D01*
X90061Y-59761D02*
X90061Y-59361D01*
X90290Y-59761D01*
X90290Y-59361D01*
X90480Y-59609D02*
X90785Y-59609D01*
X90957Y-59400D02*
X90976Y-59380D01*
X91014Y-59361D01*
X91109Y-59361D01*
X91147Y-59380D01*
X91166Y-59400D01*
X91185Y-59438D01*
X91185Y-59476D01*
X91166Y-59533D01*
X90938Y-59761D01*
X91185Y-59761D01*
X91433Y-59361D02*
X91471Y-59361D01*
X91509Y-59380D01*
X91528Y-59400D01*
X91547Y-59438D01*
X91566Y-59514D01*
X91566Y-59609D01*
X91547Y-59685D01*
X91528Y-59723D01*
X91509Y-59742D01*
X91471Y-59761D01*
X91433Y-59761D01*
X91395Y-59742D01*
X91376Y-59723D01*
X91357Y-59685D01*
X91338Y-59609D01*
X91338Y-59514D01*
X91357Y-59438D01*
X91376Y-59400D01*
X91395Y-59380D01*
X91433Y-59361D01*
X91947Y-59761D02*
X91719Y-59761D01*
X91833Y-59761D02*
X91833Y-59361D01*
X91795Y-59419D01*
X91757Y-59457D01*
X91719Y-59476D01*
X92309Y-59361D02*
X92119Y-59361D01*
X92099Y-59552D01*
X92119Y-59533D01*
X92157Y-59514D01*
X92252Y-59514D01*
X92290Y-59533D01*
X92309Y-59552D01*
X92328Y-59590D01*
X92328Y-59685D01*
X92309Y-59723D01*
X92290Y-59742D01*
X92252Y-59761D01*
X92157Y-59761D01*
X92119Y-59742D01*
X92099Y-59723D01*
G54D12*
X77092Y-65871D02*
X76950Y-65871D01*
X76935Y-66014D01*
X76950Y-66000D01*
X76978Y-65985D01*
X77050Y-65985D01*
X77078Y-66000D01*
X77092Y-66014D01*
X77107Y-66042D01*
X77107Y-66114D01*
X77092Y-66142D01*
X77078Y-66157D01*
X77050Y-66171D01*
X76978Y-66171D01*
X76950Y-66157D01*
X76935Y-66142D01*
X77192Y-65871D02*
X77292Y-66171D01*
X77392Y-65871D01*
X76950Y-64821D02*
X77007Y-64821D01*
X77035Y-64835D01*
X77064Y-64864D01*
X77078Y-64921D01*
X77078Y-65021D01*
X77064Y-65078D01*
X77035Y-65107D01*
X77007Y-65121D01*
X76950Y-65121D01*
X76921Y-65107D01*
X76892Y-65078D01*
X76878Y-65021D01*
X76878Y-64921D01*
X76892Y-64864D01*
X76921Y-64835D01*
X76950Y-64821D01*
X77207Y-64821D02*
X77207Y-65064D01*
X77221Y-65092D01*
X77235Y-65107D01*
X77264Y-65121D01*
X77321Y-65121D01*
X77350Y-65107D01*
X77364Y-65092D01*
X77378Y-65064D01*
X77378Y-64821D01*
X77478Y-64821D02*
X77650Y-64821D01*
X77564Y-65121D02*
X77564Y-64821D01*
X76900Y-64157D02*
X76942Y-64171D01*
X77014Y-64171D01*
X77042Y-64157D01*
X77057Y-64142D01*
X77071Y-64114D01*
X77071Y-64085D01*
X77057Y-64057D01*
X77042Y-64042D01*
X77014Y-64028D01*
X76957Y-64014D01*
X76928Y-64000D01*
X76914Y-63985D01*
X76900Y-63957D01*
X76900Y-63928D01*
X76914Y-63900D01*
X76928Y-63885D01*
X76957Y-63871D01*
X77028Y-63871D01*
X77071Y-63885D01*
X77157Y-63871D02*
X77328Y-63871D01*
X77242Y-64171D02*
X77242Y-63871D01*
X77600Y-64171D02*
X77500Y-64028D01*
X77428Y-64171D02*
X77428Y-63871D01*
X77542Y-63871D01*
X77571Y-63885D01*
X77585Y-63900D01*
X77600Y-63928D01*
X77600Y-63971D01*
X77585Y-64000D01*
X77571Y-64014D01*
X77542Y-64028D01*
X77428Y-64028D01*
X77085Y-63171D02*
X76985Y-63028D01*
X76914Y-63171D02*
X76914Y-62871D01*
X77028Y-62871D01*
X77057Y-62885D01*
X77071Y-62900D01*
X77085Y-62928D01*
X77085Y-62971D01*
X77071Y-63000D01*
X77057Y-63014D01*
X77028Y-63028D01*
X76914Y-63028D01*
X77200Y-63157D02*
X77242Y-63171D01*
X77314Y-63171D01*
X77342Y-63157D01*
X77357Y-63142D01*
X77371Y-63114D01*
X77371Y-63085D01*
X77357Y-63057D01*
X77342Y-63042D01*
X77314Y-63028D01*
X77257Y-63014D01*
X77228Y-63000D01*
X77214Y-62985D01*
X77200Y-62957D01*
X77200Y-62928D01*
X77214Y-62900D01*
X77228Y-62885D01*
X77257Y-62871D01*
X77328Y-62871D01*
X77371Y-62885D01*
X77457Y-62871D02*
X77628Y-62871D01*
X77542Y-63171D02*
X77542Y-62871D01*
X77071Y-61885D02*
X77042Y-61871D01*
X77000Y-61871D01*
X76957Y-61885D01*
X76928Y-61914D01*
X76914Y-61942D01*
X76900Y-62000D01*
X76900Y-62042D01*
X76914Y-62100D01*
X76928Y-62128D01*
X76957Y-62157D01*
X77000Y-62171D01*
X77028Y-62171D01*
X77071Y-62157D01*
X77085Y-62142D01*
X77085Y-62042D01*
X77028Y-62042D01*
X77214Y-62171D02*
X77214Y-61871D01*
X77385Y-62171D01*
X77385Y-61871D01*
X77528Y-62171D02*
X77528Y-61871D01*
X77600Y-61871D01*
X77642Y-61885D01*
X77671Y-61914D01*
X77685Y-61942D01*
X77700Y-62000D01*
X77700Y-62042D01*
X77685Y-62100D01*
X77671Y-62128D01*
X77642Y-62157D01*
X77600Y-62171D01*
X77528Y-62171D01*
G54D13*
X78500Y-62500D02*
X78500Y-62700D01*
X78500Y-65500D02*
X78500Y-65300D01*
X78500Y-65300D02*
X78900Y-65300D01*
X78900Y-65300D02*
X78900Y-62700D01*
X78900Y-62700D02*
X78100Y-62700D01*
X78100Y-62700D02*
X78100Y-65300D01*
X78100Y-65300D02*
X78500Y-65300D01*
X78700Y-62700D02*
X78900Y-62900D01*
X84500Y-60500D02*
X84700Y-60500D01*
X87500Y-60500D02*
X87300Y-60500D01*
X87300Y-60500D02*
X87300Y-60100D01*
X87300Y-60100D02*
X84700Y-60100D01*
X84700Y-60100D02*
X84700Y-60900D01*
X84700Y-60900D02*
X87300Y-60900D01*
X87300Y-60900D02*
X87300Y-60500D01*
X84700Y-60300D02*
X84900Y-60100D01*
X84500Y-67500D02*
X84700Y-67500D01*
X87500Y-67500D02*
X87300Y-67500D01*
X87300Y-67500D02*
X87300Y-67100D01*
X87300Y-67100D02*
X84700Y-67100D01*
X84700Y-67100D02*
X84700Y-67900D01*
X84700Y-67900D02*
X87300Y-67900D01*
X87300Y-67900D02*
X87300Y-67500D01*
X84700Y-67300D02*
X84900Y-67100D01*
G54D11*
X79500Y-63500D02*
X80000Y-63500D01*
X80000Y-63500D02*
X80000Y-64500D01*
X80000Y-64500D02*
X79500Y-64500D01*
X79500Y-63000D02*
X83500Y-63000D01*
X83500Y-63000D02*
X83500Y-65000D01*
X83500Y-65000D02*
X79500Y-65000D01*
X79500Y-65000D02*
X79500Y-63000D01*
G54D14*
X82400Y-67900D02*
X79600Y-67900D01*
X79600Y-67900D02*
X79600Y-67100D01*
X79600Y-67100D02*
X82400Y-67100D01*
X82400Y-67100D02*
X82400Y-67900D01*
X82400Y-67700D02*
X82200Y-67900D01*
X79600Y-60100D02*
X82400Y-60100D01*
X82400Y-60100D02*
X82400Y-60900D01*
X82400Y-60900D02*
X79600Y-60900D01*
X79600Y-60900D02*
X79600Y-60100D01*
X79600Y-60300D02*
X79800Y-60100D01*
X85400Y-62600D02*
X85400Y-65400D01*
X85400Y-65400D02*
X84600Y-65400D01*
X84600Y-65400D02*
X84600Y-62600D01*
X84600Y-62600D02*
X85400Y-62600D01*
X85200Y-62600D02*
X85400Y-62800D01*
X86600Y-65400D02*
X86600Y-62600D01*
X86600Y-62600D02*
X87400Y-62600D01*
X87400Y-62600D02*
X87400Y-65400D01*
X87400Y-65400D02*
X86600Y-65400D01*
X86800Y-65400D02*
X86600Y-65200D01*
X76750Y-66500D02*
X75750Y-66500D01*
X75750Y-66500D02*
X75750Y-61500D01*
X75750Y-61500D02*
X76750Y-61500D01*
X76750Y-61500D02*
X76750Y-66500D01*
X76750Y-65500D02*
X75750Y-65500D01*
G54D15*
G36*
X79200Y-67634D02*
X79197Y-67737D01*
X79185Y-67839D01*
X79164Y-67940D01*
X79135Y-68039D01*
X79097Y-68136D01*
X79050Y-68230D01*
X78994Y-68321D01*
X78929Y-68408D01*
X78908Y-68433D01*
X78836Y-68511D01*
X78758Y-68580D01*
X78688Y-68632D01*
X78688Y-67974D01*
X78681Y-67964D01*
X78680Y-67963D01*
X78669Y-67951D01*
X78633Y-67988D01*
X78616Y-68006D01*
X78603Y-68017D01*
X78593Y-68023D01*
X78584Y-68025D01*
X78581Y-68025D01*
X78564Y-68021D01*
X78550Y-68007D01*
X78544Y-67995D01*
X78542Y-67987D01*
X78541Y-67970D01*
X78539Y-67946D01*
X78537Y-67917D01*
X78536Y-67883D01*
X78535Y-67853D01*
X78534Y-67810D01*
X78532Y-67776D01*
X78531Y-67749D01*
X78529Y-67728D01*
X78526Y-67711D01*
X78522Y-67697D01*
X78517Y-67685D01*
X78511Y-67674D01*
X78508Y-67668D01*
X78489Y-67641D01*
X78464Y-67619D01*
X78432Y-67600D01*
X78393Y-67585D01*
X78347Y-67573D01*
X78300Y-67565D01*
X78273Y-67561D01*
X78256Y-67558D01*
X78248Y-67555D01*
X78250Y-67551D01*
X78260Y-67545D01*
X78279Y-67537D01*
X78290Y-67533D01*
X78343Y-67510D01*
X78387Y-67488D01*
X78425Y-67465D01*
X78458Y-67442D01*
X78486Y-67416D01*
X78494Y-67407D01*
X78521Y-67375D01*
X78541Y-67342D01*
X78556Y-67306D01*
X78565Y-67265D01*
X78570Y-67218D01*
X78571Y-67177D01*
X78570Y-67128D01*
X78565Y-67087D01*
X78556Y-67050D01*
X78543Y-67017D01*
X78523Y-66984D01*
X78497Y-66950D01*
X78489Y-66941D01*
X78471Y-66921D01*
X78450Y-66900D01*
X78427Y-66878D01*
X78403Y-66858D01*
X78381Y-66840D01*
X78361Y-66825D01*
X78344Y-66814D01*
X78334Y-66810D01*
X78332Y-66810D01*
X78328Y-66814D01*
X78318Y-66823D01*
X78304Y-66838D01*
X78287Y-66857D01*
X78280Y-66865D01*
X78259Y-66890D01*
X78236Y-66914D01*
X78212Y-66939D01*
X78185Y-66964D01*
X78154Y-66993D01*
X78119Y-67024D01*
X78077Y-67059D01*
X78038Y-67092D01*
X77937Y-67175D01*
X77934Y-67066D01*
X77933Y-67023D01*
X77931Y-66988D01*
X77928Y-66960D01*
X77924Y-66938D01*
X77919Y-66920D01*
X77913Y-66906D01*
X77904Y-66893D01*
X77899Y-66887D01*
X77885Y-66873D01*
X77869Y-66861D01*
X77851Y-66853D01*
X77829Y-66847D01*
X77801Y-66844D01*
X77768Y-66843D01*
X77728Y-66844D01*
X77679Y-66847D01*
X77670Y-66847D01*
X77614Y-66851D01*
X77568Y-66853D01*
X77529Y-66855D01*
X77498Y-66855D01*
X77474Y-66853D01*
X77455Y-66850D01*
X77441Y-66846D01*
X77431Y-66840D01*
X77424Y-66832D01*
X77419Y-66823D01*
X77419Y-66822D01*
X77412Y-66809D01*
X77403Y-66805D01*
X77402Y-66805D01*
X77396Y-66807D01*
X77391Y-66814D01*
X77388Y-66826D01*
X77386Y-66846D01*
X77385Y-66874D01*
X77385Y-66890D01*
X77387Y-66945D01*
X77391Y-66994D01*
X77399Y-67036D01*
X77409Y-67070D01*
X77421Y-67096D01*
X77431Y-67109D01*
X77442Y-67119D01*
X77454Y-67127D01*
X77466Y-67133D01*
X77481Y-67137D01*
X77500Y-67140D01*
X77526Y-67142D01*
X77558Y-67144D01*
X77596Y-67145D01*
X77606Y-67148D01*
X77615Y-67155D01*
X77618Y-67159D01*
X77621Y-67164D01*
X77623Y-67172D01*
X77624Y-67184D01*
X77625Y-67202D01*
X77625Y-67227D01*
X77625Y-67260D01*
X77625Y-67263D01*
X77625Y-67360D01*
X77594Y-67360D01*
X77571Y-67361D01*
X77545Y-67363D01*
X77529Y-67365D01*
X77495Y-67373D01*
X77467Y-67385D01*
X77444Y-67403D01*
X77425Y-67428D01*
X77411Y-67459D01*
X77400Y-67497D01*
X77394Y-67544D01*
X77391Y-67599D01*
X77390Y-67636D01*
X77390Y-67715D01*
X77402Y-67715D01*
X77407Y-67714D01*
X77411Y-67711D01*
X77414Y-67702D01*
X77417Y-67687D01*
X77418Y-67675D01*
X77422Y-67650D01*
X77428Y-67631D01*
X77436Y-67617D01*
X77449Y-67607D01*
X77467Y-67600D01*
X77491Y-67596D01*
X77523Y-67593D01*
X77551Y-67591D01*
X77626Y-67588D01*
X77624Y-67706D01*
X77623Y-67746D01*
X77623Y-67776D01*
X77622Y-67800D01*
X77619Y-67818D01*
X77614Y-67832D01*
X77608Y-67844D01*
X77598Y-67854D01*
X77585Y-67865D01*
X77568Y-67878D01*
X77559Y-67885D01*
X77538Y-67901D01*
X77519Y-67916D01*
X77504Y-67929D01*
X77497Y-67935D01*
X77470Y-67965D01*
X77444Y-68003D01*
X77420Y-68046D01*
X77400Y-68091D01*
X77389Y-68120D01*
X77381Y-68157D01*
X77377Y-68199D01*
X77378Y-68243D01*
X77383Y-68286D01*
X77389Y-68312D01*
X77409Y-68366D01*
X77437Y-68416D01*
X77472Y-68459D01*
X77512Y-68496D01*
X77559Y-68526D01*
X77584Y-68538D01*
X77632Y-68553D01*
X77686Y-68562D01*
X77742Y-68565D01*
X77799Y-68561D01*
X77811Y-68559D01*
X77857Y-68549D01*
X77904Y-68532D01*
X77948Y-68511D01*
X77966Y-68500D01*
X77999Y-68475D01*
X78032Y-68445D01*
X78063Y-68411D01*
X78089Y-68376D01*
X78105Y-68349D01*
X78120Y-68316D01*
X78130Y-68287D01*
X78136Y-68258D01*
X78139Y-68225D01*
X78140Y-68196D01*
X78140Y-68140D01*
X78121Y-68140D01*
X78102Y-68140D01*
X78102Y-68189D01*
X78100Y-68227D01*
X78093Y-68259D01*
X78081Y-68286D01*
X78063Y-68312D01*
X78052Y-68325D01*
X78017Y-68357D01*
X77977Y-68380D01*
X77943Y-68393D01*
X77933Y-68396D01*
X77923Y-68398D01*
X77911Y-68399D01*
X77896Y-68401D01*
X77876Y-68401D01*
X77851Y-68402D01*
X77819Y-68402D01*
X77779Y-68402D01*
X77742Y-68402D01*
X77695Y-68402D01*
X77656Y-68402D01*
X77625Y-68402D01*
X77600Y-68401D01*
X77581Y-68400D01*
X77565Y-68399D01*
X77553Y-68397D01*
X77542Y-68394D01*
X77539Y-68394D01*
X77495Y-68379D01*
X77460Y-68361D01*
X77434Y-68339D01*
X77416Y-68312D01*
X77407Y-68280D01*
X77405Y-68255D01*
X77409Y-68219D01*
X77421Y-68190D01*
X77441Y-68165D01*
X77469Y-68146D01*
X77479Y-68141D01*
X77493Y-68135D01*
X77505Y-68131D01*
X77520Y-68129D01*
X77538Y-68128D01*
X77562Y-68128D01*
X77600Y-68129D01*
X77635Y-68134D01*
X77667Y-68144D01*
X77698Y-68158D01*
X77729Y-68179D01*
X77763Y-68206D01*
X77801Y-68240D01*
X77815Y-68253D01*
X77836Y-68274D01*
X77852Y-68288D01*
X77863Y-68297D01*
X77869Y-68300D01*
X77873Y-68299D01*
X77877Y-68294D01*
X77888Y-68282D01*
X77904Y-68265D01*
X77924Y-68242D01*
X77948Y-68215D01*
X77975Y-68184D01*
X78005Y-68151D01*
X78034Y-68118D01*
X78190Y-67944D01*
X78181Y-67931D01*
X78173Y-67918D01*
X78116Y-67978D01*
X78060Y-68037D01*
X78060Y-67809D01*
X78060Y-67580D01*
X78099Y-67580D01*
X78134Y-67583D01*
X78162Y-67591D01*
X78184Y-67605D01*
X78202Y-67628D01*
X78214Y-67650D01*
X78228Y-67677D01*
X78230Y-67895D01*
X78231Y-67950D01*
X78231Y-67995D01*
X78232Y-68033D01*
X78233Y-68063D01*
X78234Y-68087D01*
X78236Y-68106D01*
X78239Y-68121D01*
X78242Y-68133D01*
X78246Y-68143D01*
X78252Y-68151D01*
X78258Y-68159D01*
X78266Y-68168D01*
X78268Y-68170D01*
X78277Y-68179D01*
X78291Y-68192D01*
X78309Y-68209D01*
X78329Y-68227D01*
X78350Y-68245D01*
X78370Y-68263D01*
X78389Y-68279D01*
X78405Y-68292D01*
X78416Y-68301D01*
X78422Y-68304D01*
X78422Y-68304D01*
X78425Y-68300D01*
X78434Y-68289D01*
X78448Y-68272D01*
X78467Y-68250D01*
X78489Y-68223D01*
X78513Y-68192D01*
X78541Y-68159D01*
X78552Y-68145D01*
X78581Y-68111D01*
X78607Y-68079D01*
X78630Y-68050D01*
X78651Y-68025D01*
X78667Y-68004D01*
X78679Y-67990D01*
X78686Y-67982D01*
X78686Y-67981D01*
X78688Y-67974D01*
X78688Y-68632D01*
X78674Y-68642D01*
X78585Y-68698D01*
X78493Y-68744D01*
X78396Y-68782D01*
X78295Y-68812D01*
X78192Y-68834D01*
X78087Y-68846D01*
X77983Y-68850D01*
X77890Y-68845D01*
X77782Y-68829D01*
X77677Y-68805D01*
X77576Y-68772D01*
X77478Y-68730D01*
X77384Y-68679D01*
X77295Y-68621D01*
X77212Y-68555D01*
X77135Y-68482D01*
X77065Y-68402D01*
X77011Y-68328D01*
X76953Y-68234D01*
X76904Y-68137D01*
X76865Y-68037D01*
X76835Y-67934D01*
X76814Y-67830D01*
X76802Y-67725D01*
X76800Y-67619D01*
X76808Y-67513D01*
X76825Y-67407D01*
X76852Y-67303D01*
X76888Y-67200D01*
X76905Y-67160D01*
X76954Y-67063D01*
X77011Y-66971D01*
X77076Y-66885D01*
X77149Y-66804D01*
X77217Y-66742D01*
X77302Y-66675D01*
X77393Y-66616D01*
X77487Y-66566D01*
X77584Y-66525D01*
X77685Y-66492D01*
X77787Y-66469D01*
X77891Y-66455D01*
X77996Y-66450D01*
X78102Y-66455D01*
X78207Y-66468D01*
X78311Y-66492D01*
X78414Y-66524D01*
X78490Y-66555D01*
X78587Y-66604D01*
X78679Y-66661D01*
X78765Y-66726D01*
X78846Y-66799D01*
X78908Y-66867D01*
X78975Y-66952D01*
X79034Y-67042D01*
X79083Y-67135D01*
X79124Y-67231D01*
X79156Y-67330D01*
X79179Y-67430D01*
X79194Y-67532D01*
X79200Y-67634D01*
X79200Y-67634D01*
X79200Y-67634D01*
G37*
G36*
X78029Y-67681D02*
X78029Y-67745D01*
X78029Y-67787D01*
X78027Y-68004D01*
X78008Y-67989D01*
X77941Y-67945D01*
X77873Y-67910D01*
X77802Y-67884D01*
X77730Y-67868D01*
X77700Y-67864D01*
X77639Y-67858D01*
X77661Y-67849D01*
X77694Y-67836D01*
X77734Y-67826D01*
X77776Y-67817D01*
X77819Y-67811D01*
X77859Y-67807D01*
X77893Y-67807D01*
X77904Y-67808D01*
X77935Y-67811D01*
X77935Y-67512D01*
X77935Y-67212D01*
X77982Y-67174D01*
X78027Y-67136D01*
X78029Y-67353D01*
X78029Y-67410D01*
X78029Y-67475D01*
X78029Y-67544D01*
X78029Y-67613D01*
X78029Y-67681D01*
X78029Y-67681D01*
X78029Y-67681D01*
G37*
G36*
X78265Y-67291D02*
X78262Y-67351D01*
X78253Y-67404D01*
X78237Y-67449D01*
X78216Y-67486D01*
X78188Y-67515D01*
X78176Y-67524D01*
X78153Y-67536D01*
X78124Y-67547D01*
X78095Y-67553D01*
X78076Y-67555D01*
X78060Y-67555D01*
X78061Y-67331D01*
X78063Y-67108D01*
X78084Y-67093D01*
X78098Y-67084D01*
X78111Y-67079D01*
X78128Y-67078D01*
X78137Y-67078D01*
X78165Y-67081D01*
X78187Y-67089D01*
X78207Y-67105D01*
X78213Y-67111D01*
X78234Y-67139D01*
X78249Y-67174D01*
X78260Y-67215D01*
X78264Y-67265D01*
X78265Y-67291D01*
X78265Y-67291D01*
X78265Y-67291D01*
G37*
G54D10*
X92496Y-65771D02*
X92771Y-65771D01*
X92377Y-66480D02*
X92496Y-66480D01*
X92496Y-65771D02*
X92496Y-66480D01*
X92496Y-62228D02*
X92771Y-62228D01*
X92377Y-61519D02*
X92496Y-61519D01*
X92496Y-61519D02*
X92496Y-62228D01*
X88047Y-61519D02*
X92377Y-61519D01*
X88047Y-66480D02*
X92377Y-66480D01*
X88047Y-66480D02*
X88047Y-61519D01*
X92771Y-62228D02*
X92771Y-63212D01*
X92771Y-65771D02*
X92771Y-64787D01*
X92771Y-64787D02*
X92299Y-64787D01*
X92299Y-64787D02*
X92299Y-63212D01*
X92299Y-63212D02*
X92771Y-63212D01*
G54D11*
X78433Y-61861D02*
X78300Y-61671D01*
X78204Y-61861D02*
X78204Y-61461D01*
X78357Y-61461D01*
X78395Y-61480D01*
X78414Y-61500D01*
X78433Y-61538D01*
X78433Y-61595D01*
X78414Y-61633D01*
X78395Y-61652D01*
X78357Y-61671D01*
X78204Y-61671D01*
X78814Y-61861D02*
X78585Y-61861D01*
X78700Y-61861D02*
X78700Y-61461D01*
X78661Y-61519D01*
X78623Y-61557D01*
X78585Y-61576D01*
X88383Y-60661D02*
X88250Y-60471D01*
X88154Y-60661D02*
X88154Y-60261D01*
X88307Y-60261D01*
X88345Y-60280D01*
X88364Y-60300D01*
X88383Y-60338D01*
X88383Y-60395D01*
X88364Y-60433D01*
X88345Y-60452D01*
X88307Y-60471D01*
X88154Y-60471D01*
X88535Y-60300D02*
X88554Y-60280D01*
X88592Y-60261D01*
X88688Y-60261D01*
X88726Y-60280D01*
X88745Y-60300D01*
X88764Y-60338D01*
X88764Y-60376D01*
X88745Y-60433D01*
X88516Y-60661D01*
X88764Y-60661D01*
X88333Y-67661D02*
X88200Y-67471D01*
X88104Y-67661D02*
X88104Y-67261D01*
X88257Y-67261D01*
X88295Y-67280D01*
X88314Y-67300D01*
X88333Y-67338D01*
X88333Y-67395D01*
X88314Y-67433D01*
X88295Y-67452D01*
X88257Y-67471D01*
X88104Y-67471D01*
X88466Y-67261D02*
X88714Y-67261D01*
X88580Y-67414D01*
X88638Y-67414D01*
X88676Y-67433D01*
X88695Y-67452D01*
X88714Y-67490D01*
X88714Y-67585D01*
X88695Y-67623D01*
X88676Y-67642D01*
X88638Y-67661D01*
X88523Y-67661D01*
X88485Y-67642D01*
X88466Y-67623D01*
G54D13*
X83695Y-63761D02*
X83695Y-64085D01*
X83714Y-64123D01*
X83733Y-64142D01*
X83771Y-64161D01*
X83847Y-64161D01*
X83885Y-64142D01*
X83904Y-64123D01*
X83923Y-64085D01*
X83923Y-63761D01*
X84323Y-64161D02*
X84095Y-64161D01*
X84209Y-64161D02*
X84209Y-63761D01*
X84171Y-63819D01*
X84133Y-63857D01*
X84095Y-63876D01*
G54D11*
X82933Y-67623D02*
X82914Y-67642D01*
X82857Y-67661D01*
X82819Y-67661D01*
X82761Y-67642D01*
X82723Y-67604D01*
X82704Y-67566D01*
X82685Y-67490D01*
X82685Y-67433D01*
X82704Y-67357D01*
X82723Y-67319D01*
X82761Y-67280D01*
X82819Y-67261D01*
X82857Y-67261D01*
X82914Y-67280D01*
X82933Y-67300D01*
X83314Y-67661D02*
X83085Y-67661D01*
X83200Y-67661D02*
X83200Y-67261D01*
X83161Y-67319D01*
X83123Y-67357D01*
X83085Y-67376D01*
X82933Y-60623D02*
X82914Y-60642D01*
X82857Y-60661D01*
X82819Y-60661D01*
X82761Y-60642D01*
X82723Y-60604D01*
X82704Y-60566D01*
X82685Y-60490D01*
X82685Y-60433D01*
X82704Y-60357D01*
X82723Y-60319D01*
X82761Y-60280D01*
X82819Y-60261D01*
X82857Y-60261D01*
X82914Y-60280D01*
X82933Y-60300D01*
X83066Y-60261D02*
X83314Y-60261D01*
X83180Y-60414D01*
X83238Y-60414D01*
X83276Y-60433D01*
X83295Y-60452D01*
X83314Y-60490D01*
X83314Y-60585D01*
X83295Y-60623D01*
X83276Y-60642D01*
X83238Y-60661D01*
X83123Y-60661D01*
X83085Y-60642D01*
X83066Y-60623D01*
X84933Y-66123D02*
X84914Y-66142D01*
X84857Y-66161D01*
X84819Y-66161D01*
X84761Y-66142D01*
X84723Y-66104D01*
X84704Y-66066D01*
X84685Y-65990D01*
X84685Y-65933D01*
X84704Y-65857D01*
X84723Y-65819D01*
X84761Y-65780D01*
X84819Y-65761D01*
X84857Y-65761D01*
X84914Y-65780D01*
X84933Y-65800D01*
X85276Y-65895D02*
X85276Y-66161D01*
X85180Y-65742D02*
X85085Y-66028D01*
X85333Y-66028D01*
X86933Y-66123D02*
X86914Y-66142D01*
X86857Y-66161D01*
X86819Y-66161D01*
X86761Y-66142D01*
X86723Y-66104D01*
X86704Y-66066D01*
X86685Y-65990D01*
X86685Y-65933D01*
X86704Y-65857D01*
X86723Y-65819D01*
X86761Y-65780D01*
X86819Y-65761D01*
X86857Y-65761D01*
X86914Y-65780D01*
X86933Y-65800D01*
X87085Y-65800D02*
X87104Y-65780D01*
X87142Y-65761D01*
X87238Y-65761D01*
X87276Y-65780D01*
X87295Y-65800D01*
X87314Y-65838D01*
X87314Y-65876D01*
X87295Y-65933D01*
X87066Y-66161D01*
X87314Y-66161D01*
X76116Y-60811D02*
X76116Y-61097D01*
X76097Y-61154D01*
X76059Y-61192D01*
X76002Y-61211D01*
X75964Y-61211D01*
X76516Y-61211D02*
X76288Y-61211D01*
X76402Y-61211D02*
X76402Y-60811D01*
X76364Y-60869D01*
X76326Y-60907D01*
X76288Y-60926D01*
X92116Y-66761D02*
X92116Y-67047D01*
X92097Y-67104D01*
X92059Y-67142D01*
X92002Y-67161D01*
X91964Y-67161D01*
X92288Y-66800D02*
X92307Y-66780D01*
X92345Y-66761D01*
X92440Y-66761D01*
X92478Y-66780D01*
X92497Y-66800D01*
X92516Y-66838D01*
X92516Y-66876D01*
X92497Y-66933D01*
X92269Y-67161D01*
X92516Y-67161D01*
M02*
