G04 (created by PCBNEW (2013-07-07 BZR 4022)-stable) date 1/7/2015 9:28:31 AM*
%MOIN*%
G04 Gerber Fmt 3.4, Leading zero omitted, Abs format*
%FSLAX34Y34*%
G01*
G70*
G90*
G04 APERTURE LIST*
%ADD10C,0.00590551*%
%ADD11C,0.0001*%
%ADD12C,0.055*%
%ADD13R,0.055X0.055*%
%ADD14C,0.153543*%
%ADD15C,0.0492126*%
%ADD16C,0.01*%
G04 APERTURE END LIST*
G54D10*
G54D11*
G36*
X75540Y-67838D02*
X75543Y-67920D01*
X75552Y-68001D01*
X75569Y-68082D01*
X75592Y-68161D01*
X75623Y-68239D01*
X75660Y-68314D01*
X75705Y-68387D01*
X75757Y-68456D01*
X75774Y-68477D01*
X75832Y-68538D01*
X75894Y-68594D01*
X75950Y-68636D01*
X75950Y-68109D01*
X75955Y-68101D01*
X75956Y-68100D01*
X75964Y-68091D01*
X75993Y-68120D01*
X76007Y-68134D01*
X76018Y-68143D01*
X76026Y-68148D01*
X76032Y-68150D01*
X76035Y-68150D01*
X76049Y-68147D01*
X76060Y-68136D01*
X76065Y-68126D01*
X76066Y-68120D01*
X76067Y-68106D01*
X76069Y-68087D01*
X76070Y-68063D01*
X76071Y-68037D01*
X76072Y-68012D01*
X76073Y-67978D01*
X76074Y-67951D01*
X76075Y-67929D01*
X76077Y-67912D01*
X76079Y-67899D01*
X76082Y-67888D01*
X76086Y-67878D01*
X76091Y-67869D01*
X76094Y-67864D01*
X76109Y-67843D01*
X76129Y-67825D01*
X76154Y-67810D01*
X76185Y-67798D01*
X76223Y-67788D01*
X76260Y-67782D01*
X76281Y-67779D01*
X76295Y-67776D01*
X76301Y-67774D01*
X76300Y-67771D01*
X76292Y-67766D01*
X76277Y-67760D01*
X76268Y-67756D01*
X76226Y-67738D01*
X76190Y-67720D01*
X76160Y-67702D01*
X76134Y-67683D01*
X76111Y-67663D01*
X76104Y-67656D01*
X76083Y-67630D01*
X76067Y-67604D01*
X76055Y-67575D01*
X76048Y-67542D01*
X76044Y-67504D01*
X76043Y-67472D01*
X76044Y-67433D01*
X76048Y-67400D01*
X76055Y-67370D01*
X76066Y-67344D01*
X76082Y-67317D01*
X76102Y-67290D01*
X76108Y-67283D01*
X76123Y-67267D01*
X76140Y-67250D01*
X76159Y-67232D01*
X76177Y-67216D01*
X76195Y-67202D01*
X76212Y-67190D01*
X76224Y-67182D01*
X76233Y-67178D01*
X76234Y-67178D01*
X76238Y-67181D01*
X76246Y-67189D01*
X76257Y-67201D01*
X76270Y-67216D01*
X76276Y-67222D01*
X76293Y-67242D01*
X76311Y-67262D01*
X76330Y-67281D01*
X76352Y-67302D01*
X76377Y-67324D01*
X76405Y-67349D01*
X76439Y-67378D01*
X76470Y-67404D01*
X76550Y-67470D01*
X76552Y-67383D01*
X76554Y-67348D01*
X76555Y-67320D01*
X76557Y-67298D01*
X76560Y-67280D01*
X76564Y-67266D01*
X76570Y-67255D01*
X76577Y-67245D01*
X76581Y-67240D01*
X76592Y-67228D01*
X76605Y-67219D01*
X76620Y-67212D01*
X76637Y-67208D01*
X76659Y-67205D01*
X76685Y-67204D01*
X76718Y-67205D01*
X76757Y-67207D01*
X76764Y-67208D01*
X76809Y-67211D01*
X76846Y-67213D01*
X76876Y-67214D01*
X76901Y-67214D01*
X76921Y-67213D01*
X76936Y-67210D01*
X76947Y-67207D01*
X76955Y-67202D01*
X76961Y-67196D01*
X76965Y-67188D01*
X76965Y-67188D01*
X76970Y-67178D01*
X76977Y-67174D01*
X76978Y-67174D01*
X76983Y-67176D01*
X76987Y-67181D01*
X76990Y-67191D01*
X76991Y-67207D01*
X76992Y-67229D01*
X76992Y-67242D01*
X76991Y-67286D01*
X76987Y-67325D01*
X76981Y-67359D01*
X76973Y-67386D01*
X76963Y-67407D01*
X76955Y-67417D01*
X76946Y-67425D01*
X76937Y-67431D01*
X76927Y-67436D01*
X76915Y-67440D01*
X76900Y-67442D01*
X76879Y-67444D01*
X76854Y-67445D01*
X76823Y-67446D01*
X76815Y-67449D01*
X76808Y-67454D01*
X76805Y-67457D01*
X76803Y-67461D01*
X76802Y-67468D01*
X76801Y-67477D01*
X76800Y-67492D01*
X76800Y-67511D01*
X76800Y-67538D01*
X76800Y-67540D01*
X76800Y-67618D01*
X76825Y-67618D01*
X76843Y-67619D01*
X76864Y-67620D01*
X76877Y-67622D01*
X76904Y-67628D01*
X76926Y-67638D01*
X76945Y-67653D01*
X76960Y-67672D01*
X76971Y-67697D01*
X76980Y-67728D01*
X76985Y-67765D01*
X76988Y-67809D01*
X76988Y-67838D01*
X76988Y-67902D01*
X76979Y-67902D01*
X76974Y-67901D01*
X76971Y-67898D01*
X76969Y-67892D01*
X76966Y-67879D01*
X76965Y-67870D01*
X76962Y-67850D01*
X76958Y-67835D01*
X76951Y-67824D01*
X76941Y-67815D01*
X76927Y-67810D01*
X76907Y-67806D01*
X76881Y-67804D01*
X76860Y-67803D01*
X76800Y-67801D01*
X76801Y-67895D01*
X76801Y-67926D01*
X76802Y-67951D01*
X76803Y-67970D01*
X76805Y-67984D01*
X76808Y-67996D01*
X76814Y-68005D01*
X76822Y-68013D01*
X76832Y-68022D01*
X76846Y-68033D01*
X76853Y-68038D01*
X76869Y-68050D01*
X76885Y-68063D01*
X76897Y-68073D01*
X76902Y-68078D01*
X76924Y-68102D01*
X76945Y-68133D01*
X76964Y-68167D01*
X76980Y-68203D01*
X76989Y-68226D01*
X76995Y-68255D01*
X76998Y-68289D01*
X76998Y-68324D01*
X76993Y-68359D01*
X76989Y-68379D01*
X76973Y-68423D01*
X76950Y-68462D01*
X76923Y-68498D01*
X76890Y-68527D01*
X76853Y-68551D01*
X76833Y-68560D01*
X76794Y-68572D01*
X76751Y-68579D01*
X76706Y-68582D01*
X76661Y-68579D01*
X76651Y-68578D01*
X76614Y-68569D01*
X76577Y-68556D01*
X76542Y-68539D01*
X76527Y-68530D01*
X76501Y-68510D01*
X76474Y-68486D01*
X76450Y-68458D01*
X76429Y-68430D01*
X76416Y-68409D01*
X76404Y-68383D01*
X76396Y-68360D01*
X76391Y-68336D01*
X76389Y-68310D01*
X76388Y-68287D01*
X76388Y-68242D01*
X76403Y-68242D01*
X76418Y-68242D01*
X76418Y-68281D01*
X76420Y-68312D01*
X76426Y-68337D01*
X76435Y-68359D01*
X76450Y-68380D01*
X76459Y-68390D01*
X76487Y-68415D01*
X76518Y-68434D01*
X76546Y-68445D01*
X76553Y-68447D01*
X76561Y-68448D01*
X76571Y-68450D01*
X76583Y-68450D01*
X76599Y-68451D01*
X76619Y-68452D01*
X76645Y-68452D01*
X76676Y-68452D01*
X76706Y-68452D01*
X76744Y-68452D01*
X76775Y-68452D01*
X76800Y-68451D01*
X76820Y-68451D01*
X76836Y-68450D01*
X76848Y-68449D01*
X76858Y-68447D01*
X76867Y-68446D01*
X76869Y-68445D01*
X76904Y-68434D01*
X76932Y-68419D01*
X76953Y-68401D01*
X76967Y-68380D01*
X76974Y-68354D01*
X76976Y-68334D01*
X76973Y-68306D01*
X76963Y-68282D01*
X76947Y-68262D01*
X76924Y-68246D01*
X76917Y-68243D01*
X76906Y-68238D01*
X76896Y-68235D01*
X76884Y-68233D01*
X76869Y-68232D01*
X76850Y-68232D01*
X76820Y-68233D01*
X76792Y-68237D01*
X76767Y-68245D01*
X76742Y-68257D01*
X76716Y-68273D01*
X76689Y-68294D01*
X76659Y-68322D01*
X76648Y-68333D01*
X76631Y-68349D01*
X76618Y-68361D01*
X76610Y-68367D01*
X76604Y-68370D01*
X76602Y-68369D01*
X76598Y-68365D01*
X76590Y-68356D01*
X76577Y-68342D01*
X76561Y-68324D01*
X76542Y-68302D01*
X76520Y-68277D01*
X76496Y-68250D01*
X76473Y-68225D01*
X76348Y-68085D01*
X76355Y-68075D01*
X76362Y-68065D01*
X76407Y-68112D01*
X76452Y-68160D01*
X76452Y-67977D01*
X76452Y-67794D01*
X76421Y-67794D01*
X76393Y-67796D01*
X76371Y-67803D01*
X76353Y-67814D01*
X76338Y-67832D01*
X76329Y-67850D01*
X76318Y-67872D01*
X76316Y-68046D01*
X76316Y-68090D01*
X76315Y-68126D01*
X76314Y-68156D01*
X76314Y-68180D01*
X76313Y-68200D01*
X76311Y-68215D01*
X76309Y-68227D01*
X76306Y-68236D01*
X76303Y-68244D01*
X76299Y-68251D01*
X76293Y-68257D01*
X76287Y-68264D01*
X76286Y-68266D01*
X76278Y-68273D01*
X76267Y-68284D01*
X76253Y-68297D01*
X76237Y-68311D01*
X76220Y-68326D01*
X76204Y-68340D01*
X76189Y-68353D01*
X76176Y-68364D01*
X76167Y-68371D01*
X76163Y-68374D01*
X76163Y-68374D01*
X76160Y-68370D01*
X76153Y-68361D01*
X76141Y-68348D01*
X76127Y-68330D01*
X76109Y-68308D01*
X76089Y-68284D01*
X76067Y-68257D01*
X76058Y-68246D01*
X76036Y-68219D01*
X76015Y-68193D01*
X75996Y-68170D01*
X75979Y-68150D01*
X75966Y-68134D01*
X75957Y-68122D01*
X75952Y-68116D01*
X75951Y-68115D01*
X75950Y-68109D01*
X75950Y-68636D01*
X75960Y-68644D01*
X76032Y-68688D01*
X76106Y-68725D01*
X76183Y-68756D01*
X76264Y-68780D01*
X76347Y-68797D01*
X76430Y-68807D01*
X76514Y-68810D01*
X76588Y-68806D01*
X76674Y-68794D01*
X76758Y-68774D01*
X76839Y-68747D01*
X76918Y-68714D01*
X76993Y-68673D01*
X77064Y-68627D01*
X77130Y-68574D01*
X77192Y-68515D01*
X77248Y-68451D01*
X77291Y-68393D01*
X77338Y-68317D01*
X77377Y-68240D01*
X77408Y-68159D01*
X77432Y-68077D01*
X77449Y-67994D01*
X77458Y-67910D01*
X77460Y-67825D01*
X77454Y-67740D01*
X77440Y-67656D01*
X77419Y-67572D01*
X77389Y-67490D01*
X77376Y-67458D01*
X77337Y-67380D01*
X77291Y-67307D01*
X77239Y-67238D01*
X77181Y-67174D01*
X77127Y-67124D01*
X77058Y-67070D01*
X76986Y-67023D01*
X76910Y-66983D01*
X76832Y-66950D01*
X76752Y-66924D01*
X76670Y-66905D01*
X76587Y-66894D01*
X76503Y-66890D01*
X76419Y-66894D01*
X76334Y-66905D01*
X76251Y-66923D01*
X76168Y-66950D01*
X76108Y-66974D01*
X76030Y-67013D01*
X75957Y-67059D01*
X75888Y-67111D01*
X75824Y-67169D01*
X75774Y-67223D01*
X75720Y-67292D01*
X75673Y-67363D01*
X75633Y-67438D01*
X75601Y-67515D01*
X75575Y-67594D01*
X75557Y-67674D01*
X75545Y-67756D01*
X75540Y-67838D01*
X75540Y-67838D01*
X75540Y-67838D01*
G37*
G36*
X76477Y-67875D02*
X76477Y-67926D01*
X76477Y-67960D01*
X76478Y-68133D01*
X76494Y-68121D01*
X76547Y-68086D01*
X76602Y-68058D01*
X76658Y-68037D01*
X76716Y-68024D01*
X76740Y-68021D01*
X76789Y-68016D01*
X76771Y-68009D01*
X76745Y-67999D01*
X76713Y-67991D01*
X76679Y-67983D01*
X76645Y-67978D01*
X76613Y-67976D01*
X76585Y-67975D01*
X76577Y-67976D01*
X76552Y-67979D01*
X76552Y-67739D01*
X76552Y-67500D01*
X76515Y-67469D01*
X76478Y-67439D01*
X76477Y-67612D01*
X76477Y-67658D01*
X76477Y-67710D01*
X76477Y-67765D01*
X76477Y-67821D01*
X76477Y-67875D01*
X76477Y-67875D01*
X76477Y-67875D01*
G37*
G36*
X76288Y-67563D02*
X76290Y-67611D01*
X76298Y-67653D01*
X76310Y-67689D01*
X76327Y-67719D01*
X76350Y-67742D01*
X76359Y-67749D01*
X76378Y-67759D01*
X76401Y-67767D01*
X76424Y-67773D01*
X76439Y-67774D01*
X76452Y-67774D01*
X76451Y-67595D01*
X76450Y-67416D01*
X76433Y-67404D01*
X76421Y-67397D01*
X76411Y-67393D01*
X76398Y-67392D01*
X76391Y-67392D01*
X76368Y-67394D01*
X76350Y-67401D01*
X76334Y-67414D01*
X76329Y-67419D01*
X76313Y-67441D01*
X76300Y-67469D01*
X76292Y-67502D01*
X76289Y-67542D01*
X76288Y-67563D01*
X76288Y-67563D01*
X76288Y-67563D01*
G37*
G36*
X77950Y-68112D02*
X77953Y-68117D01*
X77956Y-68121D01*
X77964Y-68131D01*
X77976Y-68145D01*
X77990Y-68162D01*
X78007Y-68183D01*
X78026Y-68206D01*
X78045Y-68230D01*
X78065Y-68254D01*
X78085Y-68279D01*
X78104Y-68302D01*
X78121Y-68323D01*
X78137Y-68341D01*
X78149Y-68357D01*
X78158Y-68367D01*
X78162Y-68373D01*
X78163Y-68373D01*
X78166Y-68372D01*
X78174Y-68365D01*
X78186Y-68355D01*
X78200Y-68343D01*
X78216Y-68329D01*
X78233Y-68315D01*
X78249Y-68301D01*
X78263Y-68288D01*
X78275Y-68277D01*
X78282Y-68270D01*
X78283Y-68269D01*
X78293Y-68257D01*
X78302Y-68243D01*
X78305Y-68238D01*
X78307Y-68234D01*
X78309Y-68229D01*
X78310Y-68224D01*
X78312Y-68217D01*
X78313Y-68208D01*
X78313Y-68195D01*
X78314Y-68179D01*
X78315Y-68158D01*
X78315Y-68132D01*
X78316Y-68100D01*
X78316Y-68060D01*
X78316Y-68046D01*
X78317Y-68003D01*
X78317Y-67966D01*
X78318Y-67937D01*
X78319Y-67912D01*
X78320Y-67893D01*
X78321Y-67878D01*
X78323Y-67866D01*
X78325Y-67857D01*
X78328Y-67849D01*
X78331Y-67842D01*
X78335Y-67836D01*
X78337Y-67832D01*
X78355Y-67813D01*
X78377Y-67799D01*
X78403Y-67793D01*
X78432Y-67793D01*
X78433Y-67793D01*
X78452Y-67795D01*
X78452Y-67977D01*
X78452Y-68160D01*
X78407Y-68112D01*
X78362Y-68065D01*
X78355Y-68075D01*
X78348Y-68085D01*
X78472Y-68224D01*
X78472Y-67830D01*
X78472Y-67786D01*
X78472Y-67734D01*
X78472Y-67684D01*
X78472Y-67638D01*
X78472Y-67594D01*
X78473Y-67555D01*
X78473Y-67521D01*
X78473Y-67491D01*
X78473Y-67468D01*
X78474Y-67451D01*
X78474Y-67441D01*
X78474Y-67438D01*
X78478Y-67440D01*
X78487Y-67447D01*
X78499Y-67457D01*
X78514Y-67469D01*
X78514Y-67469D01*
X78552Y-67500D01*
X78552Y-67736D01*
X78552Y-67973D01*
X78605Y-67975D01*
X78664Y-67980D01*
X78717Y-67991D01*
X78764Y-68006D01*
X78775Y-68011D01*
X78794Y-68020D01*
X78746Y-68022D01*
X78691Y-68029D01*
X78636Y-68044D01*
X78583Y-68067D01*
X78530Y-68097D01*
X78512Y-68109D01*
X78498Y-68119D01*
X78486Y-68127D01*
X78478Y-68132D01*
X78475Y-68134D01*
X78475Y-68130D01*
X78474Y-68119D01*
X78474Y-68100D01*
X78473Y-68076D01*
X78473Y-68046D01*
X78473Y-68011D01*
X78473Y-67971D01*
X78472Y-67927D01*
X78472Y-67880D01*
X78472Y-67830D01*
X78472Y-68224D01*
X78475Y-68227D01*
X78500Y-68255D01*
X78524Y-68282D01*
X78546Y-68306D01*
X78565Y-68327D01*
X78581Y-68345D01*
X78593Y-68359D01*
X78600Y-68368D01*
X78604Y-68371D01*
X78607Y-68369D01*
X78615Y-68363D01*
X78627Y-68353D01*
X78641Y-68339D01*
X78648Y-68333D01*
X78680Y-68303D01*
X78708Y-68279D01*
X78734Y-68261D01*
X78759Y-68248D01*
X78785Y-68239D01*
X78812Y-68234D01*
X78842Y-68232D01*
X78850Y-68232D01*
X78874Y-68232D01*
X78893Y-68234D01*
X78908Y-68238D01*
X78922Y-68244D01*
X78937Y-68253D01*
X78939Y-68255D01*
X78956Y-68271D01*
X78968Y-68292D01*
X78975Y-68315D01*
X78977Y-68340D01*
X78973Y-68365D01*
X78964Y-68387D01*
X78949Y-68406D01*
X78945Y-68410D01*
X78930Y-68421D01*
X78915Y-68430D01*
X78897Y-68437D01*
X78877Y-68443D01*
X78854Y-68447D01*
X78825Y-68450D01*
X78792Y-68452D01*
X78752Y-68454D01*
X78706Y-68454D01*
X78704Y-68454D01*
X78669Y-68454D01*
X78641Y-68454D01*
X78618Y-68453D01*
X78601Y-68453D01*
X78587Y-68452D01*
X78575Y-68450D01*
X78565Y-68449D01*
X78556Y-68446D01*
X78554Y-68446D01*
X78523Y-68436D01*
X78498Y-68423D01*
X78475Y-68406D01*
X78460Y-68391D01*
X78443Y-68371D01*
X78431Y-68350D01*
X78423Y-68327D01*
X78418Y-68299D01*
X78417Y-68281D01*
X78415Y-68242D01*
X78404Y-68242D01*
X78397Y-68243D01*
X78393Y-68246D01*
X78390Y-68254D01*
X78389Y-68267D01*
X78388Y-68286D01*
X78388Y-68293D01*
X78390Y-68327D01*
X78395Y-68356D01*
X78405Y-68385D01*
X78408Y-68393D01*
X78428Y-68428D01*
X78453Y-68462D01*
X78482Y-68494D01*
X78515Y-68522D01*
X78539Y-68537D01*
X78581Y-68558D01*
X78628Y-68572D01*
X78677Y-68580D01*
X78727Y-68581D01*
X78777Y-68576D01*
X78821Y-68564D01*
X78861Y-68545D01*
X78898Y-68520D01*
X78930Y-68489D01*
X78956Y-68454D01*
X78977Y-68414D01*
X78988Y-68379D01*
X78994Y-68350D01*
X78997Y-68318D01*
X78997Y-68285D01*
X78995Y-68254D01*
X78989Y-68228D01*
X78988Y-68224D01*
X78968Y-68173D01*
X78943Y-68128D01*
X78911Y-68089D01*
X78875Y-68055D01*
X78860Y-68044D01*
X78837Y-68027D01*
X78821Y-68013D01*
X78811Y-67999D01*
X78804Y-67986D01*
X78801Y-67975D01*
X78800Y-67965D01*
X78799Y-67949D01*
X78799Y-67927D01*
X78798Y-67903D01*
X78798Y-67880D01*
X78798Y-67804D01*
X78845Y-67803D01*
X78878Y-67803D01*
X78903Y-67804D01*
X78923Y-67808D01*
X78937Y-67813D01*
X78947Y-67820D01*
X78949Y-67822D01*
X78957Y-67835D01*
X78963Y-67853D01*
X78967Y-67875D01*
X78968Y-67888D01*
X78969Y-67898D01*
X78972Y-67901D01*
X78979Y-67902D01*
X78989Y-67902D01*
X78987Y-67823D01*
X78985Y-67784D01*
X78983Y-67752D01*
X78979Y-67726D01*
X78974Y-67704D01*
X78968Y-67687D01*
X78959Y-67671D01*
X78949Y-67657D01*
X78948Y-67656D01*
X78936Y-67644D01*
X78924Y-67636D01*
X78910Y-67630D01*
X78892Y-67626D01*
X78870Y-67623D01*
X78850Y-67622D01*
X78798Y-67620D01*
X78797Y-67554D01*
X78796Y-67525D01*
X78797Y-67503D01*
X78797Y-67486D01*
X78799Y-67474D01*
X78801Y-67465D01*
X78805Y-67458D01*
X78808Y-67453D01*
X78812Y-67449D01*
X78816Y-67447D01*
X78823Y-67445D01*
X78834Y-67444D01*
X78851Y-67444D01*
X78863Y-67444D01*
X78895Y-67442D01*
X78921Y-67437D01*
X78941Y-67429D01*
X78957Y-67416D01*
X78968Y-67398D01*
X78977Y-67375D01*
X78980Y-67367D01*
X78983Y-67352D01*
X78985Y-67330D01*
X78988Y-67305D01*
X78989Y-67278D01*
X78990Y-67251D01*
X78990Y-67227D01*
X78989Y-67213D01*
X78988Y-67195D01*
X78987Y-67184D01*
X78985Y-67177D01*
X78982Y-67175D01*
X78978Y-67174D01*
X78978Y-67174D01*
X78971Y-67177D01*
X78965Y-67186D01*
X78965Y-67188D01*
X78956Y-67201D01*
X78945Y-67208D01*
X78936Y-67211D01*
X78925Y-67214D01*
X78909Y-67215D01*
X78889Y-67215D01*
X78863Y-67214D01*
X78831Y-67213D01*
X78792Y-67211D01*
X78758Y-67208D01*
X78718Y-67206D01*
X78685Y-67205D01*
X78659Y-67206D01*
X78637Y-67208D01*
X78619Y-67213D01*
X78604Y-67220D01*
X78591Y-67229D01*
X78581Y-67240D01*
X78573Y-67249D01*
X78567Y-67260D01*
X78563Y-67273D01*
X78559Y-67288D01*
X78557Y-67308D01*
X78555Y-67333D01*
X78553Y-67365D01*
X78553Y-67383D01*
X78550Y-67470D01*
X78472Y-67406D01*
X78433Y-67373D01*
X78399Y-67344D01*
X78370Y-67319D01*
X78345Y-67295D01*
X78323Y-67274D01*
X78303Y-67253D01*
X78284Y-67232D01*
X78277Y-67224D01*
X78263Y-67208D01*
X78251Y-67195D01*
X78242Y-67185D01*
X78237Y-67179D01*
X78236Y-67179D01*
X78229Y-67180D01*
X78218Y-67186D01*
X78203Y-67196D01*
X78186Y-67209D01*
X78168Y-67224D01*
X78149Y-67241D01*
X78131Y-67258D01*
X78116Y-67275D01*
X78108Y-67283D01*
X78083Y-67315D01*
X78065Y-67347D01*
X78053Y-67379D01*
X78050Y-67390D01*
X78047Y-67409D01*
X78045Y-67434D01*
X78044Y-67462D01*
X78044Y-67491D01*
X78046Y-67518D01*
X78048Y-67542D01*
X78050Y-67552D01*
X78061Y-67588D01*
X78078Y-67622D01*
X78102Y-67653D01*
X78132Y-67681D01*
X78169Y-67708D01*
X78213Y-67732D01*
X78265Y-67755D01*
X78273Y-67758D01*
X78288Y-67765D01*
X78288Y-67765D01*
X78288Y-67564D01*
X78289Y-67536D01*
X78291Y-67511D01*
X78294Y-67491D01*
X78294Y-67491D01*
X78304Y-67460D01*
X78318Y-67435D01*
X78335Y-67414D01*
X78354Y-67400D01*
X78375Y-67392D01*
X78396Y-67391D01*
X78418Y-67396D01*
X78434Y-67405D01*
X78450Y-67416D01*
X78451Y-67596D01*
X78452Y-67775D01*
X78427Y-67773D01*
X78409Y-67770D01*
X78390Y-67765D01*
X78380Y-67761D01*
X78353Y-67745D01*
X78331Y-67722D01*
X78312Y-67693D01*
X78299Y-67659D01*
X78294Y-67640D01*
X78291Y-67618D01*
X78289Y-67592D01*
X78288Y-67564D01*
X78288Y-67765D01*
X78300Y-67770D01*
X78307Y-67774D01*
X78308Y-67775D01*
X78305Y-67777D01*
X78296Y-67778D01*
X78295Y-67778D01*
X78281Y-67779D01*
X78262Y-67782D01*
X78240Y-67786D01*
X78217Y-67790D01*
X78196Y-67795D01*
X78185Y-67799D01*
X78150Y-67812D01*
X78122Y-67832D01*
X78100Y-67855D01*
X78084Y-67884D01*
X78083Y-67886D01*
X78081Y-67893D01*
X78078Y-67901D01*
X78077Y-67910D01*
X78075Y-67922D01*
X78074Y-67938D01*
X78074Y-67958D01*
X78073Y-67984D01*
X78072Y-68012D01*
X78071Y-68048D01*
X78070Y-68077D01*
X78068Y-68100D01*
X78066Y-68117D01*
X78064Y-68130D01*
X78060Y-68138D01*
X78056Y-68144D01*
X78050Y-68147D01*
X78046Y-68148D01*
X78035Y-68150D01*
X78025Y-68147D01*
X78014Y-68140D01*
X78000Y-68128D01*
X77991Y-68118D01*
X77965Y-68091D01*
X77956Y-68100D01*
X77950Y-68107D01*
X77950Y-68112D01*
X77950Y-68112D01*
X77950Y-68112D01*
G37*
G54D12*
X78500Y-62500D03*
X78500Y-65500D03*
X84500Y-60500D03*
X87500Y-60500D03*
X84500Y-67500D03*
X87500Y-67500D03*
G54D13*
X80000Y-65500D03*
G54D12*
X81000Y-65500D03*
X82000Y-65500D03*
X83000Y-65500D03*
X83000Y-62500D03*
X82000Y-62500D03*
X81000Y-62500D03*
X80000Y-62500D03*
X82000Y-67500D03*
X80000Y-67500D03*
X80000Y-60500D03*
X82000Y-60500D03*
X85000Y-63000D03*
X85000Y-65000D03*
X87000Y-65000D03*
X87000Y-63000D03*
G54D13*
X76250Y-66000D03*
G54D12*
X76250Y-65000D03*
X76250Y-64000D03*
X76250Y-63000D03*
X76250Y-62000D03*
G54D14*
X91000Y-64000D03*
X89031Y-62031D03*
X89031Y-65968D03*
G54D15*
X89031Y-64000D03*
X91000Y-65968D03*
X91000Y-62031D03*
X91984Y-62031D03*
X91984Y-65968D03*
G54D10*
G36*
X92830Y-68830D02*
X92380Y-68830D01*
X92380Y-65890D01*
X92380Y-61953D01*
X92320Y-61807D01*
X92208Y-61695D01*
X92063Y-61635D01*
X91905Y-61635D01*
X91760Y-61695D01*
X91648Y-61806D01*
X91588Y-61952D01*
X91588Y-62109D01*
X91648Y-62255D01*
X91759Y-62367D01*
X91905Y-62427D01*
X92062Y-62427D01*
X92208Y-62367D01*
X92319Y-62256D01*
X92380Y-62110D01*
X92380Y-61953D01*
X92380Y-65890D01*
X92320Y-65744D01*
X92208Y-65632D01*
X92063Y-65572D01*
X92019Y-65572D01*
X92019Y-64193D01*
X92015Y-63788D01*
X91867Y-63431D01*
X91723Y-63346D01*
X91653Y-63417D01*
X91653Y-63276D01*
X91568Y-63132D01*
X91396Y-63062D01*
X91396Y-61953D01*
X91335Y-61807D01*
X91224Y-61695D01*
X91079Y-61635D01*
X90921Y-61635D01*
X90775Y-61695D01*
X90664Y-61806D01*
X90604Y-61952D01*
X90603Y-62109D01*
X90664Y-62255D01*
X90775Y-62367D01*
X90920Y-62427D01*
X91078Y-62427D01*
X91224Y-62367D01*
X91335Y-62256D01*
X91395Y-62110D01*
X91396Y-61953D01*
X91396Y-63062D01*
X91193Y-62980D01*
X90788Y-62984D01*
X90431Y-63132D01*
X90346Y-63276D01*
X91000Y-63929D01*
X91653Y-63276D01*
X91653Y-63417D01*
X91070Y-64000D01*
X91723Y-64653D01*
X91867Y-64568D01*
X92019Y-64193D01*
X92019Y-65572D01*
X91905Y-65572D01*
X91760Y-65632D01*
X91653Y-65739D01*
X91653Y-64723D01*
X91000Y-64070D01*
X90929Y-64141D01*
X90929Y-64000D01*
X90276Y-63346D01*
X90132Y-63431D01*
X89980Y-63806D01*
X89984Y-64211D01*
X90132Y-64568D01*
X90276Y-64653D01*
X90929Y-64000D01*
X90929Y-64141D01*
X90346Y-64723D01*
X90431Y-64867D01*
X90806Y-65019D01*
X91211Y-65015D01*
X91568Y-64867D01*
X91653Y-64723D01*
X91653Y-65739D01*
X91648Y-65743D01*
X91588Y-65889D01*
X91588Y-66046D01*
X91648Y-66192D01*
X91759Y-66304D01*
X91905Y-66364D01*
X92062Y-66364D01*
X92208Y-66304D01*
X92319Y-66193D01*
X92380Y-66047D01*
X92380Y-65890D01*
X92380Y-68830D01*
X91396Y-68830D01*
X91396Y-65890D01*
X91335Y-65744D01*
X91224Y-65632D01*
X91079Y-65572D01*
X90921Y-65572D01*
X90775Y-65632D01*
X90664Y-65743D01*
X90604Y-65889D01*
X90603Y-66046D01*
X90664Y-66192D01*
X90775Y-66304D01*
X90920Y-66364D01*
X91078Y-66364D01*
X91224Y-66304D01*
X91335Y-66193D01*
X91395Y-66047D01*
X91396Y-65890D01*
X91396Y-68830D01*
X89949Y-68830D01*
X89949Y-65786D01*
X89949Y-61849D01*
X89809Y-61512D01*
X89552Y-61253D01*
X89214Y-61113D01*
X88849Y-61113D01*
X88512Y-61253D01*
X88253Y-61510D01*
X88113Y-61848D01*
X88113Y-62213D01*
X88253Y-62550D01*
X88510Y-62809D01*
X88848Y-62949D01*
X89213Y-62949D01*
X89550Y-62809D01*
X89809Y-62552D01*
X89949Y-62214D01*
X89949Y-61849D01*
X89949Y-65786D01*
X89809Y-65449D01*
X89552Y-65190D01*
X89427Y-65139D01*
X89427Y-63921D01*
X89367Y-63775D01*
X89256Y-63664D01*
X89110Y-63604D01*
X88953Y-63603D01*
X88807Y-63664D01*
X88695Y-63775D01*
X88635Y-63920D01*
X88635Y-64078D01*
X88695Y-64224D01*
X88806Y-64335D01*
X88952Y-64395D01*
X89109Y-64396D01*
X89255Y-64335D01*
X89367Y-64224D01*
X89427Y-64079D01*
X89427Y-63921D01*
X89427Y-65139D01*
X89214Y-65050D01*
X88849Y-65050D01*
X88512Y-65190D01*
X88253Y-65447D01*
X88113Y-65785D01*
X88113Y-66150D01*
X88253Y-66487D01*
X88510Y-66746D01*
X88848Y-66886D01*
X89213Y-66886D01*
X89550Y-66746D01*
X89809Y-66489D01*
X89949Y-66151D01*
X89949Y-65786D01*
X89949Y-68830D01*
X87925Y-68830D01*
X87925Y-67415D01*
X87925Y-60415D01*
X87860Y-60259D01*
X87741Y-60139D01*
X87584Y-60075D01*
X87415Y-60074D01*
X87259Y-60139D01*
X87139Y-60258D01*
X87075Y-60415D01*
X87074Y-60584D01*
X87139Y-60740D01*
X87258Y-60860D01*
X87415Y-60924D01*
X87584Y-60925D01*
X87740Y-60860D01*
X87860Y-60741D01*
X87924Y-60584D01*
X87925Y-60415D01*
X87925Y-67415D01*
X87860Y-67259D01*
X87741Y-67139D01*
X87584Y-67075D01*
X87425Y-67074D01*
X87425Y-64915D01*
X87425Y-62915D01*
X87360Y-62759D01*
X87241Y-62639D01*
X87084Y-62575D01*
X86915Y-62574D01*
X86759Y-62639D01*
X86639Y-62758D01*
X86575Y-62915D01*
X86574Y-63084D01*
X86639Y-63240D01*
X86758Y-63360D01*
X86915Y-63424D01*
X87084Y-63425D01*
X87240Y-63360D01*
X87360Y-63241D01*
X87424Y-63084D01*
X87425Y-62915D01*
X87425Y-64915D01*
X87360Y-64759D01*
X87241Y-64639D01*
X87084Y-64575D01*
X86915Y-64574D01*
X86759Y-64639D01*
X86639Y-64758D01*
X86575Y-64915D01*
X86574Y-65084D01*
X86639Y-65240D01*
X86758Y-65360D01*
X86915Y-65424D01*
X87084Y-65425D01*
X87240Y-65360D01*
X87360Y-65241D01*
X87424Y-65084D01*
X87425Y-64915D01*
X87425Y-67074D01*
X87415Y-67074D01*
X87259Y-67139D01*
X87139Y-67258D01*
X87075Y-67415D01*
X87074Y-67584D01*
X87139Y-67740D01*
X87258Y-67860D01*
X87415Y-67924D01*
X87584Y-67925D01*
X87740Y-67860D01*
X87860Y-67741D01*
X87924Y-67584D01*
X87925Y-67415D01*
X87925Y-68830D01*
X85529Y-68830D01*
X85529Y-65075D01*
X85518Y-64867D01*
X85460Y-64727D01*
X85425Y-64717D01*
X85425Y-62915D01*
X85360Y-62759D01*
X85241Y-62639D01*
X85084Y-62575D01*
X84925Y-62574D01*
X84925Y-60415D01*
X84860Y-60259D01*
X84741Y-60139D01*
X84584Y-60075D01*
X84415Y-60074D01*
X84259Y-60139D01*
X84139Y-60258D01*
X84075Y-60415D01*
X84074Y-60584D01*
X84139Y-60740D01*
X84258Y-60860D01*
X84415Y-60924D01*
X84584Y-60925D01*
X84740Y-60860D01*
X84860Y-60741D01*
X84924Y-60584D01*
X84925Y-60415D01*
X84925Y-62574D01*
X84915Y-62574D01*
X84759Y-62639D01*
X84639Y-62758D01*
X84575Y-62915D01*
X84574Y-63084D01*
X84639Y-63240D01*
X84758Y-63360D01*
X84915Y-63424D01*
X85084Y-63425D01*
X85240Y-63360D01*
X85360Y-63241D01*
X85424Y-63084D01*
X85425Y-62915D01*
X85425Y-64717D01*
X85367Y-64702D01*
X85297Y-64773D01*
X85297Y-64632D01*
X85272Y-64539D01*
X85075Y-64470D01*
X84867Y-64481D01*
X84727Y-64539D01*
X84702Y-64632D01*
X85000Y-64929D01*
X85297Y-64632D01*
X85297Y-64773D01*
X85070Y-65000D01*
X85367Y-65297D01*
X85460Y-65272D01*
X85529Y-65075D01*
X85529Y-68830D01*
X85297Y-68830D01*
X85297Y-65367D01*
X85000Y-65070D01*
X84929Y-65141D01*
X84929Y-65000D01*
X84632Y-64702D01*
X84539Y-64727D01*
X84470Y-64924D01*
X84481Y-65132D01*
X84539Y-65272D01*
X84632Y-65297D01*
X84929Y-65000D01*
X84929Y-65141D01*
X84702Y-65367D01*
X84727Y-65460D01*
X84924Y-65529D01*
X85132Y-65518D01*
X85272Y-65460D01*
X85297Y-65367D01*
X85297Y-68830D01*
X84925Y-68830D01*
X84925Y-67415D01*
X84860Y-67259D01*
X84741Y-67139D01*
X84584Y-67075D01*
X84415Y-67074D01*
X84259Y-67139D01*
X84139Y-67258D01*
X84075Y-67415D01*
X84074Y-67584D01*
X84139Y-67740D01*
X84258Y-67860D01*
X84415Y-67924D01*
X84584Y-67925D01*
X84740Y-67860D01*
X84860Y-67741D01*
X84924Y-67584D01*
X84925Y-67415D01*
X84925Y-68830D01*
X83425Y-68830D01*
X83425Y-65415D01*
X83425Y-62415D01*
X83360Y-62259D01*
X83241Y-62139D01*
X83084Y-62075D01*
X82915Y-62074D01*
X82759Y-62139D01*
X82639Y-62258D01*
X82575Y-62415D01*
X82574Y-62584D01*
X82639Y-62740D01*
X82758Y-62860D01*
X82915Y-62924D01*
X83084Y-62925D01*
X83240Y-62860D01*
X83360Y-62741D01*
X83424Y-62584D01*
X83425Y-62415D01*
X83425Y-65415D01*
X83360Y-65259D01*
X83241Y-65139D01*
X83084Y-65075D01*
X82915Y-65074D01*
X82759Y-65139D01*
X82639Y-65258D01*
X82575Y-65415D01*
X82574Y-65584D01*
X82639Y-65740D01*
X82758Y-65860D01*
X82915Y-65924D01*
X83084Y-65925D01*
X83240Y-65860D01*
X83360Y-65741D01*
X83424Y-65584D01*
X83425Y-65415D01*
X83425Y-68830D01*
X82529Y-68830D01*
X82529Y-67575D01*
X82529Y-60575D01*
X82518Y-60367D01*
X82460Y-60227D01*
X82367Y-60202D01*
X82297Y-60273D01*
X82297Y-60132D01*
X82272Y-60039D01*
X82075Y-59970D01*
X81867Y-59981D01*
X81727Y-60039D01*
X81702Y-60132D01*
X82000Y-60429D01*
X82297Y-60132D01*
X82297Y-60273D01*
X82070Y-60500D01*
X82367Y-60797D01*
X82460Y-60772D01*
X82529Y-60575D01*
X82529Y-67575D01*
X82518Y-67367D01*
X82460Y-67227D01*
X82425Y-67217D01*
X82425Y-65415D01*
X82425Y-62415D01*
X82360Y-62259D01*
X82297Y-62196D01*
X82297Y-60867D01*
X82000Y-60570D01*
X81929Y-60641D01*
X81929Y-60500D01*
X81632Y-60202D01*
X81539Y-60227D01*
X81470Y-60424D01*
X81481Y-60632D01*
X81539Y-60772D01*
X81632Y-60797D01*
X81929Y-60500D01*
X81929Y-60641D01*
X81702Y-60867D01*
X81727Y-60960D01*
X81924Y-61029D01*
X82132Y-61018D01*
X82272Y-60960D01*
X82297Y-60867D01*
X82297Y-62196D01*
X82241Y-62139D01*
X82084Y-62075D01*
X81915Y-62074D01*
X81759Y-62139D01*
X81639Y-62258D01*
X81575Y-62415D01*
X81574Y-62584D01*
X81639Y-62740D01*
X81758Y-62860D01*
X81915Y-62924D01*
X82084Y-62925D01*
X82240Y-62860D01*
X82360Y-62741D01*
X82424Y-62584D01*
X82425Y-62415D01*
X82425Y-65415D01*
X82360Y-65259D01*
X82241Y-65139D01*
X82084Y-65075D01*
X81915Y-65074D01*
X81759Y-65139D01*
X81639Y-65258D01*
X81575Y-65415D01*
X81574Y-65584D01*
X81639Y-65740D01*
X81758Y-65860D01*
X81915Y-65924D01*
X82084Y-65925D01*
X82240Y-65860D01*
X82360Y-65741D01*
X82424Y-65584D01*
X82425Y-65415D01*
X82425Y-67217D01*
X82367Y-67202D01*
X82297Y-67273D01*
X82297Y-67132D01*
X82272Y-67039D01*
X82075Y-66970D01*
X81867Y-66981D01*
X81727Y-67039D01*
X81702Y-67132D01*
X82000Y-67429D01*
X82297Y-67132D01*
X82297Y-67273D01*
X82070Y-67500D01*
X82367Y-67797D01*
X82460Y-67772D01*
X82529Y-67575D01*
X82529Y-68830D01*
X82297Y-68830D01*
X82297Y-67867D01*
X82000Y-67570D01*
X81929Y-67641D01*
X81929Y-67500D01*
X81632Y-67202D01*
X81539Y-67227D01*
X81529Y-67254D01*
X81529Y-65575D01*
X81518Y-65367D01*
X81460Y-65227D01*
X81425Y-65217D01*
X81425Y-62415D01*
X81360Y-62259D01*
X81241Y-62139D01*
X81084Y-62075D01*
X80915Y-62074D01*
X80759Y-62139D01*
X80639Y-62258D01*
X80575Y-62415D01*
X80574Y-62584D01*
X80639Y-62740D01*
X80758Y-62860D01*
X80915Y-62924D01*
X81084Y-62925D01*
X81240Y-62860D01*
X81360Y-62741D01*
X81424Y-62584D01*
X81425Y-62415D01*
X81425Y-65217D01*
X81367Y-65202D01*
X81297Y-65273D01*
X81297Y-65132D01*
X81272Y-65039D01*
X81075Y-64970D01*
X80867Y-64981D01*
X80727Y-65039D01*
X80702Y-65132D01*
X81000Y-65429D01*
X81297Y-65132D01*
X81297Y-65273D01*
X81070Y-65500D01*
X81367Y-65797D01*
X81460Y-65772D01*
X81529Y-65575D01*
X81529Y-67254D01*
X81470Y-67424D01*
X81481Y-67632D01*
X81539Y-67772D01*
X81632Y-67797D01*
X81929Y-67500D01*
X81929Y-67641D01*
X81702Y-67867D01*
X81727Y-67960D01*
X81924Y-68029D01*
X82132Y-68018D01*
X82272Y-67960D01*
X82297Y-67867D01*
X82297Y-68830D01*
X81297Y-68830D01*
X81297Y-65867D01*
X81000Y-65570D01*
X80929Y-65641D01*
X80929Y-65500D01*
X80632Y-65202D01*
X80539Y-65227D01*
X80470Y-65424D01*
X80481Y-65632D01*
X80539Y-65772D01*
X80632Y-65797D01*
X80929Y-65500D01*
X80929Y-65641D01*
X80702Y-65867D01*
X80727Y-65960D01*
X80924Y-66029D01*
X81132Y-66018D01*
X81272Y-65960D01*
X81297Y-65867D01*
X81297Y-68830D01*
X80425Y-68830D01*
X80425Y-67415D01*
X80425Y-62415D01*
X80425Y-60415D01*
X80360Y-60259D01*
X80241Y-60139D01*
X80084Y-60075D01*
X79915Y-60074D01*
X79759Y-60139D01*
X79639Y-60258D01*
X79575Y-60415D01*
X79574Y-60584D01*
X79639Y-60740D01*
X79758Y-60860D01*
X79915Y-60924D01*
X80084Y-60925D01*
X80240Y-60860D01*
X80360Y-60741D01*
X80424Y-60584D01*
X80425Y-60415D01*
X80425Y-62415D01*
X80360Y-62259D01*
X80241Y-62139D01*
X80084Y-62075D01*
X79915Y-62074D01*
X79759Y-62139D01*
X79639Y-62258D01*
X79575Y-62415D01*
X79574Y-62584D01*
X79639Y-62740D01*
X79758Y-62860D01*
X79915Y-62924D01*
X80084Y-62925D01*
X80240Y-62860D01*
X80360Y-62741D01*
X80424Y-62584D01*
X80425Y-62415D01*
X80425Y-67415D01*
X80425Y-67415D01*
X80425Y-65745D01*
X80425Y-65195D01*
X80402Y-65140D01*
X80360Y-65097D01*
X80304Y-65075D01*
X80245Y-65074D01*
X79695Y-65074D01*
X79640Y-65097D01*
X79597Y-65139D01*
X79575Y-65195D01*
X79574Y-65254D01*
X79574Y-65804D01*
X79597Y-65859D01*
X79639Y-65902D01*
X79695Y-65924D01*
X79754Y-65925D01*
X80304Y-65925D01*
X80359Y-65902D01*
X80402Y-65860D01*
X80424Y-65804D01*
X80425Y-65745D01*
X80425Y-67415D01*
X80360Y-67259D01*
X80241Y-67139D01*
X80084Y-67075D01*
X79915Y-67074D01*
X79759Y-67139D01*
X79639Y-67258D01*
X79575Y-67415D01*
X79574Y-67584D01*
X79639Y-67740D01*
X79758Y-67860D01*
X79915Y-67924D01*
X80084Y-67925D01*
X80240Y-67860D01*
X80360Y-67741D01*
X80424Y-67584D01*
X80425Y-67415D01*
X80425Y-68830D01*
X79550Y-68830D01*
X79550Y-66650D01*
X78925Y-66650D01*
X78925Y-65415D01*
X78925Y-62415D01*
X78860Y-62259D01*
X78741Y-62139D01*
X78584Y-62075D01*
X78415Y-62074D01*
X78259Y-62139D01*
X78139Y-62258D01*
X78075Y-62415D01*
X78074Y-62584D01*
X78139Y-62740D01*
X78258Y-62860D01*
X78415Y-62924D01*
X78584Y-62925D01*
X78740Y-62860D01*
X78860Y-62741D01*
X78924Y-62584D01*
X78925Y-62415D01*
X78925Y-65415D01*
X78860Y-65259D01*
X78741Y-65139D01*
X78584Y-65075D01*
X78415Y-65074D01*
X78259Y-65139D01*
X78139Y-65258D01*
X78075Y-65415D01*
X78074Y-65584D01*
X78139Y-65740D01*
X78258Y-65860D01*
X78415Y-65924D01*
X78584Y-65925D01*
X78740Y-65860D01*
X78860Y-65741D01*
X78924Y-65584D01*
X78925Y-65415D01*
X78925Y-66650D01*
X76779Y-66650D01*
X76779Y-62075D01*
X76768Y-61867D01*
X76710Y-61727D01*
X76617Y-61702D01*
X76547Y-61773D01*
X76547Y-61632D01*
X76522Y-61539D01*
X76325Y-61470D01*
X76117Y-61481D01*
X75977Y-61539D01*
X75952Y-61632D01*
X76250Y-61929D01*
X76547Y-61632D01*
X76547Y-61773D01*
X76320Y-62000D01*
X76617Y-62297D01*
X76710Y-62272D01*
X76779Y-62075D01*
X76779Y-66650D01*
X76675Y-66650D01*
X76675Y-64915D01*
X76675Y-63915D01*
X76675Y-62915D01*
X76610Y-62759D01*
X76547Y-62696D01*
X76547Y-62367D01*
X76250Y-62070D01*
X76179Y-62141D01*
X76179Y-62000D01*
X75882Y-61702D01*
X75789Y-61727D01*
X75720Y-61924D01*
X75731Y-62132D01*
X75789Y-62272D01*
X75882Y-62297D01*
X76179Y-62000D01*
X76179Y-62141D01*
X75952Y-62367D01*
X75977Y-62460D01*
X76174Y-62529D01*
X76382Y-62518D01*
X76522Y-62460D01*
X76547Y-62367D01*
X76547Y-62696D01*
X76491Y-62639D01*
X76334Y-62575D01*
X76165Y-62574D01*
X76009Y-62639D01*
X75889Y-62758D01*
X75825Y-62915D01*
X75824Y-63084D01*
X75889Y-63240D01*
X76008Y-63360D01*
X76165Y-63424D01*
X76334Y-63425D01*
X76490Y-63360D01*
X76610Y-63241D01*
X76674Y-63084D01*
X76675Y-62915D01*
X76675Y-63915D01*
X76610Y-63759D01*
X76491Y-63639D01*
X76334Y-63575D01*
X76165Y-63574D01*
X76009Y-63639D01*
X75889Y-63758D01*
X75825Y-63915D01*
X75824Y-64084D01*
X75889Y-64240D01*
X76008Y-64360D01*
X76165Y-64424D01*
X76334Y-64425D01*
X76490Y-64360D01*
X76610Y-64241D01*
X76674Y-64084D01*
X76675Y-63915D01*
X76675Y-64915D01*
X76610Y-64759D01*
X76491Y-64639D01*
X76334Y-64575D01*
X76165Y-64574D01*
X76009Y-64639D01*
X75889Y-64758D01*
X75825Y-64915D01*
X75824Y-65084D01*
X75889Y-65240D01*
X76008Y-65360D01*
X76165Y-65424D01*
X76334Y-65425D01*
X76490Y-65360D01*
X76610Y-65241D01*
X76674Y-65084D01*
X76675Y-64915D01*
X76675Y-66650D01*
X76675Y-66650D01*
X76675Y-66245D01*
X76675Y-65695D01*
X76652Y-65640D01*
X76610Y-65597D01*
X76554Y-65575D01*
X76495Y-65574D01*
X75945Y-65574D01*
X75890Y-65597D01*
X75847Y-65639D01*
X75825Y-65695D01*
X75824Y-65754D01*
X75824Y-66304D01*
X75847Y-66359D01*
X75889Y-66402D01*
X75945Y-66424D01*
X76004Y-66425D01*
X76554Y-66425D01*
X76609Y-66402D01*
X76652Y-66360D01*
X76674Y-66304D01*
X76675Y-66245D01*
X76675Y-66650D01*
X75669Y-66650D01*
X75669Y-59169D01*
X92830Y-59169D01*
X92830Y-68830D01*
X92830Y-68830D01*
G37*
G54D16*
X92830Y-68830D02*
X92380Y-68830D01*
X92380Y-65890D01*
X92380Y-61953D01*
X92320Y-61807D01*
X92208Y-61695D01*
X92063Y-61635D01*
X91905Y-61635D01*
X91760Y-61695D01*
X91648Y-61806D01*
X91588Y-61952D01*
X91588Y-62109D01*
X91648Y-62255D01*
X91759Y-62367D01*
X91905Y-62427D01*
X92062Y-62427D01*
X92208Y-62367D01*
X92319Y-62256D01*
X92380Y-62110D01*
X92380Y-61953D01*
X92380Y-65890D01*
X92320Y-65744D01*
X92208Y-65632D01*
X92063Y-65572D01*
X92019Y-65572D01*
X92019Y-64193D01*
X92015Y-63788D01*
X91867Y-63431D01*
X91723Y-63346D01*
X91653Y-63417D01*
X91653Y-63276D01*
X91568Y-63132D01*
X91396Y-63062D01*
X91396Y-61953D01*
X91335Y-61807D01*
X91224Y-61695D01*
X91079Y-61635D01*
X90921Y-61635D01*
X90775Y-61695D01*
X90664Y-61806D01*
X90604Y-61952D01*
X90603Y-62109D01*
X90664Y-62255D01*
X90775Y-62367D01*
X90920Y-62427D01*
X91078Y-62427D01*
X91224Y-62367D01*
X91335Y-62256D01*
X91395Y-62110D01*
X91396Y-61953D01*
X91396Y-63062D01*
X91193Y-62980D01*
X90788Y-62984D01*
X90431Y-63132D01*
X90346Y-63276D01*
X91000Y-63929D01*
X91653Y-63276D01*
X91653Y-63417D01*
X91070Y-64000D01*
X91723Y-64653D01*
X91867Y-64568D01*
X92019Y-64193D01*
X92019Y-65572D01*
X91905Y-65572D01*
X91760Y-65632D01*
X91653Y-65739D01*
X91653Y-64723D01*
X91000Y-64070D01*
X90929Y-64141D01*
X90929Y-64000D01*
X90276Y-63346D01*
X90132Y-63431D01*
X89980Y-63806D01*
X89984Y-64211D01*
X90132Y-64568D01*
X90276Y-64653D01*
X90929Y-64000D01*
X90929Y-64141D01*
X90346Y-64723D01*
X90431Y-64867D01*
X90806Y-65019D01*
X91211Y-65015D01*
X91568Y-64867D01*
X91653Y-64723D01*
X91653Y-65739D01*
X91648Y-65743D01*
X91588Y-65889D01*
X91588Y-66046D01*
X91648Y-66192D01*
X91759Y-66304D01*
X91905Y-66364D01*
X92062Y-66364D01*
X92208Y-66304D01*
X92319Y-66193D01*
X92380Y-66047D01*
X92380Y-65890D01*
X92380Y-68830D01*
X91396Y-68830D01*
X91396Y-65890D01*
X91335Y-65744D01*
X91224Y-65632D01*
X91079Y-65572D01*
X90921Y-65572D01*
X90775Y-65632D01*
X90664Y-65743D01*
X90604Y-65889D01*
X90603Y-66046D01*
X90664Y-66192D01*
X90775Y-66304D01*
X90920Y-66364D01*
X91078Y-66364D01*
X91224Y-66304D01*
X91335Y-66193D01*
X91395Y-66047D01*
X91396Y-65890D01*
X91396Y-68830D01*
X89949Y-68830D01*
X89949Y-65786D01*
X89949Y-61849D01*
X89809Y-61512D01*
X89552Y-61253D01*
X89214Y-61113D01*
X88849Y-61113D01*
X88512Y-61253D01*
X88253Y-61510D01*
X88113Y-61848D01*
X88113Y-62213D01*
X88253Y-62550D01*
X88510Y-62809D01*
X88848Y-62949D01*
X89213Y-62949D01*
X89550Y-62809D01*
X89809Y-62552D01*
X89949Y-62214D01*
X89949Y-61849D01*
X89949Y-65786D01*
X89809Y-65449D01*
X89552Y-65190D01*
X89427Y-65139D01*
X89427Y-63921D01*
X89367Y-63775D01*
X89256Y-63664D01*
X89110Y-63604D01*
X88953Y-63603D01*
X88807Y-63664D01*
X88695Y-63775D01*
X88635Y-63920D01*
X88635Y-64078D01*
X88695Y-64224D01*
X88806Y-64335D01*
X88952Y-64395D01*
X89109Y-64396D01*
X89255Y-64335D01*
X89367Y-64224D01*
X89427Y-64079D01*
X89427Y-63921D01*
X89427Y-65139D01*
X89214Y-65050D01*
X88849Y-65050D01*
X88512Y-65190D01*
X88253Y-65447D01*
X88113Y-65785D01*
X88113Y-66150D01*
X88253Y-66487D01*
X88510Y-66746D01*
X88848Y-66886D01*
X89213Y-66886D01*
X89550Y-66746D01*
X89809Y-66489D01*
X89949Y-66151D01*
X89949Y-65786D01*
X89949Y-68830D01*
X87925Y-68830D01*
X87925Y-67415D01*
X87925Y-60415D01*
X87860Y-60259D01*
X87741Y-60139D01*
X87584Y-60075D01*
X87415Y-60074D01*
X87259Y-60139D01*
X87139Y-60258D01*
X87075Y-60415D01*
X87074Y-60584D01*
X87139Y-60740D01*
X87258Y-60860D01*
X87415Y-60924D01*
X87584Y-60925D01*
X87740Y-60860D01*
X87860Y-60741D01*
X87924Y-60584D01*
X87925Y-60415D01*
X87925Y-67415D01*
X87860Y-67259D01*
X87741Y-67139D01*
X87584Y-67075D01*
X87425Y-67074D01*
X87425Y-64915D01*
X87425Y-62915D01*
X87360Y-62759D01*
X87241Y-62639D01*
X87084Y-62575D01*
X86915Y-62574D01*
X86759Y-62639D01*
X86639Y-62758D01*
X86575Y-62915D01*
X86574Y-63084D01*
X86639Y-63240D01*
X86758Y-63360D01*
X86915Y-63424D01*
X87084Y-63425D01*
X87240Y-63360D01*
X87360Y-63241D01*
X87424Y-63084D01*
X87425Y-62915D01*
X87425Y-64915D01*
X87360Y-64759D01*
X87241Y-64639D01*
X87084Y-64575D01*
X86915Y-64574D01*
X86759Y-64639D01*
X86639Y-64758D01*
X86575Y-64915D01*
X86574Y-65084D01*
X86639Y-65240D01*
X86758Y-65360D01*
X86915Y-65424D01*
X87084Y-65425D01*
X87240Y-65360D01*
X87360Y-65241D01*
X87424Y-65084D01*
X87425Y-64915D01*
X87425Y-67074D01*
X87415Y-67074D01*
X87259Y-67139D01*
X87139Y-67258D01*
X87075Y-67415D01*
X87074Y-67584D01*
X87139Y-67740D01*
X87258Y-67860D01*
X87415Y-67924D01*
X87584Y-67925D01*
X87740Y-67860D01*
X87860Y-67741D01*
X87924Y-67584D01*
X87925Y-67415D01*
X87925Y-68830D01*
X85529Y-68830D01*
X85529Y-65075D01*
X85518Y-64867D01*
X85460Y-64727D01*
X85425Y-64717D01*
X85425Y-62915D01*
X85360Y-62759D01*
X85241Y-62639D01*
X85084Y-62575D01*
X84925Y-62574D01*
X84925Y-60415D01*
X84860Y-60259D01*
X84741Y-60139D01*
X84584Y-60075D01*
X84415Y-60074D01*
X84259Y-60139D01*
X84139Y-60258D01*
X84075Y-60415D01*
X84074Y-60584D01*
X84139Y-60740D01*
X84258Y-60860D01*
X84415Y-60924D01*
X84584Y-60925D01*
X84740Y-60860D01*
X84860Y-60741D01*
X84924Y-60584D01*
X84925Y-60415D01*
X84925Y-62574D01*
X84915Y-62574D01*
X84759Y-62639D01*
X84639Y-62758D01*
X84575Y-62915D01*
X84574Y-63084D01*
X84639Y-63240D01*
X84758Y-63360D01*
X84915Y-63424D01*
X85084Y-63425D01*
X85240Y-63360D01*
X85360Y-63241D01*
X85424Y-63084D01*
X85425Y-62915D01*
X85425Y-64717D01*
X85367Y-64702D01*
X85297Y-64773D01*
X85297Y-64632D01*
X85272Y-64539D01*
X85075Y-64470D01*
X84867Y-64481D01*
X84727Y-64539D01*
X84702Y-64632D01*
X85000Y-64929D01*
X85297Y-64632D01*
X85297Y-64773D01*
X85070Y-65000D01*
X85367Y-65297D01*
X85460Y-65272D01*
X85529Y-65075D01*
X85529Y-68830D01*
X85297Y-68830D01*
X85297Y-65367D01*
X85000Y-65070D01*
X84929Y-65141D01*
X84929Y-65000D01*
X84632Y-64702D01*
X84539Y-64727D01*
X84470Y-64924D01*
X84481Y-65132D01*
X84539Y-65272D01*
X84632Y-65297D01*
X84929Y-65000D01*
X84929Y-65141D01*
X84702Y-65367D01*
X84727Y-65460D01*
X84924Y-65529D01*
X85132Y-65518D01*
X85272Y-65460D01*
X85297Y-65367D01*
X85297Y-68830D01*
X84925Y-68830D01*
X84925Y-67415D01*
X84860Y-67259D01*
X84741Y-67139D01*
X84584Y-67075D01*
X84415Y-67074D01*
X84259Y-67139D01*
X84139Y-67258D01*
X84075Y-67415D01*
X84074Y-67584D01*
X84139Y-67740D01*
X84258Y-67860D01*
X84415Y-67924D01*
X84584Y-67925D01*
X84740Y-67860D01*
X84860Y-67741D01*
X84924Y-67584D01*
X84925Y-67415D01*
X84925Y-68830D01*
X83425Y-68830D01*
X83425Y-65415D01*
X83425Y-62415D01*
X83360Y-62259D01*
X83241Y-62139D01*
X83084Y-62075D01*
X82915Y-62074D01*
X82759Y-62139D01*
X82639Y-62258D01*
X82575Y-62415D01*
X82574Y-62584D01*
X82639Y-62740D01*
X82758Y-62860D01*
X82915Y-62924D01*
X83084Y-62925D01*
X83240Y-62860D01*
X83360Y-62741D01*
X83424Y-62584D01*
X83425Y-62415D01*
X83425Y-65415D01*
X83360Y-65259D01*
X83241Y-65139D01*
X83084Y-65075D01*
X82915Y-65074D01*
X82759Y-65139D01*
X82639Y-65258D01*
X82575Y-65415D01*
X82574Y-65584D01*
X82639Y-65740D01*
X82758Y-65860D01*
X82915Y-65924D01*
X83084Y-65925D01*
X83240Y-65860D01*
X83360Y-65741D01*
X83424Y-65584D01*
X83425Y-65415D01*
X83425Y-68830D01*
X82529Y-68830D01*
X82529Y-67575D01*
X82529Y-60575D01*
X82518Y-60367D01*
X82460Y-60227D01*
X82367Y-60202D01*
X82297Y-60273D01*
X82297Y-60132D01*
X82272Y-60039D01*
X82075Y-59970D01*
X81867Y-59981D01*
X81727Y-60039D01*
X81702Y-60132D01*
X82000Y-60429D01*
X82297Y-60132D01*
X82297Y-60273D01*
X82070Y-60500D01*
X82367Y-60797D01*
X82460Y-60772D01*
X82529Y-60575D01*
X82529Y-67575D01*
X82518Y-67367D01*
X82460Y-67227D01*
X82425Y-67217D01*
X82425Y-65415D01*
X82425Y-62415D01*
X82360Y-62259D01*
X82297Y-62196D01*
X82297Y-60867D01*
X82000Y-60570D01*
X81929Y-60641D01*
X81929Y-60500D01*
X81632Y-60202D01*
X81539Y-60227D01*
X81470Y-60424D01*
X81481Y-60632D01*
X81539Y-60772D01*
X81632Y-60797D01*
X81929Y-60500D01*
X81929Y-60641D01*
X81702Y-60867D01*
X81727Y-60960D01*
X81924Y-61029D01*
X82132Y-61018D01*
X82272Y-60960D01*
X82297Y-60867D01*
X82297Y-62196D01*
X82241Y-62139D01*
X82084Y-62075D01*
X81915Y-62074D01*
X81759Y-62139D01*
X81639Y-62258D01*
X81575Y-62415D01*
X81574Y-62584D01*
X81639Y-62740D01*
X81758Y-62860D01*
X81915Y-62924D01*
X82084Y-62925D01*
X82240Y-62860D01*
X82360Y-62741D01*
X82424Y-62584D01*
X82425Y-62415D01*
X82425Y-65415D01*
X82360Y-65259D01*
X82241Y-65139D01*
X82084Y-65075D01*
X81915Y-65074D01*
X81759Y-65139D01*
X81639Y-65258D01*
X81575Y-65415D01*
X81574Y-65584D01*
X81639Y-65740D01*
X81758Y-65860D01*
X81915Y-65924D01*
X82084Y-65925D01*
X82240Y-65860D01*
X82360Y-65741D01*
X82424Y-65584D01*
X82425Y-65415D01*
X82425Y-67217D01*
X82367Y-67202D01*
X82297Y-67273D01*
X82297Y-67132D01*
X82272Y-67039D01*
X82075Y-66970D01*
X81867Y-66981D01*
X81727Y-67039D01*
X81702Y-67132D01*
X82000Y-67429D01*
X82297Y-67132D01*
X82297Y-67273D01*
X82070Y-67500D01*
X82367Y-67797D01*
X82460Y-67772D01*
X82529Y-67575D01*
X82529Y-68830D01*
X82297Y-68830D01*
X82297Y-67867D01*
X82000Y-67570D01*
X81929Y-67641D01*
X81929Y-67500D01*
X81632Y-67202D01*
X81539Y-67227D01*
X81529Y-67254D01*
X81529Y-65575D01*
X81518Y-65367D01*
X81460Y-65227D01*
X81425Y-65217D01*
X81425Y-62415D01*
X81360Y-62259D01*
X81241Y-62139D01*
X81084Y-62075D01*
X80915Y-62074D01*
X80759Y-62139D01*
X80639Y-62258D01*
X80575Y-62415D01*
X80574Y-62584D01*
X80639Y-62740D01*
X80758Y-62860D01*
X80915Y-62924D01*
X81084Y-62925D01*
X81240Y-62860D01*
X81360Y-62741D01*
X81424Y-62584D01*
X81425Y-62415D01*
X81425Y-65217D01*
X81367Y-65202D01*
X81297Y-65273D01*
X81297Y-65132D01*
X81272Y-65039D01*
X81075Y-64970D01*
X80867Y-64981D01*
X80727Y-65039D01*
X80702Y-65132D01*
X81000Y-65429D01*
X81297Y-65132D01*
X81297Y-65273D01*
X81070Y-65500D01*
X81367Y-65797D01*
X81460Y-65772D01*
X81529Y-65575D01*
X81529Y-67254D01*
X81470Y-67424D01*
X81481Y-67632D01*
X81539Y-67772D01*
X81632Y-67797D01*
X81929Y-67500D01*
X81929Y-67641D01*
X81702Y-67867D01*
X81727Y-67960D01*
X81924Y-68029D01*
X82132Y-68018D01*
X82272Y-67960D01*
X82297Y-67867D01*
X82297Y-68830D01*
X81297Y-68830D01*
X81297Y-65867D01*
X81000Y-65570D01*
X80929Y-65641D01*
X80929Y-65500D01*
X80632Y-65202D01*
X80539Y-65227D01*
X80470Y-65424D01*
X80481Y-65632D01*
X80539Y-65772D01*
X80632Y-65797D01*
X80929Y-65500D01*
X80929Y-65641D01*
X80702Y-65867D01*
X80727Y-65960D01*
X80924Y-66029D01*
X81132Y-66018D01*
X81272Y-65960D01*
X81297Y-65867D01*
X81297Y-68830D01*
X80425Y-68830D01*
X80425Y-67415D01*
X80425Y-62415D01*
X80425Y-60415D01*
X80360Y-60259D01*
X80241Y-60139D01*
X80084Y-60075D01*
X79915Y-60074D01*
X79759Y-60139D01*
X79639Y-60258D01*
X79575Y-60415D01*
X79574Y-60584D01*
X79639Y-60740D01*
X79758Y-60860D01*
X79915Y-60924D01*
X80084Y-60925D01*
X80240Y-60860D01*
X80360Y-60741D01*
X80424Y-60584D01*
X80425Y-60415D01*
X80425Y-62415D01*
X80360Y-62259D01*
X80241Y-62139D01*
X80084Y-62075D01*
X79915Y-62074D01*
X79759Y-62139D01*
X79639Y-62258D01*
X79575Y-62415D01*
X79574Y-62584D01*
X79639Y-62740D01*
X79758Y-62860D01*
X79915Y-62924D01*
X80084Y-62925D01*
X80240Y-62860D01*
X80360Y-62741D01*
X80424Y-62584D01*
X80425Y-62415D01*
X80425Y-67415D01*
X80425Y-67415D01*
X80425Y-65745D01*
X80425Y-65195D01*
X80402Y-65140D01*
X80360Y-65097D01*
X80304Y-65075D01*
X80245Y-65074D01*
X79695Y-65074D01*
X79640Y-65097D01*
X79597Y-65139D01*
X79575Y-65195D01*
X79574Y-65254D01*
X79574Y-65804D01*
X79597Y-65859D01*
X79639Y-65902D01*
X79695Y-65924D01*
X79754Y-65925D01*
X80304Y-65925D01*
X80359Y-65902D01*
X80402Y-65860D01*
X80424Y-65804D01*
X80425Y-65745D01*
X80425Y-67415D01*
X80360Y-67259D01*
X80241Y-67139D01*
X80084Y-67075D01*
X79915Y-67074D01*
X79759Y-67139D01*
X79639Y-67258D01*
X79575Y-67415D01*
X79574Y-67584D01*
X79639Y-67740D01*
X79758Y-67860D01*
X79915Y-67924D01*
X80084Y-67925D01*
X80240Y-67860D01*
X80360Y-67741D01*
X80424Y-67584D01*
X80425Y-67415D01*
X80425Y-68830D01*
X79550Y-68830D01*
X79550Y-66650D01*
X78925Y-66650D01*
X78925Y-65415D01*
X78925Y-62415D01*
X78860Y-62259D01*
X78741Y-62139D01*
X78584Y-62075D01*
X78415Y-62074D01*
X78259Y-62139D01*
X78139Y-62258D01*
X78075Y-62415D01*
X78074Y-62584D01*
X78139Y-62740D01*
X78258Y-62860D01*
X78415Y-62924D01*
X78584Y-62925D01*
X78740Y-62860D01*
X78860Y-62741D01*
X78924Y-62584D01*
X78925Y-62415D01*
X78925Y-65415D01*
X78860Y-65259D01*
X78741Y-65139D01*
X78584Y-65075D01*
X78415Y-65074D01*
X78259Y-65139D01*
X78139Y-65258D01*
X78075Y-65415D01*
X78074Y-65584D01*
X78139Y-65740D01*
X78258Y-65860D01*
X78415Y-65924D01*
X78584Y-65925D01*
X78740Y-65860D01*
X78860Y-65741D01*
X78924Y-65584D01*
X78925Y-65415D01*
X78925Y-66650D01*
X76779Y-66650D01*
X76779Y-62075D01*
X76768Y-61867D01*
X76710Y-61727D01*
X76617Y-61702D01*
X76547Y-61773D01*
X76547Y-61632D01*
X76522Y-61539D01*
X76325Y-61470D01*
X76117Y-61481D01*
X75977Y-61539D01*
X75952Y-61632D01*
X76250Y-61929D01*
X76547Y-61632D01*
X76547Y-61773D01*
X76320Y-62000D01*
X76617Y-62297D01*
X76710Y-62272D01*
X76779Y-62075D01*
X76779Y-66650D01*
X76675Y-66650D01*
X76675Y-64915D01*
X76675Y-63915D01*
X76675Y-62915D01*
X76610Y-62759D01*
X76547Y-62696D01*
X76547Y-62367D01*
X76250Y-62070D01*
X76179Y-62141D01*
X76179Y-62000D01*
X75882Y-61702D01*
X75789Y-61727D01*
X75720Y-61924D01*
X75731Y-62132D01*
X75789Y-62272D01*
X75882Y-62297D01*
X76179Y-62000D01*
X76179Y-62141D01*
X75952Y-62367D01*
X75977Y-62460D01*
X76174Y-62529D01*
X76382Y-62518D01*
X76522Y-62460D01*
X76547Y-62367D01*
X76547Y-62696D01*
X76491Y-62639D01*
X76334Y-62575D01*
X76165Y-62574D01*
X76009Y-62639D01*
X75889Y-62758D01*
X75825Y-62915D01*
X75824Y-63084D01*
X75889Y-63240D01*
X76008Y-63360D01*
X76165Y-63424D01*
X76334Y-63425D01*
X76490Y-63360D01*
X76610Y-63241D01*
X76674Y-63084D01*
X76675Y-62915D01*
X76675Y-63915D01*
X76610Y-63759D01*
X76491Y-63639D01*
X76334Y-63575D01*
X76165Y-63574D01*
X76009Y-63639D01*
X75889Y-63758D01*
X75825Y-63915D01*
X75824Y-64084D01*
X75889Y-64240D01*
X76008Y-64360D01*
X76165Y-64424D01*
X76334Y-64425D01*
X76490Y-64360D01*
X76610Y-64241D01*
X76674Y-64084D01*
X76675Y-63915D01*
X76675Y-64915D01*
X76610Y-64759D01*
X76491Y-64639D01*
X76334Y-64575D01*
X76165Y-64574D01*
X76009Y-64639D01*
X75889Y-64758D01*
X75825Y-64915D01*
X75824Y-65084D01*
X75889Y-65240D01*
X76008Y-65360D01*
X76165Y-65424D01*
X76334Y-65425D01*
X76490Y-65360D01*
X76610Y-65241D01*
X76674Y-65084D01*
X76675Y-64915D01*
X76675Y-66650D01*
X76675Y-66650D01*
X76675Y-66245D01*
X76675Y-65695D01*
X76652Y-65640D01*
X76610Y-65597D01*
X76554Y-65575D01*
X76495Y-65574D01*
X75945Y-65574D01*
X75890Y-65597D01*
X75847Y-65639D01*
X75825Y-65695D01*
X75824Y-65754D01*
X75824Y-66304D01*
X75847Y-66359D01*
X75889Y-66402D01*
X75945Y-66424D01*
X76004Y-66425D01*
X76554Y-66425D01*
X76609Y-66402D01*
X76652Y-66360D01*
X76674Y-66304D01*
X76675Y-66245D01*
X76675Y-66650D01*
X75669Y-66650D01*
X75669Y-59169D01*
X92830Y-59169D01*
X92830Y-68830D01*
M02*
