M48
INCH,TZ
T10C0.047
T11C0.032
T12C0.114
%
T10
X089031Y-64000
X091000Y-62031
X091000Y-65969
X091984Y-62031
X091984Y-65969
T11
X076250Y-62000
X076250Y-63000
X076250Y-64000
X076250Y-65000
X076250Y-66000
X078500Y-62500
X078500Y-65500
X080000Y-60500
X080000Y-62500
X080000Y-65500
X080000Y-67500
X081000Y-62500
X081000Y-65500
X082000Y-60500
X082000Y-62500
X082000Y-65500
X082000Y-67500
X083000Y-62500
X083000Y-65500
X084500Y-60500
X084500Y-67500
X085000Y-63000
X085000Y-65000
X087000Y-63000
X087000Y-65000
X087500Y-60500
X087500Y-67500
T12
X089031Y-62031
X089031Y-65969
X091000Y-64000
M30

