M48
INCH,LZ
T1C0.032
T2C0.114
%
G90
G05
T1
X07625Y-062
X07625Y-063
X07625Y-064
X07625Y-065
X07625Y-066
X0785Y-0625
X0785Y-0655
X08Y-0605
X08Y-0625
X08Y-0655
X08Y-0675
X081Y-0625
X081Y-0655
X082Y-0605
X082Y-0625
X082Y-0655
X082Y-0675
X083Y-0625
X083Y-0655
X0845Y-0605
X0845Y-0675
X085Y-063
X085Y-065
X087Y-063
X087Y-065
X0875Y-0605
X0875Y-0675
T2
X089031Y-062031
X089031Y-065969
X091Y-064
T0
M30
