G04 (created by PCBNEW (2013-07-07 BZR 4022)-stable) date 2/14/2015 6:51:15 PM*
%MOIN*%
G04 Gerber Fmt 3.4, Leading zero omitted, Abs format*
%FSLAX34Y34*%
G01*
G70*
G90*
G04 APERTURE LIST*
%ADD10C,0.00590551*%
%ADD11C,0.01*%
%ADD12C,0.0001*%
G04 APERTURE END LIST*
G54D10*
G54D11*
X89959Y-59711D02*
X90092Y-59521D01*
X90188Y-59711D02*
X90188Y-59311D01*
X90035Y-59311D01*
X89997Y-59330D01*
X89978Y-59350D01*
X89959Y-59388D01*
X89959Y-59445D01*
X89978Y-59483D01*
X89997Y-59502D01*
X90035Y-59521D01*
X90188Y-59521D01*
X89788Y-59711D02*
X89788Y-59311D01*
X89616Y-59711D02*
X89616Y-59502D01*
X89635Y-59464D01*
X89673Y-59445D01*
X89730Y-59445D01*
X89769Y-59464D01*
X89788Y-59483D01*
X89273Y-59692D02*
X89311Y-59711D01*
X89388Y-59711D01*
X89426Y-59692D01*
X89445Y-59654D01*
X89445Y-59502D01*
X89426Y-59464D01*
X89388Y-59445D01*
X89311Y-59445D01*
X89273Y-59464D01*
X89254Y-59502D01*
X89254Y-59540D01*
X89445Y-59578D01*
X89083Y-59711D02*
X89083Y-59445D01*
X89083Y-59311D02*
X89102Y-59330D01*
X89083Y-59350D01*
X89064Y-59330D01*
X89083Y-59311D01*
X89083Y-59350D01*
X88892Y-59445D02*
X88892Y-59711D01*
X88892Y-59483D02*
X88873Y-59464D01*
X88835Y-59445D01*
X88778Y-59445D01*
X88740Y-59464D01*
X88721Y-59502D01*
X88721Y-59711D01*
X88359Y-59445D02*
X88359Y-59769D01*
X88378Y-59807D01*
X88397Y-59826D01*
X88435Y-59845D01*
X88492Y-59845D01*
X88530Y-59826D01*
X88359Y-59692D02*
X88397Y-59711D01*
X88473Y-59711D01*
X88511Y-59692D01*
X88530Y-59673D01*
X88549Y-59635D01*
X88549Y-59521D01*
X88530Y-59483D01*
X88511Y-59464D01*
X88473Y-59445D01*
X88397Y-59445D01*
X88359Y-59464D01*
X88111Y-59711D02*
X88149Y-59692D01*
X88169Y-59673D01*
X88188Y-59635D01*
X88188Y-59521D01*
X88169Y-59483D01*
X88149Y-59464D01*
X88111Y-59445D01*
X88054Y-59445D01*
X88016Y-59464D01*
X87997Y-59483D01*
X87978Y-59521D01*
X87978Y-59635D01*
X87997Y-59673D01*
X88016Y-59692D01*
X88054Y-59711D01*
X88111Y-59711D01*
X87749Y-59711D02*
X87788Y-59692D01*
X87807Y-59654D01*
X87807Y-59311D01*
X87426Y-59711D02*
X87426Y-59311D01*
X87426Y-59692D02*
X87464Y-59711D01*
X87540Y-59711D01*
X87578Y-59692D01*
X87597Y-59673D01*
X87616Y-59635D01*
X87616Y-59521D01*
X87597Y-59483D01*
X87578Y-59464D01*
X87540Y-59445D01*
X87464Y-59445D01*
X87426Y-59464D01*
X86930Y-59711D02*
X86930Y-59311D01*
X86930Y-59502D02*
X86702Y-59502D01*
X86702Y-59711D02*
X86702Y-59311D01*
X86359Y-59692D02*
X86397Y-59711D01*
X86473Y-59711D01*
X86511Y-59692D01*
X86530Y-59654D01*
X86530Y-59502D01*
X86511Y-59464D01*
X86473Y-59445D01*
X86397Y-59445D01*
X86359Y-59464D01*
X86340Y-59502D01*
X86340Y-59540D01*
X86530Y-59578D01*
X85997Y-59711D02*
X85997Y-59502D01*
X86016Y-59464D01*
X86054Y-59445D01*
X86130Y-59445D01*
X86169Y-59464D01*
X85997Y-59692D02*
X86035Y-59711D01*
X86130Y-59711D01*
X86169Y-59692D01*
X86188Y-59654D01*
X86188Y-59616D01*
X86169Y-59578D01*
X86130Y-59559D01*
X86035Y-59559D01*
X85997Y-59540D01*
X85845Y-59445D02*
X85749Y-59711D01*
X85654Y-59445D01*
X85540Y-59445D02*
X85445Y-59711D01*
X85349Y-59445D02*
X85445Y-59711D01*
X85483Y-59807D01*
X85502Y-59826D01*
X85540Y-59845D01*
X84892Y-59711D02*
X84892Y-59311D01*
X84759Y-59597D01*
X84626Y-59311D01*
X84626Y-59711D01*
X84454Y-59692D02*
X84397Y-59711D01*
X84302Y-59711D01*
X84264Y-59692D01*
X84245Y-59673D01*
X84226Y-59635D01*
X84226Y-59597D01*
X84245Y-59559D01*
X84264Y-59540D01*
X84302Y-59521D01*
X84378Y-59502D01*
X84416Y-59483D01*
X84435Y-59464D01*
X84454Y-59426D01*
X84454Y-59388D01*
X84435Y-59350D01*
X84416Y-59330D01*
X84378Y-59311D01*
X84283Y-59311D01*
X84226Y-59330D01*
X83845Y-59330D02*
X83883Y-59311D01*
X83940Y-59311D01*
X83997Y-59330D01*
X84035Y-59369D01*
X84054Y-59407D01*
X84073Y-59483D01*
X84073Y-59540D01*
X84054Y-59616D01*
X84035Y-59654D01*
X83997Y-59692D01*
X83940Y-59711D01*
X83902Y-59711D01*
X83845Y-59692D01*
X83826Y-59673D01*
X83826Y-59540D01*
X83902Y-59540D01*
X83654Y-59502D02*
X83521Y-59502D01*
X83464Y-59711D02*
X83654Y-59711D01*
X83654Y-59311D01*
X83464Y-59311D01*
X83026Y-59750D02*
X83064Y-59730D01*
X83102Y-59692D01*
X83159Y-59635D01*
X83197Y-59616D01*
X83235Y-59616D01*
X83216Y-59711D02*
X83254Y-59692D01*
X83292Y-59654D01*
X83311Y-59578D01*
X83311Y-59445D01*
X83292Y-59369D01*
X83254Y-59330D01*
X83216Y-59311D01*
X83140Y-59311D01*
X83102Y-59330D01*
X83064Y-59369D01*
X83045Y-59445D01*
X83045Y-59578D01*
X83064Y-59654D01*
X83102Y-59692D01*
X83140Y-59711D01*
X83216Y-59711D01*
X82911Y-59311D02*
X82645Y-59311D01*
X82816Y-59711D01*
X82054Y-59502D02*
X81997Y-59521D01*
X81978Y-59540D01*
X81959Y-59578D01*
X81959Y-59635D01*
X81978Y-59673D01*
X81997Y-59692D01*
X82035Y-59711D01*
X82188Y-59711D01*
X82188Y-59311D01*
X82054Y-59311D01*
X82016Y-59330D01*
X81997Y-59350D01*
X81978Y-59388D01*
X81978Y-59426D01*
X81997Y-59464D01*
X82016Y-59483D01*
X82054Y-59502D01*
X82188Y-59502D01*
X81788Y-59711D02*
X81788Y-59445D01*
X81788Y-59521D02*
X81769Y-59483D01*
X81749Y-59464D01*
X81711Y-59445D01*
X81673Y-59445D01*
X81388Y-59692D02*
X81426Y-59711D01*
X81502Y-59711D01*
X81540Y-59692D01*
X81559Y-59654D01*
X81559Y-59502D01*
X81540Y-59464D01*
X81502Y-59445D01*
X81426Y-59445D01*
X81388Y-59464D01*
X81369Y-59502D01*
X81369Y-59540D01*
X81559Y-59578D01*
X81026Y-59711D02*
X81026Y-59502D01*
X81045Y-59464D01*
X81083Y-59445D01*
X81159Y-59445D01*
X81197Y-59464D01*
X81026Y-59692D02*
X81064Y-59711D01*
X81159Y-59711D01*
X81197Y-59692D01*
X81216Y-59654D01*
X81216Y-59616D01*
X81197Y-59578D01*
X81159Y-59559D01*
X81064Y-59559D01*
X81026Y-59540D01*
X80835Y-59711D02*
X80835Y-59311D01*
X80797Y-59559D02*
X80683Y-59711D01*
X80683Y-59445D02*
X80835Y-59597D01*
X80454Y-59711D02*
X80492Y-59692D01*
X80511Y-59673D01*
X80530Y-59635D01*
X80530Y-59521D01*
X80511Y-59483D01*
X80492Y-59464D01*
X80454Y-59445D01*
X80397Y-59445D01*
X80359Y-59464D01*
X80340Y-59483D01*
X80321Y-59521D01*
X80321Y-59635D01*
X80340Y-59673D01*
X80359Y-59692D01*
X80397Y-59711D01*
X80454Y-59711D01*
X79978Y-59445D02*
X79978Y-59711D01*
X80150Y-59445D02*
X80150Y-59654D01*
X80130Y-59692D01*
X80092Y-59711D01*
X80035Y-59711D01*
X79997Y-59692D01*
X79978Y-59673D01*
X79845Y-59445D02*
X79692Y-59445D01*
X79788Y-59311D02*
X79788Y-59654D01*
X79769Y-59692D01*
X79730Y-59711D01*
X79692Y-59711D01*
X79121Y-59502D02*
X79064Y-59521D01*
X79045Y-59540D01*
X79026Y-59578D01*
X79026Y-59635D01*
X79045Y-59673D01*
X79064Y-59692D01*
X79102Y-59711D01*
X79254Y-59711D01*
X79254Y-59311D01*
X79121Y-59311D01*
X79083Y-59330D01*
X79064Y-59350D01*
X79045Y-59388D01*
X79045Y-59426D01*
X79064Y-59464D01*
X79083Y-59483D01*
X79121Y-59502D01*
X79254Y-59502D01*
X78797Y-59711D02*
X78835Y-59692D01*
X78854Y-59673D01*
X78873Y-59635D01*
X78873Y-59521D01*
X78854Y-59483D01*
X78835Y-59464D01*
X78797Y-59445D01*
X78740Y-59445D01*
X78702Y-59464D01*
X78683Y-59483D01*
X78664Y-59521D01*
X78664Y-59635D01*
X78683Y-59673D01*
X78702Y-59692D01*
X78740Y-59711D01*
X78797Y-59711D01*
X78321Y-59711D02*
X78321Y-59502D01*
X78340Y-59464D01*
X78378Y-59445D01*
X78454Y-59445D01*
X78492Y-59464D01*
X78321Y-59692D02*
X78359Y-59711D01*
X78454Y-59711D01*
X78492Y-59692D01*
X78511Y-59654D01*
X78511Y-59616D01*
X78492Y-59578D01*
X78454Y-59559D01*
X78359Y-59559D01*
X78321Y-59540D01*
X78130Y-59711D02*
X78130Y-59445D01*
X78130Y-59521D02*
X78111Y-59483D01*
X78092Y-59464D01*
X78054Y-59445D01*
X78016Y-59445D01*
X77711Y-59711D02*
X77711Y-59311D01*
X77711Y-59692D02*
X77750Y-59711D01*
X77826Y-59711D01*
X77864Y-59692D01*
X77883Y-59673D01*
X77902Y-59635D01*
X77902Y-59521D01*
X77883Y-59483D01*
X77864Y-59464D01*
X77826Y-59445D01*
X77750Y-59445D01*
X77711Y-59464D01*
G54D12*
G36*
X80401Y-63953D02*
X80410Y-64261D01*
X80446Y-64567D01*
X80508Y-64870D01*
X80596Y-65167D01*
X80710Y-65458D01*
X80851Y-65741D01*
X81019Y-66013D01*
X81212Y-66273D01*
X81276Y-66349D01*
X81493Y-66582D01*
X81726Y-66790D01*
X81937Y-66947D01*
X81937Y-64971D01*
X81957Y-64941D01*
X81959Y-64939D01*
X81992Y-64904D01*
X82100Y-65014D01*
X82153Y-65067D01*
X82191Y-65100D01*
X82221Y-65118D01*
X82247Y-65125D01*
X82256Y-65125D01*
X82309Y-65112D01*
X82350Y-65072D01*
X82368Y-65036D01*
X82373Y-65011D01*
X82378Y-64960D01*
X82383Y-64889D01*
X82388Y-64800D01*
X82392Y-64700D01*
X82395Y-64608D01*
X82399Y-64479D01*
X82403Y-64377D01*
X82408Y-64296D01*
X82414Y-64233D01*
X82423Y-64183D01*
X82434Y-64142D01*
X82448Y-64106D01*
X82466Y-64071D01*
X82476Y-64054D01*
X82534Y-63973D01*
X82609Y-63906D01*
X82704Y-63851D01*
X82820Y-63805D01*
X82960Y-63769D01*
X83100Y-63744D01*
X83181Y-63732D01*
X83232Y-63723D01*
X83255Y-63714D01*
X83251Y-63702D01*
X83221Y-63686D01*
X83164Y-63662D01*
X83130Y-63649D01*
X82971Y-63581D01*
X82838Y-63514D01*
X82724Y-63446D01*
X82627Y-63375D01*
X82542Y-63298D01*
X82517Y-63272D01*
X82437Y-63176D01*
X82376Y-63076D01*
X82333Y-62968D01*
X82304Y-62845D01*
X82290Y-62703D01*
X82286Y-62582D01*
X82290Y-62435D01*
X82304Y-62311D01*
X82331Y-62201D01*
X82372Y-62101D01*
X82431Y-62003D01*
X82508Y-61900D01*
X82532Y-61872D01*
X82586Y-61813D01*
X82650Y-61749D01*
X82720Y-61684D01*
X82790Y-61623D01*
X82858Y-61569D01*
X82918Y-61524D01*
X82967Y-61493D01*
X82999Y-61480D01*
X83003Y-61480D01*
X83017Y-61491D01*
X83047Y-61520D01*
X83089Y-61565D01*
X83138Y-61621D01*
X83159Y-61646D01*
X83224Y-61721D01*
X83291Y-61793D01*
X83364Y-61867D01*
X83445Y-61943D01*
X83537Y-62028D01*
X83644Y-62122D01*
X83770Y-62228D01*
X83887Y-62326D01*
X84188Y-62576D01*
X84197Y-62249D01*
X84201Y-62118D01*
X84207Y-62013D01*
X84215Y-61929D01*
X84227Y-61863D01*
X84242Y-61811D01*
X84262Y-61768D01*
X84288Y-61730D01*
X84303Y-61711D01*
X84346Y-61668D01*
X84393Y-61634D01*
X84448Y-61609D01*
X84514Y-61592D01*
X84596Y-61582D01*
X84695Y-61579D01*
X84817Y-61581D01*
X84964Y-61590D01*
X84990Y-61592D01*
X85157Y-61602D01*
X85297Y-61610D01*
X85412Y-61614D01*
X85505Y-61614D01*
X85578Y-61610D01*
X85634Y-61601D01*
X85677Y-61588D01*
X85707Y-61570D01*
X85728Y-61547D01*
X85742Y-61518D01*
X85743Y-61516D01*
X85763Y-61478D01*
X85790Y-61465D01*
X85794Y-61465D01*
X85813Y-61471D01*
X85827Y-61491D01*
X85836Y-61529D01*
X85842Y-61588D01*
X85845Y-61671D01*
X85845Y-61720D01*
X85840Y-61885D01*
X85826Y-62033D01*
X85804Y-62159D01*
X85774Y-62261D01*
X85737Y-62339D01*
X85707Y-62376D01*
X85673Y-62407D01*
X85639Y-62430D01*
X85602Y-62448D01*
X85557Y-62461D01*
X85499Y-62471D01*
X85423Y-62477D01*
X85326Y-62481D01*
X85211Y-62484D01*
X85182Y-62495D01*
X85155Y-62515D01*
X85145Y-62527D01*
X85137Y-62543D01*
X85132Y-62567D01*
X85128Y-62603D01*
X85126Y-62656D01*
X85125Y-62730D01*
X85125Y-62829D01*
X85125Y-62838D01*
X85125Y-63130D01*
X85219Y-63130D01*
X85287Y-63133D01*
X85364Y-63139D01*
X85414Y-63145D01*
X85515Y-63168D01*
X85599Y-63205D01*
X85669Y-63260D01*
X85724Y-63333D01*
X85768Y-63426D01*
X85799Y-63542D01*
X85818Y-63682D01*
X85828Y-63847D01*
X85830Y-63957D01*
X85830Y-64195D01*
X85795Y-64195D01*
X85778Y-64193D01*
X85766Y-64182D01*
X85757Y-64156D01*
X85749Y-64110D01*
X85745Y-64075D01*
X85733Y-64001D01*
X85716Y-63944D01*
X85691Y-63901D01*
X85653Y-63870D01*
X85600Y-63850D01*
X85526Y-63837D01*
X85430Y-63829D01*
X85348Y-63824D01*
X85123Y-63815D01*
X85128Y-64169D01*
X85130Y-64287D01*
X85131Y-64378D01*
X85135Y-64450D01*
X85143Y-64504D01*
X85157Y-64546D01*
X85177Y-64581D01*
X85206Y-64613D01*
X85246Y-64646D01*
X85297Y-64684D01*
X85324Y-64705D01*
X85385Y-64752D01*
X85442Y-64798D01*
X85489Y-64837D01*
X85508Y-64855D01*
X85590Y-64946D01*
X85669Y-65060D01*
X85741Y-65188D01*
X85801Y-65322D01*
X85832Y-65411D01*
X85857Y-65521D01*
X85868Y-65647D01*
X85866Y-65779D01*
X85850Y-65907D01*
X85832Y-65985D01*
X85773Y-66148D01*
X85689Y-66297D01*
X85585Y-66428D01*
X85463Y-66539D01*
X85324Y-66628D01*
X85247Y-66663D01*
X85103Y-66708D01*
X84942Y-66736D01*
X84774Y-66745D01*
X84604Y-66734D01*
X84566Y-66728D01*
X84428Y-66697D01*
X84287Y-66647D01*
X84156Y-66584D01*
X84101Y-66551D01*
X84002Y-66476D01*
X83903Y-66384D01*
X83811Y-66282D01*
X83734Y-66177D01*
X83686Y-66096D01*
X83640Y-65998D01*
X83610Y-65911D01*
X83591Y-65824D01*
X83582Y-65726D01*
X83580Y-65639D01*
X83580Y-65470D01*
X83636Y-65470D01*
X83693Y-65470D01*
X83694Y-65616D01*
X83701Y-65731D01*
X83721Y-65826D01*
X83757Y-65908D01*
X83811Y-65987D01*
X83845Y-66025D01*
X83950Y-66120D01*
X84069Y-66191D01*
X84172Y-66230D01*
X84200Y-66237D01*
X84230Y-66244D01*
X84266Y-66248D01*
X84312Y-66252D01*
X84371Y-66254D01*
X84446Y-66256D01*
X84542Y-66257D01*
X84662Y-66257D01*
X84773Y-66257D01*
X84915Y-66257D01*
X85032Y-66256D01*
X85125Y-66255D01*
X85200Y-66253D01*
X85258Y-66250D01*
X85305Y-66246D01*
X85342Y-66240D01*
X85375Y-66233D01*
X85384Y-66231D01*
X85516Y-66188D01*
X85620Y-66134D01*
X85698Y-66067D01*
X85751Y-65986D01*
X85779Y-65891D01*
X85785Y-65815D01*
X85773Y-65708D01*
X85738Y-65620D01*
X85678Y-65546D01*
X85592Y-65487D01*
X85564Y-65473D01*
X85522Y-65454D01*
X85484Y-65443D01*
X85441Y-65436D01*
X85386Y-65433D01*
X85313Y-65433D01*
X85199Y-65437D01*
X85096Y-65453D01*
X85000Y-65481D01*
X84907Y-65525D01*
X84812Y-65586D01*
X84710Y-65667D01*
X84598Y-65769D01*
X84555Y-65810D01*
X84491Y-65872D01*
X84444Y-65915D01*
X84412Y-65940D01*
X84392Y-65949D01*
X84381Y-65946D01*
X84368Y-65931D01*
X84337Y-65896D01*
X84289Y-65844D01*
X84229Y-65776D01*
X84156Y-65695D01*
X84074Y-65602D01*
X83984Y-65502D01*
X83897Y-65405D01*
X83431Y-64882D01*
X83456Y-64844D01*
X83482Y-64805D01*
X83651Y-64984D01*
X83820Y-65162D01*
X83820Y-64476D01*
X83820Y-63790D01*
X83704Y-63790D01*
X83599Y-63798D01*
X83515Y-63822D01*
X83449Y-63866D01*
X83393Y-63933D01*
X83357Y-64000D01*
X83317Y-64082D01*
X83310Y-64735D01*
X83308Y-64899D01*
X83307Y-65035D01*
X83304Y-65148D01*
X83301Y-65238D01*
X83297Y-65311D01*
X83291Y-65369D01*
X83284Y-65413D01*
X83274Y-65449D01*
X83261Y-65478D01*
X83245Y-65503D01*
X83226Y-65527D01*
X83202Y-65553D01*
X83196Y-65559D01*
X83169Y-65587D01*
X83127Y-65627D01*
X83073Y-65676D01*
X83014Y-65730D01*
X82951Y-65786D01*
X82889Y-65839D01*
X82833Y-65887D01*
X82786Y-65926D01*
X82752Y-65953D01*
X82735Y-65963D01*
X82735Y-65963D01*
X82725Y-65951D01*
X82697Y-65917D01*
X82655Y-65866D01*
X82600Y-65799D01*
X82534Y-65718D01*
X82460Y-65627D01*
X82378Y-65527D01*
X82343Y-65485D01*
X82258Y-65382D01*
X82180Y-65286D01*
X82109Y-65199D01*
X82047Y-65124D01*
X81998Y-65063D01*
X81963Y-65020D01*
X81943Y-64997D01*
X81941Y-64993D01*
X81937Y-64971D01*
X81937Y-66947D01*
X81977Y-66977D01*
X82245Y-67143D01*
X82521Y-67282D01*
X82812Y-67397D01*
X83114Y-67487D01*
X83424Y-67551D01*
X83738Y-67588D01*
X84052Y-67599D01*
X84330Y-67584D01*
X84653Y-67538D01*
X84968Y-67465D01*
X85273Y-67365D01*
X85567Y-67239D01*
X85848Y-67088D01*
X86114Y-66913D01*
X86363Y-66715D01*
X86594Y-66495D01*
X86805Y-66255D01*
X86968Y-66034D01*
X87141Y-65753D01*
X87287Y-65461D01*
X87406Y-65160D01*
X87496Y-64853D01*
X87559Y-64540D01*
X87593Y-64224D01*
X87599Y-63906D01*
X87576Y-63588D01*
X87525Y-63271D01*
X87445Y-62958D01*
X87335Y-62649D01*
X87285Y-62530D01*
X87139Y-62238D01*
X86968Y-61963D01*
X86772Y-61705D01*
X86552Y-61463D01*
X86350Y-61276D01*
X86093Y-61074D01*
X85822Y-60897D01*
X85539Y-60747D01*
X85247Y-60624D01*
X84945Y-60527D01*
X84638Y-60458D01*
X84326Y-60416D01*
X84011Y-60401D01*
X83694Y-60414D01*
X83379Y-60455D01*
X83066Y-60525D01*
X82757Y-60623D01*
X82530Y-60715D01*
X82238Y-60861D01*
X81963Y-61032D01*
X81705Y-61228D01*
X81463Y-61448D01*
X81276Y-61650D01*
X81075Y-61907D01*
X80899Y-62175D01*
X80751Y-62455D01*
X80628Y-62743D01*
X80532Y-63039D01*
X80462Y-63341D01*
X80418Y-63646D01*
X80401Y-63953D01*
X80401Y-63953D01*
X80401Y-63953D01*
G37*
G36*
X83912Y-64094D02*
X83913Y-64284D01*
X83914Y-64411D01*
X83918Y-65063D01*
X83977Y-65017D01*
X84176Y-64885D01*
X84381Y-64779D01*
X84594Y-64702D01*
X84810Y-64653D01*
X84899Y-64642D01*
X85084Y-64624D01*
X85018Y-64596D01*
X84917Y-64559D01*
X84799Y-64527D01*
X84672Y-64500D01*
X84544Y-64482D01*
X84424Y-64471D01*
X84320Y-64470D01*
X84289Y-64473D01*
X84195Y-64482D01*
X84194Y-63585D01*
X84194Y-62687D01*
X84055Y-62573D01*
X83918Y-62457D01*
X83914Y-63109D01*
X83913Y-63281D01*
X83912Y-63475D01*
X83912Y-63681D01*
X83912Y-63890D01*
X83912Y-64094D01*
X83912Y-64094D01*
X83912Y-64094D01*
G37*
G36*
X83205Y-62922D02*
X83214Y-63104D01*
X83242Y-63262D01*
X83288Y-63396D01*
X83353Y-63507D01*
X83437Y-63595D01*
X83471Y-63621D01*
X83542Y-63659D01*
X83628Y-63690D01*
X83714Y-63710D01*
X83771Y-63715D01*
X83820Y-63715D01*
X83816Y-63044D01*
X83812Y-62374D01*
X83748Y-62328D01*
X83705Y-62302D01*
X83666Y-62288D01*
X83617Y-62284D01*
X83590Y-62284D01*
X83506Y-62292D01*
X83439Y-62317D01*
X83378Y-62364D01*
X83361Y-62382D01*
X83298Y-62467D01*
X83252Y-62571D01*
X83221Y-62696D01*
X83207Y-62845D01*
X83205Y-62922D01*
X83205Y-62922D01*
X83205Y-62922D01*
G37*
M02*
