G04 #@! TF.FileFunction,Legend,Bot*
%FSLAX46Y46*%
G04 Gerber Fmt 4.6, Leading zero omitted, Abs format (unit mm)*
G04 Created by KiCad (PCBNEW 4.0.0-rc1-stable) date 10/27/2015 9:53:31 PM*
%MOMM*%
G01*
G04 APERTURE LIST*
%ADD10C,0.150000*%
%ADD11C,0.254000*%
%ADD12C,0.002540*%
G04 APERTURE END LIST*
D10*
D11*
X223925188Y-130380619D02*
X224263854Y-129896810D01*
X224505759Y-130380619D02*
X224505759Y-129364619D01*
X224118712Y-129364619D01*
X224021950Y-129413000D01*
X223973569Y-129461381D01*
X223925188Y-129558143D01*
X223925188Y-129703286D01*
X223973569Y-129800048D01*
X224021950Y-129848429D01*
X224118712Y-129896810D01*
X224505759Y-129896810D01*
X223489759Y-130380619D02*
X223489759Y-129364619D01*
X223054331Y-130380619D02*
X223054331Y-129848429D01*
X223102712Y-129751667D01*
X223199474Y-129703286D01*
X223344616Y-129703286D01*
X223441378Y-129751667D01*
X223489759Y-129800048D01*
X222183474Y-130332238D02*
X222280236Y-130380619D01*
X222473759Y-130380619D01*
X222570521Y-130332238D01*
X222618902Y-130235476D01*
X222618902Y-129848429D01*
X222570521Y-129751667D01*
X222473759Y-129703286D01*
X222280236Y-129703286D01*
X222183474Y-129751667D01*
X222135093Y-129848429D01*
X222135093Y-129945190D01*
X222618902Y-130041952D01*
X221699664Y-130380619D02*
X221699664Y-129703286D01*
X221699664Y-129364619D02*
X221748045Y-129413000D01*
X221699664Y-129461381D01*
X221651283Y-129413000D01*
X221699664Y-129364619D01*
X221699664Y-129461381D01*
X221215854Y-129703286D02*
X221215854Y-130380619D01*
X221215854Y-129800048D02*
X221167473Y-129751667D01*
X221070711Y-129703286D01*
X220925569Y-129703286D01*
X220828807Y-129751667D01*
X220780426Y-129848429D01*
X220780426Y-130380619D01*
X219861188Y-129703286D02*
X219861188Y-130525762D01*
X219909569Y-130622524D01*
X219957950Y-130670905D01*
X220054711Y-130719286D01*
X220199854Y-130719286D01*
X220296616Y-130670905D01*
X219861188Y-130332238D02*
X219957950Y-130380619D01*
X220151473Y-130380619D01*
X220248235Y-130332238D01*
X220296616Y-130283857D01*
X220344997Y-130187095D01*
X220344997Y-129896810D01*
X220296616Y-129800048D01*
X220248235Y-129751667D01*
X220151473Y-129703286D01*
X219957950Y-129703286D01*
X219861188Y-129751667D01*
X219232235Y-130380619D02*
X219328997Y-130332238D01*
X219377378Y-130283857D01*
X219425759Y-130187095D01*
X219425759Y-129896810D01*
X219377378Y-129800048D01*
X219328997Y-129751667D01*
X219232235Y-129703286D01*
X219087093Y-129703286D01*
X218990331Y-129751667D01*
X218941950Y-129800048D01*
X218893569Y-129896810D01*
X218893569Y-130187095D01*
X218941950Y-130283857D01*
X218990331Y-130332238D01*
X219087093Y-130380619D01*
X219232235Y-130380619D01*
X218312997Y-130380619D02*
X218409759Y-130332238D01*
X218458140Y-130235476D01*
X218458140Y-129364619D01*
X217490522Y-130380619D02*
X217490522Y-129364619D01*
X217490522Y-130332238D02*
X217587284Y-130380619D01*
X217780807Y-130380619D01*
X217877569Y-130332238D01*
X217925950Y-130283857D01*
X217974331Y-130187095D01*
X217974331Y-129896810D01*
X217925950Y-129800048D01*
X217877569Y-129751667D01*
X217780807Y-129703286D01*
X217587284Y-129703286D01*
X217490522Y-129751667D01*
X216232617Y-130380619D02*
X216232617Y-129364619D01*
X216232617Y-129848429D02*
X215652046Y-129848429D01*
X215652046Y-130380619D02*
X215652046Y-129364619D01*
X214781189Y-130332238D02*
X214877951Y-130380619D01*
X215071474Y-130380619D01*
X215168236Y-130332238D01*
X215216617Y-130235476D01*
X215216617Y-129848429D01*
X215168236Y-129751667D01*
X215071474Y-129703286D01*
X214877951Y-129703286D01*
X214781189Y-129751667D01*
X214732808Y-129848429D01*
X214732808Y-129945190D01*
X215216617Y-130041952D01*
X213861951Y-130380619D02*
X213861951Y-129848429D01*
X213910332Y-129751667D01*
X214007094Y-129703286D01*
X214200617Y-129703286D01*
X214297379Y-129751667D01*
X213861951Y-130332238D02*
X213958713Y-130380619D01*
X214200617Y-130380619D01*
X214297379Y-130332238D01*
X214345760Y-130235476D01*
X214345760Y-130138714D01*
X214297379Y-130041952D01*
X214200617Y-129993571D01*
X213958713Y-129993571D01*
X213861951Y-129945190D01*
X213474903Y-129703286D02*
X213232998Y-130380619D01*
X212991094Y-129703286D01*
X212700808Y-129703286D02*
X212458903Y-130380619D01*
X212216999Y-129703286D02*
X212458903Y-130380619D01*
X212555665Y-130622524D01*
X212604046Y-130670905D01*
X212700808Y-130719286D01*
X211055856Y-130380619D02*
X211055856Y-129364619D01*
X210717190Y-130090333D01*
X210378523Y-129364619D01*
X210378523Y-130380619D01*
X209943094Y-130332238D02*
X209797951Y-130380619D01*
X209556047Y-130380619D01*
X209459285Y-130332238D01*
X209410904Y-130283857D01*
X209362523Y-130187095D01*
X209362523Y-130090333D01*
X209410904Y-129993571D01*
X209459285Y-129945190D01*
X209556047Y-129896810D01*
X209749570Y-129848429D01*
X209846332Y-129800048D01*
X209894713Y-129751667D01*
X209943094Y-129654905D01*
X209943094Y-129558143D01*
X209894713Y-129461381D01*
X209846332Y-129413000D01*
X209749570Y-129364619D01*
X209507666Y-129364619D01*
X209362523Y-129413000D01*
X208394904Y-129413000D02*
X208491666Y-129364619D01*
X208636809Y-129364619D01*
X208781951Y-129413000D01*
X208878713Y-129509762D01*
X208927094Y-129606524D01*
X208975475Y-129800048D01*
X208975475Y-129945190D01*
X208927094Y-130138714D01*
X208878713Y-130235476D01*
X208781951Y-130332238D01*
X208636809Y-130380619D01*
X208540047Y-130380619D01*
X208394904Y-130332238D01*
X208346523Y-130283857D01*
X208346523Y-129945190D01*
X208540047Y-129945190D01*
X207911094Y-129848429D02*
X207572428Y-129848429D01*
X207427285Y-130380619D02*
X207911094Y-130380619D01*
X207911094Y-129364619D01*
X207427285Y-129364619D01*
X206314523Y-130477381D02*
X206411285Y-130429000D01*
X206508047Y-130332238D01*
X206653190Y-130187095D01*
X206749951Y-130138714D01*
X206846713Y-130138714D01*
X206798332Y-130380619D02*
X206895094Y-130332238D01*
X206991856Y-130235476D01*
X207040237Y-130041952D01*
X207040237Y-129703286D01*
X206991856Y-129509762D01*
X206895094Y-129413000D01*
X206798332Y-129364619D01*
X206604809Y-129364619D01*
X206508047Y-129413000D01*
X206411285Y-129509762D01*
X206362904Y-129703286D01*
X206362904Y-130041952D01*
X206411285Y-130235476D01*
X206508047Y-130332238D01*
X206604809Y-130380619D01*
X206798332Y-130380619D01*
X206024237Y-129364619D02*
X205346904Y-129364619D01*
X205782332Y-130380619D01*
X203847095Y-129848429D02*
X203701952Y-129896810D01*
X203653571Y-129945190D01*
X203605190Y-130041952D01*
X203605190Y-130187095D01*
X203653571Y-130283857D01*
X203701952Y-130332238D01*
X203798714Y-130380619D01*
X204185761Y-130380619D01*
X204185761Y-129364619D01*
X203847095Y-129364619D01*
X203750333Y-129413000D01*
X203701952Y-129461381D01*
X203653571Y-129558143D01*
X203653571Y-129654905D01*
X203701952Y-129751667D01*
X203750333Y-129800048D01*
X203847095Y-129848429D01*
X204185761Y-129848429D01*
X203169761Y-130380619D02*
X203169761Y-129703286D01*
X203169761Y-129896810D02*
X203121380Y-129800048D01*
X203072999Y-129751667D01*
X202976237Y-129703286D01*
X202879476Y-129703286D01*
X202153762Y-130332238D02*
X202250524Y-130380619D01*
X202444047Y-130380619D01*
X202540809Y-130332238D01*
X202589190Y-130235476D01*
X202589190Y-129848429D01*
X202540809Y-129751667D01*
X202444047Y-129703286D01*
X202250524Y-129703286D01*
X202153762Y-129751667D01*
X202105381Y-129848429D01*
X202105381Y-129945190D01*
X202589190Y-130041952D01*
X201234524Y-130380619D02*
X201234524Y-129848429D01*
X201282905Y-129751667D01*
X201379667Y-129703286D01*
X201573190Y-129703286D01*
X201669952Y-129751667D01*
X201234524Y-130332238D02*
X201331286Y-130380619D01*
X201573190Y-130380619D01*
X201669952Y-130332238D01*
X201718333Y-130235476D01*
X201718333Y-130138714D01*
X201669952Y-130041952D01*
X201573190Y-129993571D01*
X201331286Y-129993571D01*
X201234524Y-129945190D01*
X200750714Y-130380619D02*
X200750714Y-129364619D01*
X200653952Y-129993571D02*
X200363667Y-130380619D01*
X200363667Y-129703286D02*
X200750714Y-130090333D01*
X199783095Y-130380619D02*
X199879857Y-130332238D01*
X199928238Y-130283857D01*
X199976619Y-130187095D01*
X199976619Y-129896810D01*
X199928238Y-129800048D01*
X199879857Y-129751667D01*
X199783095Y-129703286D01*
X199637953Y-129703286D01*
X199541191Y-129751667D01*
X199492810Y-129800048D01*
X199444429Y-129896810D01*
X199444429Y-130187095D01*
X199492810Y-130283857D01*
X199541191Y-130332238D01*
X199637953Y-130380619D01*
X199783095Y-130380619D01*
X198573572Y-129703286D02*
X198573572Y-130380619D01*
X199009000Y-129703286D02*
X199009000Y-130235476D01*
X198960619Y-130332238D01*
X198863857Y-130380619D01*
X198718715Y-130380619D01*
X198621953Y-130332238D01*
X198573572Y-130283857D01*
X198234905Y-129703286D02*
X197847857Y-129703286D01*
X198089762Y-129364619D02*
X198089762Y-130235476D01*
X198041381Y-130332238D01*
X197944619Y-130380619D01*
X197847857Y-130380619D01*
X196396430Y-129848429D02*
X196251287Y-129896810D01*
X196202906Y-129945190D01*
X196154525Y-130041952D01*
X196154525Y-130187095D01*
X196202906Y-130283857D01*
X196251287Y-130332238D01*
X196348049Y-130380619D01*
X196735096Y-130380619D01*
X196735096Y-129364619D01*
X196396430Y-129364619D01*
X196299668Y-129413000D01*
X196251287Y-129461381D01*
X196202906Y-129558143D01*
X196202906Y-129654905D01*
X196251287Y-129751667D01*
X196299668Y-129800048D01*
X196396430Y-129848429D01*
X196735096Y-129848429D01*
X195573953Y-130380619D02*
X195670715Y-130332238D01*
X195719096Y-130283857D01*
X195767477Y-130187095D01*
X195767477Y-129896810D01*
X195719096Y-129800048D01*
X195670715Y-129751667D01*
X195573953Y-129703286D01*
X195428811Y-129703286D01*
X195332049Y-129751667D01*
X195283668Y-129800048D01*
X195235287Y-129896810D01*
X195235287Y-130187095D01*
X195283668Y-130283857D01*
X195332049Y-130332238D01*
X195428811Y-130380619D01*
X195573953Y-130380619D01*
X194364430Y-130380619D02*
X194364430Y-129848429D01*
X194412811Y-129751667D01*
X194509573Y-129703286D01*
X194703096Y-129703286D01*
X194799858Y-129751667D01*
X194364430Y-130332238D02*
X194461192Y-130380619D01*
X194703096Y-130380619D01*
X194799858Y-130332238D01*
X194848239Y-130235476D01*
X194848239Y-130138714D01*
X194799858Y-130041952D01*
X194703096Y-129993571D01*
X194461192Y-129993571D01*
X194364430Y-129945190D01*
X193880620Y-130380619D02*
X193880620Y-129703286D01*
X193880620Y-129896810D02*
X193832239Y-129800048D01*
X193783858Y-129751667D01*
X193687096Y-129703286D01*
X193590335Y-129703286D01*
X192816240Y-130380619D02*
X192816240Y-129364619D01*
X192816240Y-130332238D02*
X192913002Y-130380619D01*
X193106525Y-130380619D01*
X193203287Y-130332238D01*
X193251668Y-130283857D01*
X193300049Y-130187095D01*
X193300049Y-129896810D01*
X193251668Y-129800048D01*
X193203287Y-129751667D01*
X193106525Y-129703286D01*
X192913002Y-129703286D01*
X192816240Y-129751667D01*
D12*
G36*
X199646540Y-141104620D02*
X199669400Y-141886940D01*
X199760840Y-142664180D01*
X199918320Y-143433800D01*
X200141840Y-144188180D01*
X200431400Y-144927320D01*
X200789540Y-145646140D01*
X201216260Y-146337020D01*
X201706480Y-146997420D01*
X201869040Y-147190460D01*
X202420220Y-147782280D01*
X203012040Y-148310600D01*
X203547980Y-148709380D01*
X203547980Y-143690340D01*
X203598780Y-143614140D01*
X203603860Y-143609060D01*
X203687680Y-143520160D01*
X203962000Y-143799560D01*
X204096620Y-143934180D01*
X204193140Y-144018000D01*
X204269340Y-144063720D01*
X204335380Y-144081500D01*
X204358240Y-144081500D01*
X204492860Y-144048480D01*
X204597000Y-143946880D01*
X204642720Y-143855440D01*
X204655420Y-143791940D01*
X204668120Y-143662400D01*
X204680820Y-143482060D01*
X204693520Y-143256000D01*
X204703680Y-143002000D01*
X204711300Y-142768320D01*
X204721460Y-142440660D01*
X204731620Y-142181580D01*
X204744320Y-141975840D01*
X204759560Y-141815820D01*
X204782420Y-141688820D01*
X204810360Y-141584680D01*
X204845920Y-141493240D01*
X204891640Y-141404340D01*
X204917040Y-141361160D01*
X205064360Y-141155420D01*
X205254860Y-140985240D01*
X205496160Y-140845540D01*
X205790800Y-140728700D01*
X206146400Y-140637260D01*
X206502000Y-140573760D01*
X206707740Y-140543280D01*
X206837280Y-140520420D01*
X206895700Y-140497560D01*
X206885540Y-140467080D01*
X206809340Y-140426440D01*
X206664560Y-140365480D01*
X206578200Y-140332460D01*
X206174340Y-140159740D01*
X205836520Y-139989560D01*
X205546960Y-139816840D01*
X205300580Y-139636500D01*
X205084680Y-139440920D01*
X205021180Y-139374880D01*
X204817980Y-139131040D01*
X204663040Y-138877040D01*
X204553820Y-138602720D01*
X204480160Y-138290300D01*
X204444600Y-137929620D01*
X204434440Y-137622280D01*
X204444600Y-137248900D01*
X204480160Y-136933940D01*
X204548740Y-136654540D01*
X204652880Y-136400540D01*
X204802740Y-136151620D01*
X204998320Y-135890000D01*
X205059280Y-135818880D01*
X205196440Y-135669020D01*
X205359000Y-135506460D01*
X205536800Y-135341360D01*
X205714600Y-135186420D01*
X205887320Y-135049260D01*
X206039720Y-134934960D01*
X206164180Y-134856220D01*
X206245460Y-134823200D01*
X206255620Y-134823200D01*
X206291180Y-134851140D01*
X206367380Y-134924800D01*
X206474060Y-135039100D01*
X206598520Y-135181340D01*
X206651860Y-135244840D01*
X206816960Y-135435340D01*
X206987140Y-135618220D01*
X207172560Y-135806180D01*
X207378300Y-135999220D01*
X207611980Y-136215120D01*
X207883760Y-136453880D01*
X208203800Y-136723120D01*
X208500980Y-136972040D01*
X209265520Y-137607040D01*
X209288380Y-136776460D01*
X209298540Y-136443720D01*
X209313780Y-136177020D01*
X209334100Y-135963660D01*
X209364580Y-135796020D01*
X209402680Y-135663940D01*
X209453480Y-135554720D01*
X209519520Y-135458200D01*
X209557620Y-135409940D01*
X209666840Y-135300720D01*
X209786220Y-135214360D01*
X209925920Y-135150860D01*
X210093560Y-135107680D01*
X210301840Y-135082280D01*
X210553300Y-135074660D01*
X210863180Y-135079740D01*
X211236560Y-135102600D01*
X211302600Y-135107680D01*
X211726780Y-135133080D01*
X212082380Y-135153400D01*
X212374480Y-135163560D01*
X212610700Y-135163560D01*
X212796120Y-135153400D01*
X212938360Y-135130540D01*
X213047580Y-135097520D01*
X213123780Y-135051800D01*
X213177120Y-134993380D01*
X213212680Y-134919720D01*
X213215220Y-134914640D01*
X213266020Y-134818120D01*
X213334600Y-134785100D01*
X213344760Y-134785100D01*
X213393020Y-134800340D01*
X213428580Y-134851140D01*
X213451440Y-134947660D01*
X213466680Y-135097520D01*
X213474300Y-135308340D01*
X213474300Y-135432800D01*
X213461600Y-135851900D01*
X213426040Y-136227820D01*
X213370160Y-136547860D01*
X213293960Y-136806940D01*
X213199980Y-137005060D01*
X213123780Y-137099040D01*
X213037420Y-137177780D01*
X212951060Y-137236200D01*
X212857080Y-137281920D01*
X212742780Y-137314940D01*
X212595460Y-137340340D01*
X212402420Y-137355580D01*
X212156040Y-137365740D01*
X211863940Y-137373360D01*
X211790280Y-137401300D01*
X211721700Y-137452100D01*
X211696300Y-137482580D01*
X211675980Y-137523220D01*
X211663280Y-137584180D01*
X211653120Y-137675620D01*
X211648040Y-137810240D01*
X211645500Y-137998200D01*
X211645500Y-138249660D01*
X211645500Y-138272520D01*
X211645500Y-139014200D01*
X211884260Y-139014200D01*
X212056980Y-139021820D01*
X212252560Y-139037060D01*
X212379560Y-139052300D01*
X212636100Y-139110720D01*
X212849460Y-139204700D01*
X213027260Y-139344400D01*
X213166960Y-139529820D01*
X213278720Y-139766040D01*
X213357460Y-140060680D01*
X213405720Y-140416280D01*
X213431120Y-140835380D01*
X213436200Y-141114780D01*
X213436200Y-141719300D01*
X213347300Y-141719300D01*
X213304120Y-141714220D01*
X213273640Y-141686280D01*
X213250780Y-141620240D01*
X213230460Y-141503400D01*
X213220300Y-141414500D01*
X213189820Y-141226540D01*
X213146640Y-141081760D01*
X213083140Y-140972540D01*
X212986620Y-140893800D01*
X212852000Y-140843000D01*
X212664040Y-140809980D01*
X212420200Y-140789660D01*
X212211920Y-140776960D01*
X211640420Y-140754100D01*
X211653120Y-141653260D01*
X211658200Y-141952980D01*
X211660740Y-142184120D01*
X211670900Y-142367000D01*
X211691220Y-142504160D01*
X211726780Y-142610840D01*
X211777580Y-142699740D01*
X211851240Y-142781020D01*
X211952840Y-142864840D01*
X212082380Y-142961360D01*
X212150960Y-143014700D01*
X212305900Y-143134080D01*
X212450680Y-143250920D01*
X212570060Y-143349980D01*
X212618320Y-143395700D01*
X212826600Y-143626840D01*
X213027260Y-143916400D01*
X213210140Y-144241520D01*
X213362540Y-144581880D01*
X213441280Y-144807940D01*
X213504780Y-145087340D01*
X213532720Y-145407380D01*
X213527640Y-145742660D01*
X213487000Y-146067780D01*
X213441280Y-146265900D01*
X213291420Y-146679920D01*
X213078060Y-147058380D01*
X212813900Y-147391120D01*
X212504020Y-147673060D01*
X212150960Y-147899120D01*
X211955380Y-147988020D01*
X211589620Y-148102320D01*
X211180680Y-148173440D01*
X210753960Y-148196300D01*
X210322160Y-148168360D01*
X210225640Y-148153120D01*
X209875120Y-148074380D01*
X209516980Y-147947380D01*
X209184240Y-147787360D01*
X209044540Y-147703540D01*
X208793080Y-147513040D01*
X208541620Y-147279360D01*
X208307940Y-147020280D01*
X208112360Y-146753580D01*
X207990440Y-146547840D01*
X207873600Y-146298920D01*
X207797400Y-146077940D01*
X207749140Y-145856960D01*
X207726280Y-145608040D01*
X207721200Y-145387060D01*
X207721200Y-144957800D01*
X207863440Y-144957800D01*
X208008220Y-144957800D01*
X208010760Y-145328640D01*
X208028540Y-145620740D01*
X208079340Y-145862040D01*
X208170780Y-146070320D01*
X208307940Y-146270980D01*
X208394300Y-146367500D01*
X208661000Y-146608800D01*
X208963260Y-146789140D01*
X209224880Y-146888200D01*
X209296000Y-146905980D01*
X209372200Y-146923760D01*
X209463640Y-146933920D01*
X209580480Y-146944080D01*
X209730340Y-146949160D01*
X209920840Y-146954240D01*
X210164680Y-146956780D01*
X210469480Y-146956780D01*
X210751420Y-146956780D01*
X211112100Y-146956780D01*
X211409280Y-146954240D01*
X211645500Y-146951700D01*
X211836000Y-146946620D01*
X211983320Y-146939000D01*
X212102700Y-146928840D01*
X212196680Y-146913600D01*
X212280500Y-146895820D01*
X212303360Y-146890740D01*
X212638640Y-146781520D01*
X212902800Y-146644360D01*
X213100920Y-146474180D01*
X213235540Y-146268440D01*
X213306660Y-146027140D01*
X213321900Y-145834100D01*
X213291420Y-145562320D01*
X213202520Y-145338800D01*
X213050120Y-145150840D01*
X212831680Y-145000980D01*
X212760560Y-144965420D01*
X212653880Y-144917160D01*
X212557360Y-144889220D01*
X212448140Y-144871440D01*
X212308440Y-144863820D01*
X212123020Y-144863820D01*
X211833460Y-144873980D01*
X211571840Y-144914620D01*
X211328000Y-144985740D01*
X211091780Y-145097500D01*
X210850480Y-145252440D01*
X210591400Y-145458180D01*
X210306920Y-145717260D01*
X210197700Y-145821400D01*
X210035140Y-145978880D01*
X209915760Y-146088100D01*
X209834480Y-146151600D01*
X209783680Y-146174460D01*
X209755740Y-146166840D01*
X209722720Y-146128740D01*
X209643980Y-146039840D01*
X209522060Y-145907760D01*
X209369660Y-145735040D01*
X209184240Y-145529300D01*
X208975960Y-145293080D01*
X208747360Y-145039080D01*
X208526380Y-144792700D01*
X207342740Y-143464280D01*
X207406240Y-143367760D01*
X207472280Y-143268700D01*
X207901540Y-143723360D01*
X208330800Y-144175480D01*
X208330800Y-142433040D01*
X208330800Y-140690600D01*
X208036160Y-140690600D01*
X207769460Y-140710920D01*
X207556100Y-140771880D01*
X207388460Y-140883640D01*
X207246220Y-141053820D01*
X207154780Y-141224000D01*
X207053180Y-141432280D01*
X207035400Y-143090900D01*
X207030320Y-143507460D01*
X207027780Y-143852900D01*
X207020160Y-144139920D01*
X207012540Y-144368520D01*
X207002380Y-144553940D01*
X206987140Y-144701260D01*
X206969360Y-144813020D01*
X206943960Y-144904460D01*
X206910940Y-144978120D01*
X206870300Y-145041620D01*
X206822040Y-145102580D01*
X206761080Y-145168620D01*
X206745840Y-145183860D01*
X206677260Y-145254980D01*
X206570580Y-145356580D01*
X206433420Y-145481040D01*
X206283560Y-145618200D01*
X206123540Y-145760440D01*
X205966060Y-145895060D01*
X205823820Y-146016980D01*
X205704440Y-146116040D01*
X205618080Y-146184620D01*
X205574900Y-146210020D01*
X205574900Y-146210020D01*
X205549500Y-146179540D01*
X205478380Y-146093180D01*
X205371700Y-145963640D01*
X205232000Y-145793460D01*
X205064360Y-145587720D01*
X204876400Y-145356580D01*
X204668120Y-145102580D01*
X204579220Y-144995900D01*
X204363320Y-144734280D01*
X204165200Y-144490440D01*
X203984860Y-144269460D01*
X203827380Y-144078960D01*
X203702920Y-143924020D01*
X203614020Y-143814800D01*
X203563220Y-143756380D01*
X203558140Y-143746220D01*
X203547980Y-143690340D01*
X203547980Y-148709380D01*
X203649580Y-148785580D01*
X204330300Y-149207220D01*
X205031340Y-149560280D01*
X205770480Y-149852380D01*
X206537560Y-150080980D01*
X207324960Y-150243540D01*
X208122520Y-150337520D01*
X208920080Y-150365460D01*
X209626200Y-150327360D01*
X210446620Y-150210520D01*
X211246720Y-150025100D01*
X212021420Y-149771100D01*
X212768180Y-149451060D01*
X213481920Y-149067520D01*
X214157560Y-148623020D01*
X214790020Y-148120100D01*
X215376760Y-147561300D01*
X215912700Y-146951700D01*
X216326720Y-146390360D01*
X216766140Y-145676620D01*
X217136980Y-144934940D01*
X217439240Y-144170400D01*
X217667840Y-143390620D01*
X217827860Y-142595600D01*
X217914220Y-141792960D01*
X217929460Y-140985240D01*
X217871040Y-140177520D01*
X217741500Y-139372340D01*
X217538300Y-138577320D01*
X217258900Y-137792460D01*
X217131900Y-137490200D01*
X216761060Y-136748520D01*
X216326720Y-136050020D01*
X215828880Y-135394700D01*
X215270080Y-134780020D01*
X214757000Y-134305040D01*
X214104220Y-133791960D01*
X213415880Y-133342380D01*
X212697060Y-132961380D01*
X211955380Y-132648960D01*
X211188300Y-132402580D01*
X210408520Y-132227320D01*
X209616040Y-132120640D01*
X208815940Y-132082540D01*
X208010760Y-132115560D01*
X207210660Y-132219700D01*
X206415640Y-132397500D01*
X205630780Y-132646420D01*
X205054200Y-132880100D01*
X204312520Y-133250940D01*
X203614020Y-133685280D01*
X202958700Y-134183120D01*
X202344020Y-134741920D01*
X201869040Y-135255000D01*
X201358500Y-135907780D01*
X200911460Y-136588500D01*
X200535540Y-137299700D01*
X200223120Y-138031220D01*
X199979280Y-138783060D01*
X199801480Y-139550140D01*
X199689720Y-140324840D01*
X199646540Y-141104620D01*
X199646540Y-141104620D01*
X199646540Y-141104620D01*
G37*
X199646540Y-141104620D02*
X199669400Y-141886940D01*
X199760840Y-142664180D01*
X199918320Y-143433800D01*
X200141840Y-144188180D01*
X200431400Y-144927320D01*
X200789540Y-145646140D01*
X201216260Y-146337020D01*
X201706480Y-146997420D01*
X201869040Y-147190460D01*
X202420220Y-147782280D01*
X203012040Y-148310600D01*
X203547980Y-148709380D01*
X203547980Y-143690340D01*
X203598780Y-143614140D01*
X203603860Y-143609060D01*
X203687680Y-143520160D01*
X203962000Y-143799560D01*
X204096620Y-143934180D01*
X204193140Y-144018000D01*
X204269340Y-144063720D01*
X204335380Y-144081500D01*
X204358240Y-144081500D01*
X204492860Y-144048480D01*
X204597000Y-143946880D01*
X204642720Y-143855440D01*
X204655420Y-143791940D01*
X204668120Y-143662400D01*
X204680820Y-143482060D01*
X204693520Y-143256000D01*
X204703680Y-143002000D01*
X204711300Y-142768320D01*
X204721460Y-142440660D01*
X204731620Y-142181580D01*
X204744320Y-141975840D01*
X204759560Y-141815820D01*
X204782420Y-141688820D01*
X204810360Y-141584680D01*
X204845920Y-141493240D01*
X204891640Y-141404340D01*
X204917040Y-141361160D01*
X205064360Y-141155420D01*
X205254860Y-140985240D01*
X205496160Y-140845540D01*
X205790800Y-140728700D01*
X206146400Y-140637260D01*
X206502000Y-140573760D01*
X206707740Y-140543280D01*
X206837280Y-140520420D01*
X206895700Y-140497560D01*
X206885540Y-140467080D01*
X206809340Y-140426440D01*
X206664560Y-140365480D01*
X206578200Y-140332460D01*
X206174340Y-140159740D01*
X205836520Y-139989560D01*
X205546960Y-139816840D01*
X205300580Y-139636500D01*
X205084680Y-139440920D01*
X205021180Y-139374880D01*
X204817980Y-139131040D01*
X204663040Y-138877040D01*
X204553820Y-138602720D01*
X204480160Y-138290300D01*
X204444600Y-137929620D01*
X204434440Y-137622280D01*
X204444600Y-137248900D01*
X204480160Y-136933940D01*
X204548740Y-136654540D01*
X204652880Y-136400540D01*
X204802740Y-136151620D01*
X204998320Y-135890000D01*
X205059280Y-135818880D01*
X205196440Y-135669020D01*
X205359000Y-135506460D01*
X205536800Y-135341360D01*
X205714600Y-135186420D01*
X205887320Y-135049260D01*
X206039720Y-134934960D01*
X206164180Y-134856220D01*
X206245460Y-134823200D01*
X206255620Y-134823200D01*
X206291180Y-134851140D01*
X206367380Y-134924800D01*
X206474060Y-135039100D01*
X206598520Y-135181340D01*
X206651860Y-135244840D01*
X206816960Y-135435340D01*
X206987140Y-135618220D01*
X207172560Y-135806180D01*
X207378300Y-135999220D01*
X207611980Y-136215120D01*
X207883760Y-136453880D01*
X208203800Y-136723120D01*
X208500980Y-136972040D01*
X209265520Y-137607040D01*
X209288380Y-136776460D01*
X209298540Y-136443720D01*
X209313780Y-136177020D01*
X209334100Y-135963660D01*
X209364580Y-135796020D01*
X209402680Y-135663940D01*
X209453480Y-135554720D01*
X209519520Y-135458200D01*
X209557620Y-135409940D01*
X209666840Y-135300720D01*
X209786220Y-135214360D01*
X209925920Y-135150860D01*
X210093560Y-135107680D01*
X210301840Y-135082280D01*
X210553300Y-135074660D01*
X210863180Y-135079740D01*
X211236560Y-135102600D01*
X211302600Y-135107680D01*
X211726780Y-135133080D01*
X212082380Y-135153400D01*
X212374480Y-135163560D01*
X212610700Y-135163560D01*
X212796120Y-135153400D01*
X212938360Y-135130540D01*
X213047580Y-135097520D01*
X213123780Y-135051800D01*
X213177120Y-134993380D01*
X213212680Y-134919720D01*
X213215220Y-134914640D01*
X213266020Y-134818120D01*
X213334600Y-134785100D01*
X213344760Y-134785100D01*
X213393020Y-134800340D01*
X213428580Y-134851140D01*
X213451440Y-134947660D01*
X213466680Y-135097520D01*
X213474300Y-135308340D01*
X213474300Y-135432800D01*
X213461600Y-135851900D01*
X213426040Y-136227820D01*
X213370160Y-136547860D01*
X213293960Y-136806940D01*
X213199980Y-137005060D01*
X213123780Y-137099040D01*
X213037420Y-137177780D01*
X212951060Y-137236200D01*
X212857080Y-137281920D01*
X212742780Y-137314940D01*
X212595460Y-137340340D01*
X212402420Y-137355580D01*
X212156040Y-137365740D01*
X211863940Y-137373360D01*
X211790280Y-137401300D01*
X211721700Y-137452100D01*
X211696300Y-137482580D01*
X211675980Y-137523220D01*
X211663280Y-137584180D01*
X211653120Y-137675620D01*
X211648040Y-137810240D01*
X211645500Y-137998200D01*
X211645500Y-138249660D01*
X211645500Y-138272520D01*
X211645500Y-139014200D01*
X211884260Y-139014200D01*
X212056980Y-139021820D01*
X212252560Y-139037060D01*
X212379560Y-139052300D01*
X212636100Y-139110720D01*
X212849460Y-139204700D01*
X213027260Y-139344400D01*
X213166960Y-139529820D01*
X213278720Y-139766040D01*
X213357460Y-140060680D01*
X213405720Y-140416280D01*
X213431120Y-140835380D01*
X213436200Y-141114780D01*
X213436200Y-141719300D01*
X213347300Y-141719300D01*
X213304120Y-141714220D01*
X213273640Y-141686280D01*
X213250780Y-141620240D01*
X213230460Y-141503400D01*
X213220300Y-141414500D01*
X213189820Y-141226540D01*
X213146640Y-141081760D01*
X213083140Y-140972540D01*
X212986620Y-140893800D01*
X212852000Y-140843000D01*
X212664040Y-140809980D01*
X212420200Y-140789660D01*
X212211920Y-140776960D01*
X211640420Y-140754100D01*
X211653120Y-141653260D01*
X211658200Y-141952980D01*
X211660740Y-142184120D01*
X211670900Y-142367000D01*
X211691220Y-142504160D01*
X211726780Y-142610840D01*
X211777580Y-142699740D01*
X211851240Y-142781020D01*
X211952840Y-142864840D01*
X212082380Y-142961360D01*
X212150960Y-143014700D01*
X212305900Y-143134080D01*
X212450680Y-143250920D01*
X212570060Y-143349980D01*
X212618320Y-143395700D01*
X212826600Y-143626840D01*
X213027260Y-143916400D01*
X213210140Y-144241520D01*
X213362540Y-144581880D01*
X213441280Y-144807940D01*
X213504780Y-145087340D01*
X213532720Y-145407380D01*
X213527640Y-145742660D01*
X213487000Y-146067780D01*
X213441280Y-146265900D01*
X213291420Y-146679920D01*
X213078060Y-147058380D01*
X212813900Y-147391120D01*
X212504020Y-147673060D01*
X212150960Y-147899120D01*
X211955380Y-147988020D01*
X211589620Y-148102320D01*
X211180680Y-148173440D01*
X210753960Y-148196300D01*
X210322160Y-148168360D01*
X210225640Y-148153120D01*
X209875120Y-148074380D01*
X209516980Y-147947380D01*
X209184240Y-147787360D01*
X209044540Y-147703540D01*
X208793080Y-147513040D01*
X208541620Y-147279360D01*
X208307940Y-147020280D01*
X208112360Y-146753580D01*
X207990440Y-146547840D01*
X207873600Y-146298920D01*
X207797400Y-146077940D01*
X207749140Y-145856960D01*
X207726280Y-145608040D01*
X207721200Y-145387060D01*
X207721200Y-144957800D01*
X207863440Y-144957800D01*
X208008220Y-144957800D01*
X208010760Y-145328640D01*
X208028540Y-145620740D01*
X208079340Y-145862040D01*
X208170780Y-146070320D01*
X208307940Y-146270980D01*
X208394300Y-146367500D01*
X208661000Y-146608800D01*
X208963260Y-146789140D01*
X209224880Y-146888200D01*
X209296000Y-146905980D01*
X209372200Y-146923760D01*
X209463640Y-146933920D01*
X209580480Y-146944080D01*
X209730340Y-146949160D01*
X209920840Y-146954240D01*
X210164680Y-146956780D01*
X210469480Y-146956780D01*
X210751420Y-146956780D01*
X211112100Y-146956780D01*
X211409280Y-146954240D01*
X211645500Y-146951700D01*
X211836000Y-146946620D01*
X211983320Y-146939000D01*
X212102700Y-146928840D01*
X212196680Y-146913600D01*
X212280500Y-146895820D01*
X212303360Y-146890740D01*
X212638640Y-146781520D01*
X212902800Y-146644360D01*
X213100920Y-146474180D01*
X213235540Y-146268440D01*
X213306660Y-146027140D01*
X213321900Y-145834100D01*
X213291420Y-145562320D01*
X213202520Y-145338800D01*
X213050120Y-145150840D01*
X212831680Y-145000980D01*
X212760560Y-144965420D01*
X212653880Y-144917160D01*
X212557360Y-144889220D01*
X212448140Y-144871440D01*
X212308440Y-144863820D01*
X212123020Y-144863820D01*
X211833460Y-144873980D01*
X211571840Y-144914620D01*
X211328000Y-144985740D01*
X211091780Y-145097500D01*
X210850480Y-145252440D01*
X210591400Y-145458180D01*
X210306920Y-145717260D01*
X210197700Y-145821400D01*
X210035140Y-145978880D01*
X209915760Y-146088100D01*
X209834480Y-146151600D01*
X209783680Y-146174460D01*
X209755740Y-146166840D01*
X209722720Y-146128740D01*
X209643980Y-146039840D01*
X209522060Y-145907760D01*
X209369660Y-145735040D01*
X209184240Y-145529300D01*
X208975960Y-145293080D01*
X208747360Y-145039080D01*
X208526380Y-144792700D01*
X207342740Y-143464280D01*
X207406240Y-143367760D01*
X207472280Y-143268700D01*
X207901540Y-143723360D01*
X208330800Y-144175480D01*
X208330800Y-142433040D01*
X208330800Y-140690600D01*
X208036160Y-140690600D01*
X207769460Y-140710920D01*
X207556100Y-140771880D01*
X207388460Y-140883640D01*
X207246220Y-141053820D01*
X207154780Y-141224000D01*
X207053180Y-141432280D01*
X207035400Y-143090900D01*
X207030320Y-143507460D01*
X207027780Y-143852900D01*
X207020160Y-144139920D01*
X207012540Y-144368520D01*
X207002380Y-144553940D01*
X206987140Y-144701260D01*
X206969360Y-144813020D01*
X206943960Y-144904460D01*
X206910940Y-144978120D01*
X206870300Y-145041620D01*
X206822040Y-145102580D01*
X206761080Y-145168620D01*
X206745840Y-145183860D01*
X206677260Y-145254980D01*
X206570580Y-145356580D01*
X206433420Y-145481040D01*
X206283560Y-145618200D01*
X206123540Y-145760440D01*
X205966060Y-145895060D01*
X205823820Y-146016980D01*
X205704440Y-146116040D01*
X205618080Y-146184620D01*
X205574900Y-146210020D01*
X205574900Y-146210020D01*
X205549500Y-146179540D01*
X205478380Y-146093180D01*
X205371700Y-145963640D01*
X205232000Y-145793460D01*
X205064360Y-145587720D01*
X204876400Y-145356580D01*
X204668120Y-145102580D01*
X204579220Y-144995900D01*
X204363320Y-144734280D01*
X204165200Y-144490440D01*
X203984860Y-144269460D01*
X203827380Y-144078960D01*
X203702920Y-143924020D01*
X203614020Y-143814800D01*
X203563220Y-143756380D01*
X203558140Y-143746220D01*
X203547980Y-143690340D01*
X203547980Y-148709380D01*
X203649580Y-148785580D01*
X204330300Y-149207220D01*
X205031340Y-149560280D01*
X205770480Y-149852380D01*
X206537560Y-150080980D01*
X207324960Y-150243540D01*
X208122520Y-150337520D01*
X208920080Y-150365460D01*
X209626200Y-150327360D01*
X210446620Y-150210520D01*
X211246720Y-150025100D01*
X212021420Y-149771100D01*
X212768180Y-149451060D01*
X213481920Y-149067520D01*
X214157560Y-148623020D01*
X214790020Y-148120100D01*
X215376760Y-147561300D01*
X215912700Y-146951700D01*
X216326720Y-146390360D01*
X216766140Y-145676620D01*
X217136980Y-144934940D01*
X217439240Y-144170400D01*
X217667840Y-143390620D01*
X217827860Y-142595600D01*
X217914220Y-141792960D01*
X217929460Y-140985240D01*
X217871040Y-140177520D01*
X217741500Y-139372340D01*
X217538300Y-138577320D01*
X217258900Y-137792460D01*
X217131900Y-137490200D01*
X216761060Y-136748520D01*
X216326720Y-136050020D01*
X215828880Y-135394700D01*
X215270080Y-134780020D01*
X214757000Y-134305040D01*
X214104220Y-133791960D01*
X213415880Y-133342380D01*
X212697060Y-132961380D01*
X211955380Y-132648960D01*
X211188300Y-132402580D01*
X210408520Y-132227320D01*
X209616040Y-132120640D01*
X208815940Y-132082540D01*
X208010760Y-132115560D01*
X207210660Y-132219700D01*
X206415640Y-132397500D01*
X205630780Y-132646420D01*
X205054200Y-132880100D01*
X204312520Y-133250940D01*
X203614020Y-133685280D01*
X202958700Y-134183120D01*
X202344020Y-134741920D01*
X201869040Y-135255000D01*
X201358500Y-135907780D01*
X200911460Y-136588500D01*
X200535540Y-137299700D01*
X200223120Y-138031220D01*
X199979280Y-138783060D01*
X199801480Y-139550140D01*
X199689720Y-140324840D01*
X199646540Y-141104620D01*
X199646540Y-141104620D01*
G36*
X208564480Y-141462760D02*
X208567020Y-141945360D01*
X208569560Y-142267940D01*
X208579720Y-143924020D01*
X208729580Y-143807180D01*
X209235040Y-143471900D01*
X209755740Y-143202660D01*
X210296760Y-143007080D01*
X210845400Y-142882620D01*
X211071460Y-142854680D01*
X211541360Y-142808960D01*
X211373720Y-142737840D01*
X211117180Y-142643860D01*
X210817460Y-142562580D01*
X210494880Y-142494000D01*
X210169760Y-142448280D01*
X209864960Y-142420340D01*
X209600800Y-142417800D01*
X209522060Y-142425420D01*
X209283300Y-142448280D01*
X209280760Y-140169900D01*
X209280760Y-137888980D01*
X208927700Y-137599420D01*
X208579720Y-137304780D01*
X208569560Y-138960860D01*
X208567020Y-139397740D01*
X208564480Y-139890500D01*
X208564480Y-140413740D01*
X208564480Y-140944600D01*
X208564480Y-141462760D01*
X208564480Y-141462760D01*
X208564480Y-141462760D01*
G37*
X208564480Y-141462760D02*
X208567020Y-141945360D01*
X208569560Y-142267940D01*
X208579720Y-143924020D01*
X208729580Y-143807180D01*
X209235040Y-143471900D01*
X209755740Y-143202660D01*
X210296760Y-143007080D01*
X210845400Y-142882620D01*
X211071460Y-142854680D01*
X211541360Y-142808960D01*
X211373720Y-142737840D01*
X211117180Y-142643860D01*
X210817460Y-142562580D01*
X210494880Y-142494000D01*
X210169760Y-142448280D01*
X209864960Y-142420340D01*
X209600800Y-142417800D01*
X209522060Y-142425420D01*
X209283300Y-142448280D01*
X209280760Y-140169900D01*
X209280760Y-137888980D01*
X208927700Y-137599420D01*
X208579720Y-137304780D01*
X208569560Y-138960860D01*
X208567020Y-139397740D01*
X208564480Y-139890500D01*
X208564480Y-140413740D01*
X208564480Y-140944600D01*
X208564480Y-141462760D01*
X208564480Y-141462760D01*
G36*
X206768700Y-138485880D02*
X206791560Y-138948160D01*
X206862680Y-139349480D01*
X206979520Y-139689840D01*
X207144620Y-139971780D01*
X207357980Y-140195300D01*
X207444340Y-140261340D01*
X207624680Y-140357860D01*
X207843120Y-140436600D01*
X208061560Y-140487400D01*
X208206340Y-140500100D01*
X208330800Y-140500100D01*
X208320640Y-138795760D01*
X208310480Y-137093960D01*
X208147920Y-136977120D01*
X208038700Y-136911080D01*
X207939640Y-136875520D01*
X207815180Y-136865360D01*
X207746600Y-136865360D01*
X207533240Y-136885680D01*
X207363060Y-136949180D01*
X207208120Y-137068560D01*
X207164940Y-137114280D01*
X207004920Y-137330180D01*
X206888080Y-137594340D01*
X206809340Y-137911840D01*
X206773780Y-138290300D01*
X206768700Y-138485880D01*
X206768700Y-138485880D01*
X206768700Y-138485880D01*
G37*
X206768700Y-138485880D02*
X206791560Y-138948160D01*
X206862680Y-139349480D01*
X206979520Y-139689840D01*
X207144620Y-139971780D01*
X207357980Y-140195300D01*
X207444340Y-140261340D01*
X207624680Y-140357860D01*
X207843120Y-140436600D01*
X208061560Y-140487400D01*
X208206340Y-140500100D01*
X208330800Y-140500100D01*
X208320640Y-138795760D01*
X208310480Y-137093960D01*
X208147920Y-136977120D01*
X208038700Y-136911080D01*
X207939640Y-136875520D01*
X207815180Y-136865360D01*
X207746600Y-136865360D01*
X207533240Y-136885680D01*
X207363060Y-136949180D01*
X207208120Y-137068560D01*
X207164940Y-137114280D01*
X207004920Y-137330180D01*
X206888080Y-137594340D01*
X206809340Y-137911840D01*
X206773780Y-138290300D01*
X206768700Y-138485880D01*
X206768700Y-138485880D01*
M02*
