M48
;DRILL file {KiCad 4.0.0-rc1-stable} date 10/27/2015 9:53:43 PM
;FORMAT={-:-/ absolute / inch / decimal}
FMAT,2
INCH,TZ
T1C0.031
T2C0.032
T3C0.032
T4C0.035
T5C0.040
T6C0.047
T7C0.075
%
G90
G05
M72
T1
X7.8225Y-5.21
T2
X7.9209Y-5.21
T3
X7.67Y-5.385
X7.67Y-5.735
X7.82Y-5.41
X7.82Y-5.71
X7.92Y-5.41
X7.92Y-5.71
X8.02Y-5.41
X8.02Y-5.71
X8.12Y-5.41
X8.12Y-5.71
X8.245Y-5.21
X8.245Y-5.91
X8.595Y-5.21
X8.595Y-5.91
T4
X7.8231Y-5.91
X8.02Y-5.91
X8.32Y-5.46
X8.32Y-5.6569
X8.52Y-5.46
X8.52Y-5.6569
T5
X7.445Y-5.36
X7.445Y-5.46
X7.445Y-5.56
X7.445Y-5.66
X7.445Y-5.76
T6
X8.7231Y-5.56
X8.92Y-5.3631
X8.92Y-5.7569
X9.0184Y-5.3631
X9.0184Y-5.7569
T7
X8.7231Y-5.3631
X8.7231Y-5.7569
X8.92Y-5.56
T0
M30
