G04 #@! TF.FileFunction,Legend,Top*
%FSLAX46Y46*%
G04 Gerber Fmt 4.6, Leading zero omitted, Abs format (unit mm)*
G04 Created by KiCad (PCBNEW 4.0.0-rc1-stable) date 10/27/2015 9:53:31 PM*
%MOMM*%
G01*
G04 APERTURE LIST*
%ADD10C,0.150000*%
%ADD11C,0.317500*%
%ADD12C,0.190500*%
%ADD13C,0.254000*%
%ADD14C,0.203200*%
%ADD15C,0.304800*%
G04 APERTURE END LIST*
D10*
D11*
X201792114Y-130470124D02*
X201368781Y-129865362D01*
X201066400Y-130470124D02*
X201066400Y-129200124D01*
X201550209Y-129200124D01*
X201671162Y-129260600D01*
X201731638Y-129321076D01*
X201792114Y-129442029D01*
X201792114Y-129623457D01*
X201731638Y-129744410D01*
X201671162Y-129804886D01*
X201550209Y-129865362D01*
X201066400Y-129865362D01*
X202336400Y-130470124D02*
X202336400Y-129200124D01*
X202880686Y-130470124D02*
X202880686Y-129804886D01*
X202820209Y-129683933D01*
X202699257Y-129623457D01*
X202517829Y-129623457D01*
X202396876Y-129683933D01*
X202336400Y-129744410D01*
X203969257Y-130409648D02*
X203848305Y-130470124D01*
X203606400Y-130470124D01*
X203485448Y-130409648D01*
X203424972Y-130288695D01*
X203424972Y-129804886D01*
X203485448Y-129683933D01*
X203606400Y-129623457D01*
X203848305Y-129623457D01*
X203969257Y-129683933D01*
X204029734Y-129804886D01*
X204029734Y-129925838D01*
X203424972Y-130046790D01*
X204574019Y-130470124D02*
X204574019Y-129623457D01*
X204574019Y-129200124D02*
X204513543Y-129260600D01*
X204574019Y-129321076D01*
X204634495Y-129260600D01*
X204574019Y-129200124D01*
X204574019Y-129321076D01*
X205178781Y-129623457D02*
X205178781Y-130470124D01*
X205178781Y-129744410D02*
X205239257Y-129683933D01*
X205360210Y-129623457D01*
X205541638Y-129623457D01*
X205662590Y-129683933D01*
X205723067Y-129804886D01*
X205723067Y-130470124D01*
X206872115Y-129623457D02*
X206872115Y-130651552D01*
X206811638Y-130772505D01*
X206751162Y-130832981D01*
X206630210Y-130893457D01*
X206448781Y-130893457D01*
X206327829Y-130832981D01*
X206872115Y-130409648D02*
X206751162Y-130470124D01*
X206509258Y-130470124D01*
X206388305Y-130409648D01*
X206327829Y-130349171D01*
X206267353Y-130228219D01*
X206267353Y-129865362D01*
X206327829Y-129744410D01*
X206388305Y-129683933D01*
X206509258Y-129623457D01*
X206751162Y-129623457D01*
X206872115Y-129683933D01*
X207658306Y-130470124D02*
X207537353Y-130409648D01*
X207476877Y-130349171D01*
X207416401Y-130228219D01*
X207416401Y-129865362D01*
X207476877Y-129744410D01*
X207537353Y-129683933D01*
X207658306Y-129623457D01*
X207839734Y-129623457D01*
X207960686Y-129683933D01*
X208021163Y-129744410D01*
X208081639Y-129865362D01*
X208081639Y-130228219D01*
X208021163Y-130349171D01*
X207960686Y-130409648D01*
X207839734Y-130470124D01*
X207658306Y-130470124D01*
X208807354Y-130470124D02*
X208686401Y-130409648D01*
X208625925Y-130288695D01*
X208625925Y-129200124D01*
X209835449Y-130470124D02*
X209835449Y-129200124D01*
X209835449Y-130409648D02*
X209714496Y-130470124D01*
X209472592Y-130470124D01*
X209351639Y-130409648D01*
X209291163Y-130349171D01*
X209230687Y-130228219D01*
X209230687Y-129865362D01*
X209291163Y-129744410D01*
X209351639Y-129683933D01*
X209472592Y-129623457D01*
X209714496Y-129623457D01*
X209835449Y-129683933D01*
X211407830Y-130470124D02*
X211407830Y-129200124D01*
X211407830Y-129804886D02*
X212133544Y-129804886D01*
X212133544Y-130470124D02*
X212133544Y-129200124D01*
X213222115Y-130409648D02*
X213101163Y-130470124D01*
X212859258Y-130470124D01*
X212738306Y-130409648D01*
X212677830Y-130288695D01*
X212677830Y-129804886D01*
X212738306Y-129683933D01*
X212859258Y-129623457D01*
X213101163Y-129623457D01*
X213222115Y-129683933D01*
X213282592Y-129804886D01*
X213282592Y-129925838D01*
X212677830Y-130046790D01*
X214371163Y-130470124D02*
X214371163Y-129804886D01*
X214310686Y-129683933D01*
X214189734Y-129623457D01*
X213947829Y-129623457D01*
X213826877Y-129683933D01*
X214371163Y-130409648D02*
X214250210Y-130470124D01*
X213947829Y-130470124D01*
X213826877Y-130409648D01*
X213766401Y-130288695D01*
X213766401Y-130167743D01*
X213826877Y-130046790D01*
X213947829Y-129986314D01*
X214250210Y-129986314D01*
X214371163Y-129925838D01*
X214854973Y-129623457D02*
X215157354Y-130470124D01*
X215459734Y-129623457D01*
X215822592Y-129623457D02*
X216124973Y-130470124D01*
X216427353Y-129623457D02*
X216124973Y-130470124D01*
X216004020Y-130772505D01*
X215943544Y-130832981D01*
X215822592Y-130893457D01*
D12*
X191243858Y-146013714D02*
X190881001Y-146013714D01*
X190844715Y-146376571D01*
X190881001Y-146340286D01*
X190953572Y-146304000D01*
X191135001Y-146304000D01*
X191207572Y-146340286D01*
X191243858Y-146376571D01*
X191280143Y-146449143D01*
X191280143Y-146630571D01*
X191243858Y-146703143D01*
X191207572Y-146739429D01*
X191135001Y-146775714D01*
X190953572Y-146775714D01*
X190881001Y-146739429D01*
X190844715Y-146703143D01*
X191497857Y-146013714D02*
X191751857Y-146775714D01*
X192005857Y-146013714D01*
X190881000Y-143346714D02*
X191026143Y-143346714D01*
X191098715Y-143383000D01*
X191171286Y-143455571D01*
X191207572Y-143600714D01*
X191207572Y-143854714D01*
X191171286Y-143999857D01*
X191098715Y-144072429D01*
X191026143Y-144108714D01*
X190881000Y-144108714D01*
X190808429Y-144072429D01*
X190735858Y-143999857D01*
X190699572Y-143854714D01*
X190699572Y-143600714D01*
X190735858Y-143455571D01*
X190808429Y-143383000D01*
X190881000Y-143346714D01*
X191534144Y-143346714D02*
X191534144Y-143963571D01*
X191570429Y-144036143D01*
X191606715Y-144072429D01*
X191679286Y-144108714D01*
X191824429Y-144108714D01*
X191897001Y-144072429D01*
X191933286Y-144036143D01*
X191969572Y-143963571D01*
X191969572Y-143346714D01*
X192223572Y-143346714D02*
X192659001Y-143346714D01*
X192441287Y-144108714D02*
X192441287Y-143346714D01*
X190754001Y-141659429D02*
X190862858Y-141695714D01*
X191044287Y-141695714D01*
X191116858Y-141659429D01*
X191153144Y-141623143D01*
X191189429Y-141550571D01*
X191189429Y-141478000D01*
X191153144Y-141405429D01*
X191116858Y-141369143D01*
X191044287Y-141332857D01*
X190899144Y-141296571D01*
X190826572Y-141260286D01*
X190790287Y-141224000D01*
X190754001Y-141151429D01*
X190754001Y-141078857D01*
X190790287Y-141006286D01*
X190826572Y-140970000D01*
X190899144Y-140933714D01*
X191080572Y-140933714D01*
X191189429Y-140970000D01*
X191407143Y-140933714D02*
X191842572Y-140933714D01*
X191624858Y-141695714D02*
X191624858Y-140933714D01*
X192532000Y-141695714D02*
X192278000Y-141332857D01*
X192096572Y-141695714D02*
X192096572Y-140933714D01*
X192386857Y-140933714D01*
X192459429Y-140970000D01*
X192495714Y-141006286D01*
X192532000Y-141078857D01*
X192532000Y-141187714D01*
X192495714Y-141260286D01*
X192459429Y-141296571D01*
X192386857Y-141332857D01*
X192096572Y-141332857D01*
X191225715Y-139155714D02*
X190971715Y-138792857D01*
X190790287Y-139155714D02*
X190790287Y-138393714D01*
X191080572Y-138393714D01*
X191153144Y-138430000D01*
X191189429Y-138466286D01*
X191225715Y-138538857D01*
X191225715Y-138647714D01*
X191189429Y-138720286D01*
X191153144Y-138756571D01*
X191080572Y-138792857D01*
X190790287Y-138792857D01*
X191516001Y-139119429D02*
X191624858Y-139155714D01*
X191806287Y-139155714D01*
X191878858Y-139119429D01*
X191915144Y-139083143D01*
X191951429Y-139010571D01*
X191951429Y-138938000D01*
X191915144Y-138865429D01*
X191878858Y-138829143D01*
X191806287Y-138792857D01*
X191661144Y-138756571D01*
X191588572Y-138720286D01*
X191552287Y-138684000D01*
X191516001Y-138611429D01*
X191516001Y-138538857D01*
X191552287Y-138466286D01*
X191588572Y-138430000D01*
X191661144Y-138393714D01*
X191842572Y-138393714D01*
X191951429Y-138430000D01*
X192169143Y-138393714D02*
X192604572Y-138393714D01*
X192386858Y-139155714D02*
X192386858Y-138393714D01*
X191189428Y-135890000D02*
X191116857Y-135853714D01*
X191008000Y-135853714D01*
X190899143Y-135890000D01*
X190826571Y-135962571D01*
X190790286Y-136035143D01*
X190754000Y-136180286D01*
X190754000Y-136289143D01*
X190790286Y-136434286D01*
X190826571Y-136506857D01*
X190899143Y-136579429D01*
X191008000Y-136615714D01*
X191080571Y-136615714D01*
X191189428Y-136579429D01*
X191225714Y-136543143D01*
X191225714Y-136289143D01*
X191080571Y-136289143D01*
X191552286Y-136615714D02*
X191552286Y-135853714D01*
X191987714Y-136615714D01*
X191987714Y-135853714D01*
X192350572Y-136615714D02*
X192350572Y-135853714D01*
X192532000Y-135853714D01*
X192640857Y-135890000D01*
X192713429Y-135962571D01*
X192749714Y-136035143D01*
X192786000Y-136180286D01*
X192786000Y-136289143D01*
X192749714Y-136434286D01*
X192713429Y-136506857D01*
X192640857Y-136579429D01*
X192532000Y-136615714D01*
X192350572Y-136615714D01*
D13*
X197358000Y-139954000D02*
X198628000Y-139954000D01*
X198628000Y-139954000D02*
X198628000Y-142494000D01*
X198628000Y-142494000D02*
X197358000Y-142494000D01*
X197358000Y-138684000D02*
X207518000Y-138684000D01*
X207518000Y-138684000D02*
X207518000Y-143764000D01*
X207518000Y-143764000D02*
X197358000Y-143764000D01*
X197358000Y-143764000D02*
X197358000Y-138684000D01*
D10*
X230368000Y-145724000D02*
X231068000Y-145724000D01*
X230068000Y-147524000D02*
X230368000Y-147524000D01*
X230368000Y-145724000D02*
X230368000Y-147524000D01*
X230368000Y-136724000D02*
X231068000Y-136724000D01*
X230068000Y-134924000D02*
X230368000Y-134924000D01*
X230368000Y-134924000D02*
X230368000Y-136724000D01*
X219068000Y-134924000D02*
X230068000Y-134924000D01*
X219068000Y-147524000D02*
X230068000Y-147524000D01*
X219068000Y-147524000D02*
X219068000Y-134924000D01*
X231068000Y-136724000D02*
X231068000Y-139224000D01*
X231068000Y-145724000D02*
X231068000Y-143224000D01*
X231068000Y-143224000D02*
X229868000Y-143224000D01*
X229868000Y-143224000D02*
X229868000Y-139224000D01*
X229868000Y-139224000D02*
X231068000Y-139224000D01*
D14*
X194818000Y-137414000D02*
X194818000Y-137922000D01*
X194818000Y-145034000D02*
X194818000Y-144526000D01*
X194818000Y-144526000D02*
X195834000Y-144526000D01*
X195834000Y-144526000D02*
X195834000Y-137922000D01*
X195834000Y-137922000D02*
X193802000Y-137922000D01*
X193802000Y-137922000D02*
X193802000Y-144526000D01*
X193802000Y-144526000D02*
X194818000Y-144526000D01*
X210058000Y-132334000D02*
X210566000Y-132334000D01*
X217678000Y-132334000D02*
X217170000Y-132334000D01*
X217170000Y-132334000D02*
X217170000Y-131318000D01*
X217170000Y-131318000D02*
X210566000Y-131318000D01*
X210566000Y-131318000D02*
X210566000Y-133350000D01*
X210566000Y-133350000D02*
X217170000Y-133350000D01*
X217170000Y-133350000D02*
X217170000Y-132334000D01*
X210058000Y-150114000D02*
X210566000Y-150114000D01*
X217678000Y-150114000D02*
X217170000Y-150114000D01*
X217170000Y-150114000D02*
X217170000Y-149098000D01*
X217170000Y-149098000D02*
X210566000Y-149098000D01*
X210566000Y-149098000D02*
X210566000Y-151130000D01*
X210566000Y-151130000D02*
X217170000Y-151130000D01*
X217170000Y-151130000D02*
X217170000Y-150114000D01*
D15*
X187833000Y-147574000D02*
X190373000Y-147574000D01*
X190373000Y-134874000D02*
X187833000Y-134874000D01*
X187833000Y-147574000D02*
X187833000Y-134874000D01*
X190373000Y-134874000D02*
X190373000Y-147574000D01*
D10*
X198441500Y-131084000D02*
X201441500Y-131084000D01*
X201441500Y-133584000D02*
X198441500Y-133584000D01*
X204208000Y-152364000D02*
X198208000Y-152364000D01*
X198208000Y-147864000D02*
X204208000Y-147864000D01*
X218658000Y-138184000D02*
X218658000Y-144184000D01*
X214158000Y-144184000D02*
X214158000Y-138184000D01*
X213578000Y-138184000D02*
X213578000Y-144184000D01*
X209078000Y-144184000D02*
X209078000Y-138184000D01*
D13*
X201663905Y-140667619D02*
X201663905Y-141490095D01*
X201712286Y-141586857D01*
X201760667Y-141635238D01*
X201857429Y-141683619D01*
X202050952Y-141683619D01*
X202147714Y-141635238D01*
X202196095Y-141586857D01*
X202244476Y-141490095D01*
X202244476Y-140667619D01*
X203260476Y-141683619D02*
X202679905Y-141683619D01*
X202970191Y-141683619D02*
X202970191Y-140667619D01*
X202873429Y-140812762D01*
X202776667Y-140909524D01*
X202679905Y-140957905D01*
X226229333Y-148287619D02*
X226229333Y-149013333D01*
X226180953Y-149158476D01*
X226084191Y-149255238D01*
X225939048Y-149303619D01*
X225842286Y-149303619D01*
X226664762Y-148384381D02*
X226713143Y-148336000D01*
X226809905Y-148287619D01*
X227051809Y-148287619D01*
X227148571Y-148336000D01*
X227196952Y-148384381D01*
X227245333Y-148481143D01*
X227245333Y-148577905D01*
X227196952Y-148723048D01*
X226616381Y-149303619D01*
X227245333Y-149303619D01*
X194648667Y-135206619D02*
X194310001Y-134722810D01*
X194068096Y-135206619D02*
X194068096Y-134190619D01*
X194455143Y-134190619D01*
X194551905Y-134239000D01*
X194600286Y-134287381D01*
X194648667Y-134384143D01*
X194648667Y-134529286D01*
X194600286Y-134626048D01*
X194551905Y-134674429D01*
X194455143Y-134722810D01*
X194068096Y-134722810D01*
X195616286Y-135206619D02*
X195035715Y-135206619D01*
X195326001Y-135206619D02*
X195326001Y-134190619D01*
X195229239Y-134335762D01*
X195132477Y-134432524D01*
X195035715Y-134480905D01*
X220429667Y-132793619D02*
X220091001Y-132309810D01*
X219849096Y-132793619D02*
X219849096Y-131777619D01*
X220236143Y-131777619D01*
X220332905Y-131826000D01*
X220381286Y-131874381D01*
X220429667Y-131971143D01*
X220429667Y-132116286D01*
X220381286Y-132213048D01*
X220332905Y-132261429D01*
X220236143Y-132309810D01*
X219849096Y-132309810D01*
X220816715Y-131874381D02*
X220865096Y-131826000D01*
X220961858Y-131777619D01*
X221203762Y-131777619D01*
X221300524Y-131826000D01*
X221348905Y-131874381D01*
X221397286Y-131971143D01*
X221397286Y-132067905D01*
X221348905Y-132213048D01*
X220768334Y-132793619D01*
X221397286Y-132793619D01*
X220429667Y-150573619D02*
X220091001Y-150089810D01*
X219849096Y-150573619D02*
X219849096Y-149557619D01*
X220236143Y-149557619D01*
X220332905Y-149606000D01*
X220381286Y-149654381D01*
X220429667Y-149751143D01*
X220429667Y-149896286D01*
X220381286Y-149993048D01*
X220332905Y-150041429D01*
X220236143Y-150089810D01*
X219849096Y-150089810D01*
X220768334Y-149557619D02*
X221397286Y-149557619D01*
X221058620Y-149944667D01*
X221203762Y-149944667D01*
X221300524Y-149993048D01*
X221348905Y-150041429D01*
X221397286Y-150138190D01*
X221397286Y-150380095D01*
X221348905Y-150476857D01*
X221300524Y-150525238D01*
X221203762Y-150573619D01*
X220913477Y-150573619D01*
X220816715Y-150525238D01*
X220768334Y-150476857D01*
X188764333Y-133047619D02*
X188764333Y-133773333D01*
X188715953Y-133918476D01*
X188619191Y-134015238D01*
X188474048Y-134063619D01*
X188377286Y-134063619D01*
X189780333Y-134063619D02*
X189199762Y-134063619D01*
X189490048Y-134063619D02*
X189490048Y-133047619D01*
X189393286Y-133192762D01*
X189296524Y-133289524D01*
X189199762Y-133337905D01*
X203602167Y-132696857D02*
X203553786Y-132745238D01*
X203408643Y-132793619D01*
X203311881Y-132793619D01*
X203166739Y-132745238D01*
X203069977Y-132648476D01*
X203021596Y-132551714D01*
X202973215Y-132358190D01*
X202973215Y-132213048D01*
X203021596Y-132019524D01*
X203069977Y-131922762D01*
X203166739Y-131826000D01*
X203311881Y-131777619D01*
X203408643Y-131777619D01*
X203553786Y-131826000D01*
X203602167Y-131874381D01*
X203940834Y-131777619D02*
X204569786Y-131777619D01*
X204231120Y-132164667D01*
X204376262Y-132164667D01*
X204473024Y-132213048D01*
X204521405Y-132261429D01*
X204569786Y-132358190D01*
X204569786Y-132600095D01*
X204521405Y-132696857D01*
X204473024Y-132745238D01*
X204376262Y-132793619D01*
X204085977Y-132793619D01*
X203989215Y-132745238D01*
X203940834Y-132696857D01*
X206269167Y-150476857D02*
X206220786Y-150525238D01*
X206075643Y-150573619D01*
X205978881Y-150573619D01*
X205833739Y-150525238D01*
X205736977Y-150428476D01*
X205688596Y-150331714D01*
X205640215Y-150138190D01*
X205640215Y-149993048D01*
X205688596Y-149799524D01*
X205736977Y-149702762D01*
X205833739Y-149606000D01*
X205978881Y-149557619D01*
X206075643Y-149557619D01*
X206220786Y-149606000D01*
X206269167Y-149654381D01*
X207236786Y-150573619D02*
X206656215Y-150573619D01*
X206946501Y-150573619D02*
X206946501Y-149557619D01*
X206849739Y-149702762D01*
X206752977Y-149799524D01*
X206656215Y-149847905D01*
X216238667Y-146412857D02*
X216190286Y-146461238D01*
X216045143Y-146509619D01*
X215948381Y-146509619D01*
X215803239Y-146461238D01*
X215706477Y-146364476D01*
X215658096Y-146267714D01*
X215609715Y-146074190D01*
X215609715Y-145929048D01*
X215658096Y-145735524D01*
X215706477Y-145638762D01*
X215803239Y-145542000D01*
X215948381Y-145493619D01*
X216045143Y-145493619D01*
X216190286Y-145542000D01*
X216238667Y-145590381D01*
X216625715Y-145590381D02*
X216674096Y-145542000D01*
X216770858Y-145493619D01*
X217012762Y-145493619D01*
X217109524Y-145542000D01*
X217157905Y-145590381D01*
X217206286Y-145687143D01*
X217206286Y-145783905D01*
X217157905Y-145929048D01*
X216577334Y-146509619D01*
X217206286Y-146509619D01*
X211158667Y-146412857D02*
X211110286Y-146461238D01*
X210965143Y-146509619D01*
X210868381Y-146509619D01*
X210723239Y-146461238D01*
X210626477Y-146364476D01*
X210578096Y-146267714D01*
X210529715Y-146074190D01*
X210529715Y-145929048D01*
X210578096Y-145735524D01*
X210626477Y-145638762D01*
X210723239Y-145542000D01*
X210868381Y-145493619D01*
X210965143Y-145493619D01*
X211110286Y-145542000D01*
X211158667Y-145590381D01*
X212029524Y-145832286D02*
X212029524Y-146509619D01*
X211787620Y-145445238D02*
X211545715Y-146170952D01*
X212174667Y-146170952D01*
M02*
