G04 #@! TF.FileFunction,Copper,L2,Bot,Signal*
%FSLAX46Y46*%
G04 Gerber Fmt 4.6, Leading zero omitted, Abs format (unit mm)*
G04 Created by KiCad (PCBNEW 4.0.0-rc1-stable) date 10/27/2015 9:53:31 PM*
%MOMM*%
G01*
G04 APERTURE LIST*
%ADD10C,0.150000*%
%ADD11R,1.397000X1.397000*%
%ADD12C,1.397000*%
%ADD13C,2.900000*%
%ADD14C,1.250000*%
%ADD15R,1.524000X1.524000*%
%ADD16C,1.524000*%
%ADD17R,1.300000X1.300000*%
%ADD18C,1.300000*%
%ADD19R,1.400000X1.400000*%
%ADD20C,1.400000*%
%ADD21C,0.254000*%
G04 APERTURE END LIST*
D10*
D11*
X198628000Y-145034000D03*
D12*
X201168000Y-145034000D03*
X203708000Y-145034000D03*
X206248000Y-145034000D03*
X206248000Y-137414000D03*
X203708000Y-137414000D03*
X201168000Y-137414000D03*
X198628000Y-137414000D03*
D13*
X226568000Y-141224000D03*
X221568000Y-136224000D03*
X221568000Y-146224000D03*
D14*
X221568000Y-141224000D03*
X226568000Y-146224000D03*
X226568000Y-136224000D03*
X229068000Y-136224000D03*
X229068000Y-146224000D03*
D12*
X194818000Y-136779000D03*
X194818000Y-145669000D03*
X209423000Y-132334000D03*
X218313000Y-132334000D03*
X209423000Y-150114000D03*
X218313000Y-150114000D03*
D15*
X189103000Y-146304000D03*
D16*
X189103000Y-143764000D03*
X189103000Y-141224000D03*
X189103000Y-138684000D03*
X189103000Y-136144000D03*
D17*
X198691500Y-132334000D03*
D18*
X201191500Y-132334000D03*
D19*
X203708000Y-150114000D03*
D20*
X198708000Y-150114000D03*
D19*
X216408000Y-138684000D03*
D20*
X216408000Y-143684000D03*
D19*
X211328000Y-138684000D03*
D20*
X211328000Y-143684000D03*
D21*
G36*
X228417999Y-129082629D02*
X229122420Y-129504009D01*
X229611964Y-130162883D01*
X229820000Y-130990348D01*
X229820000Y-135553371D01*
X229638597Y-135371652D01*
X229268984Y-135218175D01*
X228868772Y-135217825D01*
X228498891Y-135370657D01*
X228215652Y-135653403D01*
X228062175Y-136023016D01*
X228061825Y-136423228D01*
X228214657Y-136793109D01*
X228497403Y-137076348D01*
X228867016Y-137229825D01*
X229267228Y-137230175D01*
X229637109Y-137077343D01*
X229820000Y-136894770D01*
X229820000Y-145553371D01*
X229638597Y-145371652D01*
X229268984Y-145218175D01*
X228868772Y-145217825D01*
X228498891Y-145370657D01*
X228215652Y-145653403D01*
X228062175Y-146023016D01*
X228061825Y-146423228D01*
X228214657Y-146793109D01*
X228497403Y-147076348D01*
X228867016Y-147229825D01*
X229267228Y-147230175D01*
X229637109Y-147077343D01*
X229820000Y-146894770D01*
X229820000Y-151341552D01*
X229651661Y-152187848D01*
X229196317Y-152869317D01*
X228514848Y-153324661D01*
X227668552Y-153493000D01*
X189780448Y-153493000D01*
X188934152Y-153324661D01*
X188252683Y-152869317D01*
X187797339Y-152187848D01*
X187629000Y-151341552D01*
X187629000Y-150328081D01*
X197626813Y-150328081D01*
X197791038Y-150725537D01*
X198094863Y-151029893D01*
X198492032Y-151194812D01*
X198922081Y-151195187D01*
X199319537Y-151030962D01*
X199623893Y-150727137D01*
X199759835Y-150399750D01*
X202373000Y-150399750D01*
X202373000Y-150940310D01*
X202469673Y-151173699D01*
X202648302Y-151352327D01*
X202881691Y-151449000D01*
X203422250Y-151449000D01*
X203581000Y-151290250D01*
X203581000Y-150241000D01*
X203835000Y-150241000D01*
X203835000Y-151290250D01*
X203993750Y-151449000D01*
X204534309Y-151449000D01*
X204767698Y-151352327D01*
X204946327Y-151173699D01*
X205043000Y-150940310D01*
X205043000Y-150399750D01*
X204971034Y-150327784D01*
X208343313Y-150327784D01*
X208507311Y-150724689D01*
X208810714Y-151028622D01*
X209207332Y-151193313D01*
X209636784Y-151193687D01*
X210033689Y-151029689D01*
X210337622Y-150726286D01*
X210502313Y-150329668D01*
X210502314Y-150327784D01*
X217233313Y-150327784D01*
X217397311Y-150724689D01*
X217700714Y-151028622D01*
X218097332Y-151193313D01*
X218526784Y-151193687D01*
X218923689Y-151029689D01*
X219227622Y-150726286D01*
X219392313Y-150329668D01*
X219392687Y-149900216D01*
X219228689Y-149503311D01*
X218925286Y-149199378D01*
X218528668Y-149034687D01*
X218099216Y-149034313D01*
X217702311Y-149198311D01*
X217398378Y-149501714D01*
X217233687Y-149898332D01*
X217233313Y-150327784D01*
X210502314Y-150327784D01*
X210502687Y-149900216D01*
X210338689Y-149503311D01*
X210035286Y-149199378D01*
X209638668Y-149034687D01*
X209209216Y-149034313D01*
X208812311Y-149198311D01*
X208508378Y-149501714D01*
X208343687Y-149898332D01*
X208343313Y-150327784D01*
X204971034Y-150327784D01*
X204884250Y-150241000D01*
X203835000Y-150241000D01*
X203581000Y-150241000D01*
X202531750Y-150241000D01*
X202373000Y-150399750D01*
X199759835Y-150399750D01*
X199788812Y-150329968D01*
X199789187Y-149899919D01*
X199624962Y-149502463D01*
X199410564Y-149287690D01*
X202373000Y-149287690D01*
X202373000Y-149828250D01*
X202531750Y-149987000D01*
X203581000Y-149987000D01*
X203581000Y-148937750D01*
X203835000Y-148937750D01*
X203835000Y-149987000D01*
X204884250Y-149987000D01*
X205043000Y-149828250D01*
X205043000Y-149287690D01*
X204946327Y-149054301D01*
X204767698Y-148875673D01*
X204534309Y-148779000D01*
X203993750Y-148779000D01*
X203835000Y-148937750D01*
X203581000Y-148937750D01*
X203422250Y-148779000D01*
X202881691Y-148779000D01*
X202648302Y-148875673D01*
X202469673Y-149054301D01*
X202373000Y-149287690D01*
X199410564Y-149287690D01*
X199321137Y-149198107D01*
X198923968Y-149033188D01*
X198493919Y-149032813D01*
X198096463Y-149197038D01*
X197792107Y-149500863D01*
X197627188Y-149898032D01*
X197626813Y-150328081D01*
X187629000Y-150328081D01*
X187629000Y-145542000D01*
X187952536Y-145542000D01*
X187952536Y-147066000D01*
X187979103Y-147207190D01*
X188062546Y-147336865D01*
X188189866Y-147423859D01*
X188341000Y-147454464D01*
X189865000Y-147454464D01*
X190006190Y-147427897D01*
X190135865Y-147344454D01*
X190222859Y-147217134D01*
X190253464Y-147066000D01*
X190253464Y-145882784D01*
X193738313Y-145882784D01*
X193902311Y-146279689D01*
X194205714Y-146583622D01*
X194602332Y-146748313D01*
X195031784Y-146748687D01*
X195424039Y-146586610D01*
X219736683Y-146586610D01*
X220014849Y-147259823D01*
X220529468Y-147775341D01*
X221202194Y-148054681D01*
X221930610Y-148055317D01*
X222603823Y-147777151D01*
X223119341Y-147262532D01*
X223398681Y-146589806D01*
X223398826Y-146423228D01*
X225561825Y-146423228D01*
X225714657Y-146793109D01*
X225997403Y-147076348D01*
X226367016Y-147229825D01*
X226767228Y-147230175D01*
X227137109Y-147077343D01*
X227420348Y-146794597D01*
X227573825Y-146424984D01*
X227574175Y-146024772D01*
X227421343Y-145654891D01*
X227138597Y-145371652D01*
X226768984Y-145218175D01*
X226368772Y-145217825D01*
X225998891Y-145370657D01*
X225715652Y-145653403D01*
X225562175Y-146023016D01*
X225561825Y-146423228D01*
X223398826Y-146423228D01*
X223399317Y-145861390D01*
X223121151Y-145188177D01*
X222606532Y-144672659D01*
X221933806Y-144393319D01*
X221205390Y-144392683D01*
X220532177Y-144670849D01*
X220016659Y-145185468D01*
X219737319Y-145858194D01*
X219736683Y-146586610D01*
X195424039Y-146586610D01*
X195428689Y-146584689D01*
X195732622Y-146281286D01*
X195897313Y-145884668D01*
X195897687Y-145455216D01*
X195733689Y-145058311D01*
X195430286Y-144754378D01*
X195033668Y-144589687D01*
X194604216Y-144589313D01*
X194207311Y-144753311D01*
X193903378Y-145056714D01*
X193738687Y-145453332D01*
X193738313Y-145882784D01*
X190253464Y-145882784D01*
X190253464Y-145542000D01*
X190226897Y-145400810D01*
X190143454Y-145271135D01*
X190016134Y-145184141D01*
X189865000Y-145153536D01*
X188341000Y-145153536D01*
X188199810Y-145180103D01*
X188070135Y-145263546D01*
X187983141Y-145390866D01*
X187952536Y-145542000D01*
X187629000Y-145542000D01*
X187629000Y-143990359D01*
X187959802Y-143990359D01*
X188133446Y-144410612D01*
X188454697Y-144732423D01*
X188874646Y-144906801D01*
X189329359Y-144907198D01*
X189749612Y-144733554D01*
X190071423Y-144412303D01*
X190103314Y-144335500D01*
X197541036Y-144335500D01*
X197541036Y-145732500D01*
X197567603Y-145873690D01*
X197651046Y-146003365D01*
X197778366Y-146090359D01*
X197929500Y-146120964D01*
X199326500Y-146120964D01*
X199467690Y-146094397D01*
X199597365Y-146010954D01*
X199626585Y-145968188D01*
X200413417Y-145968188D01*
X200475071Y-146203800D01*
X200975480Y-146379927D01*
X201505199Y-146351148D01*
X201860929Y-146203800D01*
X201922583Y-145968188D01*
X201168000Y-145213605D01*
X200413417Y-145968188D01*
X199626585Y-145968188D01*
X199684359Y-145883634D01*
X199714964Y-145732500D01*
X199714964Y-144841480D01*
X199822073Y-144841480D01*
X199850852Y-145371199D01*
X199998200Y-145726929D01*
X200233812Y-145788583D01*
X200988395Y-145034000D01*
X201347605Y-145034000D01*
X202102188Y-145788583D01*
X202337800Y-145726929D01*
X202506442Y-145247784D01*
X202628313Y-145247784D01*
X202792311Y-145644689D01*
X203095714Y-145948622D01*
X203492332Y-146113313D01*
X203921784Y-146113687D01*
X204318689Y-145949689D01*
X204622622Y-145646286D01*
X204787313Y-145249668D01*
X204787314Y-145247784D01*
X205168313Y-145247784D01*
X205332311Y-145644689D01*
X205635714Y-145948622D01*
X206032332Y-146113313D01*
X206461784Y-146113687D01*
X206858689Y-145949689D01*
X207162622Y-145646286D01*
X207327313Y-145249668D01*
X207327687Y-144820216D01*
X207244660Y-144619275D01*
X210572331Y-144619275D01*
X210634169Y-144855042D01*
X211135122Y-145031419D01*
X211665440Y-145002664D01*
X212021831Y-144855042D01*
X212083669Y-144619275D01*
X211328000Y-143863605D01*
X210572331Y-144619275D01*
X207244660Y-144619275D01*
X207163689Y-144423311D01*
X206860286Y-144119378D01*
X206463668Y-143954687D01*
X206034216Y-143954313D01*
X205637311Y-144118311D01*
X205333378Y-144421714D01*
X205168687Y-144818332D01*
X205168313Y-145247784D01*
X204787314Y-145247784D01*
X204787687Y-144820216D01*
X204623689Y-144423311D01*
X204320286Y-144119378D01*
X203923668Y-143954687D01*
X203494216Y-143954313D01*
X203097311Y-144118311D01*
X202793378Y-144421714D01*
X202628687Y-144818332D01*
X202628313Y-145247784D01*
X202506442Y-145247784D01*
X202513927Y-145226520D01*
X202485148Y-144696801D01*
X202337800Y-144341071D01*
X202102188Y-144279417D01*
X201347605Y-145034000D01*
X200988395Y-145034000D01*
X200233812Y-144279417D01*
X199998200Y-144341071D01*
X199822073Y-144841480D01*
X199714964Y-144841480D01*
X199714964Y-144335500D01*
X199688397Y-144194310D01*
X199627590Y-144099812D01*
X200413417Y-144099812D01*
X201168000Y-144854395D01*
X201922583Y-144099812D01*
X201860929Y-143864200D01*
X201360520Y-143688073D01*
X200830801Y-143716852D01*
X200475071Y-143864200D01*
X200413417Y-144099812D01*
X199627590Y-144099812D01*
X199604954Y-144064635D01*
X199477634Y-143977641D01*
X199326500Y-143947036D01*
X197929500Y-143947036D01*
X197788310Y-143973603D01*
X197658635Y-144057046D01*
X197571641Y-144184366D01*
X197541036Y-144335500D01*
X190103314Y-144335500D01*
X190245801Y-143992354D01*
X190246198Y-143537641D01*
X190226977Y-143491122D01*
X209980581Y-143491122D01*
X210009336Y-144021440D01*
X210156958Y-144377831D01*
X210392725Y-144439669D01*
X211148395Y-143684000D01*
X211507605Y-143684000D01*
X212263275Y-144439669D01*
X212499042Y-144377831D01*
X212667953Y-143898081D01*
X215326813Y-143898081D01*
X215491038Y-144295537D01*
X215794863Y-144599893D01*
X216192032Y-144764812D01*
X216622081Y-144765187D01*
X217019537Y-144600962D01*
X217323893Y-144297137D01*
X217488812Y-143899968D01*
X217489187Y-143469919D01*
X217324962Y-143072463D01*
X217021137Y-142768107D01*
X216861571Y-142701849D01*
X225269756Y-142701849D01*
X225423435Y-143015424D01*
X226196108Y-143317066D01*
X227025398Y-143300058D01*
X227712565Y-143015424D01*
X227866244Y-142701849D01*
X226568000Y-141403605D01*
X225269756Y-142701849D01*
X216861571Y-142701849D01*
X216623968Y-142603188D01*
X216193919Y-142602813D01*
X215796463Y-142767038D01*
X215492107Y-143070863D01*
X215327188Y-143468032D01*
X215326813Y-143898081D01*
X212667953Y-143898081D01*
X212675419Y-143876878D01*
X212646664Y-143346560D01*
X212499042Y-142990169D01*
X212263275Y-142928331D01*
X211507605Y-143684000D01*
X211148395Y-143684000D01*
X210392725Y-142928331D01*
X210156958Y-142990169D01*
X209980581Y-143491122D01*
X190226977Y-143491122D01*
X190072554Y-143117388D01*
X189751303Y-142795577D01*
X189638471Y-142748725D01*
X210572331Y-142748725D01*
X211328000Y-143504395D01*
X212083669Y-142748725D01*
X212021831Y-142512958D01*
X211520878Y-142336581D01*
X210990560Y-142365336D01*
X210634169Y-142512958D01*
X210572331Y-142748725D01*
X189638471Y-142748725D01*
X189331354Y-142621199D01*
X188876641Y-142620802D01*
X188456388Y-142794446D01*
X188134577Y-143115697D01*
X187960199Y-143535646D01*
X187959802Y-143990359D01*
X187629000Y-143990359D01*
X187629000Y-141450359D01*
X187959802Y-141450359D01*
X188133446Y-141870612D01*
X188454697Y-142192423D01*
X188874646Y-142366801D01*
X189329359Y-142367198D01*
X189749612Y-142193554D01*
X190071423Y-141872303D01*
X190245801Y-141452354D01*
X190245826Y-141423228D01*
X220561825Y-141423228D01*
X220714657Y-141793109D01*
X220997403Y-142076348D01*
X221367016Y-142229825D01*
X221767228Y-142230175D01*
X222137109Y-142077343D01*
X222420348Y-141794597D01*
X222573825Y-141424984D01*
X222574175Y-141024772D01*
X222502832Y-140852108D01*
X224474934Y-140852108D01*
X224491942Y-141681398D01*
X224776576Y-142368565D01*
X225090151Y-142522244D01*
X226388395Y-141224000D01*
X226747605Y-141224000D01*
X228045849Y-142522244D01*
X228359424Y-142368565D01*
X228661066Y-141595892D01*
X228644058Y-140766602D01*
X228359424Y-140079435D01*
X228045849Y-139925756D01*
X226747605Y-141224000D01*
X226388395Y-141224000D01*
X225090151Y-139925756D01*
X224776576Y-140079435D01*
X224474934Y-140852108D01*
X222502832Y-140852108D01*
X222421343Y-140654891D01*
X222138597Y-140371652D01*
X221768984Y-140218175D01*
X221368772Y-140217825D01*
X220998891Y-140370657D01*
X220715652Y-140653403D01*
X220562175Y-141023016D01*
X220561825Y-141423228D01*
X190245826Y-141423228D01*
X190246198Y-140997641D01*
X190072554Y-140577388D01*
X189751303Y-140255577D01*
X189331354Y-140081199D01*
X188876641Y-140080802D01*
X188456388Y-140254446D01*
X188134577Y-140575697D01*
X187960199Y-140995646D01*
X187959802Y-141450359D01*
X187629000Y-141450359D01*
X187629000Y-138910359D01*
X187959802Y-138910359D01*
X188133446Y-139330612D01*
X188454697Y-139652423D01*
X188874646Y-139826801D01*
X189329359Y-139827198D01*
X189749612Y-139653554D01*
X190071423Y-139332303D01*
X190245801Y-138912354D01*
X190246198Y-138457641D01*
X190072554Y-138037388D01*
X189751303Y-137715577D01*
X189331354Y-137541199D01*
X189137340Y-137541030D01*
X189450368Y-137525362D01*
X189834143Y-137366397D01*
X189903608Y-137124213D01*
X189772179Y-136992784D01*
X193738313Y-136992784D01*
X193902311Y-137389689D01*
X194205714Y-137693622D01*
X194602332Y-137858313D01*
X195031784Y-137858687D01*
X195428689Y-137694689D01*
X195495710Y-137627784D01*
X197548313Y-137627784D01*
X197712311Y-138024689D01*
X198015714Y-138328622D01*
X198412332Y-138493313D01*
X198841784Y-138493687D01*
X199238689Y-138329689D01*
X199542622Y-138026286D01*
X199707313Y-137629668D01*
X199707314Y-137627784D01*
X200088313Y-137627784D01*
X200252311Y-138024689D01*
X200555714Y-138328622D01*
X200952332Y-138493313D01*
X201381784Y-138493687D01*
X201778689Y-138329689D01*
X202082622Y-138026286D01*
X202247313Y-137629668D01*
X202247314Y-137627784D01*
X202628313Y-137627784D01*
X202792311Y-138024689D01*
X203095714Y-138328622D01*
X203492332Y-138493313D01*
X203921784Y-138493687D01*
X204318689Y-138329689D01*
X204622622Y-138026286D01*
X204787313Y-137629668D01*
X204787314Y-137627784D01*
X205168313Y-137627784D01*
X205332311Y-138024689D01*
X205635714Y-138328622D01*
X206032332Y-138493313D01*
X206461784Y-138493687D01*
X206858689Y-138329689D01*
X207162622Y-138026286D01*
X207180180Y-137984000D01*
X210239536Y-137984000D01*
X210239536Y-139384000D01*
X210266103Y-139525190D01*
X210349546Y-139654865D01*
X210476866Y-139741859D01*
X210628000Y-139772464D01*
X212028000Y-139772464D01*
X212169190Y-139745897D01*
X212298865Y-139662454D01*
X212385859Y-139535134D01*
X212416464Y-139384000D01*
X212416464Y-137984000D01*
X215319536Y-137984000D01*
X215319536Y-139384000D01*
X215346103Y-139525190D01*
X215429546Y-139654865D01*
X215556866Y-139741859D01*
X215708000Y-139772464D01*
X217108000Y-139772464D01*
X217247840Y-139746151D01*
X225269756Y-139746151D01*
X226568000Y-141044395D01*
X227866244Y-139746151D01*
X227712565Y-139432576D01*
X226939892Y-139130934D01*
X226110602Y-139147942D01*
X225423435Y-139432576D01*
X225269756Y-139746151D01*
X217247840Y-139746151D01*
X217249190Y-139745897D01*
X217378865Y-139662454D01*
X217465859Y-139535134D01*
X217496464Y-139384000D01*
X217496464Y-137984000D01*
X217469897Y-137842810D01*
X217386454Y-137713135D01*
X217259134Y-137626141D01*
X217108000Y-137595536D01*
X215708000Y-137595536D01*
X215566810Y-137622103D01*
X215437135Y-137705546D01*
X215350141Y-137832866D01*
X215319536Y-137984000D01*
X212416464Y-137984000D01*
X212389897Y-137842810D01*
X212306454Y-137713135D01*
X212179134Y-137626141D01*
X212028000Y-137595536D01*
X210628000Y-137595536D01*
X210486810Y-137622103D01*
X210357135Y-137705546D01*
X210270141Y-137832866D01*
X210239536Y-137984000D01*
X207180180Y-137984000D01*
X207327313Y-137629668D01*
X207327687Y-137200216D01*
X207163689Y-136803311D01*
X206947366Y-136586610D01*
X219736683Y-136586610D01*
X220014849Y-137259823D01*
X220529468Y-137775341D01*
X221202194Y-138054681D01*
X221930610Y-138055317D01*
X222603823Y-137777151D01*
X223119341Y-137262532D01*
X223398681Y-136589806D01*
X223398826Y-136423228D01*
X225561825Y-136423228D01*
X225714657Y-136793109D01*
X225997403Y-137076348D01*
X226367016Y-137229825D01*
X226767228Y-137230175D01*
X227137109Y-137077343D01*
X227420348Y-136794597D01*
X227573825Y-136424984D01*
X227574175Y-136024772D01*
X227421343Y-135654891D01*
X227138597Y-135371652D01*
X226768984Y-135218175D01*
X226368772Y-135217825D01*
X225998891Y-135370657D01*
X225715652Y-135653403D01*
X225562175Y-136023016D01*
X225561825Y-136423228D01*
X223398826Y-136423228D01*
X223399317Y-135861390D01*
X223121151Y-135188177D01*
X222606532Y-134672659D01*
X221933806Y-134393319D01*
X221205390Y-134392683D01*
X220532177Y-134670849D01*
X220016659Y-135185468D01*
X219737319Y-135858194D01*
X219736683Y-136586610D01*
X206947366Y-136586610D01*
X206860286Y-136499378D01*
X206463668Y-136334687D01*
X206034216Y-136334313D01*
X205637311Y-136498311D01*
X205333378Y-136801714D01*
X205168687Y-137198332D01*
X205168313Y-137627784D01*
X204787314Y-137627784D01*
X204787687Y-137200216D01*
X204623689Y-136803311D01*
X204320286Y-136499378D01*
X203923668Y-136334687D01*
X203494216Y-136334313D01*
X203097311Y-136498311D01*
X202793378Y-136801714D01*
X202628687Y-137198332D01*
X202628313Y-137627784D01*
X202247314Y-137627784D01*
X202247687Y-137200216D01*
X202083689Y-136803311D01*
X201780286Y-136499378D01*
X201383668Y-136334687D01*
X200954216Y-136334313D01*
X200557311Y-136498311D01*
X200253378Y-136801714D01*
X200088687Y-137198332D01*
X200088313Y-137627784D01*
X199707314Y-137627784D01*
X199707687Y-137200216D01*
X199543689Y-136803311D01*
X199240286Y-136499378D01*
X198843668Y-136334687D01*
X198414216Y-136334313D01*
X198017311Y-136498311D01*
X197713378Y-136801714D01*
X197548687Y-137198332D01*
X197548313Y-137627784D01*
X195495710Y-137627784D01*
X195732622Y-137391286D01*
X195897313Y-136994668D01*
X195897687Y-136565216D01*
X195733689Y-136168311D01*
X195430286Y-135864378D01*
X195033668Y-135699687D01*
X194604216Y-135699313D01*
X194207311Y-135863311D01*
X193903378Y-136166714D01*
X193738687Y-136563332D01*
X193738313Y-136992784D01*
X189772179Y-136992784D01*
X189103000Y-136323605D01*
X188302392Y-137124213D01*
X188371857Y-137366397D01*
X188869258Y-137543852D01*
X188456388Y-137714446D01*
X188134577Y-138035697D01*
X187960199Y-138455646D01*
X187959802Y-138910359D01*
X187629000Y-138910359D01*
X187629000Y-135936302D01*
X187693856Y-135936302D01*
X187721638Y-136491368D01*
X187880603Y-136875143D01*
X188122787Y-136944608D01*
X188923395Y-136144000D01*
X189282605Y-136144000D01*
X190083213Y-136944608D01*
X190325397Y-136875143D01*
X190512144Y-136351698D01*
X190484362Y-135796632D01*
X190325397Y-135412857D01*
X190083213Y-135343392D01*
X189282605Y-136144000D01*
X188923395Y-136144000D01*
X188122787Y-135343392D01*
X187880603Y-135412857D01*
X187693856Y-135936302D01*
X187629000Y-135936302D01*
X187629000Y-135163787D01*
X188302392Y-135163787D01*
X189103000Y-135964395D01*
X189903608Y-135163787D01*
X189834143Y-134921603D01*
X189310698Y-134734856D01*
X188755632Y-134762638D01*
X188371857Y-134921603D01*
X188302392Y-135163787D01*
X187629000Y-135163787D01*
X187629000Y-131684000D01*
X197653036Y-131684000D01*
X197653036Y-132984000D01*
X197679603Y-133125190D01*
X197763046Y-133254865D01*
X197890366Y-133341859D01*
X198041500Y-133372464D01*
X199341500Y-133372464D01*
X199482690Y-133345897D01*
X199612365Y-133262454D01*
X199632479Y-133233016D01*
X200472090Y-133233016D01*
X200527771Y-133463611D01*
X201010578Y-133631622D01*
X201520928Y-133602083D01*
X201855229Y-133463611D01*
X201910910Y-133233016D01*
X201191500Y-132513605D01*
X200472090Y-133233016D01*
X199632479Y-133233016D01*
X199699359Y-133135134D01*
X199729964Y-132984000D01*
X199729964Y-132153078D01*
X199893878Y-132153078D01*
X199923417Y-132663428D01*
X200061889Y-132997729D01*
X200292484Y-133053410D01*
X201011895Y-132334000D01*
X201371105Y-132334000D01*
X202090516Y-133053410D01*
X202321111Y-132997729D01*
X202477686Y-132547784D01*
X208343313Y-132547784D01*
X208507311Y-132944689D01*
X208810714Y-133248622D01*
X209207332Y-133413313D01*
X209636784Y-133413687D01*
X210033689Y-133249689D01*
X210337622Y-132946286D01*
X210502313Y-132549668D01*
X210502314Y-132547784D01*
X217233313Y-132547784D01*
X217397311Y-132944689D01*
X217700714Y-133248622D01*
X218097332Y-133413313D01*
X218526784Y-133413687D01*
X218923689Y-133249689D01*
X219227622Y-132946286D01*
X219392313Y-132549668D01*
X219392687Y-132120216D01*
X219228689Y-131723311D01*
X218925286Y-131419378D01*
X218528668Y-131254687D01*
X218099216Y-131254313D01*
X217702311Y-131418311D01*
X217398378Y-131721714D01*
X217233687Y-132118332D01*
X217233313Y-132547784D01*
X210502314Y-132547784D01*
X210502687Y-132120216D01*
X210338689Y-131723311D01*
X210035286Y-131419378D01*
X209638668Y-131254687D01*
X209209216Y-131254313D01*
X208812311Y-131418311D01*
X208508378Y-131721714D01*
X208343687Y-132118332D01*
X208343313Y-132547784D01*
X202477686Y-132547784D01*
X202489122Y-132514922D01*
X202459583Y-132004572D01*
X202321111Y-131670271D01*
X202090516Y-131614590D01*
X201371105Y-132334000D01*
X201011895Y-132334000D01*
X200292484Y-131614590D01*
X200061889Y-131670271D01*
X199893878Y-132153078D01*
X199729964Y-132153078D01*
X199729964Y-131684000D01*
X199703397Y-131542810D01*
X199634014Y-131434984D01*
X200472090Y-131434984D01*
X201191500Y-132154395D01*
X201910910Y-131434984D01*
X201855229Y-131204389D01*
X201372422Y-131036378D01*
X200862072Y-131065917D01*
X200527771Y-131204389D01*
X200472090Y-131434984D01*
X199634014Y-131434984D01*
X199619954Y-131413135D01*
X199492634Y-131326141D01*
X199341500Y-131295536D01*
X198041500Y-131295536D01*
X197900310Y-131322103D01*
X197770635Y-131405546D01*
X197683641Y-131532866D01*
X197653036Y-131684000D01*
X187629000Y-131684000D01*
X187629000Y-131106448D01*
X187797339Y-130260152D01*
X188252683Y-129578683D01*
X188934152Y-129123339D01*
X189780448Y-128955000D01*
X227552397Y-128955000D01*
X228417999Y-129082629D01*
X228417999Y-129082629D01*
G37*
X228417999Y-129082629D02*
X229122420Y-129504009D01*
X229611964Y-130162883D01*
X229820000Y-130990348D01*
X229820000Y-135553371D01*
X229638597Y-135371652D01*
X229268984Y-135218175D01*
X228868772Y-135217825D01*
X228498891Y-135370657D01*
X228215652Y-135653403D01*
X228062175Y-136023016D01*
X228061825Y-136423228D01*
X228214657Y-136793109D01*
X228497403Y-137076348D01*
X228867016Y-137229825D01*
X229267228Y-137230175D01*
X229637109Y-137077343D01*
X229820000Y-136894770D01*
X229820000Y-145553371D01*
X229638597Y-145371652D01*
X229268984Y-145218175D01*
X228868772Y-145217825D01*
X228498891Y-145370657D01*
X228215652Y-145653403D01*
X228062175Y-146023016D01*
X228061825Y-146423228D01*
X228214657Y-146793109D01*
X228497403Y-147076348D01*
X228867016Y-147229825D01*
X229267228Y-147230175D01*
X229637109Y-147077343D01*
X229820000Y-146894770D01*
X229820000Y-151341552D01*
X229651661Y-152187848D01*
X229196317Y-152869317D01*
X228514848Y-153324661D01*
X227668552Y-153493000D01*
X189780448Y-153493000D01*
X188934152Y-153324661D01*
X188252683Y-152869317D01*
X187797339Y-152187848D01*
X187629000Y-151341552D01*
X187629000Y-150328081D01*
X197626813Y-150328081D01*
X197791038Y-150725537D01*
X198094863Y-151029893D01*
X198492032Y-151194812D01*
X198922081Y-151195187D01*
X199319537Y-151030962D01*
X199623893Y-150727137D01*
X199759835Y-150399750D01*
X202373000Y-150399750D01*
X202373000Y-150940310D01*
X202469673Y-151173699D01*
X202648302Y-151352327D01*
X202881691Y-151449000D01*
X203422250Y-151449000D01*
X203581000Y-151290250D01*
X203581000Y-150241000D01*
X203835000Y-150241000D01*
X203835000Y-151290250D01*
X203993750Y-151449000D01*
X204534309Y-151449000D01*
X204767698Y-151352327D01*
X204946327Y-151173699D01*
X205043000Y-150940310D01*
X205043000Y-150399750D01*
X204971034Y-150327784D01*
X208343313Y-150327784D01*
X208507311Y-150724689D01*
X208810714Y-151028622D01*
X209207332Y-151193313D01*
X209636784Y-151193687D01*
X210033689Y-151029689D01*
X210337622Y-150726286D01*
X210502313Y-150329668D01*
X210502314Y-150327784D01*
X217233313Y-150327784D01*
X217397311Y-150724689D01*
X217700714Y-151028622D01*
X218097332Y-151193313D01*
X218526784Y-151193687D01*
X218923689Y-151029689D01*
X219227622Y-150726286D01*
X219392313Y-150329668D01*
X219392687Y-149900216D01*
X219228689Y-149503311D01*
X218925286Y-149199378D01*
X218528668Y-149034687D01*
X218099216Y-149034313D01*
X217702311Y-149198311D01*
X217398378Y-149501714D01*
X217233687Y-149898332D01*
X217233313Y-150327784D01*
X210502314Y-150327784D01*
X210502687Y-149900216D01*
X210338689Y-149503311D01*
X210035286Y-149199378D01*
X209638668Y-149034687D01*
X209209216Y-149034313D01*
X208812311Y-149198311D01*
X208508378Y-149501714D01*
X208343687Y-149898332D01*
X208343313Y-150327784D01*
X204971034Y-150327784D01*
X204884250Y-150241000D01*
X203835000Y-150241000D01*
X203581000Y-150241000D01*
X202531750Y-150241000D01*
X202373000Y-150399750D01*
X199759835Y-150399750D01*
X199788812Y-150329968D01*
X199789187Y-149899919D01*
X199624962Y-149502463D01*
X199410564Y-149287690D01*
X202373000Y-149287690D01*
X202373000Y-149828250D01*
X202531750Y-149987000D01*
X203581000Y-149987000D01*
X203581000Y-148937750D01*
X203835000Y-148937750D01*
X203835000Y-149987000D01*
X204884250Y-149987000D01*
X205043000Y-149828250D01*
X205043000Y-149287690D01*
X204946327Y-149054301D01*
X204767698Y-148875673D01*
X204534309Y-148779000D01*
X203993750Y-148779000D01*
X203835000Y-148937750D01*
X203581000Y-148937750D01*
X203422250Y-148779000D01*
X202881691Y-148779000D01*
X202648302Y-148875673D01*
X202469673Y-149054301D01*
X202373000Y-149287690D01*
X199410564Y-149287690D01*
X199321137Y-149198107D01*
X198923968Y-149033188D01*
X198493919Y-149032813D01*
X198096463Y-149197038D01*
X197792107Y-149500863D01*
X197627188Y-149898032D01*
X197626813Y-150328081D01*
X187629000Y-150328081D01*
X187629000Y-145542000D01*
X187952536Y-145542000D01*
X187952536Y-147066000D01*
X187979103Y-147207190D01*
X188062546Y-147336865D01*
X188189866Y-147423859D01*
X188341000Y-147454464D01*
X189865000Y-147454464D01*
X190006190Y-147427897D01*
X190135865Y-147344454D01*
X190222859Y-147217134D01*
X190253464Y-147066000D01*
X190253464Y-145882784D01*
X193738313Y-145882784D01*
X193902311Y-146279689D01*
X194205714Y-146583622D01*
X194602332Y-146748313D01*
X195031784Y-146748687D01*
X195424039Y-146586610D01*
X219736683Y-146586610D01*
X220014849Y-147259823D01*
X220529468Y-147775341D01*
X221202194Y-148054681D01*
X221930610Y-148055317D01*
X222603823Y-147777151D01*
X223119341Y-147262532D01*
X223398681Y-146589806D01*
X223398826Y-146423228D01*
X225561825Y-146423228D01*
X225714657Y-146793109D01*
X225997403Y-147076348D01*
X226367016Y-147229825D01*
X226767228Y-147230175D01*
X227137109Y-147077343D01*
X227420348Y-146794597D01*
X227573825Y-146424984D01*
X227574175Y-146024772D01*
X227421343Y-145654891D01*
X227138597Y-145371652D01*
X226768984Y-145218175D01*
X226368772Y-145217825D01*
X225998891Y-145370657D01*
X225715652Y-145653403D01*
X225562175Y-146023016D01*
X225561825Y-146423228D01*
X223398826Y-146423228D01*
X223399317Y-145861390D01*
X223121151Y-145188177D01*
X222606532Y-144672659D01*
X221933806Y-144393319D01*
X221205390Y-144392683D01*
X220532177Y-144670849D01*
X220016659Y-145185468D01*
X219737319Y-145858194D01*
X219736683Y-146586610D01*
X195424039Y-146586610D01*
X195428689Y-146584689D01*
X195732622Y-146281286D01*
X195897313Y-145884668D01*
X195897687Y-145455216D01*
X195733689Y-145058311D01*
X195430286Y-144754378D01*
X195033668Y-144589687D01*
X194604216Y-144589313D01*
X194207311Y-144753311D01*
X193903378Y-145056714D01*
X193738687Y-145453332D01*
X193738313Y-145882784D01*
X190253464Y-145882784D01*
X190253464Y-145542000D01*
X190226897Y-145400810D01*
X190143454Y-145271135D01*
X190016134Y-145184141D01*
X189865000Y-145153536D01*
X188341000Y-145153536D01*
X188199810Y-145180103D01*
X188070135Y-145263546D01*
X187983141Y-145390866D01*
X187952536Y-145542000D01*
X187629000Y-145542000D01*
X187629000Y-143990359D01*
X187959802Y-143990359D01*
X188133446Y-144410612D01*
X188454697Y-144732423D01*
X188874646Y-144906801D01*
X189329359Y-144907198D01*
X189749612Y-144733554D01*
X190071423Y-144412303D01*
X190103314Y-144335500D01*
X197541036Y-144335500D01*
X197541036Y-145732500D01*
X197567603Y-145873690D01*
X197651046Y-146003365D01*
X197778366Y-146090359D01*
X197929500Y-146120964D01*
X199326500Y-146120964D01*
X199467690Y-146094397D01*
X199597365Y-146010954D01*
X199626585Y-145968188D01*
X200413417Y-145968188D01*
X200475071Y-146203800D01*
X200975480Y-146379927D01*
X201505199Y-146351148D01*
X201860929Y-146203800D01*
X201922583Y-145968188D01*
X201168000Y-145213605D01*
X200413417Y-145968188D01*
X199626585Y-145968188D01*
X199684359Y-145883634D01*
X199714964Y-145732500D01*
X199714964Y-144841480D01*
X199822073Y-144841480D01*
X199850852Y-145371199D01*
X199998200Y-145726929D01*
X200233812Y-145788583D01*
X200988395Y-145034000D01*
X201347605Y-145034000D01*
X202102188Y-145788583D01*
X202337800Y-145726929D01*
X202506442Y-145247784D01*
X202628313Y-145247784D01*
X202792311Y-145644689D01*
X203095714Y-145948622D01*
X203492332Y-146113313D01*
X203921784Y-146113687D01*
X204318689Y-145949689D01*
X204622622Y-145646286D01*
X204787313Y-145249668D01*
X204787314Y-145247784D01*
X205168313Y-145247784D01*
X205332311Y-145644689D01*
X205635714Y-145948622D01*
X206032332Y-146113313D01*
X206461784Y-146113687D01*
X206858689Y-145949689D01*
X207162622Y-145646286D01*
X207327313Y-145249668D01*
X207327687Y-144820216D01*
X207244660Y-144619275D01*
X210572331Y-144619275D01*
X210634169Y-144855042D01*
X211135122Y-145031419D01*
X211665440Y-145002664D01*
X212021831Y-144855042D01*
X212083669Y-144619275D01*
X211328000Y-143863605D01*
X210572331Y-144619275D01*
X207244660Y-144619275D01*
X207163689Y-144423311D01*
X206860286Y-144119378D01*
X206463668Y-143954687D01*
X206034216Y-143954313D01*
X205637311Y-144118311D01*
X205333378Y-144421714D01*
X205168687Y-144818332D01*
X205168313Y-145247784D01*
X204787314Y-145247784D01*
X204787687Y-144820216D01*
X204623689Y-144423311D01*
X204320286Y-144119378D01*
X203923668Y-143954687D01*
X203494216Y-143954313D01*
X203097311Y-144118311D01*
X202793378Y-144421714D01*
X202628687Y-144818332D01*
X202628313Y-145247784D01*
X202506442Y-145247784D01*
X202513927Y-145226520D01*
X202485148Y-144696801D01*
X202337800Y-144341071D01*
X202102188Y-144279417D01*
X201347605Y-145034000D01*
X200988395Y-145034000D01*
X200233812Y-144279417D01*
X199998200Y-144341071D01*
X199822073Y-144841480D01*
X199714964Y-144841480D01*
X199714964Y-144335500D01*
X199688397Y-144194310D01*
X199627590Y-144099812D01*
X200413417Y-144099812D01*
X201168000Y-144854395D01*
X201922583Y-144099812D01*
X201860929Y-143864200D01*
X201360520Y-143688073D01*
X200830801Y-143716852D01*
X200475071Y-143864200D01*
X200413417Y-144099812D01*
X199627590Y-144099812D01*
X199604954Y-144064635D01*
X199477634Y-143977641D01*
X199326500Y-143947036D01*
X197929500Y-143947036D01*
X197788310Y-143973603D01*
X197658635Y-144057046D01*
X197571641Y-144184366D01*
X197541036Y-144335500D01*
X190103314Y-144335500D01*
X190245801Y-143992354D01*
X190246198Y-143537641D01*
X190226977Y-143491122D01*
X209980581Y-143491122D01*
X210009336Y-144021440D01*
X210156958Y-144377831D01*
X210392725Y-144439669D01*
X211148395Y-143684000D01*
X211507605Y-143684000D01*
X212263275Y-144439669D01*
X212499042Y-144377831D01*
X212667953Y-143898081D01*
X215326813Y-143898081D01*
X215491038Y-144295537D01*
X215794863Y-144599893D01*
X216192032Y-144764812D01*
X216622081Y-144765187D01*
X217019537Y-144600962D01*
X217323893Y-144297137D01*
X217488812Y-143899968D01*
X217489187Y-143469919D01*
X217324962Y-143072463D01*
X217021137Y-142768107D01*
X216861571Y-142701849D01*
X225269756Y-142701849D01*
X225423435Y-143015424D01*
X226196108Y-143317066D01*
X227025398Y-143300058D01*
X227712565Y-143015424D01*
X227866244Y-142701849D01*
X226568000Y-141403605D01*
X225269756Y-142701849D01*
X216861571Y-142701849D01*
X216623968Y-142603188D01*
X216193919Y-142602813D01*
X215796463Y-142767038D01*
X215492107Y-143070863D01*
X215327188Y-143468032D01*
X215326813Y-143898081D01*
X212667953Y-143898081D01*
X212675419Y-143876878D01*
X212646664Y-143346560D01*
X212499042Y-142990169D01*
X212263275Y-142928331D01*
X211507605Y-143684000D01*
X211148395Y-143684000D01*
X210392725Y-142928331D01*
X210156958Y-142990169D01*
X209980581Y-143491122D01*
X190226977Y-143491122D01*
X190072554Y-143117388D01*
X189751303Y-142795577D01*
X189638471Y-142748725D01*
X210572331Y-142748725D01*
X211328000Y-143504395D01*
X212083669Y-142748725D01*
X212021831Y-142512958D01*
X211520878Y-142336581D01*
X210990560Y-142365336D01*
X210634169Y-142512958D01*
X210572331Y-142748725D01*
X189638471Y-142748725D01*
X189331354Y-142621199D01*
X188876641Y-142620802D01*
X188456388Y-142794446D01*
X188134577Y-143115697D01*
X187960199Y-143535646D01*
X187959802Y-143990359D01*
X187629000Y-143990359D01*
X187629000Y-141450359D01*
X187959802Y-141450359D01*
X188133446Y-141870612D01*
X188454697Y-142192423D01*
X188874646Y-142366801D01*
X189329359Y-142367198D01*
X189749612Y-142193554D01*
X190071423Y-141872303D01*
X190245801Y-141452354D01*
X190245826Y-141423228D01*
X220561825Y-141423228D01*
X220714657Y-141793109D01*
X220997403Y-142076348D01*
X221367016Y-142229825D01*
X221767228Y-142230175D01*
X222137109Y-142077343D01*
X222420348Y-141794597D01*
X222573825Y-141424984D01*
X222574175Y-141024772D01*
X222502832Y-140852108D01*
X224474934Y-140852108D01*
X224491942Y-141681398D01*
X224776576Y-142368565D01*
X225090151Y-142522244D01*
X226388395Y-141224000D01*
X226747605Y-141224000D01*
X228045849Y-142522244D01*
X228359424Y-142368565D01*
X228661066Y-141595892D01*
X228644058Y-140766602D01*
X228359424Y-140079435D01*
X228045849Y-139925756D01*
X226747605Y-141224000D01*
X226388395Y-141224000D01*
X225090151Y-139925756D01*
X224776576Y-140079435D01*
X224474934Y-140852108D01*
X222502832Y-140852108D01*
X222421343Y-140654891D01*
X222138597Y-140371652D01*
X221768984Y-140218175D01*
X221368772Y-140217825D01*
X220998891Y-140370657D01*
X220715652Y-140653403D01*
X220562175Y-141023016D01*
X220561825Y-141423228D01*
X190245826Y-141423228D01*
X190246198Y-140997641D01*
X190072554Y-140577388D01*
X189751303Y-140255577D01*
X189331354Y-140081199D01*
X188876641Y-140080802D01*
X188456388Y-140254446D01*
X188134577Y-140575697D01*
X187960199Y-140995646D01*
X187959802Y-141450359D01*
X187629000Y-141450359D01*
X187629000Y-138910359D01*
X187959802Y-138910359D01*
X188133446Y-139330612D01*
X188454697Y-139652423D01*
X188874646Y-139826801D01*
X189329359Y-139827198D01*
X189749612Y-139653554D01*
X190071423Y-139332303D01*
X190245801Y-138912354D01*
X190246198Y-138457641D01*
X190072554Y-138037388D01*
X189751303Y-137715577D01*
X189331354Y-137541199D01*
X189137340Y-137541030D01*
X189450368Y-137525362D01*
X189834143Y-137366397D01*
X189903608Y-137124213D01*
X189772179Y-136992784D01*
X193738313Y-136992784D01*
X193902311Y-137389689D01*
X194205714Y-137693622D01*
X194602332Y-137858313D01*
X195031784Y-137858687D01*
X195428689Y-137694689D01*
X195495710Y-137627784D01*
X197548313Y-137627784D01*
X197712311Y-138024689D01*
X198015714Y-138328622D01*
X198412332Y-138493313D01*
X198841784Y-138493687D01*
X199238689Y-138329689D01*
X199542622Y-138026286D01*
X199707313Y-137629668D01*
X199707314Y-137627784D01*
X200088313Y-137627784D01*
X200252311Y-138024689D01*
X200555714Y-138328622D01*
X200952332Y-138493313D01*
X201381784Y-138493687D01*
X201778689Y-138329689D01*
X202082622Y-138026286D01*
X202247313Y-137629668D01*
X202247314Y-137627784D01*
X202628313Y-137627784D01*
X202792311Y-138024689D01*
X203095714Y-138328622D01*
X203492332Y-138493313D01*
X203921784Y-138493687D01*
X204318689Y-138329689D01*
X204622622Y-138026286D01*
X204787313Y-137629668D01*
X204787314Y-137627784D01*
X205168313Y-137627784D01*
X205332311Y-138024689D01*
X205635714Y-138328622D01*
X206032332Y-138493313D01*
X206461784Y-138493687D01*
X206858689Y-138329689D01*
X207162622Y-138026286D01*
X207180180Y-137984000D01*
X210239536Y-137984000D01*
X210239536Y-139384000D01*
X210266103Y-139525190D01*
X210349546Y-139654865D01*
X210476866Y-139741859D01*
X210628000Y-139772464D01*
X212028000Y-139772464D01*
X212169190Y-139745897D01*
X212298865Y-139662454D01*
X212385859Y-139535134D01*
X212416464Y-139384000D01*
X212416464Y-137984000D01*
X215319536Y-137984000D01*
X215319536Y-139384000D01*
X215346103Y-139525190D01*
X215429546Y-139654865D01*
X215556866Y-139741859D01*
X215708000Y-139772464D01*
X217108000Y-139772464D01*
X217247840Y-139746151D01*
X225269756Y-139746151D01*
X226568000Y-141044395D01*
X227866244Y-139746151D01*
X227712565Y-139432576D01*
X226939892Y-139130934D01*
X226110602Y-139147942D01*
X225423435Y-139432576D01*
X225269756Y-139746151D01*
X217247840Y-139746151D01*
X217249190Y-139745897D01*
X217378865Y-139662454D01*
X217465859Y-139535134D01*
X217496464Y-139384000D01*
X217496464Y-137984000D01*
X217469897Y-137842810D01*
X217386454Y-137713135D01*
X217259134Y-137626141D01*
X217108000Y-137595536D01*
X215708000Y-137595536D01*
X215566810Y-137622103D01*
X215437135Y-137705546D01*
X215350141Y-137832866D01*
X215319536Y-137984000D01*
X212416464Y-137984000D01*
X212389897Y-137842810D01*
X212306454Y-137713135D01*
X212179134Y-137626141D01*
X212028000Y-137595536D01*
X210628000Y-137595536D01*
X210486810Y-137622103D01*
X210357135Y-137705546D01*
X210270141Y-137832866D01*
X210239536Y-137984000D01*
X207180180Y-137984000D01*
X207327313Y-137629668D01*
X207327687Y-137200216D01*
X207163689Y-136803311D01*
X206947366Y-136586610D01*
X219736683Y-136586610D01*
X220014849Y-137259823D01*
X220529468Y-137775341D01*
X221202194Y-138054681D01*
X221930610Y-138055317D01*
X222603823Y-137777151D01*
X223119341Y-137262532D01*
X223398681Y-136589806D01*
X223398826Y-136423228D01*
X225561825Y-136423228D01*
X225714657Y-136793109D01*
X225997403Y-137076348D01*
X226367016Y-137229825D01*
X226767228Y-137230175D01*
X227137109Y-137077343D01*
X227420348Y-136794597D01*
X227573825Y-136424984D01*
X227574175Y-136024772D01*
X227421343Y-135654891D01*
X227138597Y-135371652D01*
X226768984Y-135218175D01*
X226368772Y-135217825D01*
X225998891Y-135370657D01*
X225715652Y-135653403D01*
X225562175Y-136023016D01*
X225561825Y-136423228D01*
X223398826Y-136423228D01*
X223399317Y-135861390D01*
X223121151Y-135188177D01*
X222606532Y-134672659D01*
X221933806Y-134393319D01*
X221205390Y-134392683D01*
X220532177Y-134670849D01*
X220016659Y-135185468D01*
X219737319Y-135858194D01*
X219736683Y-136586610D01*
X206947366Y-136586610D01*
X206860286Y-136499378D01*
X206463668Y-136334687D01*
X206034216Y-136334313D01*
X205637311Y-136498311D01*
X205333378Y-136801714D01*
X205168687Y-137198332D01*
X205168313Y-137627784D01*
X204787314Y-137627784D01*
X204787687Y-137200216D01*
X204623689Y-136803311D01*
X204320286Y-136499378D01*
X203923668Y-136334687D01*
X203494216Y-136334313D01*
X203097311Y-136498311D01*
X202793378Y-136801714D01*
X202628687Y-137198332D01*
X202628313Y-137627784D01*
X202247314Y-137627784D01*
X202247687Y-137200216D01*
X202083689Y-136803311D01*
X201780286Y-136499378D01*
X201383668Y-136334687D01*
X200954216Y-136334313D01*
X200557311Y-136498311D01*
X200253378Y-136801714D01*
X200088687Y-137198332D01*
X200088313Y-137627784D01*
X199707314Y-137627784D01*
X199707687Y-137200216D01*
X199543689Y-136803311D01*
X199240286Y-136499378D01*
X198843668Y-136334687D01*
X198414216Y-136334313D01*
X198017311Y-136498311D01*
X197713378Y-136801714D01*
X197548687Y-137198332D01*
X197548313Y-137627784D01*
X195495710Y-137627784D01*
X195732622Y-137391286D01*
X195897313Y-136994668D01*
X195897687Y-136565216D01*
X195733689Y-136168311D01*
X195430286Y-135864378D01*
X195033668Y-135699687D01*
X194604216Y-135699313D01*
X194207311Y-135863311D01*
X193903378Y-136166714D01*
X193738687Y-136563332D01*
X193738313Y-136992784D01*
X189772179Y-136992784D01*
X189103000Y-136323605D01*
X188302392Y-137124213D01*
X188371857Y-137366397D01*
X188869258Y-137543852D01*
X188456388Y-137714446D01*
X188134577Y-138035697D01*
X187960199Y-138455646D01*
X187959802Y-138910359D01*
X187629000Y-138910359D01*
X187629000Y-135936302D01*
X187693856Y-135936302D01*
X187721638Y-136491368D01*
X187880603Y-136875143D01*
X188122787Y-136944608D01*
X188923395Y-136144000D01*
X189282605Y-136144000D01*
X190083213Y-136944608D01*
X190325397Y-136875143D01*
X190512144Y-136351698D01*
X190484362Y-135796632D01*
X190325397Y-135412857D01*
X190083213Y-135343392D01*
X189282605Y-136144000D01*
X188923395Y-136144000D01*
X188122787Y-135343392D01*
X187880603Y-135412857D01*
X187693856Y-135936302D01*
X187629000Y-135936302D01*
X187629000Y-135163787D01*
X188302392Y-135163787D01*
X189103000Y-135964395D01*
X189903608Y-135163787D01*
X189834143Y-134921603D01*
X189310698Y-134734856D01*
X188755632Y-134762638D01*
X188371857Y-134921603D01*
X188302392Y-135163787D01*
X187629000Y-135163787D01*
X187629000Y-131684000D01*
X197653036Y-131684000D01*
X197653036Y-132984000D01*
X197679603Y-133125190D01*
X197763046Y-133254865D01*
X197890366Y-133341859D01*
X198041500Y-133372464D01*
X199341500Y-133372464D01*
X199482690Y-133345897D01*
X199612365Y-133262454D01*
X199632479Y-133233016D01*
X200472090Y-133233016D01*
X200527771Y-133463611D01*
X201010578Y-133631622D01*
X201520928Y-133602083D01*
X201855229Y-133463611D01*
X201910910Y-133233016D01*
X201191500Y-132513605D01*
X200472090Y-133233016D01*
X199632479Y-133233016D01*
X199699359Y-133135134D01*
X199729964Y-132984000D01*
X199729964Y-132153078D01*
X199893878Y-132153078D01*
X199923417Y-132663428D01*
X200061889Y-132997729D01*
X200292484Y-133053410D01*
X201011895Y-132334000D01*
X201371105Y-132334000D01*
X202090516Y-133053410D01*
X202321111Y-132997729D01*
X202477686Y-132547784D01*
X208343313Y-132547784D01*
X208507311Y-132944689D01*
X208810714Y-133248622D01*
X209207332Y-133413313D01*
X209636784Y-133413687D01*
X210033689Y-133249689D01*
X210337622Y-132946286D01*
X210502313Y-132549668D01*
X210502314Y-132547784D01*
X217233313Y-132547784D01*
X217397311Y-132944689D01*
X217700714Y-133248622D01*
X218097332Y-133413313D01*
X218526784Y-133413687D01*
X218923689Y-133249689D01*
X219227622Y-132946286D01*
X219392313Y-132549668D01*
X219392687Y-132120216D01*
X219228689Y-131723311D01*
X218925286Y-131419378D01*
X218528668Y-131254687D01*
X218099216Y-131254313D01*
X217702311Y-131418311D01*
X217398378Y-131721714D01*
X217233687Y-132118332D01*
X217233313Y-132547784D01*
X210502314Y-132547784D01*
X210502687Y-132120216D01*
X210338689Y-131723311D01*
X210035286Y-131419378D01*
X209638668Y-131254687D01*
X209209216Y-131254313D01*
X208812311Y-131418311D01*
X208508378Y-131721714D01*
X208343687Y-132118332D01*
X208343313Y-132547784D01*
X202477686Y-132547784D01*
X202489122Y-132514922D01*
X202459583Y-132004572D01*
X202321111Y-131670271D01*
X202090516Y-131614590D01*
X201371105Y-132334000D01*
X201011895Y-132334000D01*
X200292484Y-131614590D01*
X200061889Y-131670271D01*
X199893878Y-132153078D01*
X199729964Y-132153078D01*
X199729964Y-131684000D01*
X199703397Y-131542810D01*
X199634014Y-131434984D01*
X200472090Y-131434984D01*
X201191500Y-132154395D01*
X201910910Y-131434984D01*
X201855229Y-131204389D01*
X201372422Y-131036378D01*
X200862072Y-131065917D01*
X200527771Y-131204389D01*
X200472090Y-131434984D01*
X199634014Y-131434984D01*
X199619954Y-131413135D01*
X199492634Y-131326141D01*
X199341500Y-131295536D01*
X198041500Y-131295536D01*
X197900310Y-131322103D01*
X197770635Y-131405546D01*
X197683641Y-131532866D01*
X197653036Y-131684000D01*
X187629000Y-131684000D01*
X187629000Y-131106448D01*
X187797339Y-130260152D01*
X188252683Y-129578683D01*
X188934152Y-129123339D01*
X189780448Y-128955000D01*
X227552397Y-128955000D01*
X228417999Y-129082629D01*
M02*
