G04 #@! TF.FileFunction,Copper,L1,Top,Signal*
%FSLAX46Y46*%
G04 Gerber Fmt 4.6, Leading zero omitted, Abs format (unit mm)*
G04 Created by KiCad (PCBNEW 4.0.0-rc1-stable) date 10/27/2015 9:53:30 PM*
%MOMM*%
G01*
G04 APERTURE LIST*
%ADD10C,0.150000*%
%ADD11C,0.002540*%
%ADD12R,1.397000X1.397000*%
%ADD13C,1.397000*%
%ADD14C,2.900000*%
%ADD15C,1.250000*%
%ADD16R,1.524000X1.524000*%
%ADD17C,1.524000*%
%ADD18R,1.300000X1.300000*%
%ADD19C,1.300000*%
%ADD20R,1.400000X1.400000*%
%ADD21C,1.400000*%
%ADD22C,0.254000*%
G04 APERTURE END LIST*
D10*
D11*
G36*
X195224400Y-150337520D02*
X195216780Y-150545800D01*
X195193920Y-150751540D01*
X195150740Y-150957280D01*
X195092320Y-151157940D01*
X195013580Y-151356060D01*
X194919600Y-151546560D01*
X194805300Y-151731980D01*
X194673220Y-151907240D01*
X194630040Y-151960580D01*
X194482720Y-152115520D01*
X194325240Y-152257760D01*
X194183000Y-152364440D01*
X194183000Y-151025860D01*
X194170300Y-151005540D01*
X194167760Y-151003000D01*
X194147440Y-150980140D01*
X194073780Y-151053800D01*
X194038220Y-151089360D01*
X194010280Y-151112220D01*
X193989960Y-151124920D01*
X193974720Y-151130000D01*
X193967100Y-151130000D01*
X193931540Y-151122380D01*
X193903600Y-151094440D01*
X193890900Y-151069040D01*
X193888360Y-151053800D01*
X193885820Y-151018240D01*
X193880740Y-150969980D01*
X193878200Y-150909020D01*
X193875660Y-150842980D01*
X193873120Y-150779480D01*
X193870580Y-150693120D01*
X193868040Y-150624540D01*
X193865500Y-150568660D01*
X193860420Y-150525480D01*
X193855340Y-150492460D01*
X193847720Y-150464520D01*
X193837560Y-150439120D01*
X193824860Y-150416260D01*
X193817240Y-150403560D01*
X193779140Y-150350220D01*
X193728340Y-150304500D01*
X193664840Y-150266400D01*
X193586100Y-150235920D01*
X193489580Y-150210520D01*
X193395600Y-150195280D01*
X193342260Y-150187660D01*
X193306700Y-150180040D01*
X193291460Y-150174960D01*
X193294000Y-150167340D01*
X193314320Y-150154640D01*
X193352420Y-150139400D01*
X193375280Y-150129240D01*
X193481960Y-150083520D01*
X193573400Y-150037800D01*
X193649600Y-149992080D01*
X193715640Y-149943820D01*
X193774060Y-149893020D01*
X193791840Y-149875240D01*
X193845180Y-149809200D01*
X193885820Y-149743160D01*
X193916300Y-149669500D01*
X193934080Y-149585680D01*
X193944240Y-149489160D01*
X193946780Y-149407880D01*
X193944240Y-149308820D01*
X193934080Y-149225000D01*
X193916300Y-149148800D01*
X193888360Y-149082760D01*
X193847720Y-149014180D01*
X193796920Y-148945600D01*
X193781680Y-148927820D01*
X193743580Y-148887180D01*
X193700400Y-148844000D01*
X193652140Y-148798280D01*
X193606420Y-148757640D01*
X193560700Y-148722080D01*
X193517520Y-148691600D01*
X193487040Y-148671280D01*
X193464180Y-148661120D01*
X193461640Y-148661120D01*
X193451480Y-148668740D01*
X193431160Y-148689060D01*
X193403220Y-148719540D01*
X193370200Y-148757640D01*
X193354960Y-148772880D01*
X193311780Y-148823680D01*
X193266060Y-148874480D01*
X193217800Y-148922740D01*
X193161920Y-148976080D01*
X193098420Y-149031960D01*
X193027300Y-149095460D01*
X192940940Y-149169120D01*
X192862200Y-149235160D01*
X192659000Y-149402800D01*
X192653920Y-149181820D01*
X192648840Y-149092920D01*
X192646300Y-149021800D01*
X192641220Y-148965920D01*
X192633600Y-148920200D01*
X192623440Y-148884640D01*
X192608200Y-148856700D01*
X192590420Y-148831300D01*
X192580260Y-148818600D01*
X192552320Y-148788120D01*
X192519300Y-148765260D01*
X192481200Y-148747480D01*
X192438020Y-148737320D01*
X192382140Y-148729700D01*
X192316100Y-148727160D01*
X192232280Y-148729700D01*
X192133220Y-148734780D01*
X192115440Y-148737320D01*
X192001140Y-148744940D01*
X191907160Y-148750020D01*
X191830960Y-148752560D01*
X191767460Y-148752560D01*
X191716660Y-148750020D01*
X191678560Y-148742400D01*
X191650620Y-148734780D01*
X191630300Y-148722080D01*
X191615060Y-148706840D01*
X191604900Y-148686520D01*
X191604900Y-148686520D01*
X191592200Y-148661120D01*
X191574420Y-148650960D01*
X191571880Y-148650960D01*
X191559180Y-148656040D01*
X191549020Y-148668740D01*
X191541400Y-148694140D01*
X191538860Y-148734780D01*
X191536320Y-148790660D01*
X191536320Y-148823680D01*
X191538860Y-148935440D01*
X191549020Y-149034500D01*
X191564260Y-149120860D01*
X191584580Y-149189440D01*
X191609980Y-149242780D01*
X191630300Y-149268180D01*
X191653160Y-149288500D01*
X191676020Y-149303740D01*
X191701420Y-149316440D01*
X191731900Y-149326600D01*
X191770000Y-149331680D01*
X191823340Y-149336760D01*
X191886840Y-149339300D01*
X191965580Y-149341840D01*
X191985900Y-149349460D01*
X192003680Y-149362160D01*
X192011300Y-149369780D01*
X192016380Y-149379940D01*
X192018920Y-149397720D01*
X192021460Y-149420580D01*
X192024000Y-149458680D01*
X192024000Y-149506940D01*
X192024000Y-149575520D01*
X192024000Y-149580600D01*
X192024000Y-149778720D01*
X191960500Y-149778720D01*
X191914780Y-149781260D01*
X191861440Y-149783800D01*
X191828420Y-149788880D01*
X191759840Y-149804120D01*
X191703960Y-149829520D01*
X191655700Y-149867620D01*
X191617600Y-149915880D01*
X191589660Y-149979380D01*
X191566800Y-150058120D01*
X191554100Y-150152100D01*
X191546480Y-150263860D01*
X191546480Y-150337520D01*
X191546480Y-150500080D01*
X191569340Y-150500080D01*
X191582040Y-150497540D01*
X191589660Y-150489920D01*
X191594740Y-150474680D01*
X191602360Y-150441660D01*
X191604900Y-150418800D01*
X191612520Y-150368000D01*
X191622680Y-150329900D01*
X191640460Y-150301960D01*
X191665860Y-150279100D01*
X191701420Y-150266400D01*
X191752220Y-150256240D01*
X191818260Y-150251160D01*
X191871600Y-150248620D01*
X192024000Y-150243540D01*
X192021460Y-150482300D01*
X192021460Y-150561040D01*
X192018920Y-150624540D01*
X192016380Y-150672800D01*
X192011300Y-150708360D01*
X192003680Y-150738840D01*
X191988440Y-150761700D01*
X191968120Y-150782020D01*
X191942720Y-150804880D01*
X191907160Y-150832820D01*
X191889380Y-150845520D01*
X191848740Y-150876000D01*
X191808100Y-150909020D01*
X191777620Y-150934420D01*
X191764920Y-150947120D01*
X191709040Y-151008080D01*
X191655700Y-151086820D01*
X191607440Y-151173180D01*
X191566800Y-151264620D01*
X191543940Y-151323040D01*
X191528700Y-151396700D01*
X191521080Y-151483060D01*
X191521080Y-151571960D01*
X191533780Y-151660860D01*
X191543940Y-151711660D01*
X191584580Y-151823420D01*
X191643000Y-151922480D01*
X191711580Y-152013920D01*
X191795400Y-152087580D01*
X191889380Y-152148540D01*
X191940180Y-152171400D01*
X192039240Y-152201880D01*
X192148460Y-152219660D01*
X192262760Y-152227280D01*
X192377060Y-152219660D01*
X192402460Y-152217120D01*
X192496440Y-152194260D01*
X192590420Y-152161240D01*
X192679320Y-152118060D01*
X192717420Y-152095200D01*
X192783460Y-152044400D01*
X192852040Y-151983440D01*
X192913000Y-151912320D01*
X192966340Y-151841200D01*
X192999360Y-151787860D01*
X193029840Y-151721820D01*
X193050160Y-151663400D01*
X193062860Y-151602440D01*
X193067940Y-151536400D01*
X193070480Y-151477980D01*
X193070480Y-151363680D01*
X193032380Y-151363680D01*
X192994280Y-151363680D01*
X192994280Y-151462740D01*
X192989200Y-151541480D01*
X192973960Y-151604980D01*
X192951100Y-151660860D01*
X192913000Y-151714200D01*
X192890140Y-151739600D01*
X192819020Y-151803100D01*
X192740280Y-151851360D01*
X192669160Y-151879300D01*
X192651380Y-151884380D01*
X192631060Y-151886920D01*
X192605660Y-151892000D01*
X192575180Y-151892000D01*
X192534540Y-151894540D01*
X192483740Y-151897080D01*
X192417700Y-151897080D01*
X192338960Y-151897080D01*
X192262760Y-151897080D01*
X192166240Y-151897080D01*
X192087500Y-151897080D01*
X192024000Y-151894540D01*
X191973200Y-151894540D01*
X191932560Y-151892000D01*
X191902080Y-151889460D01*
X191876680Y-151884380D01*
X191853820Y-151881840D01*
X191848740Y-151879300D01*
X191759840Y-151851360D01*
X191688720Y-151813260D01*
X191635380Y-151767540D01*
X191599820Y-151714200D01*
X191582040Y-151648160D01*
X191576960Y-151597360D01*
X191584580Y-151526240D01*
X191609980Y-151465280D01*
X191650620Y-151414480D01*
X191709040Y-151373840D01*
X191726820Y-151366220D01*
X191754760Y-151353520D01*
X191780160Y-151345900D01*
X191810640Y-151340820D01*
X191848740Y-151338280D01*
X191897000Y-151338280D01*
X191973200Y-151340820D01*
X192044320Y-151350980D01*
X192107820Y-151371300D01*
X192171320Y-151401780D01*
X192237360Y-151442420D01*
X192305940Y-151495760D01*
X192382140Y-151566880D01*
X192410080Y-151594820D01*
X192453260Y-151635460D01*
X192486280Y-151665940D01*
X192506600Y-151681180D01*
X192521840Y-151688800D01*
X192526920Y-151686260D01*
X192537080Y-151676100D01*
X192557400Y-151653240D01*
X192590420Y-151617680D01*
X192631060Y-151571960D01*
X192679320Y-151516080D01*
X192735200Y-151452580D01*
X192796160Y-151384000D01*
X192854580Y-151320500D01*
X193172080Y-150964900D01*
X193154300Y-150939500D01*
X193136520Y-150914100D01*
X193022220Y-151033480D01*
X192907920Y-151155400D01*
X192907920Y-150690580D01*
X192907920Y-150225760D01*
X192986660Y-150225760D01*
X193057780Y-150230840D01*
X193113660Y-150248620D01*
X193159380Y-150276560D01*
X193197480Y-150322280D01*
X193220340Y-150368000D01*
X193248280Y-150423880D01*
X193253360Y-150865840D01*
X193253360Y-150977600D01*
X193255900Y-151069040D01*
X193258440Y-151145240D01*
X193258440Y-151206200D01*
X193260980Y-151257000D01*
X193266060Y-151295100D01*
X193271140Y-151325580D01*
X193278760Y-151348440D01*
X193286380Y-151368760D01*
X193296540Y-151386540D01*
X193311780Y-151401780D01*
X193327020Y-151419560D01*
X193329560Y-151424640D01*
X193349880Y-151442420D01*
X193377820Y-151470360D01*
X193413380Y-151503380D01*
X193454020Y-151538940D01*
X193497200Y-151577040D01*
X193537840Y-151612600D01*
X193575940Y-151645620D01*
X193608960Y-151673560D01*
X193631820Y-151691340D01*
X193641980Y-151698960D01*
X193641980Y-151698960D01*
X193649600Y-151688800D01*
X193667380Y-151665940D01*
X193697860Y-151632920D01*
X193733420Y-151587200D01*
X193779140Y-151531320D01*
X193829940Y-151470360D01*
X193885820Y-151401780D01*
X193908680Y-151373840D01*
X193964560Y-151305260D01*
X194017900Y-151239220D01*
X194066160Y-151180800D01*
X194109340Y-151130000D01*
X194142360Y-151089360D01*
X194165220Y-151058880D01*
X194177920Y-151043640D01*
X194180460Y-151041100D01*
X194183000Y-151025860D01*
X194183000Y-152364440D01*
X194157600Y-152384760D01*
X193974720Y-152496520D01*
X193786760Y-152590500D01*
X193591180Y-152669240D01*
X193385440Y-152730200D01*
X193174620Y-152773380D01*
X192963800Y-152798780D01*
X192750440Y-152806400D01*
X192562480Y-152796240D01*
X192344040Y-152765760D01*
X192130680Y-152714960D01*
X191924940Y-152646380D01*
X191724280Y-152562560D01*
X191533780Y-152458420D01*
X191353440Y-152341580D01*
X191185800Y-152206960D01*
X191028320Y-152057100D01*
X190886080Y-151894540D01*
X190776860Y-151747220D01*
X190657480Y-151554180D01*
X190558420Y-151358600D01*
X190479680Y-151152860D01*
X190418720Y-150944580D01*
X190375540Y-150733760D01*
X190352680Y-150520400D01*
X190347600Y-150304500D01*
X190362840Y-150088600D01*
X190398400Y-149875240D01*
X190451740Y-149661880D01*
X190527940Y-149453600D01*
X190560960Y-149372320D01*
X190660020Y-149174200D01*
X190776860Y-148988780D01*
X190908940Y-148813520D01*
X191056260Y-148650960D01*
X191193420Y-148523960D01*
X191368680Y-148386800D01*
X191551560Y-148267420D01*
X191744600Y-148165820D01*
X191942720Y-148082000D01*
X192145920Y-148015960D01*
X192354200Y-147967700D01*
X192565020Y-147939760D01*
X192778380Y-147929600D01*
X192991740Y-147939760D01*
X193207640Y-147967700D01*
X193418460Y-148013420D01*
X193629280Y-148082000D01*
X193781680Y-148142960D01*
X193979800Y-148242020D01*
X194165220Y-148358860D01*
X194340480Y-148490940D01*
X194503040Y-148638260D01*
X194630040Y-148775420D01*
X194767200Y-148950680D01*
X194886580Y-149131020D01*
X194988180Y-149321520D01*
X195069460Y-149517100D01*
X195135500Y-149717760D01*
X195181220Y-149920960D01*
X195211700Y-150129240D01*
X195224400Y-150337520D01*
X195224400Y-150337520D01*
X195224400Y-150337520D01*
G37*
X195224400Y-150337520D02*
X195216780Y-150545800D01*
X195193920Y-150751540D01*
X195150740Y-150957280D01*
X195092320Y-151157940D01*
X195013580Y-151356060D01*
X194919600Y-151546560D01*
X194805300Y-151731980D01*
X194673220Y-151907240D01*
X194630040Y-151960580D01*
X194482720Y-152115520D01*
X194325240Y-152257760D01*
X194183000Y-152364440D01*
X194183000Y-151025860D01*
X194170300Y-151005540D01*
X194167760Y-151003000D01*
X194147440Y-150980140D01*
X194073780Y-151053800D01*
X194038220Y-151089360D01*
X194010280Y-151112220D01*
X193989960Y-151124920D01*
X193974720Y-151130000D01*
X193967100Y-151130000D01*
X193931540Y-151122380D01*
X193903600Y-151094440D01*
X193890900Y-151069040D01*
X193888360Y-151053800D01*
X193885820Y-151018240D01*
X193880740Y-150969980D01*
X193878200Y-150909020D01*
X193875660Y-150842980D01*
X193873120Y-150779480D01*
X193870580Y-150693120D01*
X193868040Y-150624540D01*
X193865500Y-150568660D01*
X193860420Y-150525480D01*
X193855340Y-150492460D01*
X193847720Y-150464520D01*
X193837560Y-150439120D01*
X193824860Y-150416260D01*
X193817240Y-150403560D01*
X193779140Y-150350220D01*
X193728340Y-150304500D01*
X193664840Y-150266400D01*
X193586100Y-150235920D01*
X193489580Y-150210520D01*
X193395600Y-150195280D01*
X193342260Y-150187660D01*
X193306700Y-150180040D01*
X193291460Y-150174960D01*
X193294000Y-150167340D01*
X193314320Y-150154640D01*
X193352420Y-150139400D01*
X193375280Y-150129240D01*
X193481960Y-150083520D01*
X193573400Y-150037800D01*
X193649600Y-149992080D01*
X193715640Y-149943820D01*
X193774060Y-149893020D01*
X193791840Y-149875240D01*
X193845180Y-149809200D01*
X193885820Y-149743160D01*
X193916300Y-149669500D01*
X193934080Y-149585680D01*
X193944240Y-149489160D01*
X193946780Y-149407880D01*
X193944240Y-149308820D01*
X193934080Y-149225000D01*
X193916300Y-149148800D01*
X193888360Y-149082760D01*
X193847720Y-149014180D01*
X193796920Y-148945600D01*
X193781680Y-148927820D01*
X193743580Y-148887180D01*
X193700400Y-148844000D01*
X193652140Y-148798280D01*
X193606420Y-148757640D01*
X193560700Y-148722080D01*
X193517520Y-148691600D01*
X193487040Y-148671280D01*
X193464180Y-148661120D01*
X193461640Y-148661120D01*
X193451480Y-148668740D01*
X193431160Y-148689060D01*
X193403220Y-148719540D01*
X193370200Y-148757640D01*
X193354960Y-148772880D01*
X193311780Y-148823680D01*
X193266060Y-148874480D01*
X193217800Y-148922740D01*
X193161920Y-148976080D01*
X193098420Y-149031960D01*
X193027300Y-149095460D01*
X192940940Y-149169120D01*
X192862200Y-149235160D01*
X192659000Y-149402800D01*
X192653920Y-149181820D01*
X192648840Y-149092920D01*
X192646300Y-149021800D01*
X192641220Y-148965920D01*
X192633600Y-148920200D01*
X192623440Y-148884640D01*
X192608200Y-148856700D01*
X192590420Y-148831300D01*
X192580260Y-148818600D01*
X192552320Y-148788120D01*
X192519300Y-148765260D01*
X192481200Y-148747480D01*
X192438020Y-148737320D01*
X192382140Y-148729700D01*
X192316100Y-148727160D01*
X192232280Y-148729700D01*
X192133220Y-148734780D01*
X192115440Y-148737320D01*
X192001140Y-148744940D01*
X191907160Y-148750020D01*
X191830960Y-148752560D01*
X191767460Y-148752560D01*
X191716660Y-148750020D01*
X191678560Y-148742400D01*
X191650620Y-148734780D01*
X191630300Y-148722080D01*
X191615060Y-148706840D01*
X191604900Y-148686520D01*
X191604900Y-148686520D01*
X191592200Y-148661120D01*
X191574420Y-148650960D01*
X191571880Y-148650960D01*
X191559180Y-148656040D01*
X191549020Y-148668740D01*
X191541400Y-148694140D01*
X191538860Y-148734780D01*
X191536320Y-148790660D01*
X191536320Y-148823680D01*
X191538860Y-148935440D01*
X191549020Y-149034500D01*
X191564260Y-149120860D01*
X191584580Y-149189440D01*
X191609980Y-149242780D01*
X191630300Y-149268180D01*
X191653160Y-149288500D01*
X191676020Y-149303740D01*
X191701420Y-149316440D01*
X191731900Y-149326600D01*
X191770000Y-149331680D01*
X191823340Y-149336760D01*
X191886840Y-149339300D01*
X191965580Y-149341840D01*
X191985900Y-149349460D01*
X192003680Y-149362160D01*
X192011300Y-149369780D01*
X192016380Y-149379940D01*
X192018920Y-149397720D01*
X192021460Y-149420580D01*
X192024000Y-149458680D01*
X192024000Y-149506940D01*
X192024000Y-149575520D01*
X192024000Y-149580600D01*
X192024000Y-149778720D01*
X191960500Y-149778720D01*
X191914780Y-149781260D01*
X191861440Y-149783800D01*
X191828420Y-149788880D01*
X191759840Y-149804120D01*
X191703960Y-149829520D01*
X191655700Y-149867620D01*
X191617600Y-149915880D01*
X191589660Y-149979380D01*
X191566800Y-150058120D01*
X191554100Y-150152100D01*
X191546480Y-150263860D01*
X191546480Y-150337520D01*
X191546480Y-150500080D01*
X191569340Y-150500080D01*
X191582040Y-150497540D01*
X191589660Y-150489920D01*
X191594740Y-150474680D01*
X191602360Y-150441660D01*
X191604900Y-150418800D01*
X191612520Y-150368000D01*
X191622680Y-150329900D01*
X191640460Y-150301960D01*
X191665860Y-150279100D01*
X191701420Y-150266400D01*
X191752220Y-150256240D01*
X191818260Y-150251160D01*
X191871600Y-150248620D01*
X192024000Y-150243540D01*
X192021460Y-150482300D01*
X192021460Y-150561040D01*
X192018920Y-150624540D01*
X192016380Y-150672800D01*
X192011300Y-150708360D01*
X192003680Y-150738840D01*
X191988440Y-150761700D01*
X191968120Y-150782020D01*
X191942720Y-150804880D01*
X191907160Y-150832820D01*
X191889380Y-150845520D01*
X191848740Y-150876000D01*
X191808100Y-150909020D01*
X191777620Y-150934420D01*
X191764920Y-150947120D01*
X191709040Y-151008080D01*
X191655700Y-151086820D01*
X191607440Y-151173180D01*
X191566800Y-151264620D01*
X191543940Y-151323040D01*
X191528700Y-151396700D01*
X191521080Y-151483060D01*
X191521080Y-151571960D01*
X191533780Y-151660860D01*
X191543940Y-151711660D01*
X191584580Y-151823420D01*
X191643000Y-151922480D01*
X191711580Y-152013920D01*
X191795400Y-152087580D01*
X191889380Y-152148540D01*
X191940180Y-152171400D01*
X192039240Y-152201880D01*
X192148460Y-152219660D01*
X192262760Y-152227280D01*
X192377060Y-152219660D01*
X192402460Y-152217120D01*
X192496440Y-152194260D01*
X192590420Y-152161240D01*
X192679320Y-152118060D01*
X192717420Y-152095200D01*
X192783460Y-152044400D01*
X192852040Y-151983440D01*
X192913000Y-151912320D01*
X192966340Y-151841200D01*
X192999360Y-151787860D01*
X193029840Y-151721820D01*
X193050160Y-151663400D01*
X193062860Y-151602440D01*
X193067940Y-151536400D01*
X193070480Y-151477980D01*
X193070480Y-151363680D01*
X193032380Y-151363680D01*
X192994280Y-151363680D01*
X192994280Y-151462740D01*
X192989200Y-151541480D01*
X192973960Y-151604980D01*
X192951100Y-151660860D01*
X192913000Y-151714200D01*
X192890140Y-151739600D01*
X192819020Y-151803100D01*
X192740280Y-151851360D01*
X192669160Y-151879300D01*
X192651380Y-151884380D01*
X192631060Y-151886920D01*
X192605660Y-151892000D01*
X192575180Y-151892000D01*
X192534540Y-151894540D01*
X192483740Y-151897080D01*
X192417700Y-151897080D01*
X192338960Y-151897080D01*
X192262760Y-151897080D01*
X192166240Y-151897080D01*
X192087500Y-151897080D01*
X192024000Y-151894540D01*
X191973200Y-151894540D01*
X191932560Y-151892000D01*
X191902080Y-151889460D01*
X191876680Y-151884380D01*
X191853820Y-151881840D01*
X191848740Y-151879300D01*
X191759840Y-151851360D01*
X191688720Y-151813260D01*
X191635380Y-151767540D01*
X191599820Y-151714200D01*
X191582040Y-151648160D01*
X191576960Y-151597360D01*
X191584580Y-151526240D01*
X191609980Y-151465280D01*
X191650620Y-151414480D01*
X191709040Y-151373840D01*
X191726820Y-151366220D01*
X191754760Y-151353520D01*
X191780160Y-151345900D01*
X191810640Y-151340820D01*
X191848740Y-151338280D01*
X191897000Y-151338280D01*
X191973200Y-151340820D01*
X192044320Y-151350980D01*
X192107820Y-151371300D01*
X192171320Y-151401780D01*
X192237360Y-151442420D01*
X192305940Y-151495760D01*
X192382140Y-151566880D01*
X192410080Y-151594820D01*
X192453260Y-151635460D01*
X192486280Y-151665940D01*
X192506600Y-151681180D01*
X192521840Y-151688800D01*
X192526920Y-151686260D01*
X192537080Y-151676100D01*
X192557400Y-151653240D01*
X192590420Y-151617680D01*
X192631060Y-151571960D01*
X192679320Y-151516080D01*
X192735200Y-151452580D01*
X192796160Y-151384000D01*
X192854580Y-151320500D01*
X193172080Y-150964900D01*
X193154300Y-150939500D01*
X193136520Y-150914100D01*
X193022220Y-151033480D01*
X192907920Y-151155400D01*
X192907920Y-150690580D01*
X192907920Y-150225760D01*
X192986660Y-150225760D01*
X193057780Y-150230840D01*
X193113660Y-150248620D01*
X193159380Y-150276560D01*
X193197480Y-150322280D01*
X193220340Y-150368000D01*
X193248280Y-150423880D01*
X193253360Y-150865840D01*
X193253360Y-150977600D01*
X193255900Y-151069040D01*
X193258440Y-151145240D01*
X193258440Y-151206200D01*
X193260980Y-151257000D01*
X193266060Y-151295100D01*
X193271140Y-151325580D01*
X193278760Y-151348440D01*
X193286380Y-151368760D01*
X193296540Y-151386540D01*
X193311780Y-151401780D01*
X193327020Y-151419560D01*
X193329560Y-151424640D01*
X193349880Y-151442420D01*
X193377820Y-151470360D01*
X193413380Y-151503380D01*
X193454020Y-151538940D01*
X193497200Y-151577040D01*
X193537840Y-151612600D01*
X193575940Y-151645620D01*
X193608960Y-151673560D01*
X193631820Y-151691340D01*
X193641980Y-151698960D01*
X193641980Y-151698960D01*
X193649600Y-151688800D01*
X193667380Y-151665940D01*
X193697860Y-151632920D01*
X193733420Y-151587200D01*
X193779140Y-151531320D01*
X193829940Y-151470360D01*
X193885820Y-151401780D01*
X193908680Y-151373840D01*
X193964560Y-151305260D01*
X194017900Y-151239220D01*
X194066160Y-151180800D01*
X194109340Y-151130000D01*
X194142360Y-151089360D01*
X194165220Y-151058880D01*
X194177920Y-151043640D01*
X194180460Y-151041100D01*
X194183000Y-151025860D01*
X194183000Y-152364440D01*
X194157600Y-152384760D01*
X193974720Y-152496520D01*
X193786760Y-152590500D01*
X193591180Y-152669240D01*
X193385440Y-152730200D01*
X193174620Y-152773380D01*
X192963800Y-152798780D01*
X192750440Y-152806400D01*
X192562480Y-152796240D01*
X192344040Y-152765760D01*
X192130680Y-152714960D01*
X191924940Y-152646380D01*
X191724280Y-152562560D01*
X191533780Y-152458420D01*
X191353440Y-152341580D01*
X191185800Y-152206960D01*
X191028320Y-152057100D01*
X190886080Y-151894540D01*
X190776860Y-151747220D01*
X190657480Y-151554180D01*
X190558420Y-151358600D01*
X190479680Y-151152860D01*
X190418720Y-150944580D01*
X190375540Y-150733760D01*
X190352680Y-150520400D01*
X190347600Y-150304500D01*
X190362840Y-150088600D01*
X190398400Y-149875240D01*
X190451740Y-149661880D01*
X190527940Y-149453600D01*
X190560960Y-149372320D01*
X190660020Y-149174200D01*
X190776860Y-148988780D01*
X190908940Y-148813520D01*
X191056260Y-148650960D01*
X191193420Y-148523960D01*
X191368680Y-148386800D01*
X191551560Y-148267420D01*
X191744600Y-148165820D01*
X191942720Y-148082000D01*
X192145920Y-148015960D01*
X192354200Y-147967700D01*
X192565020Y-147939760D01*
X192778380Y-147929600D01*
X192991740Y-147939760D01*
X193207640Y-147967700D01*
X193418460Y-148013420D01*
X193629280Y-148082000D01*
X193781680Y-148142960D01*
X193979800Y-148242020D01*
X194165220Y-148358860D01*
X194340480Y-148490940D01*
X194503040Y-148638260D01*
X194630040Y-148775420D01*
X194767200Y-148950680D01*
X194886580Y-149131020D01*
X194988180Y-149321520D01*
X195069460Y-149517100D01*
X195135500Y-149717760D01*
X195181220Y-149920960D01*
X195211700Y-150129240D01*
X195224400Y-150337520D01*
X195224400Y-150337520D01*
G36*
X192844420Y-150431500D02*
X192844420Y-150561040D01*
X192844420Y-150647400D01*
X192841880Y-151086820D01*
X192801240Y-151056340D01*
X192666620Y-150967440D01*
X192526920Y-150896320D01*
X192384680Y-150842980D01*
X192237360Y-150809960D01*
X192176400Y-150802340D01*
X192051940Y-150789640D01*
X192097660Y-150771860D01*
X192163700Y-150746460D01*
X192244980Y-150726140D01*
X192331340Y-150705820D01*
X192417700Y-150693120D01*
X192498980Y-150688040D01*
X192570100Y-150685500D01*
X192590420Y-150688040D01*
X192653920Y-150695660D01*
X192653920Y-150086060D01*
X192653920Y-149479000D01*
X192747900Y-149400260D01*
X192841880Y-149324060D01*
X192844420Y-149763480D01*
X192844420Y-149880320D01*
X192844420Y-150012400D01*
X192844420Y-150152100D01*
X192844420Y-150294340D01*
X192844420Y-150431500D01*
X192844420Y-150431500D01*
X192844420Y-150431500D01*
G37*
X192844420Y-150431500D02*
X192844420Y-150561040D01*
X192844420Y-150647400D01*
X192841880Y-151086820D01*
X192801240Y-151056340D01*
X192666620Y-150967440D01*
X192526920Y-150896320D01*
X192384680Y-150842980D01*
X192237360Y-150809960D01*
X192176400Y-150802340D01*
X192051940Y-150789640D01*
X192097660Y-150771860D01*
X192163700Y-150746460D01*
X192244980Y-150726140D01*
X192331340Y-150705820D01*
X192417700Y-150693120D01*
X192498980Y-150688040D01*
X192570100Y-150685500D01*
X192590420Y-150688040D01*
X192653920Y-150695660D01*
X192653920Y-150086060D01*
X192653920Y-149479000D01*
X192747900Y-149400260D01*
X192841880Y-149324060D01*
X192844420Y-149763480D01*
X192844420Y-149880320D01*
X192844420Y-150012400D01*
X192844420Y-150152100D01*
X192844420Y-150294340D01*
X192844420Y-150431500D01*
X192844420Y-150431500D01*
G36*
X193324480Y-149639020D02*
X193319400Y-149760940D01*
X193299080Y-149867620D01*
X193268600Y-149959060D01*
X193225420Y-150035260D01*
X193167000Y-150093680D01*
X193144140Y-150111460D01*
X193095880Y-150136860D01*
X193037460Y-150157180D01*
X192979040Y-150172420D01*
X192940940Y-150174960D01*
X192907920Y-150174960D01*
X192910460Y-149720300D01*
X192913000Y-149265640D01*
X192956180Y-149235160D01*
X192986660Y-149217380D01*
X193012060Y-149207220D01*
X193045080Y-149204680D01*
X193062860Y-149204680D01*
X193121280Y-149209760D01*
X193167000Y-149227540D01*
X193207640Y-149260560D01*
X193220340Y-149273260D01*
X193260980Y-149329140D01*
X193294000Y-149400260D01*
X193314320Y-149484080D01*
X193321940Y-149585680D01*
X193324480Y-149639020D01*
X193324480Y-149639020D01*
X193324480Y-149639020D01*
G37*
X193324480Y-149639020D02*
X193319400Y-149760940D01*
X193299080Y-149867620D01*
X193268600Y-149959060D01*
X193225420Y-150035260D01*
X193167000Y-150093680D01*
X193144140Y-150111460D01*
X193095880Y-150136860D01*
X193037460Y-150157180D01*
X192979040Y-150172420D01*
X192940940Y-150174960D01*
X192907920Y-150174960D01*
X192910460Y-149720300D01*
X192913000Y-149265640D01*
X192956180Y-149235160D01*
X192986660Y-149217380D01*
X193012060Y-149207220D01*
X193045080Y-149204680D01*
X193062860Y-149204680D01*
X193121280Y-149209760D01*
X193167000Y-149227540D01*
X193207640Y-149260560D01*
X193220340Y-149273260D01*
X193260980Y-149329140D01*
X193294000Y-149400260D01*
X193314320Y-149484080D01*
X193321940Y-149585680D01*
X193324480Y-149639020D01*
X193324480Y-149639020D01*
D12*
X198628000Y-145034000D03*
D13*
X201168000Y-145034000D03*
X203708000Y-145034000D03*
X206248000Y-145034000D03*
X206248000Y-137414000D03*
X203708000Y-137414000D03*
X201168000Y-137414000D03*
X198628000Y-137414000D03*
D14*
X226568000Y-141224000D03*
X221568000Y-136224000D03*
X221568000Y-146224000D03*
D15*
X221568000Y-141224000D03*
X226568000Y-146224000D03*
X226568000Y-136224000D03*
X229068000Y-136224000D03*
X229068000Y-146224000D03*
D13*
X194818000Y-136779000D03*
X194818000Y-145669000D03*
X209423000Y-132334000D03*
X218313000Y-132334000D03*
X209423000Y-150114000D03*
X218313000Y-150114000D03*
D16*
X189103000Y-146304000D03*
D17*
X189103000Y-143764000D03*
X189103000Y-141224000D03*
X189103000Y-138684000D03*
X189103000Y-136144000D03*
D18*
X198691500Y-132334000D03*
D19*
X201191500Y-132334000D03*
D20*
X203708000Y-150114000D03*
D21*
X198708000Y-150114000D03*
D20*
X216408000Y-138684000D03*
D21*
X216408000Y-143684000D03*
D20*
X211328000Y-138684000D03*
D21*
X211328000Y-143684000D03*
D22*
X203708000Y-143764000D02*
X203708000Y-143256000D01*
X203708000Y-145034000D02*
X203708000Y-143764000D01*
X190754000Y-143764000D02*
X189103000Y-143764000D01*
X192278000Y-142240000D02*
X190754000Y-143764000D01*
X202692000Y-142240000D02*
X192278000Y-142240000D01*
X203708000Y-143256000D02*
X202692000Y-142240000D01*
X201168000Y-137414000D02*
X201168000Y-138684000D01*
X191008000Y-138684000D02*
X189103000Y-138684000D01*
X191643000Y-139319000D02*
X191008000Y-138684000D01*
X200533000Y-139319000D02*
X191643000Y-139319000D01*
X201168000Y-138684000D02*
X200533000Y-139319000D01*
X205613000Y-141859000D02*
X204978000Y-141224000D01*
X206248000Y-142494000D02*
X205613000Y-141859000D01*
X206248000Y-145034000D02*
X206248000Y-143129000D01*
X206248000Y-143129000D02*
X206248000Y-142494000D01*
X204978000Y-141224000D02*
X189103000Y-141224000D01*
X209423000Y-150114000D02*
X209423000Y-148082000D01*
X210566000Y-147574000D02*
X217678000Y-147574000D01*
X217678000Y-147574000D02*
X218440000Y-146812000D01*
X209931000Y-147574000D02*
X210566000Y-147574000D01*
X209423000Y-148082000D02*
X209931000Y-147574000D01*
X210058000Y-133604000D02*
X210058000Y-132334000D01*
X210566000Y-134112000D02*
X210058000Y-133604000D01*
X213868000Y-134112000D02*
X210566000Y-134112000D01*
X214376000Y-134620000D02*
X213868000Y-134112000D01*
X218440000Y-146812000D02*
X218440000Y-139192000D01*
X218440000Y-139192000D02*
X217932000Y-138684000D01*
X217932000Y-138684000D02*
X216408000Y-138684000D01*
X215138000Y-138684000D02*
X214376000Y-137922000D01*
X214376000Y-137922000D02*
X214376000Y-134620000D01*
X215138000Y-138684000D02*
X216408000Y-138684000D01*
X216408000Y-143764000D02*
X215138000Y-143764000D01*
X215138000Y-143764000D02*
X214630000Y-143256000D01*
X206248000Y-140462000D02*
X206248000Y-137414000D01*
X207010000Y-141224000D02*
X206248000Y-140462000D01*
X213868000Y-141224000D02*
X207010000Y-141224000D01*
X214630000Y-141986000D02*
X213868000Y-141224000D01*
X214630000Y-143256000D02*
X214630000Y-141986000D01*
X194818000Y-136779000D02*
X197993000Y-136779000D01*
X197993000Y-136779000D02*
X198628000Y-137414000D01*
X198628000Y-137414000D02*
X198628000Y-132334000D01*
X211328000Y-138049000D02*
X211328000Y-136779000D01*
X203708000Y-136144000D02*
X203708000Y-137414000D01*
X204343000Y-135509000D02*
X203708000Y-136144000D01*
X210058000Y-135509000D02*
X204343000Y-135509000D01*
X211328000Y-136779000D02*
X210058000Y-135509000D01*
X217678000Y-132334000D02*
X220853000Y-132334000D01*
X221568000Y-133049000D02*
X221568000Y-136224000D01*
X220853000Y-132334000D02*
X221568000Y-133049000D01*
X218313000Y-150114000D02*
X220853000Y-150114000D01*
X220853000Y-150114000D02*
X221568000Y-149399000D01*
X221568000Y-149399000D02*
X221568000Y-146224000D01*
G36*
X228417999Y-129082629D02*
X229122420Y-129504009D01*
X229611964Y-130162883D01*
X229820000Y-130990348D01*
X229820000Y-135553371D01*
X229638597Y-135371652D01*
X229268984Y-135218175D01*
X228868772Y-135217825D01*
X228498891Y-135370657D01*
X228215652Y-135653403D01*
X228062175Y-136023016D01*
X228061825Y-136423228D01*
X228214657Y-136793109D01*
X228497403Y-137076348D01*
X228867016Y-137229825D01*
X229267228Y-137230175D01*
X229637109Y-137077343D01*
X229820000Y-136894770D01*
X229820000Y-145553371D01*
X229638597Y-145371652D01*
X229268984Y-145218175D01*
X228868772Y-145217825D01*
X228498891Y-145370657D01*
X228215652Y-145653403D01*
X228062175Y-146023016D01*
X228061825Y-146423228D01*
X228214657Y-146793109D01*
X228497403Y-147076348D01*
X228867016Y-147229825D01*
X229267228Y-147230175D01*
X229637109Y-147077343D01*
X229820000Y-146894770D01*
X229820000Y-151341552D01*
X229651661Y-152187848D01*
X229196317Y-152869317D01*
X228514848Y-153324661D01*
X227668552Y-153493000D01*
X189780448Y-153493000D01*
X188934152Y-153324661D01*
X188252683Y-152869317D01*
X187797339Y-152187848D01*
X187629000Y-151341552D01*
X187629000Y-150313492D01*
X189965436Y-150313492D01*
X189970516Y-150529392D01*
X189974025Y-150545095D01*
X189972585Y-150561124D01*
X189995445Y-150774484D01*
X190000940Y-150792057D01*
X190001045Y-150810464D01*
X190044225Y-151021284D01*
X190050429Y-151036025D01*
X190051841Y-151051959D01*
X190112801Y-151260239D01*
X190119000Y-151272115D01*
X190119000Y-151511000D01*
X190128334Y-151558789D01*
X190156197Y-151600803D01*
X190367563Y-151812169D01*
X190451738Y-151948282D01*
X190462827Y-151960180D01*
X190469778Y-151974884D01*
X190578998Y-152122204D01*
X190590587Y-152132711D01*
X190598393Y-152146267D01*
X190740633Y-152308827D01*
X190754628Y-152319591D01*
X190764797Y-152334022D01*
X190922277Y-152483882D01*
X190936004Y-152492570D01*
X190946447Y-152505022D01*
X191114088Y-152639642D01*
X191131504Y-152648714D01*
X191145584Y-152662401D01*
X191325924Y-152779241D01*
X191339341Y-152784577D01*
X191343197Y-152787803D01*
X191553197Y-152997803D01*
X191593590Y-153024994D01*
X191643000Y-153035000D01*
X191881957Y-153035000D01*
X192009796Y-153077613D01*
X192026673Y-153079741D01*
X192042138Y-153086835D01*
X192255498Y-153137635D01*
X192273861Y-153138322D01*
X192291212Y-153144362D01*
X192509652Y-153174842D01*
X192525990Y-153173898D01*
X192541847Y-153177953D01*
X192729806Y-153188113D01*
X192746971Y-153185653D01*
X192764084Y-153188426D01*
X192977444Y-153180806D01*
X192993290Y-153177061D01*
X193009526Y-153178305D01*
X193220346Y-153152905D01*
X193235442Y-153147965D01*
X193251324Y-153147875D01*
X193462144Y-153104695D01*
X193477473Y-153098243D01*
X193494038Y-153096720D01*
X193699778Y-153035760D01*
X193701222Y-153035000D01*
X193929000Y-153035000D01*
X193976789Y-153025666D01*
X194018803Y-152997803D01*
X194225091Y-152791515D01*
X194356934Y-152710944D01*
X194374811Y-152694459D01*
X194396402Y-152683263D01*
X194417142Y-152666671D01*
X194554602Y-152563576D01*
X194566354Y-152550469D01*
X194581470Y-152541444D01*
X194738950Y-152399203D01*
X194747730Y-152387407D01*
X194759752Y-152378928D01*
X194907072Y-152223988D01*
X194915309Y-152210961D01*
X194927157Y-152201104D01*
X194970337Y-152147764D01*
X194973475Y-152141797D01*
X194978504Y-152137309D01*
X195110584Y-151962049D01*
X195118425Y-151945795D01*
X195130710Y-151932575D01*
X195205730Y-151810876D01*
X195415803Y-151600803D01*
X195442994Y-151560410D01*
X195453000Y-151511000D01*
X195453000Y-151277006D01*
X195459351Y-151264797D01*
X195517771Y-151064137D01*
X195519055Y-151049403D01*
X195519109Y-151049275D01*
X197952331Y-151049275D01*
X198014169Y-151285042D01*
X198515122Y-151461419D01*
X199045440Y-151432664D01*
X199401831Y-151285042D01*
X199463669Y-151049275D01*
X198708000Y-150293605D01*
X197952331Y-151049275D01*
X195519109Y-151049275D01*
X195524859Y-151035799D01*
X195568039Y-150830059D01*
X195568235Y-150811474D01*
X195573852Y-150793755D01*
X195596712Y-150588015D01*
X195595485Y-150573726D01*
X195598794Y-150559776D01*
X195606414Y-150351496D01*
X195603419Y-150332909D01*
X195605961Y-150314254D01*
X195593261Y-150105974D01*
X195589108Y-150090189D01*
X195589941Y-150073887D01*
X195567586Y-149921122D01*
X197360581Y-149921122D01*
X197389336Y-150451440D01*
X197536958Y-150807831D01*
X197772725Y-150869669D01*
X198528395Y-150114000D01*
X198887605Y-150114000D01*
X199643275Y-150869669D01*
X199879042Y-150807831D01*
X200055419Y-150306878D01*
X200026664Y-149776560D01*
X199879042Y-149420169D01*
X199855522Y-149414000D01*
X202619536Y-149414000D01*
X202619536Y-150814000D01*
X202646103Y-150955190D01*
X202729546Y-151084865D01*
X202856866Y-151171859D01*
X203008000Y-151202464D01*
X204408000Y-151202464D01*
X204549190Y-151175897D01*
X204678865Y-151092454D01*
X204765859Y-150965134D01*
X204796464Y-150814000D01*
X204796464Y-149414000D01*
X204769897Y-149272810D01*
X204686454Y-149143135D01*
X204559134Y-149056141D01*
X204408000Y-149025536D01*
X203008000Y-149025536D01*
X202866810Y-149052103D01*
X202737135Y-149135546D01*
X202650141Y-149262866D01*
X202619536Y-149414000D01*
X199855522Y-149414000D01*
X199643275Y-149358331D01*
X198887605Y-150114000D01*
X198528395Y-150114000D01*
X197772725Y-149358331D01*
X197536958Y-149420169D01*
X197360581Y-149921122D01*
X195567586Y-149921122D01*
X195559461Y-149865608D01*
X195554533Y-149851750D01*
X195554166Y-149837047D01*
X195508446Y-149633847D01*
X195500874Y-149616785D01*
X195498610Y-149598255D01*
X195453000Y-149459671D01*
X195453000Y-149225000D01*
X195442914Y-149178725D01*
X197952331Y-149178725D01*
X198708000Y-149934395D01*
X199463669Y-149178725D01*
X199401831Y-148942958D01*
X198900878Y-148766581D01*
X198370560Y-148795336D01*
X198014169Y-148942958D01*
X197952331Y-149178725D01*
X195442914Y-149178725D01*
X195441479Y-149172145D01*
X195411817Y-149131381D01*
X195232198Y-148966731D01*
X195223877Y-148951128D01*
X195212272Y-148936961D01*
X195205337Y-148920012D01*
X195085957Y-148739672D01*
X195075156Y-148728778D01*
X195068240Y-148715084D01*
X194931080Y-148539824D01*
X194918923Y-148529366D01*
X194910534Y-148515702D01*
X194783535Y-148378543D01*
X194769829Y-148368602D01*
X194759742Y-148355003D01*
X194597182Y-148207683D01*
X194582189Y-148198698D01*
X194570550Y-148185656D01*
X194395289Y-148053576D01*
X194380742Y-148046559D01*
X194369016Y-148035444D01*
X194183596Y-147918605D01*
X194165808Y-147911789D01*
X194150756Y-147900107D01*
X193970033Y-147809745D01*
X193887817Y-147734381D01*
X193851410Y-147711006D01*
X193802000Y-147701000D01*
X193693798Y-147701000D01*
X193536713Y-147649900D01*
X193517357Y-147647602D01*
X193499479Y-147639834D01*
X193288659Y-147594114D01*
X193272252Y-147593832D01*
X193256701Y-147588591D01*
X193040801Y-147560651D01*
X193025146Y-147561712D01*
X193009923Y-147557923D01*
X192796563Y-147547763D01*
X192778380Y-147550488D01*
X192760198Y-147547763D01*
X192546837Y-147557923D01*
X192531040Y-147561855D01*
X192514796Y-147560804D01*
X192303977Y-147588744D01*
X192286436Y-147594715D01*
X192267911Y-147595296D01*
X192059631Y-147643556D01*
X192044381Y-147650440D01*
X192027766Y-147652408D01*
X191878252Y-147701000D01*
X191643000Y-147701000D01*
X191595211Y-147710334D01*
X191553197Y-147738197D01*
X191345070Y-147946324D01*
X191342603Y-147947315D01*
X191159723Y-148066695D01*
X191147879Y-148078288D01*
X191133084Y-148085760D01*
X190957824Y-148222920D01*
X190947366Y-148235077D01*
X190933702Y-148243466D01*
X190796543Y-148370465D01*
X190786602Y-148384171D01*
X190773003Y-148394258D01*
X190625683Y-148556818D01*
X190616698Y-148571811D01*
X190603656Y-148583450D01*
X190471576Y-148758711D01*
X190464559Y-148773258D01*
X190453444Y-148784984D01*
X190363208Y-148928186D01*
X190156197Y-149135197D01*
X190129006Y-149175590D01*
X190119000Y-149225000D01*
X190119000Y-149458766D01*
X190092742Y-149530539D01*
X190089603Y-149550709D01*
X190080884Y-149569166D01*
X190027544Y-149782526D01*
X190026793Y-149797949D01*
X190021331Y-149812395D01*
X189985771Y-150025755D01*
X189986342Y-150044039D01*
X189981519Y-150061683D01*
X189966279Y-150277583D01*
X189968559Y-150295601D01*
X189965436Y-150313492D01*
X187629000Y-150313492D01*
X187629000Y-146589750D01*
X187706000Y-146589750D01*
X187706000Y-147192309D01*
X187802673Y-147425698D01*
X187981301Y-147604327D01*
X188214690Y-147701000D01*
X188817250Y-147701000D01*
X188976000Y-147542250D01*
X188976000Y-146431000D01*
X189230000Y-146431000D01*
X189230000Y-147542250D01*
X189388750Y-147701000D01*
X189991310Y-147701000D01*
X190224699Y-147604327D01*
X190403327Y-147425698D01*
X190500000Y-147192309D01*
X190500000Y-146603188D01*
X194063417Y-146603188D01*
X194125071Y-146838800D01*
X194625480Y-147014927D01*
X195155199Y-146986148D01*
X195510929Y-146838800D01*
X195572583Y-146603188D01*
X194818000Y-145848605D01*
X194063417Y-146603188D01*
X190500000Y-146603188D01*
X190500000Y-146589750D01*
X190341250Y-146431000D01*
X189230000Y-146431000D01*
X188976000Y-146431000D01*
X187864750Y-146431000D01*
X187706000Y-146589750D01*
X187629000Y-146589750D01*
X187629000Y-145415691D01*
X187706000Y-145415691D01*
X187706000Y-146018250D01*
X187864750Y-146177000D01*
X188976000Y-146177000D01*
X188976000Y-146157000D01*
X189230000Y-146157000D01*
X189230000Y-146177000D01*
X190341250Y-146177000D01*
X190500000Y-146018250D01*
X190500000Y-145476480D01*
X193472073Y-145476480D01*
X193500852Y-146006199D01*
X193648200Y-146361929D01*
X193883812Y-146423583D01*
X194638395Y-145669000D01*
X194997605Y-145669000D01*
X195752188Y-146423583D01*
X195987800Y-146361929D01*
X196163927Y-145861520D01*
X196135148Y-145331801D01*
X196130157Y-145319750D01*
X197294500Y-145319750D01*
X197294500Y-145858810D01*
X197391173Y-146092199D01*
X197569802Y-146270827D01*
X197803191Y-146367500D01*
X198342250Y-146367500D01*
X198501000Y-146208750D01*
X198501000Y-145161000D01*
X198755000Y-145161000D01*
X198755000Y-146208750D01*
X198913750Y-146367500D01*
X199452809Y-146367500D01*
X199686198Y-146270827D01*
X199864827Y-146092199D01*
X199961500Y-145858810D01*
X199961500Y-145319750D01*
X199889534Y-145247784D01*
X200088313Y-145247784D01*
X200252311Y-145644689D01*
X200555714Y-145948622D01*
X200952332Y-146113313D01*
X201381784Y-146113687D01*
X201778689Y-145949689D01*
X202082622Y-145646286D01*
X202247313Y-145249668D01*
X202247687Y-144820216D01*
X202083689Y-144423311D01*
X201780286Y-144119378D01*
X201383668Y-143954687D01*
X200954216Y-143954313D01*
X200557311Y-144118311D01*
X200253378Y-144421714D01*
X200088687Y-144818332D01*
X200088313Y-145247784D01*
X199889534Y-145247784D01*
X199802750Y-145161000D01*
X198755000Y-145161000D01*
X198501000Y-145161000D01*
X197453250Y-145161000D01*
X197294500Y-145319750D01*
X196130157Y-145319750D01*
X195987800Y-144976071D01*
X195752188Y-144914417D01*
X194997605Y-145669000D01*
X194638395Y-145669000D01*
X193883812Y-144914417D01*
X193648200Y-144976071D01*
X193472073Y-145476480D01*
X190500000Y-145476480D01*
X190500000Y-145415691D01*
X190403327Y-145182302D01*
X190224699Y-145003673D01*
X189991310Y-144907000D01*
X189388750Y-144907000D01*
X189230002Y-145065748D01*
X189230002Y-144907111D01*
X189329359Y-144907198D01*
X189746567Y-144734812D01*
X194063417Y-144734812D01*
X194818000Y-145489395D01*
X195572583Y-144734812D01*
X195510929Y-144499200D01*
X195010520Y-144323073D01*
X194480801Y-144351852D01*
X194125071Y-144499200D01*
X194063417Y-144734812D01*
X189746567Y-144734812D01*
X189749612Y-144733554D01*
X190071423Y-144412303D01*
X190129682Y-144272000D01*
X190754000Y-144272000D01*
X190948403Y-144233331D01*
X190984532Y-144209190D01*
X197294500Y-144209190D01*
X197294500Y-144748250D01*
X197453250Y-144907000D01*
X198501000Y-144907000D01*
X198501000Y-143859250D01*
X198755000Y-143859250D01*
X198755000Y-144907000D01*
X199802750Y-144907000D01*
X199961500Y-144748250D01*
X199961500Y-144209190D01*
X199864827Y-143975801D01*
X199686198Y-143797173D01*
X199452809Y-143700500D01*
X198913750Y-143700500D01*
X198755000Y-143859250D01*
X198501000Y-143859250D01*
X198342250Y-143700500D01*
X197803191Y-143700500D01*
X197569802Y-143797173D01*
X197391173Y-143975801D01*
X197294500Y-144209190D01*
X190984532Y-144209190D01*
X191113210Y-144123210D01*
X192488421Y-142748000D01*
X202481580Y-142748000D01*
X203200000Y-143466420D01*
X203200000Y-144075881D01*
X203097311Y-144118311D01*
X202793378Y-144421714D01*
X202628687Y-144818332D01*
X202628313Y-145247784D01*
X202792311Y-145644689D01*
X203095714Y-145948622D01*
X203492332Y-146113313D01*
X203921784Y-146113687D01*
X204318689Y-145949689D01*
X204622622Y-145646286D01*
X204787313Y-145249668D01*
X204787687Y-144820216D01*
X204623689Y-144423311D01*
X204320286Y-144119378D01*
X204216000Y-144076074D01*
X204216000Y-143256000D01*
X204177331Y-143061597D01*
X204067210Y-142896790D01*
X203051210Y-141880790D01*
X202886403Y-141770669D01*
X202692000Y-141732000D01*
X204767580Y-141732000D01*
X205253790Y-142218211D01*
X205253793Y-142218213D01*
X205740000Y-142704421D01*
X205740000Y-144075881D01*
X205637311Y-144118311D01*
X205333378Y-144421714D01*
X205168687Y-144818332D01*
X205168313Y-145247784D01*
X205332311Y-145644689D01*
X205635714Y-145948622D01*
X206032332Y-146113313D01*
X206461784Y-146113687D01*
X206858689Y-145949689D01*
X207162622Y-145646286D01*
X207327313Y-145249668D01*
X207327687Y-144820216D01*
X207163689Y-144423311D01*
X206860286Y-144119378D01*
X206756000Y-144076074D01*
X206756000Y-143898081D01*
X210246813Y-143898081D01*
X210411038Y-144295537D01*
X210714863Y-144599893D01*
X211112032Y-144764812D01*
X211542081Y-144765187D01*
X211939537Y-144600962D01*
X212243893Y-144297137D01*
X212408812Y-143899968D01*
X212409187Y-143469919D01*
X212244962Y-143072463D01*
X211941137Y-142768107D01*
X211543968Y-142603188D01*
X211113919Y-142602813D01*
X210716463Y-142767038D01*
X210412107Y-143070863D01*
X210247188Y-143468032D01*
X210246813Y-143898081D01*
X206756000Y-143898081D01*
X206756000Y-142494000D01*
X206717331Y-142299597D01*
X206690755Y-142259823D01*
X206607211Y-142134790D01*
X205972213Y-141499793D01*
X205972211Y-141499790D01*
X205337210Y-140864790D01*
X205172403Y-140754669D01*
X204978000Y-140716000D01*
X190129827Y-140716000D01*
X190072554Y-140577388D01*
X189751303Y-140255577D01*
X189331354Y-140081199D01*
X188876641Y-140080802D01*
X188456388Y-140254446D01*
X188134577Y-140575697D01*
X187960199Y-140995646D01*
X187959802Y-141450359D01*
X188133446Y-141870612D01*
X188454697Y-142192423D01*
X188874646Y-142366801D01*
X189329359Y-142367198D01*
X189749612Y-142193554D01*
X190071423Y-141872303D01*
X190129682Y-141732000D01*
X192278000Y-141732000D01*
X192083597Y-141770669D01*
X192028910Y-141807210D01*
X191918789Y-141880790D01*
X190543580Y-143256000D01*
X190129827Y-143256000D01*
X190072554Y-143117388D01*
X189751303Y-142795577D01*
X189331354Y-142621199D01*
X188876641Y-142620802D01*
X188456388Y-142794446D01*
X188134577Y-143115697D01*
X187960199Y-143535646D01*
X187959802Y-143990359D01*
X188133446Y-144410612D01*
X188454697Y-144732423D01*
X188874646Y-144906801D01*
X189102575Y-144907000D01*
X188975998Y-144907000D01*
X188975998Y-145065748D01*
X188817250Y-144907000D01*
X188214690Y-144907000D01*
X187981301Y-145003673D01*
X187802673Y-145182302D01*
X187706000Y-145415691D01*
X187629000Y-145415691D01*
X187629000Y-138910359D01*
X187959802Y-138910359D01*
X188133446Y-139330612D01*
X188454697Y-139652423D01*
X188874646Y-139826801D01*
X189329359Y-139827198D01*
X189749612Y-139653554D01*
X190071423Y-139332303D01*
X190129682Y-139192000D01*
X190797580Y-139192000D01*
X191283790Y-139678211D01*
X191385090Y-139745897D01*
X191448597Y-139788331D01*
X191643000Y-139827000D01*
X200533000Y-139827000D01*
X200727403Y-139788331D01*
X200892210Y-139678210D01*
X201527211Y-139043210D01*
X201637331Y-138878403D01*
X201676000Y-138684000D01*
X201676000Y-138372119D01*
X201778689Y-138329689D01*
X202082622Y-138026286D01*
X202247313Y-137629668D01*
X202247314Y-137627784D01*
X202628313Y-137627784D01*
X202792311Y-138024689D01*
X203095714Y-138328622D01*
X203492332Y-138493313D01*
X203921784Y-138493687D01*
X204318689Y-138329689D01*
X204622622Y-138026286D01*
X204787313Y-137629668D01*
X204787314Y-137627784D01*
X205168313Y-137627784D01*
X205332311Y-138024689D01*
X205635714Y-138328622D01*
X205740000Y-138371926D01*
X205740000Y-140462000D01*
X205778669Y-140656403D01*
X205888790Y-140821210D01*
X206650790Y-141583210D01*
X206815597Y-141693331D01*
X207010000Y-141732000D01*
X213657580Y-141732000D01*
X214122000Y-142196420D01*
X214122000Y-143256000D01*
X214160669Y-143450403D01*
X214270790Y-143615210D01*
X214778789Y-144123210D01*
X214888910Y-144196790D01*
X214943597Y-144233331D01*
X215138000Y-144272000D01*
X215481313Y-144272000D01*
X215491038Y-144295537D01*
X215794863Y-144599893D01*
X216192032Y-144764812D01*
X216622081Y-144765187D01*
X217019537Y-144600962D01*
X217323893Y-144297137D01*
X217488812Y-143899968D01*
X217489187Y-143469919D01*
X217324962Y-143072463D01*
X217021137Y-142768107D01*
X216623968Y-142603188D01*
X216193919Y-142602813D01*
X215796463Y-142767038D01*
X215492107Y-143070863D01*
X215415231Y-143256000D01*
X215348421Y-143256000D01*
X215138000Y-143045580D01*
X215138000Y-141986000D01*
X215099331Y-141791597D01*
X214989210Y-141626790D01*
X214227210Y-140864790D01*
X214062403Y-140754669D01*
X213868000Y-140716000D01*
X207220420Y-140716000D01*
X206756000Y-140251580D01*
X206756000Y-138372119D01*
X206858689Y-138329689D01*
X207162622Y-138026286D01*
X207327313Y-137629668D01*
X207327687Y-137200216D01*
X207163689Y-136803311D01*
X206860286Y-136499378D01*
X206463668Y-136334687D01*
X206034216Y-136334313D01*
X205637311Y-136498311D01*
X205333378Y-136801714D01*
X205168687Y-137198332D01*
X205168313Y-137627784D01*
X204787314Y-137627784D01*
X204787687Y-137200216D01*
X204623689Y-136803311D01*
X204320286Y-136499378D01*
X204216000Y-136456074D01*
X204216000Y-136354420D01*
X204553421Y-136017000D01*
X209847580Y-136017000D01*
X210820000Y-136989420D01*
X210820000Y-137595536D01*
X210628000Y-137595536D01*
X210486810Y-137622103D01*
X210357135Y-137705546D01*
X210270141Y-137832866D01*
X210239536Y-137984000D01*
X210239536Y-139384000D01*
X210266103Y-139525190D01*
X210349546Y-139654865D01*
X210476866Y-139741859D01*
X210628000Y-139772464D01*
X212028000Y-139772464D01*
X212169190Y-139745897D01*
X212298865Y-139662454D01*
X212385859Y-139535134D01*
X212416464Y-139384000D01*
X212416464Y-137984000D01*
X212389897Y-137842810D01*
X212306454Y-137713135D01*
X212179134Y-137626141D01*
X212028000Y-137595536D01*
X211836000Y-137595536D01*
X211836000Y-136779000D01*
X211798367Y-136589806D01*
X211797331Y-136584596D01*
X211687210Y-136419790D01*
X210417210Y-135149790D01*
X210252403Y-135039669D01*
X210058000Y-135001000D01*
X204343000Y-135001000D01*
X204148597Y-135039669D01*
X203983790Y-135149789D01*
X203348790Y-135784790D01*
X203238669Y-135949597D01*
X203200000Y-136144000D01*
X203200000Y-136455881D01*
X203097311Y-136498311D01*
X202793378Y-136801714D01*
X202628687Y-137198332D01*
X202628313Y-137627784D01*
X202247314Y-137627784D01*
X202247687Y-137200216D01*
X202083689Y-136803311D01*
X201780286Y-136499378D01*
X201383668Y-136334687D01*
X200954216Y-136334313D01*
X200557311Y-136498311D01*
X200253378Y-136801714D01*
X200088687Y-137198332D01*
X200088313Y-137627784D01*
X200252311Y-138024689D01*
X200555714Y-138328622D01*
X200660000Y-138371926D01*
X200660000Y-138473579D01*
X200322580Y-138811000D01*
X191853421Y-138811000D01*
X191367210Y-138324790D01*
X191202403Y-138214669D01*
X191008000Y-138176000D01*
X190129827Y-138176000D01*
X190072554Y-138037388D01*
X189751303Y-137715577D01*
X189331354Y-137541199D01*
X188876641Y-137540802D01*
X188456388Y-137714446D01*
X188134577Y-138035697D01*
X187960199Y-138455646D01*
X187959802Y-138910359D01*
X187629000Y-138910359D01*
X187629000Y-136370359D01*
X187959802Y-136370359D01*
X188133446Y-136790612D01*
X188454697Y-137112423D01*
X188874646Y-137286801D01*
X189329359Y-137287198D01*
X189749612Y-137113554D01*
X189870592Y-136992784D01*
X193738313Y-136992784D01*
X193902311Y-137389689D01*
X194205714Y-137693622D01*
X194602332Y-137858313D01*
X195031784Y-137858687D01*
X195428689Y-137694689D01*
X195732622Y-137391286D01*
X195775926Y-137287000D01*
X197548610Y-137287000D01*
X197548313Y-137627784D01*
X197712311Y-138024689D01*
X198015714Y-138328622D01*
X198412332Y-138493313D01*
X198841784Y-138493687D01*
X199238689Y-138329689D01*
X199542622Y-138026286D01*
X199707313Y-137629668D01*
X199707687Y-137200216D01*
X199543689Y-136803311D01*
X199240286Y-136499378D01*
X199136000Y-136456074D01*
X199136000Y-133372464D01*
X199341500Y-133372464D01*
X199482690Y-133345897D01*
X199612365Y-133262454D01*
X199699359Y-133135134D01*
X199729964Y-132984000D01*
X199729964Y-132538179D01*
X200160322Y-132538179D01*
X200316951Y-132917251D01*
X200606723Y-133207529D01*
X200985522Y-133364820D01*
X201395679Y-133365178D01*
X201774751Y-133208549D01*
X202065029Y-132918777D01*
X202219078Y-132547784D01*
X208343313Y-132547784D01*
X208507311Y-132944689D01*
X208810714Y-133248622D01*
X209207332Y-133413313D01*
X209550000Y-133413611D01*
X209550000Y-133604000D01*
X209588669Y-133798403D01*
X209698790Y-133963210D01*
X210206789Y-134471210D01*
X210316910Y-134544790D01*
X210371597Y-134581331D01*
X210566000Y-134620000D01*
X213657580Y-134620000D01*
X213868000Y-134830421D01*
X213868000Y-137922000D01*
X213906669Y-138116403D01*
X214016790Y-138281210D01*
X214778790Y-139043210D01*
X214943597Y-139153331D01*
X215138000Y-139192000D01*
X215319536Y-139192000D01*
X215319536Y-139384000D01*
X215346103Y-139525190D01*
X215429546Y-139654865D01*
X215556866Y-139741859D01*
X215708000Y-139772464D01*
X217108000Y-139772464D01*
X217249190Y-139745897D01*
X217378865Y-139662454D01*
X217465859Y-139535134D01*
X217496464Y-139384000D01*
X217496464Y-139192000D01*
X217721580Y-139192000D01*
X217932000Y-139402421D01*
X217932000Y-146601580D01*
X217467580Y-147066000D01*
X209931000Y-147066000D01*
X209736597Y-147104669D01*
X209736595Y-147104670D01*
X209736596Y-147104670D01*
X209571789Y-147214790D01*
X209063790Y-147722790D01*
X208953669Y-147887597D01*
X208915000Y-148082000D01*
X208915000Y-149155881D01*
X208812311Y-149198311D01*
X208508378Y-149501714D01*
X208343687Y-149898332D01*
X208343313Y-150327784D01*
X208507311Y-150724689D01*
X208810714Y-151028622D01*
X209207332Y-151193313D01*
X209636784Y-151193687D01*
X210033689Y-151029689D01*
X210337622Y-150726286D01*
X210502313Y-150329668D01*
X210502314Y-150327784D01*
X217233313Y-150327784D01*
X217397311Y-150724689D01*
X217700714Y-151028622D01*
X218097332Y-151193313D01*
X218526784Y-151193687D01*
X218923689Y-151029689D01*
X219227622Y-150726286D01*
X219270926Y-150622000D01*
X220853000Y-150622000D01*
X221047403Y-150583331D01*
X221212210Y-150473210D01*
X221927210Y-149758210D01*
X222037331Y-149593403D01*
X222076000Y-149399000D01*
X222076000Y-147995243D01*
X222603823Y-147777151D01*
X223119341Y-147262532D01*
X223398681Y-146589806D01*
X223398826Y-146423228D01*
X225561825Y-146423228D01*
X225714657Y-146793109D01*
X225997403Y-147076348D01*
X226367016Y-147229825D01*
X226767228Y-147230175D01*
X227137109Y-147077343D01*
X227420348Y-146794597D01*
X227573825Y-146424984D01*
X227574175Y-146024772D01*
X227421343Y-145654891D01*
X227138597Y-145371652D01*
X226768984Y-145218175D01*
X226368772Y-145217825D01*
X225998891Y-145370657D01*
X225715652Y-145653403D01*
X225562175Y-146023016D01*
X225561825Y-146423228D01*
X223398826Y-146423228D01*
X223399317Y-145861390D01*
X223121151Y-145188177D01*
X222606532Y-144672659D01*
X221933806Y-144393319D01*
X221205390Y-144392683D01*
X220532177Y-144670849D01*
X220016659Y-145185468D01*
X219737319Y-145858194D01*
X219736683Y-146586610D01*
X220014849Y-147259823D01*
X220529468Y-147775341D01*
X221060000Y-147995637D01*
X221060000Y-149188580D01*
X220642580Y-149606000D01*
X219271119Y-149606000D01*
X219228689Y-149503311D01*
X218925286Y-149199378D01*
X218528668Y-149034687D01*
X218099216Y-149034313D01*
X217702311Y-149198311D01*
X217398378Y-149501714D01*
X217233687Y-149898332D01*
X217233313Y-150327784D01*
X210502314Y-150327784D01*
X210502687Y-149900216D01*
X210338689Y-149503311D01*
X210035286Y-149199378D01*
X209931000Y-149156074D01*
X209931000Y-148292420D01*
X210141421Y-148082000D01*
X217678000Y-148082000D01*
X217872403Y-148043331D01*
X218037210Y-147933210D01*
X218799210Y-147171210D01*
X218909331Y-147006403D01*
X218948000Y-146812000D01*
X218948000Y-141423228D01*
X220561825Y-141423228D01*
X220714657Y-141793109D01*
X220997403Y-142076348D01*
X221367016Y-142229825D01*
X221767228Y-142230175D01*
X222137109Y-142077343D01*
X222420348Y-141794597D01*
X222506711Y-141586610D01*
X224736683Y-141586610D01*
X225014849Y-142259823D01*
X225529468Y-142775341D01*
X226202194Y-143054681D01*
X226930610Y-143055317D01*
X227603823Y-142777151D01*
X228119341Y-142262532D01*
X228398681Y-141589806D01*
X228399317Y-140861390D01*
X228121151Y-140188177D01*
X227606532Y-139672659D01*
X226933806Y-139393319D01*
X226205390Y-139392683D01*
X225532177Y-139670849D01*
X225016659Y-140185468D01*
X224737319Y-140858194D01*
X224736683Y-141586610D01*
X222506711Y-141586610D01*
X222573825Y-141424984D01*
X222574175Y-141024772D01*
X222421343Y-140654891D01*
X222138597Y-140371652D01*
X221768984Y-140218175D01*
X221368772Y-140217825D01*
X220998891Y-140370657D01*
X220715652Y-140653403D01*
X220562175Y-141023016D01*
X220561825Y-141423228D01*
X218948000Y-141423228D01*
X218948000Y-139192000D01*
X218909331Y-138997597D01*
X218851040Y-138910359D01*
X218799210Y-138832789D01*
X218291210Y-138324790D01*
X218126403Y-138214669D01*
X217932000Y-138176000D01*
X217496464Y-138176000D01*
X217496464Y-137984000D01*
X217469897Y-137842810D01*
X217386454Y-137713135D01*
X217259134Y-137626141D01*
X217108000Y-137595536D01*
X215708000Y-137595536D01*
X215566810Y-137622103D01*
X215437135Y-137705546D01*
X215350141Y-137832866D01*
X215319536Y-137984000D01*
X215319536Y-138147116D01*
X214884000Y-137711580D01*
X214884000Y-134620000D01*
X214845331Y-134425597D01*
X214765688Y-134306403D01*
X214735210Y-134260789D01*
X214227210Y-133752790D01*
X214062403Y-133642669D01*
X213868000Y-133604000D01*
X210776421Y-133604000D01*
X210566000Y-133393580D01*
X210566000Y-132334000D01*
X217170000Y-132334000D01*
X217208669Y-132528403D01*
X217252262Y-132593645D01*
X217397311Y-132944689D01*
X217700714Y-133248622D01*
X218097332Y-133413313D01*
X218526784Y-133413687D01*
X218923689Y-133249689D01*
X219227622Y-132946286D01*
X219270926Y-132842000D01*
X220642580Y-132842000D01*
X221060000Y-133259420D01*
X221060000Y-134452757D01*
X220532177Y-134670849D01*
X220016659Y-135185468D01*
X219737319Y-135858194D01*
X219736683Y-136586610D01*
X220014849Y-137259823D01*
X220529468Y-137775341D01*
X221202194Y-138054681D01*
X221930610Y-138055317D01*
X222603823Y-137777151D01*
X223119341Y-137262532D01*
X223398681Y-136589806D01*
X223398826Y-136423228D01*
X225561825Y-136423228D01*
X225714657Y-136793109D01*
X225997403Y-137076348D01*
X226367016Y-137229825D01*
X226767228Y-137230175D01*
X227137109Y-137077343D01*
X227420348Y-136794597D01*
X227573825Y-136424984D01*
X227574175Y-136024772D01*
X227421343Y-135654891D01*
X227138597Y-135371652D01*
X226768984Y-135218175D01*
X226368772Y-135217825D01*
X225998891Y-135370657D01*
X225715652Y-135653403D01*
X225562175Y-136023016D01*
X225561825Y-136423228D01*
X223398826Y-136423228D01*
X223399317Y-135861390D01*
X223121151Y-135188177D01*
X222606532Y-134672659D01*
X222076000Y-134452363D01*
X222076000Y-133049000D01*
X222037331Y-132854597D01*
X221927210Y-132689790D01*
X221212210Y-131974790D01*
X221047403Y-131864669D01*
X220853000Y-131826000D01*
X219271119Y-131826000D01*
X219228689Y-131723311D01*
X218925286Y-131419378D01*
X218528668Y-131254687D01*
X218099216Y-131254313D01*
X217702311Y-131418311D01*
X217398378Y-131721714D01*
X217251432Y-132075599D01*
X217208669Y-132139597D01*
X217170000Y-132334000D01*
X210566000Y-132334000D01*
X210527331Y-132139597D01*
X210483738Y-132074355D01*
X210338689Y-131723311D01*
X210035286Y-131419378D01*
X209638668Y-131254687D01*
X209209216Y-131254313D01*
X208812311Y-131418311D01*
X208508378Y-131721714D01*
X208343687Y-132118332D01*
X208343313Y-132547784D01*
X202219078Y-132547784D01*
X202222320Y-132539978D01*
X202222678Y-132129821D01*
X202066049Y-131750749D01*
X201776277Y-131460471D01*
X201397478Y-131303180D01*
X200987321Y-131302822D01*
X200608249Y-131459451D01*
X200317971Y-131749223D01*
X200160680Y-132128022D01*
X200160322Y-132538179D01*
X199729964Y-132538179D01*
X199729964Y-131684000D01*
X199703397Y-131542810D01*
X199619954Y-131413135D01*
X199492634Y-131326141D01*
X199341500Y-131295536D01*
X198041500Y-131295536D01*
X197900310Y-131322103D01*
X197770635Y-131405546D01*
X197683641Y-131532866D01*
X197653036Y-131684000D01*
X197653036Y-132984000D01*
X197679603Y-133125190D01*
X197763046Y-133254865D01*
X197890366Y-133341859D01*
X198041500Y-133372464D01*
X198120000Y-133372464D01*
X198120000Y-136296262D01*
X197993000Y-136271000D01*
X195776119Y-136271000D01*
X195733689Y-136168311D01*
X195430286Y-135864378D01*
X195033668Y-135699687D01*
X194604216Y-135699313D01*
X194207311Y-135863311D01*
X193903378Y-136166714D01*
X193738687Y-136563332D01*
X193738313Y-136992784D01*
X189870592Y-136992784D01*
X190071423Y-136792303D01*
X190245801Y-136372354D01*
X190246198Y-135917641D01*
X190072554Y-135497388D01*
X189751303Y-135175577D01*
X189331354Y-135001199D01*
X188876641Y-135000802D01*
X188456388Y-135174446D01*
X188134577Y-135495697D01*
X187960199Y-135915646D01*
X187959802Y-136370359D01*
X187629000Y-136370359D01*
X187629000Y-131106448D01*
X187797339Y-130260152D01*
X188252683Y-129578683D01*
X188934152Y-129123339D01*
X189780448Y-128955000D01*
X227552397Y-128955000D01*
X228417999Y-129082629D01*
X228417999Y-129082629D01*
G37*
X228417999Y-129082629D02*
X229122420Y-129504009D01*
X229611964Y-130162883D01*
X229820000Y-130990348D01*
X229820000Y-135553371D01*
X229638597Y-135371652D01*
X229268984Y-135218175D01*
X228868772Y-135217825D01*
X228498891Y-135370657D01*
X228215652Y-135653403D01*
X228062175Y-136023016D01*
X228061825Y-136423228D01*
X228214657Y-136793109D01*
X228497403Y-137076348D01*
X228867016Y-137229825D01*
X229267228Y-137230175D01*
X229637109Y-137077343D01*
X229820000Y-136894770D01*
X229820000Y-145553371D01*
X229638597Y-145371652D01*
X229268984Y-145218175D01*
X228868772Y-145217825D01*
X228498891Y-145370657D01*
X228215652Y-145653403D01*
X228062175Y-146023016D01*
X228061825Y-146423228D01*
X228214657Y-146793109D01*
X228497403Y-147076348D01*
X228867016Y-147229825D01*
X229267228Y-147230175D01*
X229637109Y-147077343D01*
X229820000Y-146894770D01*
X229820000Y-151341552D01*
X229651661Y-152187848D01*
X229196317Y-152869317D01*
X228514848Y-153324661D01*
X227668552Y-153493000D01*
X189780448Y-153493000D01*
X188934152Y-153324661D01*
X188252683Y-152869317D01*
X187797339Y-152187848D01*
X187629000Y-151341552D01*
X187629000Y-150313492D01*
X189965436Y-150313492D01*
X189970516Y-150529392D01*
X189974025Y-150545095D01*
X189972585Y-150561124D01*
X189995445Y-150774484D01*
X190000940Y-150792057D01*
X190001045Y-150810464D01*
X190044225Y-151021284D01*
X190050429Y-151036025D01*
X190051841Y-151051959D01*
X190112801Y-151260239D01*
X190119000Y-151272115D01*
X190119000Y-151511000D01*
X190128334Y-151558789D01*
X190156197Y-151600803D01*
X190367563Y-151812169D01*
X190451738Y-151948282D01*
X190462827Y-151960180D01*
X190469778Y-151974884D01*
X190578998Y-152122204D01*
X190590587Y-152132711D01*
X190598393Y-152146267D01*
X190740633Y-152308827D01*
X190754628Y-152319591D01*
X190764797Y-152334022D01*
X190922277Y-152483882D01*
X190936004Y-152492570D01*
X190946447Y-152505022D01*
X191114088Y-152639642D01*
X191131504Y-152648714D01*
X191145584Y-152662401D01*
X191325924Y-152779241D01*
X191339341Y-152784577D01*
X191343197Y-152787803D01*
X191553197Y-152997803D01*
X191593590Y-153024994D01*
X191643000Y-153035000D01*
X191881957Y-153035000D01*
X192009796Y-153077613D01*
X192026673Y-153079741D01*
X192042138Y-153086835D01*
X192255498Y-153137635D01*
X192273861Y-153138322D01*
X192291212Y-153144362D01*
X192509652Y-153174842D01*
X192525990Y-153173898D01*
X192541847Y-153177953D01*
X192729806Y-153188113D01*
X192746971Y-153185653D01*
X192764084Y-153188426D01*
X192977444Y-153180806D01*
X192993290Y-153177061D01*
X193009526Y-153178305D01*
X193220346Y-153152905D01*
X193235442Y-153147965D01*
X193251324Y-153147875D01*
X193462144Y-153104695D01*
X193477473Y-153098243D01*
X193494038Y-153096720D01*
X193699778Y-153035760D01*
X193701222Y-153035000D01*
X193929000Y-153035000D01*
X193976789Y-153025666D01*
X194018803Y-152997803D01*
X194225091Y-152791515D01*
X194356934Y-152710944D01*
X194374811Y-152694459D01*
X194396402Y-152683263D01*
X194417142Y-152666671D01*
X194554602Y-152563576D01*
X194566354Y-152550469D01*
X194581470Y-152541444D01*
X194738950Y-152399203D01*
X194747730Y-152387407D01*
X194759752Y-152378928D01*
X194907072Y-152223988D01*
X194915309Y-152210961D01*
X194927157Y-152201104D01*
X194970337Y-152147764D01*
X194973475Y-152141797D01*
X194978504Y-152137309D01*
X195110584Y-151962049D01*
X195118425Y-151945795D01*
X195130710Y-151932575D01*
X195205730Y-151810876D01*
X195415803Y-151600803D01*
X195442994Y-151560410D01*
X195453000Y-151511000D01*
X195453000Y-151277006D01*
X195459351Y-151264797D01*
X195517771Y-151064137D01*
X195519055Y-151049403D01*
X195519109Y-151049275D01*
X197952331Y-151049275D01*
X198014169Y-151285042D01*
X198515122Y-151461419D01*
X199045440Y-151432664D01*
X199401831Y-151285042D01*
X199463669Y-151049275D01*
X198708000Y-150293605D01*
X197952331Y-151049275D01*
X195519109Y-151049275D01*
X195524859Y-151035799D01*
X195568039Y-150830059D01*
X195568235Y-150811474D01*
X195573852Y-150793755D01*
X195596712Y-150588015D01*
X195595485Y-150573726D01*
X195598794Y-150559776D01*
X195606414Y-150351496D01*
X195603419Y-150332909D01*
X195605961Y-150314254D01*
X195593261Y-150105974D01*
X195589108Y-150090189D01*
X195589941Y-150073887D01*
X195567586Y-149921122D01*
X197360581Y-149921122D01*
X197389336Y-150451440D01*
X197536958Y-150807831D01*
X197772725Y-150869669D01*
X198528395Y-150114000D01*
X198887605Y-150114000D01*
X199643275Y-150869669D01*
X199879042Y-150807831D01*
X200055419Y-150306878D01*
X200026664Y-149776560D01*
X199879042Y-149420169D01*
X199855522Y-149414000D01*
X202619536Y-149414000D01*
X202619536Y-150814000D01*
X202646103Y-150955190D01*
X202729546Y-151084865D01*
X202856866Y-151171859D01*
X203008000Y-151202464D01*
X204408000Y-151202464D01*
X204549190Y-151175897D01*
X204678865Y-151092454D01*
X204765859Y-150965134D01*
X204796464Y-150814000D01*
X204796464Y-149414000D01*
X204769897Y-149272810D01*
X204686454Y-149143135D01*
X204559134Y-149056141D01*
X204408000Y-149025536D01*
X203008000Y-149025536D01*
X202866810Y-149052103D01*
X202737135Y-149135546D01*
X202650141Y-149262866D01*
X202619536Y-149414000D01*
X199855522Y-149414000D01*
X199643275Y-149358331D01*
X198887605Y-150114000D01*
X198528395Y-150114000D01*
X197772725Y-149358331D01*
X197536958Y-149420169D01*
X197360581Y-149921122D01*
X195567586Y-149921122D01*
X195559461Y-149865608D01*
X195554533Y-149851750D01*
X195554166Y-149837047D01*
X195508446Y-149633847D01*
X195500874Y-149616785D01*
X195498610Y-149598255D01*
X195453000Y-149459671D01*
X195453000Y-149225000D01*
X195442914Y-149178725D01*
X197952331Y-149178725D01*
X198708000Y-149934395D01*
X199463669Y-149178725D01*
X199401831Y-148942958D01*
X198900878Y-148766581D01*
X198370560Y-148795336D01*
X198014169Y-148942958D01*
X197952331Y-149178725D01*
X195442914Y-149178725D01*
X195441479Y-149172145D01*
X195411817Y-149131381D01*
X195232198Y-148966731D01*
X195223877Y-148951128D01*
X195212272Y-148936961D01*
X195205337Y-148920012D01*
X195085957Y-148739672D01*
X195075156Y-148728778D01*
X195068240Y-148715084D01*
X194931080Y-148539824D01*
X194918923Y-148529366D01*
X194910534Y-148515702D01*
X194783535Y-148378543D01*
X194769829Y-148368602D01*
X194759742Y-148355003D01*
X194597182Y-148207683D01*
X194582189Y-148198698D01*
X194570550Y-148185656D01*
X194395289Y-148053576D01*
X194380742Y-148046559D01*
X194369016Y-148035444D01*
X194183596Y-147918605D01*
X194165808Y-147911789D01*
X194150756Y-147900107D01*
X193970033Y-147809745D01*
X193887817Y-147734381D01*
X193851410Y-147711006D01*
X193802000Y-147701000D01*
X193693798Y-147701000D01*
X193536713Y-147649900D01*
X193517357Y-147647602D01*
X193499479Y-147639834D01*
X193288659Y-147594114D01*
X193272252Y-147593832D01*
X193256701Y-147588591D01*
X193040801Y-147560651D01*
X193025146Y-147561712D01*
X193009923Y-147557923D01*
X192796563Y-147547763D01*
X192778380Y-147550488D01*
X192760198Y-147547763D01*
X192546837Y-147557923D01*
X192531040Y-147561855D01*
X192514796Y-147560804D01*
X192303977Y-147588744D01*
X192286436Y-147594715D01*
X192267911Y-147595296D01*
X192059631Y-147643556D01*
X192044381Y-147650440D01*
X192027766Y-147652408D01*
X191878252Y-147701000D01*
X191643000Y-147701000D01*
X191595211Y-147710334D01*
X191553197Y-147738197D01*
X191345070Y-147946324D01*
X191342603Y-147947315D01*
X191159723Y-148066695D01*
X191147879Y-148078288D01*
X191133084Y-148085760D01*
X190957824Y-148222920D01*
X190947366Y-148235077D01*
X190933702Y-148243466D01*
X190796543Y-148370465D01*
X190786602Y-148384171D01*
X190773003Y-148394258D01*
X190625683Y-148556818D01*
X190616698Y-148571811D01*
X190603656Y-148583450D01*
X190471576Y-148758711D01*
X190464559Y-148773258D01*
X190453444Y-148784984D01*
X190363208Y-148928186D01*
X190156197Y-149135197D01*
X190129006Y-149175590D01*
X190119000Y-149225000D01*
X190119000Y-149458766D01*
X190092742Y-149530539D01*
X190089603Y-149550709D01*
X190080884Y-149569166D01*
X190027544Y-149782526D01*
X190026793Y-149797949D01*
X190021331Y-149812395D01*
X189985771Y-150025755D01*
X189986342Y-150044039D01*
X189981519Y-150061683D01*
X189966279Y-150277583D01*
X189968559Y-150295601D01*
X189965436Y-150313492D01*
X187629000Y-150313492D01*
X187629000Y-146589750D01*
X187706000Y-146589750D01*
X187706000Y-147192309D01*
X187802673Y-147425698D01*
X187981301Y-147604327D01*
X188214690Y-147701000D01*
X188817250Y-147701000D01*
X188976000Y-147542250D01*
X188976000Y-146431000D01*
X189230000Y-146431000D01*
X189230000Y-147542250D01*
X189388750Y-147701000D01*
X189991310Y-147701000D01*
X190224699Y-147604327D01*
X190403327Y-147425698D01*
X190500000Y-147192309D01*
X190500000Y-146603188D01*
X194063417Y-146603188D01*
X194125071Y-146838800D01*
X194625480Y-147014927D01*
X195155199Y-146986148D01*
X195510929Y-146838800D01*
X195572583Y-146603188D01*
X194818000Y-145848605D01*
X194063417Y-146603188D01*
X190500000Y-146603188D01*
X190500000Y-146589750D01*
X190341250Y-146431000D01*
X189230000Y-146431000D01*
X188976000Y-146431000D01*
X187864750Y-146431000D01*
X187706000Y-146589750D01*
X187629000Y-146589750D01*
X187629000Y-145415691D01*
X187706000Y-145415691D01*
X187706000Y-146018250D01*
X187864750Y-146177000D01*
X188976000Y-146177000D01*
X188976000Y-146157000D01*
X189230000Y-146157000D01*
X189230000Y-146177000D01*
X190341250Y-146177000D01*
X190500000Y-146018250D01*
X190500000Y-145476480D01*
X193472073Y-145476480D01*
X193500852Y-146006199D01*
X193648200Y-146361929D01*
X193883812Y-146423583D01*
X194638395Y-145669000D01*
X194997605Y-145669000D01*
X195752188Y-146423583D01*
X195987800Y-146361929D01*
X196163927Y-145861520D01*
X196135148Y-145331801D01*
X196130157Y-145319750D01*
X197294500Y-145319750D01*
X197294500Y-145858810D01*
X197391173Y-146092199D01*
X197569802Y-146270827D01*
X197803191Y-146367500D01*
X198342250Y-146367500D01*
X198501000Y-146208750D01*
X198501000Y-145161000D01*
X198755000Y-145161000D01*
X198755000Y-146208750D01*
X198913750Y-146367500D01*
X199452809Y-146367500D01*
X199686198Y-146270827D01*
X199864827Y-146092199D01*
X199961500Y-145858810D01*
X199961500Y-145319750D01*
X199889534Y-145247784D01*
X200088313Y-145247784D01*
X200252311Y-145644689D01*
X200555714Y-145948622D01*
X200952332Y-146113313D01*
X201381784Y-146113687D01*
X201778689Y-145949689D01*
X202082622Y-145646286D01*
X202247313Y-145249668D01*
X202247687Y-144820216D01*
X202083689Y-144423311D01*
X201780286Y-144119378D01*
X201383668Y-143954687D01*
X200954216Y-143954313D01*
X200557311Y-144118311D01*
X200253378Y-144421714D01*
X200088687Y-144818332D01*
X200088313Y-145247784D01*
X199889534Y-145247784D01*
X199802750Y-145161000D01*
X198755000Y-145161000D01*
X198501000Y-145161000D01*
X197453250Y-145161000D01*
X197294500Y-145319750D01*
X196130157Y-145319750D01*
X195987800Y-144976071D01*
X195752188Y-144914417D01*
X194997605Y-145669000D01*
X194638395Y-145669000D01*
X193883812Y-144914417D01*
X193648200Y-144976071D01*
X193472073Y-145476480D01*
X190500000Y-145476480D01*
X190500000Y-145415691D01*
X190403327Y-145182302D01*
X190224699Y-145003673D01*
X189991310Y-144907000D01*
X189388750Y-144907000D01*
X189230002Y-145065748D01*
X189230002Y-144907111D01*
X189329359Y-144907198D01*
X189746567Y-144734812D01*
X194063417Y-144734812D01*
X194818000Y-145489395D01*
X195572583Y-144734812D01*
X195510929Y-144499200D01*
X195010520Y-144323073D01*
X194480801Y-144351852D01*
X194125071Y-144499200D01*
X194063417Y-144734812D01*
X189746567Y-144734812D01*
X189749612Y-144733554D01*
X190071423Y-144412303D01*
X190129682Y-144272000D01*
X190754000Y-144272000D01*
X190948403Y-144233331D01*
X190984532Y-144209190D01*
X197294500Y-144209190D01*
X197294500Y-144748250D01*
X197453250Y-144907000D01*
X198501000Y-144907000D01*
X198501000Y-143859250D01*
X198755000Y-143859250D01*
X198755000Y-144907000D01*
X199802750Y-144907000D01*
X199961500Y-144748250D01*
X199961500Y-144209190D01*
X199864827Y-143975801D01*
X199686198Y-143797173D01*
X199452809Y-143700500D01*
X198913750Y-143700500D01*
X198755000Y-143859250D01*
X198501000Y-143859250D01*
X198342250Y-143700500D01*
X197803191Y-143700500D01*
X197569802Y-143797173D01*
X197391173Y-143975801D01*
X197294500Y-144209190D01*
X190984532Y-144209190D01*
X191113210Y-144123210D01*
X192488421Y-142748000D01*
X202481580Y-142748000D01*
X203200000Y-143466420D01*
X203200000Y-144075881D01*
X203097311Y-144118311D01*
X202793378Y-144421714D01*
X202628687Y-144818332D01*
X202628313Y-145247784D01*
X202792311Y-145644689D01*
X203095714Y-145948622D01*
X203492332Y-146113313D01*
X203921784Y-146113687D01*
X204318689Y-145949689D01*
X204622622Y-145646286D01*
X204787313Y-145249668D01*
X204787687Y-144820216D01*
X204623689Y-144423311D01*
X204320286Y-144119378D01*
X204216000Y-144076074D01*
X204216000Y-143256000D01*
X204177331Y-143061597D01*
X204067210Y-142896790D01*
X203051210Y-141880790D01*
X202886403Y-141770669D01*
X202692000Y-141732000D01*
X204767580Y-141732000D01*
X205253790Y-142218211D01*
X205253793Y-142218213D01*
X205740000Y-142704421D01*
X205740000Y-144075881D01*
X205637311Y-144118311D01*
X205333378Y-144421714D01*
X205168687Y-144818332D01*
X205168313Y-145247784D01*
X205332311Y-145644689D01*
X205635714Y-145948622D01*
X206032332Y-146113313D01*
X206461784Y-146113687D01*
X206858689Y-145949689D01*
X207162622Y-145646286D01*
X207327313Y-145249668D01*
X207327687Y-144820216D01*
X207163689Y-144423311D01*
X206860286Y-144119378D01*
X206756000Y-144076074D01*
X206756000Y-143898081D01*
X210246813Y-143898081D01*
X210411038Y-144295537D01*
X210714863Y-144599893D01*
X211112032Y-144764812D01*
X211542081Y-144765187D01*
X211939537Y-144600962D01*
X212243893Y-144297137D01*
X212408812Y-143899968D01*
X212409187Y-143469919D01*
X212244962Y-143072463D01*
X211941137Y-142768107D01*
X211543968Y-142603188D01*
X211113919Y-142602813D01*
X210716463Y-142767038D01*
X210412107Y-143070863D01*
X210247188Y-143468032D01*
X210246813Y-143898081D01*
X206756000Y-143898081D01*
X206756000Y-142494000D01*
X206717331Y-142299597D01*
X206690755Y-142259823D01*
X206607211Y-142134790D01*
X205972213Y-141499793D01*
X205972211Y-141499790D01*
X205337210Y-140864790D01*
X205172403Y-140754669D01*
X204978000Y-140716000D01*
X190129827Y-140716000D01*
X190072554Y-140577388D01*
X189751303Y-140255577D01*
X189331354Y-140081199D01*
X188876641Y-140080802D01*
X188456388Y-140254446D01*
X188134577Y-140575697D01*
X187960199Y-140995646D01*
X187959802Y-141450359D01*
X188133446Y-141870612D01*
X188454697Y-142192423D01*
X188874646Y-142366801D01*
X189329359Y-142367198D01*
X189749612Y-142193554D01*
X190071423Y-141872303D01*
X190129682Y-141732000D01*
X192278000Y-141732000D01*
X192083597Y-141770669D01*
X192028910Y-141807210D01*
X191918789Y-141880790D01*
X190543580Y-143256000D01*
X190129827Y-143256000D01*
X190072554Y-143117388D01*
X189751303Y-142795577D01*
X189331354Y-142621199D01*
X188876641Y-142620802D01*
X188456388Y-142794446D01*
X188134577Y-143115697D01*
X187960199Y-143535646D01*
X187959802Y-143990359D01*
X188133446Y-144410612D01*
X188454697Y-144732423D01*
X188874646Y-144906801D01*
X189102575Y-144907000D01*
X188975998Y-144907000D01*
X188975998Y-145065748D01*
X188817250Y-144907000D01*
X188214690Y-144907000D01*
X187981301Y-145003673D01*
X187802673Y-145182302D01*
X187706000Y-145415691D01*
X187629000Y-145415691D01*
X187629000Y-138910359D01*
X187959802Y-138910359D01*
X188133446Y-139330612D01*
X188454697Y-139652423D01*
X188874646Y-139826801D01*
X189329359Y-139827198D01*
X189749612Y-139653554D01*
X190071423Y-139332303D01*
X190129682Y-139192000D01*
X190797580Y-139192000D01*
X191283790Y-139678211D01*
X191385090Y-139745897D01*
X191448597Y-139788331D01*
X191643000Y-139827000D01*
X200533000Y-139827000D01*
X200727403Y-139788331D01*
X200892210Y-139678210D01*
X201527211Y-139043210D01*
X201637331Y-138878403D01*
X201676000Y-138684000D01*
X201676000Y-138372119D01*
X201778689Y-138329689D01*
X202082622Y-138026286D01*
X202247313Y-137629668D01*
X202247314Y-137627784D01*
X202628313Y-137627784D01*
X202792311Y-138024689D01*
X203095714Y-138328622D01*
X203492332Y-138493313D01*
X203921784Y-138493687D01*
X204318689Y-138329689D01*
X204622622Y-138026286D01*
X204787313Y-137629668D01*
X204787314Y-137627784D01*
X205168313Y-137627784D01*
X205332311Y-138024689D01*
X205635714Y-138328622D01*
X205740000Y-138371926D01*
X205740000Y-140462000D01*
X205778669Y-140656403D01*
X205888790Y-140821210D01*
X206650790Y-141583210D01*
X206815597Y-141693331D01*
X207010000Y-141732000D01*
X213657580Y-141732000D01*
X214122000Y-142196420D01*
X214122000Y-143256000D01*
X214160669Y-143450403D01*
X214270790Y-143615210D01*
X214778789Y-144123210D01*
X214888910Y-144196790D01*
X214943597Y-144233331D01*
X215138000Y-144272000D01*
X215481313Y-144272000D01*
X215491038Y-144295537D01*
X215794863Y-144599893D01*
X216192032Y-144764812D01*
X216622081Y-144765187D01*
X217019537Y-144600962D01*
X217323893Y-144297137D01*
X217488812Y-143899968D01*
X217489187Y-143469919D01*
X217324962Y-143072463D01*
X217021137Y-142768107D01*
X216623968Y-142603188D01*
X216193919Y-142602813D01*
X215796463Y-142767038D01*
X215492107Y-143070863D01*
X215415231Y-143256000D01*
X215348421Y-143256000D01*
X215138000Y-143045580D01*
X215138000Y-141986000D01*
X215099331Y-141791597D01*
X214989210Y-141626790D01*
X214227210Y-140864790D01*
X214062403Y-140754669D01*
X213868000Y-140716000D01*
X207220420Y-140716000D01*
X206756000Y-140251580D01*
X206756000Y-138372119D01*
X206858689Y-138329689D01*
X207162622Y-138026286D01*
X207327313Y-137629668D01*
X207327687Y-137200216D01*
X207163689Y-136803311D01*
X206860286Y-136499378D01*
X206463668Y-136334687D01*
X206034216Y-136334313D01*
X205637311Y-136498311D01*
X205333378Y-136801714D01*
X205168687Y-137198332D01*
X205168313Y-137627784D01*
X204787314Y-137627784D01*
X204787687Y-137200216D01*
X204623689Y-136803311D01*
X204320286Y-136499378D01*
X204216000Y-136456074D01*
X204216000Y-136354420D01*
X204553421Y-136017000D01*
X209847580Y-136017000D01*
X210820000Y-136989420D01*
X210820000Y-137595536D01*
X210628000Y-137595536D01*
X210486810Y-137622103D01*
X210357135Y-137705546D01*
X210270141Y-137832866D01*
X210239536Y-137984000D01*
X210239536Y-139384000D01*
X210266103Y-139525190D01*
X210349546Y-139654865D01*
X210476866Y-139741859D01*
X210628000Y-139772464D01*
X212028000Y-139772464D01*
X212169190Y-139745897D01*
X212298865Y-139662454D01*
X212385859Y-139535134D01*
X212416464Y-139384000D01*
X212416464Y-137984000D01*
X212389897Y-137842810D01*
X212306454Y-137713135D01*
X212179134Y-137626141D01*
X212028000Y-137595536D01*
X211836000Y-137595536D01*
X211836000Y-136779000D01*
X211798367Y-136589806D01*
X211797331Y-136584596D01*
X211687210Y-136419790D01*
X210417210Y-135149790D01*
X210252403Y-135039669D01*
X210058000Y-135001000D01*
X204343000Y-135001000D01*
X204148597Y-135039669D01*
X203983790Y-135149789D01*
X203348790Y-135784790D01*
X203238669Y-135949597D01*
X203200000Y-136144000D01*
X203200000Y-136455881D01*
X203097311Y-136498311D01*
X202793378Y-136801714D01*
X202628687Y-137198332D01*
X202628313Y-137627784D01*
X202247314Y-137627784D01*
X202247687Y-137200216D01*
X202083689Y-136803311D01*
X201780286Y-136499378D01*
X201383668Y-136334687D01*
X200954216Y-136334313D01*
X200557311Y-136498311D01*
X200253378Y-136801714D01*
X200088687Y-137198332D01*
X200088313Y-137627784D01*
X200252311Y-138024689D01*
X200555714Y-138328622D01*
X200660000Y-138371926D01*
X200660000Y-138473579D01*
X200322580Y-138811000D01*
X191853421Y-138811000D01*
X191367210Y-138324790D01*
X191202403Y-138214669D01*
X191008000Y-138176000D01*
X190129827Y-138176000D01*
X190072554Y-138037388D01*
X189751303Y-137715577D01*
X189331354Y-137541199D01*
X188876641Y-137540802D01*
X188456388Y-137714446D01*
X188134577Y-138035697D01*
X187960199Y-138455646D01*
X187959802Y-138910359D01*
X187629000Y-138910359D01*
X187629000Y-136370359D01*
X187959802Y-136370359D01*
X188133446Y-136790612D01*
X188454697Y-137112423D01*
X188874646Y-137286801D01*
X189329359Y-137287198D01*
X189749612Y-137113554D01*
X189870592Y-136992784D01*
X193738313Y-136992784D01*
X193902311Y-137389689D01*
X194205714Y-137693622D01*
X194602332Y-137858313D01*
X195031784Y-137858687D01*
X195428689Y-137694689D01*
X195732622Y-137391286D01*
X195775926Y-137287000D01*
X197548610Y-137287000D01*
X197548313Y-137627784D01*
X197712311Y-138024689D01*
X198015714Y-138328622D01*
X198412332Y-138493313D01*
X198841784Y-138493687D01*
X199238689Y-138329689D01*
X199542622Y-138026286D01*
X199707313Y-137629668D01*
X199707687Y-137200216D01*
X199543689Y-136803311D01*
X199240286Y-136499378D01*
X199136000Y-136456074D01*
X199136000Y-133372464D01*
X199341500Y-133372464D01*
X199482690Y-133345897D01*
X199612365Y-133262454D01*
X199699359Y-133135134D01*
X199729964Y-132984000D01*
X199729964Y-132538179D01*
X200160322Y-132538179D01*
X200316951Y-132917251D01*
X200606723Y-133207529D01*
X200985522Y-133364820D01*
X201395679Y-133365178D01*
X201774751Y-133208549D01*
X202065029Y-132918777D01*
X202219078Y-132547784D01*
X208343313Y-132547784D01*
X208507311Y-132944689D01*
X208810714Y-133248622D01*
X209207332Y-133413313D01*
X209550000Y-133413611D01*
X209550000Y-133604000D01*
X209588669Y-133798403D01*
X209698790Y-133963210D01*
X210206789Y-134471210D01*
X210316910Y-134544790D01*
X210371597Y-134581331D01*
X210566000Y-134620000D01*
X213657580Y-134620000D01*
X213868000Y-134830421D01*
X213868000Y-137922000D01*
X213906669Y-138116403D01*
X214016790Y-138281210D01*
X214778790Y-139043210D01*
X214943597Y-139153331D01*
X215138000Y-139192000D01*
X215319536Y-139192000D01*
X215319536Y-139384000D01*
X215346103Y-139525190D01*
X215429546Y-139654865D01*
X215556866Y-139741859D01*
X215708000Y-139772464D01*
X217108000Y-139772464D01*
X217249190Y-139745897D01*
X217378865Y-139662454D01*
X217465859Y-139535134D01*
X217496464Y-139384000D01*
X217496464Y-139192000D01*
X217721580Y-139192000D01*
X217932000Y-139402421D01*
X217932000Y-146601580D01*
X217467580Y-147066000D01*
X209931000Y-147066000D01*
X209736597Y-147104669D01*
X209736595Y-147104670D01*
X209736596Y-147104670D01*
X209571789Y-147214790D01*
X209063790Y-147722790D01*
X208953669Y-147887597D01*
X208915000Y-148082000D01*
X208915000Y-149155881D01*
X208812311Y-149198311D01*
X208508378Y-149501714D01*
X208343687Y-149898332D01*
X208343313Y-150327784D01*
X208507311Y-150724689D01*
X208810714Y-151028622D01*
X209207332Y-151193313D01*
X209636784Y-151193687D01*
X210033689Y-151029689D01*
X210337622Y-150726286D01*
X210502313Y-150329668D01*
X210502314Y-150327784D01*
X217233313Y-150327784D01*
X217397311Y-150724689D01*
X217700714Y-151028622D01*
X218097332Y-151193313D01*
X218526784Y-151193687D01*
X218923689Y-151029689D01*
X219227622Y-150726286D01*
X219270926Y-150622000D01*
X220853000Y-150622000D01*
X221047403Y-150583331D01*
X221212210Y-150473210D01*
X221927210Y-149758210D01*
X222037331Y-149593403D01*
X222076000Y-149399000D01*
X222076000Y-147995243D01*
X222603823Y-147777151D01*
X223119341Y-147262532D01*
X223398681Y-146589806D01*
X223398826Y-146423228D01*
X225561825Y-146423228D01*
X225714657Y-146793109D01*
X225997403Y-147076348D01*
X226367016Y-147229825D01*
X226767228Y-147230175D01*
X227137109Y-147077343D01*
X227420348Y-146794597D01*
X227573825Y-146424984D01*
X227574175Y-146024772D01*
X227421343Y-145654891D01*
X227138597Y-145371652D01*
X226768984Y-145218175D01*
X226368772Y-145217825D01*
X225998891Y-145370657D01*
X225715652Y-145653403D01*
X225562175Y-146023016D01*
X225561825Y-146423228D01*
X223398826Y-146423228D01*
X223399317Y-145861390D01*
X223121151Y-145188177D01*
X222606532Y-144672659D01*
X221933806Y-144393319D01*
X221205390Y-144392683D01*
X220532177Y-144670849D01*
X220016659Y-145185468D01*
X219737319Y-145858194D01*
X219736683Y-146586610D01*
X220014849Y-147259823D01*
X220529468Y-147775341D01*
X221060000Y-147995637D01*
X221060000Y-149188580D01*
X220642580Y-149606000D01*
X219271119Y-149606000D01*
X219228689Y-149503311D01*
X218925286Y-149199378D01*
X218528668Y-149034687D01*
X218099216Y-149034313D01*
X217702311Y-149198311D01*
X217398378Y-149501714D01*
X217233687Y-149898332D01*
X217233313Y-150327784D01*
X210502314Y-150327784D01*
X210502687Y-149900216D01*
X210338689Y-149503311D01*
X210035286Y-149199378D01*
X209931000Y-149156074D01*
X209931000Y-148292420D01*
X210141421Y-148082000D01*
X217678000Y-148082000D01*
X217872403Y-148043331D01*
X218037210Y-147933210D01*
X218799210Y-147171210D01*
X218909331Y-147006403D01*
X218948000Y-146812000D01*
X218948000Y-141423228D01*
X220561825Y-141423228D01*
X220714657Y-141793109D01*
X220997403Y-142076348D01*
X221367016Y-142229825D01*
X221767228Y-142230175D01*
X222137109Y-142077343D01*
X222420348Y-141794597D01*
X222506711Y-141586610D01*
X224736683Y-141586610D01*
X225014849Y-142259823D01*
X225529468Y-142775341D01*
X226202194Y-143054681D01*
X226930610Y-143055317D01*
X227603823Y-142777151D01*
X228119341Y-142262532D01*
X228398681Y-141589806D01*
X228399317Y-140861390D01*
X228121151Y-140188177D01*
X227606532Y-139672659D01*
X226933806Y-139393319D01*
X226205390Y-139392683D01*
X225532177Y-139670849D01*
X225016659Y-140185468D01*
X224737319Y-140858194D01*
X224736683Y-141586610D01*
X222506711Y-141586610D01*
X222573825Y-141424984D01*
X222574175Y-141024772D01*
X222421343Y-140654891D01*
X222138597Y-140371652D01*
X221768984Y-140218175D01*
X221368772Y-140217825D01*
X220998891Y-140370657D01*
X220715652Y-140653403D01*
X220562175Y-141023016D01*
X220561825Y-141423228D01*
X218948000Y-141423228D01*
X218948000Y-139192000D01*
X218909331Y-138997597D01*
X218851040Y-138910359D01*
X218799210Y-138832789D01*
X218291210Y-138324790D01*
X218126403Y-138214669D01*
X217932000Y-138176000D01*
X217496464Y-138176000D01*
X217496464Y-137984000D01*
X217469897Y-137842810D01*
X217386454Y-137713135D01*
X217259134Y-137626141D01*
X217108000Y-137595536D01*
X215708000Y-137595536D01*
X215566810Y-137622103D01*
X215437135Y-137705546D01*
X215350141Y-137832866D01*
X215319536Y-137984000D01*
X215319536Y-138147116D01*
X214884000Y-137711580D01*
X214884000Y-134620000D01*
X214845331Y-134425597D01*
X214765688Y-134306403D01*
X214735210Y-134260789D01*
X214227210Y-133752790D01*
X214062403Y-133642669D01*
X213868000Y-133604000D01*
X210776421Y-133604000D01*
X210566000Y-133393580D01*
X210566000Y-132334000D01*
X217170000Y-132334000D01*
X217208669Y-132528403D01*
X217252262Y-132593645D01*
X217397311Y-132944689D01*
X217700714Y-133248622D01*
X218097332Y-133413313D01*
X218526784Y-133413687D01*
X218923689Y-133249689D01*
X219227622Y-132946286D01*
X219270926Y-132842000D01*
X220642580Y-132842000D01*
X221060000Y-133259420D01*
X221060000Y-134452757D01*
X220532177Y-134670849D01*
X220016659Y-135185468D01*
X219737319Y-135858194D01*
X219736683Y-136586610D01*
X220014849Y-137259823D01*
X220529468Y-137775341D01*
X221202194Y-138054681D01*
X221930610Y-138055317D01*
X222603823Y-137777151D01*
X223119341Y-137262532D01*
X223398681Y-136589806D01*
X223398826Y-136423228D01*
X225561825Y-136423228D01*
X225714657Y-136793109D01*
X225997403Y-137076348D01*
X226367016Y-137229825D01*
X226767228Y-137230175D01*
X227137109Y-137077343D01*
X227420348Y-136794597D01*
X227573825Y-136424984D01*
X227574175Y-136024772D01*
X227421343Y-135654891D01*
X227138597Y-135371652D01*
X226768984Y-135218175D01*
X226368772Y-135217825D01*
X225998891Y-135370657D01*
X225715652Y-135653403D01*
X225562175Y-136023016D01*
X225561825Y-136423228D01*
X223398826Y-136423228D01*
X223399317Y-135861390D01*
X223121151Y-135188177D01*
X222606532Y-134672659D01*
X222076000Y-134452363D01*
X222076000Y-133049000D01*
X222037331Y-132854597D01*
X221927210Y-132689790D01*
X221212210Y-131974790D01*
X221047403Y-131864669D01*
X220853000Y-131826000D01*
X219271119Y-131826000D01*
X219228689Y-131723311D01*
X218925286Y-131419378D01*
X218528668Y-131254687D01*
X218099216Y-131254313D01*
X217702311Y-131418311D01*
X217398378Y-131721714D01*
X217251432Y-132075599D01*
X217208669Y-132139597D01*
X217170000Y-132334000D01*
X210566000Y-132334000D01*
X210527331Y-132139597D01*
X210483738Y-132074355D01*
X210338689Y-131723311D01*
X210035286Y-131419378D01*
X209638668Y-131254687D01*
X209209216Y-131254313D01*
X208812311Y-131418311D01*
X208508378Y-131721714D01*
X208343687Y-132118332D01*
X208343313Y-132547784D01*
X202219078Y-132547784D01*
X202222320Y-132539978D01*
X202222678Y-132129821D01*
X202066049Y-131750749D01*
X201776277Y-131460471D01*
X201397478Y-131303180D01*
X200987321Y-131302822D01*
X200608249Y-131459451D01*
X200317971Y-131749223D01*
X200160680Y-132128022D01*
X200160322Y-132538179D01*
X199729964Y-132538179D01*
X199729964Y-131684000D01*
X199703397Y-131542810D01*
X199619954Y-131413135D01*
X199492634Y-131326141D01*
X199341500Y-131295536D01*
X198041500Y-131295536D01*
X197900310Y-131322103D01*
X197770635Y-131405546D01*
X197683641Y-131532866D01*
X197653036Y-131684000D01*
X197653036Y-132984000D01*
X197679603Y-133125190D01*
X197763046Y-133254865D01*
X197890366Y-133341859D01*
X198041500Y-133372464D01*
X198120000Y-133372464D01*
X198120000Y-136296262D01*
X197993000Y-136271000D01*
X195776119Y-136271000D01*
X195733689Y-136168311D01*
X195430286Y-135864378D01*
X195033668Y-135699687D01*
X194604216Y-135699313D01*
X194207311Y-135863311D01*
X193903378Y-136166714D01*
X193738687Y-136563332D01*
X193738313Y-136992784D01*
X189870592Y-136992784D01*
X190071423Y-136792303D01*
X190245801Y-136372354D01*
X190246198Y-135917641D01*
X190072554Y-135497388D01*
X189751303Y-135175577D01*
X189331354Y-135001199D01*
X188876641Y-135000802D01*
X188456388Y-135174446D01*
X188134577Y-135495697D01*
X187960199Y-135915646D01*
X187959802Y-136370359D01*
X187629000Y-136370359D01*
X187629000Y-131106448D01*
X187797339Y-130260152D01*
X188252683Y-129578683D01*
X188934152Y-129123339D01*
X189780448Y-128955000D01*
X227552397Y-128955000D01*
X228417999Y-129082629D01*
M02*
