G04 (created by PCBNEW (2013-07-07 BZR 4022)-stable) date 1/29/2015 5:28:15 PM*
%MOIN*%
G04 Gerber Fmt 3.4, Leading zero omitted, Abs format*
%FSLAX34Y34*%
G01*
G70*
G90*
G04 APERTURE LIST*
%ADD10C,0.00590551*%
%ADD11C,0.01*%
%ADD12C,0.0075*%
%ADD13C,0.012*%
%ADD14C,0.008*%
G04 APERTURE END LIST*
G54D10*
G54D11*
X80330Y-59395D02*
X80407Y-59661D01*
X80483Y-59471D01*
X80559Y-59661D01*
X80635Y-59395D01*
X80750Y-59395D02*
X80826Y-59661D01*
X80902Y-59471D01*
X80978Y-59661D01*
X81054Y-59395D01*
X81169Y-59395D02*
X81245Y-59661D01*
X81321Y-59471D01*
X81397Y-59661D01*
X81473Y-59395D01*
X81626Y-59623D02*
X81645Y-59642D01*
X81626Y-59661D01*
X81607Y-59642D01*
X81626Y-59623D01*
X81626Y-59661D01*
X81816Y-59661D02*
X81816Y-59395D01*
X81816Y-59471D02*
X81835Y-59433D01*
X81854Y-59414D01*
X81892Y-59395D01*
X81930Y-59395D01*
X82064Y-59661D02*
X82064Y-59261D01*
X82235Y-59661D02*
X82235Y-59452D01*
X82216Y-59414D01*
X82178Y-59395D01*
X82121Y-59395D01*
X82083Y-59414D01*
X82064Y-59433D01*
X82578Y-59642D02*
X82540Y-59661D01*
X82464Y-59661D01*
X82426Y-59642D01*
X82407Y-59604D01*
X82407Y-59452D01*
X82426Y-59414D01*
X82464Y-59395D01*
X82540Y-59395D01*
X82578Y-59414D01*
X82597Y-59452D01*
X82597Y-59490D01*
X82407Y-59528D01*
X82769Y-59661D02*
X82769Y-59395D01*
X82769Y-59261D02*
X82750Y-59280D01*
X82769Y-59300D01*
X82788Y-59280D01*
X82769Y-59261D01*
X82769Y-59300D01*
X82959Y-59395D02*
X82959Y-59661D01*
X82959Y-59433D02*
X82978Y-59414D01*
X83016Y-59395D01*
X83073Y-59395D01*
X83111Y-59414D01*
X83130Y-59452D01*
X83130Y-59661D01*
X83492Y-59395D02*
X83492Y-59719D01*
X83473Y-59757D01*
X83454Y-59776D01*
X83416Y-59795D01*
X83359Y-59795D01*
X83321Y-59776D01*
X83492Y-59642D02*
X83454Y-59661D01*
X83378Y-59661D01*
X83340Y-59642D01*
X83321Y-59623D01*
X83302Y-59585D01*
X83302Y-59471D01*
X83321Y-59433D01*
X83340Y-59414D01*
X83378Y-59395D01*
X83454Y-59395D01*
X83492Y-59414D01*
X83740Y-59661D02*
X83702Y-59642D01*
X83683Y-59623D01*
X83664Y-59585D01*
X83664Y-59471D01*
X83683Y-59433D01*
X83702Y-59414D01*
X83740Y-59395D01*
X83797Y-59395D01*
X83835Y-59414D01*
X83854Y-59433D01*
X83873Y-59471D01*
X83873Y-59585D01*
X83854Y-59623D01*
X83835Y-59642D01*
X83797Y-59661D01*
X83740Y-59661D01*
X84102Y-59661D02*
X84064Y-59642D01*
X84045Y-59604D01*
X84045Y-59261D01*
X84426Y-59661D02*
X84426Y-59261D01*
X84426Y-59642D02*
X84388Y-59661D01*
X84311Y-59661D01*
X84273Y-59642D01*
X84254Y-59623D01*
X84235Y-59585D01*
X84235Y-59471D01*
X84254Y-59433D01*
X84273Y-59414D01*
X84311Y-59395D01*
X84388Y-59395D01*
X84426Y-59414D01*
X84616Y-59661D02*
X84616Y-59261D01*
X84788Y-59661D02*
X84788Y-59452D01*
X84769Y-59414D01*
X84730Y-59395D01*
X84673Y-59395D01*
X84635Y-59414D01*
X84616Y-59433D01*
X85130Y-59642D02*
X85092Y-59661D01*
X85016Y-59661D01*
X84978Y-59642D01*
X84959Y-59604D01*
X84959Y-59452D01*
X84978Y-59414D01*
X85016Y-59395D01*
X85092Y-59395D01*
X85130Y-59414D01*
X85150Y-59452D01*
X85150Y-59490D01*
X84959Y-59528D01*
X85492Y-59661D02*
X85492Y-59452D01*
X85473Y-59414D01*
X85435Y-59395D01*
X85359Y-59395D01*
X85321Y-59414D01*
X85492Y-59642D02*
X85454Y-59661D01*
X85359Y-59661D01*
X85321Y-59642D01*
X85302Y-59604D01*
X85302Y-59566D01*
X85321Y-59528D01*
X85359Y-59509D01*
X85454Y-59509D01*
X85492Y-59490D01*
X85645Y-59395D02*
X85740Y-59661D01*
X85835Y-59395D01*
X85950Y-59395D02*
X86045Y-59661D01*
X86140Y-59395D02*
X86045Y-59661D01*
X86007Y-59757D01*
X85988Y-59776D01*
X85950Y-59795D01*
X86292Y-59623D02*
X86311Y-59642D01*
X86292Y-59661D01*
X86273Y-59642D01*
X86292Y-59623D01*
X86292Y-59661D01*
X86654Y-59642D02*
X86616Y-59661D01*
X86540Y-59661D01*
X86502Y-59642D01*
X86483Y-59623D01*
X86464Y-59585D01*
X86464Y-59471D01*
X86483Y-59433D01*
X86502Y-59414D01*
X86540Y-59395D01*
X86616Y-59395D01*
X86654Y-59414D01*
X86883Y-59661D02*
X86845Y-59642D01*
X86826Y-59623D01*
X86807Y-59585D01*
X86807Y-59471D01*
X86826Y-59433D01*
X86845Y-59414D01*
X86883Y-59395D01*
X86940Y-59395D01*
X86978Y-59414D01*
X86997Y-59433D01*
X87016Y-59471D01*
X87016Y-59585D01*
X86997Y-59623D01*
X86978Y-59642D01*
X86940Y-59661D01*
X86883Y-59661D01*
X87188Y-59661D02*
X87188Y-59395D01*
X87188Y-59433D02*
X87207Y-59414D01*
X87245Y-59395D01*
X87302Y-59395D01*
X87340Y-59414D01*
X87359Y-59452D01*
X87359Y-59661D01*
X87359Y-59452D02*
X87378Y-59414D01*
X87416Y-59395D01*
X87473Y-59395D01*
X87511Y-59414D01*
X87530Y-59452D01*
X87530Y-59661D01*
X79797Y-68661D02*
X79797Y-68261D01*
X79930Y-68547D01*
X80064Y-68261D01*
X80064Y-68661D01*
X80235Y-68642D02*
X80292Y-68661D01*
X80388Y-68661D01*
X80426Y-68642D01*
X80445Y-68623D01*
X80464Y-68585D01*
X80464Y-68547D01*
X80445Y-68509D01*
X80426Y-68490D01*
X80388Y-68471D01*
X80311Y-68452D01*
X80273Y-68433D01*
X80254Y-68414D01*
X80235Y-68376D01*
X80235Y-68338D01*
X80254Y-68300D01*
X80273Y-68280D01*
X80311Y-68261D01*
X80407Y-68261D01*
X80464Y-68280D01*
X80845Y-68280D02*
X80807Y-68261D01*
X80750Y-68261D01*
X80692Y-68280D01*
X80654Y-68319D01*
X80635Y-68357D01*
X80616Y-68433D01*
X80616Y-68490D01*
X80635Y-68566D01*
X80654Y-68604D01*
X80692Y-68642D01*
X80750Y-68661D01*
X80788Y-68661D01*
X80845Y-68642D01*
X80864Y-68623D01*
X80864Y-68490D01*
X80788Y-68490D01*
X81035Y-68452D02*
X81169Y-68452D01*
X81226Y-68661D02*
X81035Y-68661D01*
X81035Y-68261D01*
X81226Y-68261D01*
X81664Y-68700D02*
X81626Y-68680D01*
X81588Y-68642D01*
X81530Y-68585D01*
X81492Y-68566D01*
X81454Y-68566D01*
X81473Y-68661D02*
X81435Y-68642D01*
X81397Y-68604D01*
X81378Y-68528D01*
X81378Y-68395D01*
X81397Y-68319D01*
X81435Y-68280D01*
X81473Y-68261D01*
X81550Y-68261D01*
X81588Y-68280D01*
X81626Y-68319D01*
X81645Y-68395D01*
X81645Y-68528D01*
X81626Y-68604D01*
X81588Y-68642D01*
X81550Y-68661D01*
X81473Y-68661D01*
X81778Y-68261D02*
X82045Y-68261D01*
X81873Y-68661D01*
X82635Y-68452D02*
X82692Y-68471D01*
X82711Y-68490D01*
X82730Y-68528D01*
X82730Y-68585D01*
X82711Y-68623D01*
X82692Y-68642D01*
X82654Y-68661D01*
X82502Y-68661D01*
X82502Y-68261D01*
X82635Y-68261D01*
X82673Y-68280D01*
X82692Y-68300D01*
X82711Y-68338D01*
X82711Y-68376D01*
X82692Y-68414D01*
X82673Y-68433D01*
X82635Y-68452D01*
X82502Y-68452D01*
X82902Y-68661D02*
X82902Y-68395D01*
X82902Y-68471D02*
X82921Y-68433D01*
X82940Y-68414D01*
X82978Y-68395D01*
X83016Y-68395D01*
X83302Y-68642D02*
X83264Y-68661D01*
X83188Y-68661D01*
X83150Y-68642D01*
X83130Y-68604D01*
X83130Y-68452D01*
X83150Y-68414D01*
X83188Y-68395D01*
X83264Y-68395D01*
X83302Y-68414D01*
X83321Y-68452D01*
X83321Y-68490D01*
X83130Y-68528D01*
X83664Y-68661D02*
X83664Y-68452D01*
X83645Y-68414D01*
X83607Y-68395D01*
X83530Y-68395D01*
X83492Y-68414D01*
X83664Y-68642D02*
X83626Y-68661D01*
X83530Y-68661D01*
X83492Y-68642D01*
X83473Y-68604D01*
X83473Y-68566D01*
X83492Y-68528D01*
X83530Y-68509D01*
X83626Y-68509D01*
X83664Y-68490D01*
X83854Y-68661D02*
X83854Y-68261D01*
X83892Y-68509D02*
X84007Y-68661D01*
X84007Y-68395D02*
X83854Y-68547D01*
X84235Y-68661D02*
X84197Y-68642D01*
X84178Y-68623D01*
X84159Y-68585D01*
X84159Y-68471D01*
X84178Y-68433D01*
X84197Y-68414D01*
X84235Y-68395D01*
X84292Y-68395D01*
X84330Y-68414D01*
X84350Y-68433D01*
X84369Y-68471D01*
X84369Y-68585D01*
X84350Y-68623D01*
X84330Y-68642D01*
X84292Y-68661D01*
X84235Y-68661D01*
X84711Y-68395D02*
X84711Y-68661D01*
X84540Y-68395D02*
X84540Y-68604D01*
X84559Y-68642D01*
X84597Y-68661D01*
X84654Y-68661D01*
X84692Y-68642D01*
X84711Y-68623D01*
X84845Y-68395D02*
X84997Y-68395D01*
X84902Y-68261D02*
X84902Y-68604D01*
X84921Y-68642D01*
X84959Y-68661D01*
X84997Y-68661D01*
X85569Y-68452D02*
X85626Y-68471D01*
X85645Y-68490D01*
X85664Y-68528D01*
X85664Y-68585D01*
X85645Y-68623D01*
X85626Y-68642D01*
X85588Y-68661D01*
X85435Y-68661D01*
X85435Y-68261D01*
X85569Y-68261D01*
X85607Y-68280D01*
X85626Y-68300D01*
X85645Y-68338D01*
X85645Y-68376D01*
X85626Y-68414D01*
X85607Y-68433D01*
X85569Y-68452D01*
X85435Y-68452D01*
X85892Y-68661D02*
X85854Y-68642D01*
X85835Y-68623D01*
X85816Y-68585D01*
X85816Y-68471D01*
X85835Y-68433D01*
X85854Y-68414D01*
X85892Y-68395D01*
X85949Y-68395D01*
X85988Y-68414D01*
X86007Y-68433D01*
X86026Y-68471D01*
X86026Y-68585D01*
X86007Y-68623D01*
X85988Y-68642D01*
X85949Y-68661D01*
X85892Y-68661D01*
X86369Y-68661D02*
X86369Y-68452D01*
X86349Y-68414D01*
X86311Y-68395D01*
X86235Y-68395D01*
X86197Y-68414D01*
X86369Y-68642D02*
X86330Y-68661D01*
X86235Y-68661D01*
X86197Y-68642D01*
X86178Y-68604D01*
X86178Y-68566D01*
X86197Y-68528D01*
X86235Y-68509D01*
X86330Y-68509D01*
X86369Y-68490D01*
X86559Y-68661D02*
X86559Y-68395D01*
X86559Y-68471D02*
X86578Y-68433D01*
X86597Y-68414D01*
X86635Y-68395D01*
X86673Y-68395D01*
X86978Y-68661D02*
X86978Y-68261D01*
X86978Y-68642D02*
X86940Y-68661D01*
X86864Y-68661D01*
X86826Y-68642D01*
X86807Y-68623D01*
X86788Y-68585D01*
X86788Y-68471D01*
X86807Y-68433D01*
X86826Y-68414D01*
X86864Y-68395D01*
X86940Y-68395D01*
X86978Y-68414D01*
X87473Y-68661D02*
X87473Y-68261D01*
X87702Y-68661D02*
X87530Y-68433D01*
X87702Y-68261D02*
X87473Y-68490D01*
X87873Y-68661D02*
X87873Y-68395D01*
X87873Y-68261D02*
X87854Y-68280D01*
X87873Y-68300D01*
X87892Y-68280D01*
X87873Y-68261D01*
X87873Y-68300D01*
X88007Y-68395D02*
X88159Y-68395D01*
X88064Y-68261D02*
X88064Y-68604D01*
X88083Y-68642D01*
X88121Y-68661D01*
X88159Y-68661D01*
G54D12*
X77092Y-65871D02*
X76950Y-65871D01*
X76935Y-66014D01*
X76950Y-66000D01*
X76978Y-65985D01*
X77050Y-65985D01*
X77078Y-66000D01*
X77092Y-66014D01*
X77107Y-66042D01*
X77107Y-66114D01*
X77092Y-66142D01*
X77078Y-66157D01*
X77050Y-66171D01*
X76978Y-66171D01*
X76950Y-66157D01*
X76935Y-66142D01*
X77192Y-65871D02*
X77292Y-66171D01*
X77392Y-65871D01*
X76950Y-64821D02*
X77007Y-64821D01*
X77035Y-64835D01*
X77064Y-64864D01*
X77078Y-64921D01*
X77078Y-65021D01*
X77064Y-65078D01*
X77035Y-65107D01*
X77007Y-65121D01*
X76950Y-65121D01*
X76921Y-65107D01*
X76892Y-65078D01*
X76878Y-65021D01*
X76878Y-64921D01*
X76892Y-64864D01*
X76921Y-64835D01*
X76950Y-64821D01*
X77207Y-64821D02*
X77207Y-65064D01*
X77221Y-65092D01*
X77235Y-65107D01*
X77264Y-65121D01*
X77321Y-65121D01*
X77350Y-65107D01*
X77364Y-65092D01*
X77378Y-65064D01*
X77378Y-64821D01*
X77478Y-64821D02*
X77650Y-64821D01*
X77564Y-65121D02*
X77564Y-64821D01*
X76900Y-64157D02*
X76942Y-64171D01*
X77014Y-64171D01*
X77042Y-64157D01*
X77057Y-64142D01*
X77071Y-64114D01*
X77071Y-64085D01*
X77057Y-64057D01*
X77042Y-64042D01*
X77014Y-64028D01*
X76957Y-64014D01*
X76928Y-64000D01*
X76914Y-63985D01*
X76900Y-63957D01*
X76900Y-63928D01*
X76914Y-63900D01*
X76928Y-63885D01*
X76957Y-63871D01*
X77028Y-63871D01*
X77071Y-63885D01*
X77157Y-63871D02*
X77328Y-63871D01*
X77242Y-64171D02*
X77242Y-63871D01*
X77600Y-64171D02*
X77500Y-64028D01*
X77428Y-64171D02*
X77428Y-63871D01*
X77542Y-63871D01*
X77571Y-63885D01*
X77585Y-63900D01*
X77600Y-63928D01*
X77600Y-63971D01*
X77585Y-64000D01*
X77571Y-64014D01*
X77542Y-64028D01*
X77428Y-64028D01*
X77085Y-63171D02*
X76985Y-63028D01*
X76914Y-63171D02*
X76914Y-62871D01*
X77028Y-62871D01*
X77057Y-62885D01*
X77071Y-62900D01*
X77085Y-62928D01*
X77085Y-62971D01*
X77071Y-63000D01*
X77057Y-63014D01*
X77028Y-63028D01*
X76914Y-63028D01*
X77200Y-63157D02*
X77242Y-63171D01*
X77314Y-63171D01*
X77342Y-63157D01*
X77357Y-63142D01*
X77371Y-63114D01*
X77371Y-63085D01*
X77357Y-63057D01*
X77342Y-63042D01*
X77314Y-63028D01*
X77257Y-63014D01*
X77228Y-63000D01*
X77214Y-62985D01*
X77200Y-62957D01*
X77200Y-62928D01*
X77214Y-62900D01*
X77228Y-62885D01*
X77257Y-62871D01*
X77328Y-62871D01*
X77371Y-62885D01*
X77457Y-62871D02*
X77628Y-62871D01*
X77542Y-63171D02*
X77542Y-62871D01*
X77071Y-61885D02*
X77042Y-61871D01*
X77000Y-61871D01*
X76957Y-61885D01*
X76928Y-61914D01*
X76914Y-61942D01*
X76900Y-62000D01*
X76900Y-62042D01*
X76914Y-62100D01*
X76928Y-62128D01*
X76957Y-62157D01*
X77000Y-62171D01*
X77028Y-62171D01*
X77071Y-62157D01*
X77085Y-62142D01*
X77085Y-62042D01*
X77028Y-62042D01*
X77214Y-62171D02*
X77214Y-61871D01*
X77385Y-62171D01*
X77385Y-61871D01*
X77528Y-62171D02*
X77528Y-61871D01*
X77600Y-61871D01*
X77642Y-61885D01*
X77671Y-61914D01*
X77685Y-61942D01*
X77700Y-62000D01*
X77700Y-62042D01*
X77685Y-62100D01*
X77671Y-62128D01*
X77642Y-62157D01*
X77600Y-62171D01*
X77528Y-62171D01*
G54D11*
X79500Y-63500D02*
X80000Y-63500D01*
X80000Y-63500D02*
X80000Y-64500D01*
X80000Y-64500D02*
X79500Y-64500D01*
X79500Y-63000D02*
X83500Y-63000D01*
X83500Y-63000D02*
X83500Y-65000D01*
X83500Y-65000D02*
X79500Y-65000D01*
X79500Y-65000D02*
X79500Y-63000D01*
G54D13*
X82400Y-67900D02*
X79600Y-67900D01*
X79600Y-67900D02*
X79600Y-67100D01*
X79600Y-67100D02*
X82400Y-67100D01*
X82400Y-67100D02*
X82400Y-67900D01*
X82400Y-67700D02*
X82200Y-67900D01*
X85400Y-62600D02*
X85400Y-65400D01*
X85400Y-65400D02*
X84600Y-65400D01*
X84600Y-65400D02*
X84600Y-62600D01*
X84600Y-62600D02*
X85400Y-62600D01*
X85200Y-62600D02*
X85400Y-62800D01*
X86600Y-65400D02*
X86600Y-62600D01*
X86600Y-62600D02*
X87400Y-62600D01*
X87400Y-62600D02*
X87400Y-65400D01*
X87400Y-65400D02*
X86600Y-65400D01*
X86800Y-65400D02*
X86600Y-65200D01*
G54D10*
X92496Y-65771D02*
X92771Y-65771D01*
X92377Y-66480D02*
X92496Y-66480D01*
X92496Y-65771D02*
X92496Y-66480D01*
X92496Y-62228D02*
X92771Y-62228D01*
X92377Y-61519D02*
X92496Y-61519D01*
X92496Y-61519D02*
X92496Y-62228D01*
X88047Y-61519D02*
X92377Y-61519D01*
X88047Y-66480D02*
X92377Y-66480D01*
X88047Y-66480D02*
X88047Y-61519D01*
X92771Y-62228D02*
X92771Y-63212D01*
X92771Y-65771D02*
X92771Y-64787D01*
X92771Y-64787D02*
X92299Y-64787D01*
X92299Y-64787D02*
X92299Y-63212D01*
X92299Y-63212D02*
X92771Y-63212D01*
G54D14*
X78500Y-62500D02*
X78500Y-62700D01*
X78500Y-65500D02*
X78500Y-65300D01*
X78500Y-65300D02*
X78900Y-65300D01*
X78900Y-65300D02*
X78900Y-62700D01*
X78900Y-62700D02*
X78100Y-62700D01*
X78100Y-62700D02*
X78100Y-65300D01*
X78100Y-65300D02*
X78500Y-65300D01*
X84500Y-60500D02*
X84700Y-60500D01*
X87500Y-60500D02*
X87300Y-60500D01*
X87300Y-60500D02*
X87300Y-60100D01*
X87300Y-60100D02*
X84700Y-60100D01*
X84700Y-60100D02*
X84700Y-60900D01*
X84700Y-60900D02*
X87300Y-60900D01*
X87300Y-60900D02*
X87300Y-60500D01*
X84500Y-67500D02*
X84700Y-67500D01*
X87500Y-67500D02*
X87300Y-67500D01*
X87300Y-67500D02*
X87300Y-67100D01*
X87300Y-67100D02*
X84700Y-67100D01*
X84700Y-67100D02*
X84700Y-67900D01*
X84700Y-67900D02*
X87300Y-67900D01*
X87300Y-67900D02*
X87300Y-67500D01*
G54D13*
X75750Y-66500D02*
X76750Y-66500D01*
X76750Y-61500D02*
X75750Y-61500D01*
X75750Y-66500D02*
X75750Y-61500D01*
X76750Y-61500D02*
X76750Y-66500D01*
X79520Y-60000D02*
X81500Y-60000D01*
X81500Y-60000D02*
X81500Y-61000D01*
X81500Y-61000D02*
X79500Y-61000D01*
X79500Y-61000D02*
X79500Y-60000D01*
X79500Y-60250D02*
X79750Y-60000D01*
G54D11*
X83695Y-63761D02*
X83695Y-64085D01*
X83714Y-64123D01*
X83733Y-64142D01*
X83771Y-64161D01*
X83847Y-64161D01*
X83885Y-64142D01*
X83904Y-64123D01*
X83923Y-64085D01*
X83923Y-63761D01*
X84323Y-64161D02*
X84095Y-64161D01*
X84209Y-64161D02*
X84209Y-63761D01*
X84171Y-63819D01*
X84133Y-63857D01*
X84095Y-63876D01*
X82933Y-67623D02*
X82914Y-67642D01*
X82857Y-67661D01*
X82819Y-67661D01*
X82761Y-67642D01*
X82723Y-67604D01*
X82704Y-67566D01*
X82685Y-67490D01*
X82685Y-67433D01*
X82704Y-67357D01*
X82723Y-67319D01*
X82761Y-67280D01*
X82819Y-67261D01*
X82857Y-67261D01*
X82914Y-67280D01*
X82933Y-67300D01*
X83314Y-67661D02*
X83085Y-67661D01*
X83200Y-67661D02*
X83200Y-67261D01*
X83161Y-67319D01*
X83123Y-67357D01*
X83085Y-67376D01*
X84933Y-66123D02*
X84914Y-66142D01*
X84857Y-66161D01*
X84819Y-66161D01*
X84761Y-66142D01*
X84723Y-66104D01*
X84704Y-66066D01*
X84685Y-65990D01*
X84685Y-65933D01*
X84704Y-65857D01*
X84723Y-65819D01*
X84761Y-65780D01*
X84819Y-65761D01*
X84857Y-65761D01*
X84914Y-65780D01*
X84933Y-65800D01*
X85276Y-65895D02*
X85276Y-66161D01*
X85180Y-65742D02*
X85085Y-66028D01*
X85333Y-66028D01*
X86933Y-66123D02*
X86914Y-66142D01*
X86857Y-66161D01*
X86819Y-66161D01*
X86761Y-66142D01*
X86723Y-66104D01*
X86704Y-66066D01*
X86685Y-65990D01*
X86685Y-65933D01*
X86704Y-65857D01*
X86723Y-65819D01*
X86761Y-65780D01*
X86819Y-65761D01*
X86857Y-65761D01*
X86914Y-65780D01*
X86933Y-65800D01*
X87085Y-65800D02*
X87104Y-65780D01*
X87142Y-65761D01*
X87238Y-65761D01*
X87276Y-65780D01*
X87295Y-65800D01*
X87314Y-65838D01*
X87314Y-65876D01*
X87295Y-65933D01*
X87066Y-66161D01*
X87314Y-66161D01*
X90866Y-66761D02*
X90866Y-67047D01*
X90847Y-67104D01*
X90809Y-67142D01*
X90752Y-67161D01*
X90714Y-67161D01*
X91038Y-66800D02*
X91057Y-66780D01*
X91095Y-66761D01*
X91190Y-66761D01*
X91228Y-66780D01*
X91247Y-66800D01*
X91266Y-66838D01*
X91266Y-66876D01*
X91247Y-66933D01*
X91019Y-67161D01*
X91266Y-67161D01*
X78433Y-61611D02*
X78300Y-61421D01*
X78204Y-61611D02*
X78204Y-61211D01*
X78357Y-61211D01*
X78395Y-61230D01*
X78414Y-61250D01*
X78433Y-61288D01*
X78433Y-61345D01*
X78414Y-61383D01*
X78395Y-61402D01*
X78357Y-61421D01*
X78204Y-61421D01*
X78814Y-61611D02*
X78585Y-61611D01*
X78700Y-61611D02*
X78700Y-61211D01*
X78661Y-61269D01*
X78623Y-61307D01*
X78585Y-61326D01*
X88583Y-60661D02*
X88450Y-60471D01*
X88354Y-60661D02*
X88354Y-60261D01*
X88507Y-60261D01*
X88545Y-60280D01*
X88564Y-60300D01*
X88583Y-60338D01*
X88583Y-60395D01*
X88564Y-60433D01*
X88545Y-60452D01*
X88507Y-60471D01*
X88354Y-60471D01*
X88735Y-60300D02*
X88754Y-60280D01*
X88792Y-60261D01*
X88888Y-60261D01*
X88926Y-60280D01*
X88945Y-60300D01*
X88964Y-60338D01*
X88964Y-60376D01*
X88945Y-60433D01*
X88716Y-60661D01*
X88964Y-60661D01*
X88583Y-67661D02*
X88450Y-67471D01*
X88354Y-67661D02*
X88354Y-67261D01*
X88507Y-67261D01*
X88545Y-67280D01*
X88564Y-67300D01*
X88583Y-67338D01*
X88583Y-67395D01*
X88564Y-67433D01*
X88545Y-67452D01*
X88507Y-67471D01*
X88354Y-67471D01*
X88716Y-67261D02*
X88964Y-67261D01*
X88830Y-67414D01*
X88888Y-67414D01*
X88926Y-67433D01*
X88945Y-67452D01*
X88964Y-67490D01*
X88964Y-67585D01*
X88945Y-67623D01*
X88926Y-67642D01*
X88888Y-67661D01*
X88773Y-67661D01*
X88735Y-67642D01*
X88716Y-67623D01*
X76116Y-60761D02*
X76116Y-61047D01*
X76097Y-61104D01*
X76059Y-61142D01*
X76002Y-61161D01*
X75964Y-61161D01*
X76516Y-61161D02*
X76288Y-61161D01*
X76402Y-61161D02*
X76402Y-60761D01*
X76364Y-60819D01*
X76326Y-60857D01*
X76288Y-60876D01*
X82033Y-60623D02*
X82014Y-60642D01*
X81957Y-60661D01*
X81919Y-60661D01*
X81861Y-60642D01*
X81823Y-60604D01*
X81804Y-60566D01*
X81785Y-60490D01*
X81785Y-60433D01*
X81804Y-60357D01*
X81823Y-60319D01*
X81861Y-60280D01*
X81919Y-60261D01*
X81957Y-60261D01*
X82014Y-60280D01*
X82033Y-60300D01*
X82166Y-60261D02*
X82414Y-60261D01*
X82280Y-60414D01*
X82338Y-60414D01*
X82376Y-60433D01*
X82395Y-60452D01*
X82414Y-60490D01*
X82414Y-60585D01*
X82395Y-60623D01*
X82376Y-60642D01*
X82338Y-60661D01*
X82223Y-60661D01*
X82185Y-60642D01*
X82166Y-60623D01*
M02*
