G04 (created by PCBNEW (2013-07-07 BZR 4022)-stable) date 1/29/2015 5:28:15 PM*
%MOIN*%
G04 Gerber Fmt 3.4, Leading zero omitted, Abs format*
%FSLAX34Y34*%
G01*
G70*
G90*
G04 APERTURE LIST*
%ADD10C,0.00590551*%
%ADD11R,0.055X0.055*%
%ADD12C,0.055*%
%ADD13C,0.114173*%
%ADD14C,0.0492126*%
%ADD15R,0.06X0.06*%
%ADD16C,0.06*%
%ADD17C,0.01*%
G04 APERTURE END LIST*
G54D10*
G54D11*
X80000Y-65500D03*
G54D12*
X81000Y-65500D03*
X82000Y-65500D03*
X83000Y-65500D03*
X83000Y-62500D03*
X82000Y-62500D03*
X81000Y-62500D03*
X80000Y-62500D03*
X82000Y-67500D03*
X80000Y-67500D03*
X85000Y-63000D03*
X85000Y-65000D03*
X87000Y-65000D03*
X87000Y-63000D03*
G54D13*
X91000Y-64000D03*
X89031Y-62031D03*
X89031Y-65968D03*
G54D14*
X89031Y-64000D03*
X91000Y-65968D03*
X91000Y-62031D03*
X91984Y-62031D03*
X91984Y-65968D03*
G54D12*
X78500Y-62250D03*
X78500Y-65750D03*
X84250Y-60500D03*
X87750Y-60500D03*
X84250Y-67500D03*
X87750Y-67500D03*
G54D15*
X76250Y-66000D03*
G54D16*
X76250Y-65000D03*
X76250Y-64000D03*
X76250Y-63000D03*
X76250Y-62000D03*
G54D12*
X80000Y-60500D03*
X81000Y-60500D03*
G54D10*
G36*
X92280Y-68732D02*
X92271Y-68779D01*
X92254Y-68804D01*
X92229Y-68821D01*
X92183Y-68830D01*
X91511Y-68830D01*
X91511Y-64581D01*
X91000Y-64070D01*
X90929Y-64141D01*
X90929Y-64000D01*
X90418Y-63488D01*
X90294Y-63549D01*
X90175Y-63853D01*
X90182Y-64180D01*
X90294Y-64450D01*
X90418Y-64511D01*
X90929Y-64000D01*
X90929Y-64141D01*
X90488Y-64581D01*
X90549Y-64705D01*
X90853Y-64824D01*
X91180Y-64817D01*
X91450Y-64705D01*
X91511Y-64581D01*
X91511Y-68830D01*
X91396Y-68830D01*
X91396Y-65890D01*
X91335Y-65744D01*
X91224Y-65632D01*
X91079Y-65572D01*
X90921Y-65572D01*
X90775Y-65632D01*
X90664Y-65743D01*
X90604Y-65889D01*
X90603Y-66046D01*
X90664Y-66192D01*
X90775Y-66304D01*
X90920Y-66364D01*
X91078Y-66364D01*
X91224Y-66304D01*
X91335Y-66193D01*
X91395Y-66047D01*
X91396Y-65890D01*
X91396Y-68830D01*
X89752Y-68830D01*
X89752Y-65825D01*
X89752Y-61888D01*
X89642Y-61623D01*
X89440Y-61420D01*
X89175Y-61310D01*
X88888Y-61310D01*
X88623Y-61420D01*
X88420Y-61622D01*
X88310Y-61887D01*
X88310Y-62174D01*
X88420Y-62439D01*
X88622Y-62642D01*
X88887Y-62752D01*
X89174Y-62752D01*
X89439Y-62642D01*
X89642Y-62440D01*
X89752Y-62175D01*
X89752Y-61888D01*
X89752Y-65825D01*
X89642Y-65560D01*
X89440Y-65357D01*
X89427Y-65352D01*
X89427Y-63921D01*
X89367Y-63775D01*
X89256Y-63664D01*
X89110Y-63604D01*
X88953Y-63603D01*
X88807Y-63664D01*
X88695Y-63775D01*
X88635Y-63920D01*
X88635Y-64078D01*
X88695Y-64224D01*
X88806Y-64335D01*
X88952Y-64395D01*
X89109Y-64396D01*
X89255Y-64335D01*
X89367Y-64224D01*
X89427Y-64079D01*
X89427Y-63921D01*
X89427Y-65352D01*
X89175Y-65247D01*
X88888Y-65247D01*
X88623Y-65357D01*
X88420Y-65559D01*
X88310Y-65824D01*
X88310Y-66111D01*
X88420Y-66376D01*
X88622Y-66579D01*
X88887Y-66689D01*
X89174Y-66689D01*
X89439Y-66579D01*
X89642Y-66377D01*
X89752Y-66112D01*
X89752Y-65825D01*
X89752Y-68830D01*
X88175Y-68830D01*
X88175Y-67415D01*
X88175Y-60415D01*
X88110Y-60259D01*
X87991Y-60139D01*
X87834Y-60075D01*
X87665Y-60074D01*
X87509Y-60139D01*
X87389Y-60258D01*
X87325Y-60415D01*
X87324Y-60584D01*
X87389Y-60740D01*
X87508Y-60860D01*
X87665Y-60924D01*
X87834Y-60925D01*
X87990Y-60860D01*
X88110Y-60741D01*
X88174Y-60584D01*
X88175Y-60415D01*
X88175Y-67415D01*
X88110Y-67259D01*
X87991Y-67139D01*
X87834Y-67075D01*
X87665Y-67074D01*
X87509Y-67139D01*
X87425Y-67223D01*
X87425Y-64915D01*
X87425Y-62915D01*
X87360Y-62759D01*
X87241Y-62639D01*
X87084Y-62575D01*
X86915Y-62574D01*
X86759Y-62639D01*
X86639Y-62758D01*
X86575Y-62915D01*
X86574Y-63084D01*
X86639Y-63240D01*
X86758Y-63360D01*
X86915Y-63424D01*
X87084Y-63425D01*
X87240Y-63360D01*
X87360Y-63241D01*
X87424Y-63084D01*
X87425Y-62915D01*
X87425Y-64915D01*
X87360Y-64759D01*
X87241Y-64639D01*
X87084Y-64575D01*
X86915Y-64574D01*
X86759Y-64639D01*
X86639Y-64758D01*
X86575Y-64915D01*
X86574Y-65084D01*
X86639Y-65240D01*
X86758Y-65360D01*
X86915Y-65424D01*
X87084Y-65425D01*
X87240Y-65360D01*
X87360Y-65241D01*
X87424Y-65084D01*
X87425Y-64915D01*
X87425Y-67223D01*
X87389Y-67258D01*
X87325Y-67415D01*
X87324Y-67584D01*
X87389Y-67740D01*
X87508Y-67860D01*
X87665Y-67924D01*
X87834Y-67925D01*
X87990Y-67860D01*
X88110Y-67741D01*
X88174Y-67584D01*
X88175Y-67415D01*
X88175Y-68830D01*
X85529Y-68830D01*
X85529Y-65075D01*
X85518Y-64867D01*
X85460Y-64727D01*
X85425Y-64717D01*
X85425Y-62915D01*
X85360Y-62759D01*
X85241Y-62639D01*
X85084Y-62575D01*
X84915Y-62574D01*
X84759Y-62639D01*
X84675Y-62723D01*
X84675Y-60415D01*
X84610Y-60259D01*
X84491Y-60139D01*
X84334Y-60075D01*
X84165Y-60074D01*
X84009Y-60139D01*
X83889Y-60258D01*
X83825Y-60415D01*
X83824Y-60584D01*
X83889Y-60740D01*
X84008Y-60860D01*
X84165Y-60924D01*
X84334Y-60925D01*
X84490Y-60860D01*
X84610Y-60741D01*
X84674Y-60584D01*
X84675Y-60415D01*
X84675Y-62723D01*
X84639Y-62758D01*
X84575Y-62915D01*
X84574Y-63084D01*
X84639Y-63240D01*
X84758Y-63360D01*
X84915Y-63424D01*
X85084Y-63425D01*
X85240Y-63360D01*
X85360Y-63241D01*
X85424Y-63084D01*
X85425Y-62915D01*
X85425Y-64717D01*
X85367Y-64702D01*
X85297Y-64773D01*
X85297Y-64632D01*
X85272Y-64539D01*
X85075Y-64470D01*
X84867Y-64481D01*
X84727Y-64539D01*
X84702Y-64632D01*
X85000Y-64929D01*
X85297Y-64632D01*
X85297Y-64773D01*
X85070Y-65000D01*
X85367Y-65297D01*
X85460Y-65272D01*
X85529Y-65075D01*
X85529Y-68830D01*
X85297Y-68830D01*
X85297Y-65367D01*
X85000Y-65070D01*
X84929Y-65141D01*
X84929Y-65000D01*
X84632Y-64702D01*
X84539Y-64727D01*
X84470Y-64924D01*
X84481Y-65132D01*
X84539Y-65272D01*
X84632Y-65297D01*
X84929Y-65000D01*
X84929Y-65141D01*
X84702Y-65367D01*
X84727Y-65460D01*
X84924Y-65529D01*
X85132Y-65518D01*
X85272Y-65460D01*
X85297Y-65367D01*
X85297Y-68830D01*
X84675Y-68830D01*
X84675Y-67415D01*
X84610Y-67259D01*
X84491Y-67139D01*
X84334Y-67075D01*
X84165Y-67074D01*
X84009Y-67139D01*
X83889Y-67258D01*
X83825Y-67415D01*
X83824Y-67584D01*
X83889Y-67740D01*
X84008Y-67860D01*
X84165Y-67924D01*
X84334Y-67925D01*
X84490Y-67860D01*
X84610Y-67741D01*
X84674Y-67584D01*
X84675Y-67415D01*
X84675Y-68830D01*
X83425Y-68830D01*
X83425Y-65415D01*
X83425Y-62415D01*
X83360Y-62259D01*
X83241Y-62139D01*
X83084Y-62075D01*
X82915Y-62074D01*
X82759Y-62139D01*
X82639Y-62258D01*
X82575Y-62415D01*
X82574Y-62584D01*
X82639Y-62740D01*
X82758Y-62860D01*
X82915Y-62924D01*
X83084Y-62925D01*
X83240Y-62860D01*
X83360Y-62741D01*
X83424Y-62584D01*
X83425Y-62415D01*
X83425Y-65415D01*
X83360Y-65259D01*
X83241Y-65139D01*
X83084Y-65075D01*
X82915Y-65074D01*
X82759Y-65139D01*
X82639Y-65258D01*
X82575Y-65415D01*
X82574Y-65584D01*
X82639Y-65740D01*
X82758Y-65860D01*
X82915Y-65924D01*
X83084Y-65925D01*
X83240Y-65860D01*
X83360Y-65741D01*
X83424Y-65584D01*
X83425Y-65415D01*
X83425Y-68830D01*
X82529Y-68830D01*
X82529Y-67575D01*
X82518Y-67367D01*
X82460Y-67227D01*
X82425Y-67217D01*
X82425Y-65415D01*
X82425Y-62415D01*
X82360Y-62259D01*
X82241Y-62139D01*
X82084Y-62075D01*
X81915Y-62074D01*
X81759Y-62139D01*
X81639Y-62258D01*
X81575Y-62415D01*
X81574Y-62584D01*
X81639Y-62740D01*
X81758Y-62860D01*
X81915Y-62924D01*
X82084Y-62925D01*
X82240Y-62860D01*
X82360Y-62741D01*
X82424Y-62584D01*
X82425Y-62415D01*
X82425Y-65415D01*
X82360Y-65259D01*
X82241Y-65139D01*
X82084Y-65075D01*
X81915Y-65074D01*
X81759Y-65139D01*
X81639Y-65258D01*
X81575Y-65415D01*
X81574Y-65584D01*
X81639Y-65740D01*
X81758Y-65860D01*
X81915Y-65924D01*
X82084Y-65925D01*
X82240Y-65860D01*
X82360Y-65741D01*
X82424Y-65584D01*
X82425Y-65415D01*
X82425Y-67217D01*
X82367Y-67202D01*
X82297Y-67273D01*
X82297Y-67132D01*
X82272Y-67039D01*
X82075Y-66970D01*
X81867Y-66981D01*
X81727Y-67039D01*
X81702Y-67132D01*
X82000Y-67429D01*
X82297Y-67132D01*
X82297Y-67273D01*
X82070Y-67500D01*
X82367Y-67797D01*
X82460Y-67772D01*
X82529Y-67575D01*
X82529Y-68830D01*
X82297Y-68830D01*
X82297Y-67867D01*
X82000Y-67570D01*
X81929Y-67641D01*
X81929Y-67500D01*
X81632Y-67202D01*
X81539Y-67227D01*
X81529Y-67254D01*
X81529Y-65575D01*
X81529Y-60575D01*
X81518Y-60367D01*
X81460Y-60227D01*
X81367Y-60202D01*
X81297Y-60273D01*
X81297Y-60132D01*
X81272Y-60039D01*
X81075Y-59970D01*
X80867Y-59981D01*
X80727Y-60039D01*
X80702Y-60132D01*
X81000Y-60429D01*
X81297Y-60132D01*
X81297Y-60273D01*
X81070Y-60500D01*
X81367Y-60797D01*
X81460Y-60772D01*
X81529Y-60575D01*
X81529Y-65575D01*
X81518Y-65367D01*
X81460Y-65227D01*
X81425Y-65217D01*
X81425Y-62415D01*
X81360Y-62259D01*
X81297Y-62196D01*
X81297Y-60867D01*
X81000Y-60570D01*
X80929Y-60641D01*
X80929Y-60500D01*
X80632Y-60202D01*
X80539Y-60227D01*
X80470Y-60424D01*
X80481Y-60632D01*
X80539Y-60772D01*
X80632Y-60797D01*
X80929Y-60500D01*
X80929Y-60641D01*
X80702Y-60867D01*
X80727Y-60960D01*
X80924Y-61029D01*
X81132Y-61018D01*
X81272Y-60960D01*
X81297Y-60867D01*
X81297Y-62196D01*
X81241Y-62139D01*
X81084Y-62075D01*
X80915Y-62074D01*
X80759Y-62139D01*
X80639Y-62258D01*
X80575Y-62415D01*
X80574Y-62584D01*
X80639Y-62740D01*
X80758Y-62860D01*
X80915Y-62924D01*
X81084Y-62925D01*
X81240Y-62860D01*
X81360Y-62741D01*
X81424Y-62584D01*
X81425Y-62415D01*
X81425Y-65217D01*
X81367Y-65202D01*
X81297Y-65273D01*
X81297Y-65132D01*
X81272Y-65039D01*
X81075Y-64970D01*
X80867Y-64981D01*
X80727Y-65039D01*
X80702Y-65132D01*
X81000Y-65429D01*
X81297Y-65132D01*
X81297Y-65273D01*
X81070Y-65500D01*
X81367Y-65797D01*
X81460Y-65772D01*
X81529Y-65575D01*
X81529Y-67254D01*
X81470Y-67424D01*
X81481Y-67632D01*
X81539Y-67772D01*
X81632Y-67797D01*
X81929Y-67500D01*
X81929Y-67641D01*
X81702Y-67867D01*
X81727Y-67960D01*
X81924Y-68029D01*
X82132Y-68018D01*
X82272Y-67960D01*
X82297Y-67867D01*
X82297Y-68830D01*
X81297Y-68830D01*
X81297Y-65867D01*
X81000Y-65570D01*
X80929Y-65641D01*
X80929Y-65500D01*
X80632Y-65202D01*
X80539Y-65227D01*
X80470Y-65424D01*
X80481Y-65632D01*
X80539Y-65772D01*
X80632Y-65797D01*
X80929Y-65500D01*
X80929Y-65641D01*
X80702Y-65867D01*
X80727Y-65960D01*
X80924Y-66029D01*
X81132Y-66018D01*
X81272Y-65960D01*
X81297Y-65867D01*
X81297Y-68830D01*
X80425Y-68830D01*
X80425Y-67415D01*
X80425Y-62415D01*
X80425Y-60415D01*
X80360Y-60259D01*
X80241Y-60139D01*
X80084Y-60075D01*
X79915Y-60074D01*
X79759Y-60139D01*
X79639Y-60258D01*
X79575Y-60415D01*
X79574Y-60584D01*
X79639Y-60740D01*
X79758Y-60860D01*
X79915Y-60924D01*
X80084Y-60925D01*
X80240Y-60860D01*
X80360Y-60741D01*
X80424Y-60584D01*
X80425Y-60415D01*
X80425Y-62415D01*
X80360Y-62259D01*
X80241Y-62139D01*
X80084Y-62075D01*
X79915Y-62074D01*
X79759Y-62139D01*
X79639Y-62258D01*
X79575Y-62415D01*
X79574Y-62584D01*
X79639Y-62740D01*
X79758Y-62860D01*
X79915Y-62924D01*
X80084Y-62925D01*
X80240Y-62860D01*
X80360Y-62741D01*
X80424Y-62584D01*
X80425Y-62415D01*
X80425Y-67415D01*
X80425Y-67415D01*
X80425Y-65745D01*
X80425Y-65195D01*
X80402Y-65140D01*
X80360Y-65097D01*
X80304Y-65075D01*
X80245Y-65074D01*
X79695Y-65074D01*
X79640Y-65097D01*
X79597Y-65139D01*
X79575Y-65195D01*
X79574Y-65254D01*
X79574Y-65804D01*
X79597Y-65859D01*
X79639Y-65902D01*
X79695Y-65924D01*
X79754Y-65925D01*
X80304Y-65925D01*
X80359Y-65902D01*
X80402Y-65860D01*
X80424Y-65804D01*
X80425Y-65745D01*
X80425Y-67415D01*
X80360Y-67259D01*
X80241Y-67139D01*
X80084Y-67075D01*
X79915Y-67074D01*
X79759Y-67139D01*
X79639Y-67258D01*
X79575Y-67415D01*
X79574Y-67584D01*
X79639Y-67740D01*
X79758Y-67860D01*
X79915Y-67924D01*
X80084Y-67925D01*
X80240Y-67860D01*
X80360Y-67741D01*
X80424Y-67584D01*
X80425Y-67415D01*
X80425Y-68830D01*
X78925Y-68830D01*
X78925Y-65665D01*
X78925Y-62165D01*
X78860Y-62009D01*
X78741Y-61889D01*
X78584Y-61825D01*
X78415Y-61824D01*
X78259Y-61889D01*
X78139Y-62008D01*
X78075Y-62165D01*
X78074Y-62334D01*
X78139Y-62490D01*
X78258Y-62610D01*
X78415Y-62674D01*
X78584Y-62675D01*
X78740Y-62610D01*
X78860Y-62491D01*
X78924Y-62334D01*
X78925Y-62165D01*
X78925Y-65665D01*
X78860Y-65509D01*
X78741Y-65389D01*
X78584Y-65325D01*
X78415Y-65324D01*
X78259Y-65389D01*
X78139Y-65508D01*
X78075Y-65665D01*
X78074Y-65834D01*
X78139Y-65990D01*
X78258Y-66110D01*
X78415Y-66174D01*
X78584Y-66175D01*
X78740Y-66110D01*
X78860Y-65991D01*
X78924Y-65834D01*
X78925Y-65665D01*
X78925Y-68830D01*
X76804Y-68830D01*
X76804Y-62081D01*
X76793Y-61863D01*
X76731Y-61712D01*
X76635Y-61684D01*
X76565Y-61755D01*
X76565Y-61614D01*
X76537Y-61518D01*
X76331Y-61445D01*
X76113Y-61456D01*
X75962Y-61518D01*
X75934Y-61614D01*
X76250Y-61929D01*
X76565Y-61614D01*
X76565Y-61755D01*
X76320Y-62000D01*
X76635Y-62315D01*
X76731Y-62287D01*
X76804Y-62081D01*
X76804Y-68830D01*
X76700Y-68830D01*
X76700Y-64910D01*
X76700Y-63910D01*
X76700Y-62910D01*
X76631Y-62745D01*
X76505Y-62618D01*
X76339Y-62550D01*
X76263Y-62550D01*
X76386Y-62543D01*
X76537Y-62481D01*
X76565Y-62385D01*
X76250Y-62070D01*
X76179Y-62141D01*
X76179Y-62000D01*
X75864Y-61684D01*
X75768Y-61712D01*
X75695Y-61918D01*
X75706Y-62136D01*
X75768Y-62287D01*
X75864Y-62315D01*
X76179Y-62000D01*
X76179Y-62141D01*
X75934Y-62385D01*
X75962Y-62481D01*
X76157Y-62551D01*
X75995Y-62618D01*
X75868Y-62744D01*
X75800Y-62910D01*
X75799Y-63089D01*
X75868Y-63254D01*
X75994Y-63381D01*
X76160Y-63449D01*
X76339Y-63450D01*
X76504Y-63381D01*
X76631Y-63255D01*
X76699Y-63089D01*
X76700Y-62910D01*
X76700Y-63910D01*
X76631Y-63745D01*
X76505Y-63618D01*
X76339Y-63550D01*
X76160Y-63549D01*
X75995Y-63618D01*
X75868Y-63744D01*
X75800Y-63910D01*
X75799Y-64089D01*
X75868Y-64254D01*
X75994Y-64381D01*
X76160Y-64449D01*
X76339Y-64450D01*
X76504Y-64381D01*
X76631Y-64255D01*
X76699Y-64089D01*
X76700Y-63910D01*
X76700Y-64910D01*
X76631Y-64745D01*
X76505Y-64618D01*
X76339Y-64550D01*
X76160Y-64549D01*
X75995Y-64618D01*
X75868Y-64744D01*
X75800Y-64910D01*
X75799Y-65089D01*
X75868Y-65254D01*
X75994Y-65381D01*
X76160Y-65449D01*
X76339Y-65450D01*
X76504Y-65381D01*
X76631Y-65255D01*
X76699Y-65089D01*
X76700Y-64910D01*
X76700Y-68830D01*
X76700Y-68830D01*
X76700Y-66270D01*
X76700Y-65670D01*
X76677Y-65615D01*
X76635Y-65572D01*
X76579Y-65550D01*
X76520Y-65549D01*
X75920Y-65549D01*
X75865Y-65572D01*
X75822Y-65614D01*
X75800Y-65670D01*
X75799Y-65729D01*
X75799Y-66329D01*
X75822Y-66384D01*
X75864Y-66427D01*
X75920Y-66449D01*
X75979Y-66450D01*
X76579Y-66450D01*
X76634Y-66427D01*
X76677Y-66385D01*
X76699Y-66329D01*
X76700Y-66270D01*
X76700Y-68830D01*
X75767Y-68830D01*
X75720Y-68821D01*
X75695Y-68804D01*
X75678Y-68779D01*
X75669Y-68733D01*
X75669Y-59250D01*
X75681Y-59212D01*
X75700Y-59189D01*
X75727Y-59175D01*
X75783Y-59169D01*
X92183Y-59169D01*
X92229Y-59178D01*
X92254Y-59195D01*
X92271Y-59220D01*
X92280Y-59267D01*
X92280Y-61767D01*
X92208Y-61695D01*
X92063Y-61635D01*
X91905Y-61635D01*
X91760Y-61695D01*
X91648Y-61806D01*
X91588Y-61952D01*
X91588Y-62109D01*
X91648Y-62255D01*
X91759Y-62367D01*
X91905Y-62427D01*
X92062Y-62427D01*
X92208Y-62367D01*
X92280Y-62295D01*
X92280Y-65704D01*
X92208Y-65632D01*
X92063Y-65572D01*
X91905Y-65572D01*
X91824Y-65606D01*
X91824Y-64146D01*
X91817Y-63819D01*
X91705Y-63549D01*
X91581Y-63488D01*
X91511Y-63559D01*
X91511Y-63418D01*
X91450Y-63294D01*
X91396Y-63273D01*
X91396Y-61953D01*
X91335Y-61807D01*
X91224Y-61695D01*
X91079Y-61635D01*
X90921Y-61635D01*
X90775Y-61695D01*
X90664Y-61806D01*
X90604Y-61952D01*
X90603Y-62109D01*
X90664Y-62255D01*
X90775Y-62367D01*
X90920Y-62427D01*
X91078Y-62427D01*
X91224Y-62367D01*
X91335Y-62256D01*
X91395Y-62110D01*
X91396Y-61953D01*
X91396Y-63273D01*
X91146Y-63175D01*
X90819Y-63182D01*
X90549Y-63294D01*
X90488Y-63418D01*
X91000Y-63929D01*
X91511Y-63418D01*
X91511Y-63559D01*
X91070Y-64000D01*
X91581Y-64511D01*
X91705Y-64450D01*
X91824Y-64146D01*
X91824Y-65606D01*
X91760Y-65632D01*
X91648Y-65743D01*
X91588Y-65889D01*
X91588Y-66046D01*
X91648Y-66192D01*
X91759Y-66304D01*
X91905Y-66364D01*
X92062Y-66364D01*
X92208Y-66304D01*
X92280Y-66232D01*
X92280Y-68732D01*
X92280Y-68732D01*
G37*
G54D17*
X92280Y-68732D02*
X92271Y-68779D01*
X92254Y-68804D01*
X92229Y-68821D01*
X92183Y-68830D01*
X91511Y-68830D01*
X91511Y-64581D01*
X91000Y-64070D01*
X90929Y-64141D01*
X90929Y-64000D01*
X90418Y-63488D01*
X90294Y-63549D01*
X90175Y-63853D01*
X90182Y-64180D01*
X90294Y-64450D01*
X90418Y-64511D01*
X90929Y-64000D01*
X90929Y-64141D01*
X90488Y-64581D01*
X90549Y-64705D01*
X90853Y-64824D01*
X91180Y-64817D01*
X91450Y-64705D01*
X91511Y-64581D01*
X91511Y-68830D01*
X91396Y-68830D01*
X91396Y-65890D01*
X91335Y-65744D01*
X91224Y-65632D01*
X91079Y-65572D01*
X90921Y-65572D01*
X90775Y-65632D01*
X90664Y-65743D01*
X90604Y-65889D01*
X90603Y-66046D01*
X90664Y-66192D01*
X90775Y-66304D01*
X90920Y-66364D01*
X91078Y-66364D01*
X91224Y-66304D01*
X91335Y-66193D01*
X91395Y-66047D01*
X91396Y-65890D01*
X91396Y-68830D01*
X89752Y-68830D01*
X89752Y-65825D01*
X89752Y-61888D01*
X89642Y-61623D01*
X89440Y-61420D01*
X89175Y-61310D01*
X88888Y-61310D01*
X88623Y-61420D01*
X88420Y-61622D01*
X88310Y-61887D01*
X88310Y-62174D01*
X88420Y-62439D01*
X88622Y-62642D01*
X88887Y-62752D01*
X89174Y-62752D01*
X89439Y-62642D01*
X89642Y-62440D01*
X89752Y-62175D01*
X89752Y-61888D01*
X89752Y-65825D01*
X89642Y-65560D01*
X89440Y-65357D01*
X89427Y-65352D01*
X89427Y-63921D01*
X89367Y-63775D01*
X89256Y-63664D01*
X89110Y-63604D01*
X88953Y-63603D01*
X88807Y-63664D01*
X88695Y-63775D01*
X88635Y-63920D01*
X88635Y-64078D01*
X88695Y-64224D01*
X88806Y-64335D01*
X88952Y-64395D01*
X89109Y-64396D01*
X89255Y-64335D01*
X89367Y-64224D01*
X89427Y-64079D01*
X89427Y-63921D01*
X89427Y-65352D01*
X89175Y-65247D01*
X88888Y-65247D01*
X88623Y-65357D01*
X88420Y-65559D01*
X88310Y-65824D01*
X88310Y-66111D01*
X88420Y-66376D01*
X88622Y-66579D01*
X88887Y-66689D01*
X89174Y-66689D01*
X89439Y-66579D01*
X89642Y-66377D01*
X89752Y-66112D01*
X89752Y-65825D01*
X89752Y-68830D01*
X88175Y-68830D01*
X88175Y-67415D01*
X88175Y-60415D01*
X88110Y-60259D01*
X87991Y-60139D01*
X87834Y-60075D01*
X87665Y-60074D01*
X87509Y-60139D01*
X87389Y-60258D01*
X87325Y-60415D01*
X87324Y-60584D01*
X87389Y-60740D01*
X87508Y-60860D01*
X87665Y-60924D01*
X87834Y-60925D01*
X87990Y-60860D01*
X88110Y-60741D01*
X88174Y-60584D01*
X88175Y-60415D01*
X88175Y-67415D01*
X88110Y-67259D01*
X87991Y-67139D01*
X87834Y-67075D01*
X87665Y-67074D01*
X87509Y-67139D01*
X87425Y-67223D01*
X87425Y-64915D01*
X87425Y-62915D01*
X87360Y-62759D01*
X87241Y-62639D01*
X87084Y-62575D01*
X86915Y-62574D01*
X86759Y-62639D01*
X86639Y-62758D01*
X86575Y-62915D01*
X86574Y-63084D01*
X86639Y-63240D01*
X86758Y-63360D01*
X86915Y-63424D01*
X87084Y-63425D01*
X87240Y-63360D01*
X87360Y-63241D01*
X87424Y-63084D01*
X87425Y-62915D01*
X87425Y-64915D01*
X87360Y-64759D01*
X87241Y-64639D01*
X87084Y-64575D01*
X86915Y-64574D01*
X86759Y-64639D01*
X86639Y-64758D01*
X86575Y-64915D01*
X86574Y-65084D01*
X86639Y-65240D01*
X86758Y-65360D01*
X86915Y-65424D01*
X87084Y-65425D01*
X87240Y-65360D01*
X87360Y-65241D01*
X87424Y-65084D01*
X87425Y-64915D01*
X87425Y-67223D01*
X87389Y-67258D01*
X87325Y-67415D01*
X87324Y-67584D01*
X87389Y-67740D01*
X87508Y-67860D01*
X87665Y-67924D01*
X87834Y-67925D01*
X87990Y-67860D01*
X88110Y-67741D01*
X88174Y-67584D01*
X88175Y-67415D01*
X88175Y-68830D01*
X85529Y-68830D01*
X85529Y-65075D01*
X85518Y-64867D01*
X85460Y-64727D01*
X85425Y-64717D01*
X85425Y-62915D01*
X85360Y-62759D01*
X85241Y-62639D01*
X85084Y-62575D01*
X84915Y-62574D01*
X84759Y-62639D01*
X84675Y-62723D01*
X84675Y-60415D01*
X84610Y-60259D01*
X84491Y-60139D01*
X84334Y-60075D01*
X84165Y-60074D01*
X84009Y-60139D01*
X83889Y-60258D01*
X83825Y-60415D01*
X83824Y-60584D01*
X83889Y-60740D01*
X84008Y-60860D01*
X84165Y-60924D01*
X84334Y-60925D01*
X84490Y-60860D01*
X84610Y-60741D01*
X84674Y-60584D01*
X84675Y-60415D01*
X84675Y-62723D01*
X84639Y-62758D01*
X84575Y-62915D01*
X84574Y-63084D01*
X84639Y-63240D01*
X84758Y-63360D01*
X84915Y-63424D01*
X85084Y-63425D01*
X85240Y-63360D01*
X85360Y-63241D01*
X85424Y-63084D01*
X85425Y-62915D01*
X85425Y-64717D01*
X85367Y-64702D01*
X85297Y-64773D01*
X85297Y-64632D01*
X85272Y-64539D01*
X85075Y-64470D01*
X84867Y-64481D01*
X84727Y-64539D01*
X84702Y-64632D01*
X85000Y-64929D01*
X85297Y-64632D01*
X85297Y-64773D01*
X85070Y-65000D01*
X85367Y-65297D01*
X85460Y-65272D01*
X85529Y-65075D01*
X85529Y-68830D01*
X85297Y-68830D01*
X85297Y-65367D01*
X85000Y-65070D01*
X84929Y-65141D01*
X84929Y-65000D01*
X84632Y-64702D01*
X84539Y-64727D01*
X84470Y-64924D01*
X84481Y-65132D01*
X84539Y-65272D01*
X84632Y-65297D01*
X84929Y-65000D01*
X84929Y-65141D01*
X84702Y-65367D01*
X84727Y-65460D01*
X84924Y-65529D01*
X85132Y-65518D01*
X85272Y-65460D01*
X85297Y-65367D01*
X85297Y-68830D01*
X84675Y-68830D01*
X84675Y-67415D01*
X84610Y-67259D01*
X84491Y-67139D01*
X84334Y-67075D01*
X84165Y-67074D01*
X84009Y-67139D01*
X83889Y-67258D01*
X83825Y-67415D01*
X83824Y-67584D01*
X83889Y-67740D01*
X84008Y-67860D01*
X84165Y-67924D01*
X84334Y-67925D01*
X84490Y-67860D01*
X84610Y-67741D01*
X84674Y-67584D01*
X84675Y-67415D01*
X84675Y-68830D01*
X83425Y-68830D01*
X83425Y-65415D01*
X83425Y-62415D01*
X83360Y-62259D01*
X83241Y-62139D01*
X83084Y-62075D01*
X82915Y-62074D01*
X82759Y-62139D01*
X82639Y-62258D01*
X82575Y-62415D01*
X82574Y-62584D01*
X82639Y-62740D01*
X82758Y-62860D01*
X82915Y-62924D01*
X83084Y-62925D01*
X83240Y-62860D01*
X83360Y-62741D01*
X83424Y-62584D01*
X83425Y-62415D01*
X83425Y-65415D01*
X83360Y-65259D01*
X83241Y-65139D01*
X83084Y-65075D01*
X82915Y-65074D01*
X82759Y-65139D01*
X82639Y-65258D01*
X82575Y-65415D01*
X82574Y-65584D01*
X82639Y-65740D01*
X82758Y-65860D01*
X82915Y-65924D01*
X83084Y-65925D01*
X83240Y-65860D01*
X83360Y-65741D01*
X83424Y-65584D01*
X83425Y-65415D01*
X83425Y-68830D01*
X82529Y-68830D01*
X82529Y-67575D01*
X82518Y-67367D01*
X82460Y-67227D01*
X82425Y-67217D01*
X82425Y-65415D01*
X82425Y-62415D01*
X82360Y-62259D01*
X82241Y-62139D01*
X82084Y-62075D01*
X81915Y-62074D01*
X81759Y-62139D01*
X81639Y-62258D01*
X81575Y-62415D01*
X81574Y-62584D01*
X81639Y-62740D01*
X81758Y-62860D01*
X81915Y-62924D01*
X82084Y-62925D01*
X82240Y-62860D01*
X82360Y-62741D01*
X82424Y-62584D01*
X82425Y-62415D01*
X82425Y-65415D01*
X82360Y-65259D01*
X82241Y-65139D01*
X82084Y-65075D01*
X81915Y-65074D01*
X81759Y-65139D01*
X81639Y-65258D01*
X81575Y-65415D01*
X81574Y-65584D01*
X81639Y-65740D01*
X81758Y-65860D01*
X81915Y-65924D01*
X82084Y-65925D01*
X82240Y-65860D01*
X82360Y-65741D01*
X82424Y-65584D01*
X82425Y-65415D01*
X82425Y-67217D01*
X82367Y-67202D01*
X82297Y-67273D01*
X82297Y-67132D01*
X82272Y-67039D01*
X82075Y-66970D01*
X81867Y-66981D01*
X81727Y-67039D01*
X81702Y-67132D01*
X82000Y-67429D01*
X82297Y-67132D01*
X82297Y-67273D01*
X82070Y-67500D01*
X82367Y-67797D01*
X82460Y-67772D01*
X82529Y-67575D01*
X82529Y-68830D01*
X82297Y-68830D01*
X82297Y-67867D01*
X82000Y-67570D01*
X81929Y-67641D01*
X81929Y-67500D01*
X81632Y-67202D01*
X81539Y-67227D01*
X81529Y-67254D01*
X81529Y-65575D01*
X81529Y-60575D01*
X81518Y-60367D01*
X81460Y-60227D01*
X81367Y-60202D01*
X81297Y-60273D01*
X81297Y-60132D01*
X81272Y-60039D01*
X81075Y-59970D01*
X80867Y-59981D01*
X80727Y-60039D01*
X80702Y-60132D01*
X81000Y-60429D01*
X81297Y-60132D01*
X81297Y-60273D01*
X81070Y-60500D01*
X81367Y-60797D01*
X81460Y-60772D01*
X81529Y-60575D01*
X81529Y-65575D01*
X81518Y-65367D01*
X81460Y-65227D01*
X81425Y-65217D01*
X81425Y-62415D01*
X81360Y-62259D01*
X81297Y-62196D01*
X81297Y-60867D01*
X81000Y-60570D01*
X80929Y-60641D01*
X80929Y-60500D01*
X80632Y-60202D01*
X80539Y-60227D01*
X80470Y-60424D01*
X80481Y-60632D01*
X80539Y-60772D01*
X80632Y-60797D01*
X80929Y-60500D01*
X80929Y-60641D01*
X80702Y-60867D01*
X80727Y-60960D01*
X80924Y-61029D01*
X81132Y-61018D01*
X81272Y-60960D01*
X81297Y-60867D01*
X81297Y-62196D01*
X81241Y-62139D01*
X81084Y-62075D01*
X80915Y-62074D01*
X80759Y-62139D01*
X80639Y-62258D01*
X80575Y-62415D01*
X80574Y-62584D01*
X80639Y-62740D01*
X80758Y-62860D01*
X80915Y-62924D01*
X81084Y-62925D01*
X81240Y-62860D01*
X81360Y-62741D01*
X81424Y-62584D01*
X81425Y-62415D01*
X81425Y-65217D01*
X81367Y-65202D01*
X81297Y-65273D01*
X81297Y-65132D01*
X81272Y-65039D01*
X81075Y-64970D01*
X80867Y-64981D01*
X80727Y-65039D01*
X80702Y-65132D01*
X81000Y-65429D01*
X81297Y-65132D01*
X81297Y-65273D01*
X81070Y-65500D01*
X81367Y-65797D01*
X81460Y-65772D01*
X81529Y-65575D01*
X81529Y-67254D01*
X81470Y-67424D01*
X81481Y-67632D01*
X81539Y-67772D01*
X81632Y-67797D01*
X81929Y-67500D01*
X81929Y-67641D01*
X81702Y-67867D01*
X81727Y-67960D01*
X81924Y-68029D01*
X82132Y-68018D01*
X82272Y-67960D01*
X82297Y-67867D01*
X82297Y-68830D01*
X81297Y-68830D01*
X81297Y-65867D01*
X81000Y-65570D01*
X80929Y-65641D01*
X80929Y-65500D01*
X80632Y-65202D01*
X80539Y-65227D01*
X80470Y-65424D01*
X80481Y-65632D01*
X80539Y-65772D01*
X80632Y-65797D01*
X80929Y-65500D01*
X80929Y-65641D01*
X80702Y-65867D01*
X80727Y-65960D01*
X80924Y-66029D01*
X81132Y-66018D01*
X81272Y-65960D01*
X81297Y-65867D01*
X81297Y-68830D01*
X80425Y-68830D01*
X80425Y-67415D01*
X80425Y-62415D01*
X80425Y-60415D01*
X80360Y-60259D01*
X80241Y-60139D01*
X80084Y-60075D01*
X79915Y-60074D01*
X79759Y-60139D01*
X79639Y-60258D01*
X79575Y-60415D01*
X79574Y-60584D01*
X79639Y-60740D01*
X79758Y-60860D01*
X79915Y-60924D01*
X80084Y-60925D01*
X80240Y-60860D01*
X80360Y-60741D01*
X80424Y-60584D01*
X80425Y-60415D01*
X80425Y-62415D01*
X80360Y-62259D01*
X80241Y-62139D01*
X80084Y-62075D01*
X79915Y-62074D01*
X79759Y-62139D01*
X79639Y-62258D01*
X79575Y-62415D01*
X79574Y-62584D01*
X79639Y-62740D01*
X79758Y-62860D01*
X79915Y-62924D01*
X80084Y-62925D01*
X80240Y-62860D01*
X80360Y-62741D01*
X80424Y-62584D01*
X80425Y-62415D01*
X80425Y-67415D01*
X80425Y-67415D01*
X80425Y-65745D01*
X80425Y-65195D01*
X80402Y-65140D01*
X80360Y-65097D01*
X80304Y-65075D01*
X80245Y-65074D01*
X79695Y-65074D01*
X79640Y-65097D01*
X79597Y-65139D01*
X79575Y-65195D01*
X79574Y-65254D01*
X79574Y-65804D01*
X79597Y-65859D01*
X79639Y-65902D01*
X79695Y-65924D01*
X79754Y-65925D01*
X80304Y-65925D01*
X80359Y-65902D01*
X80402Y-65860D01*
X80424Y-65804D01*
X80425Y-65745D01*
X80425Y-67415D01*
X80360Y-67259D01*
X80241Y-67139D01*
X80084Y-67075D01*
X79915Y-67074D01*
X79759Y-67139D01*
X79639Y-67258D01*
X79575Y-67415D01*
X79574Y-67584D01*
X79639Y-67740D01*
X79758Y-67860D01*
X79915Y-67924D01*
X80084Y-67925D01*
X80240Y-67860D01*
X80360Y-67741D01*
X80424Y-67584D01*
X80425Y-67415D01*
X80425Y-68830D01*
X78925Y-68830D01*
X78925Y-65665D01*
X78925Y-62165D01*
X78860Y-62009D01*
X78741Y-61889D01*
X78584Y-61825D01*
X78415Y-61824D01*
X78259Y-61889D01*
X78139Y-62008D01*
X78075Y-62165D01*
X78074Y-62334D01*
X78139Y-62490D01*
X78258Y-62610D01*
X78415Y-62674D01*
X78584Y-62675D01*
X78740Y-62610D01*
X78860Y-62491D01*
X78924Y-62334D01*
X78925Y-62165D01*
X78925Y-65665D01*
X78860Y-65509D01*
X78741Y-65389D01*
X78584Y-65325D01*
X78415Y-65324D01*
X78259Y-65389D01*
X78139Y-65508D01*
X78075Y-65665D01*
X78074Y-65834D01*
X78139Y-65990D01*
X78258Y-66110D01*
X78415Y-66174D01*
X78584Y-66175D01*
X78740Y-66110D01*
X78860Y-65991D01*
X78924Y-65834D01*
X78925Y-65665D01*
X78925Y-68830D01*
X76804Y-68830D01*
X76804Y-62081D01*
X76793Y-61863D01*
X76731Y-61712D01*
X76635Y-61684D01*
X76565Y-61755D01*
X76565Y-61614D01*
X76537Y-61518D01*
X76331Y-61445D01*
X76113Y-61456D01*
X75962Y-61518D01*
X75934Y-61614D01*
X76250Y-61929D01*
X76565Y-61614D01*
X76565Y-61755D01*
X76320Y-62000D01*
X76635Y-62315D01*
X76731Y-62287D01*
X76804Y-62081D01*
X76804Y-68830D01*
X76700Y-68830D01*
X76700Y-64910D01*
X76700Y-63910D01*
X76700Y-62910D01*
X76631Y-62745D01*
X76505Y-62618D01*
X76339Y-62550D01*
X76263Y-62550D01*
X76386Y-62543D01*
X76537Y-62481D01*
X76565Y-62385D01*
X76250Y-62070D01*
X76179Y-62141D01*
X76179Y-62000D01*
X75864Y-61684D01*
X75768Y-61712D01*
X75695Y-61918D01*
X75706Y-62136D01*
X75768Y-62287D01*
X75864Y-62315D01*
X76179Y-62000D01*
X76179Y-62141D01*
X75934Y-62385D01*
X75962Y-62481D01*
X76157Y-62551D01*
X75995Y-62618D01*
X75868Y-62744D01*
X75800Y-62910D01*
X75799Y-63089D01*
X75868Y-63254D01*
X75994Y-63381D01*
X76160Y-63449D01*
X76339Y-63450D01*
X76504Y-63381D01*
X76631Y-63255D01*
X76699Y-63089D01*
X76700Y-62910D01*
X76700Y-63910D01*
X76631Y-63745D01*
X76505Y-63618D01*
X76339Y-63550D01*
X76160Y-63549D01*
X75995Y-63618D01*
X75868Y-63744D01*
X75800Y-63910D01*
X75799Y-64089D01*
X75868Y-64254D01*
X75994Y-64381D01*
X76160Y-64449D01*
X76339Y-64450D01*
X76504Y-64381D01*
X76631Y-64255D01*
X76699Y-64089D01*
X76700Y-63910D01*
X76700Y-64910D01*
X76631Y-64745D01*
X76505Y-64618D01*
X76339Y-64550D01*
X76160Y-64549D01*
X75995Y-64618D01*
X75868Y-64744D01*
X75800Y-64910D01*
X75799Y-65089D01*
X75868Y-65254D01*
X75994Y-65381D01*
X76160Y-65449D01*
X76339Y-65450D01*
X76504Y-65381D01*
X76631Y-65255D01*
X76699Y-65089D01*
X76700Y-64910D01*
X76700Y-68830D01*
X76700Y-68830D01*
X76700Y-66270D01*
X76700Y-65670D01*
X76677Y-65615D01*
X76635Y-65572D01*
X76579Y-65550D01*
X76520Y-65549D01*
X75920Y-65549D01*
X75865Y-65572D01*
X75822Y-65614D01*
X75800Y-65670D01*
X75799Y-65729D01*
X75799Y-66329D01*
X75822Y-66384D01*
X75864Y-66427D01*
X75920Y-66449D01*
X75979Y-66450D01*
X76579Y-66450D01*
X76634Y-66427D01*
X76677Y-66385D01*
X76699Y-66329D01*
X76700Y-66270D01*
X76700Y-68830D01*
X75767Y-68830D01*
X75720Y-68821D01*
X75695Y-68804D01*
X75678Y-68779D01*
X75669Y-68733D01*
X75669Y-59250D01*
X75681Y-59212D01*
X75700Y-59189D01*
X75727Y-59175D01*
X75783Y-59169D01*
X92183Y-59169D01*
X92229Y-59178D01*
X92254Y-59195D01*
X92271Y-59220D01*
X92280Y-59267D01*
X92280Y-61767D01*
X92208Y-61695D01*
X92063Y-61635D01*
X91905Y-61635D01*
X91760Y-61695D01*
X91648Y-61806D01*
X91588Y-61952D01*
X91588Y-62109D01*
X91648Y-62255D01*
X91759Y-62367D01*
X91905Y-62427D01*
X92062Y-62427D01*
X92208Y-62367D01*
X92280Y-62295D01*
X92280Y-65704D01*
X92208Y-65632D01*
X92063Y-65572D01*
X91905Y-65572D01*
X91824Y-65606D01*
X91824Y-64146D01*
X91817Y-63819D01*
X91705Y-63549D01*
X91581Y-63488D01*
X91511Y-63559D01*
X91511Y-63418D01*
X91450Y-63294D01*
X91396Y-63273D01*
X91396Y-61953D01*
X91335Y-61807D01*
X91224Y-61695D01*
X91079Y-61635D01*
X90921Y-61635D01*
X90775Y-61695D01*
X90664Y-61806D01*
X90604Y-61952D01*
X90603Y-62109D01*
X90664Y-62255D01*
X90775Y-62367D01*
X90920Y-62427D01*
X91078Y-62427D01*
X91224Y-62367D01*
X91335Y-62256D01*
X91395Y-62110D01*
X91396Y-61953D01*
X91396Y-63273D01*
X91146Y-63175D01*
X90819Y-63182D01*
X90549Y-63294D01*
X90488Y-63418D01*
X91000Y-63929D01*
X91511Y-63418D01*
X91511Y-63559D01*
X91070Y-64000D01*
X91581Y-64511D01*
X91705Y-64450D01*
X91824Y-64146D01*
X91824Y-65606D01*
X91760Y-65632D01*
X91648Y-65743D01*
X91588Y-65889D01*
X91588Y-66046D01*
X91648Y-66192D01*
X91759Y-66304D01*
X91905Y-66364D01*
X92062Y-66364D01*
X92208Y-66304D01*
X92280Y-66232D01*
X92280Y-68732D01*
M02*
