M48
INCH,LZ
T1C0.032
T2C0.040
T3C0.075
%
G90
G05
T1
X0785Y-06225
X0785Y-06575
X08Y-0605
X08Y-0625
X08Y-0655
X08Y-0675
X081Y-0605
X081Y-0625
X081Y-0655
X082Y-0625
X082Y-0655
X082Y-0675
X083Y-0625
X083Y-0655
X08425Y-0605
X08425Y-0675
X085Y-063
X085Y-065
X087Y-063
X087Y-065
X08775Y-0605
X08775Y-0675
T2
X07625Y-062
X07625Y-063
X07625Y-064
X07625Y-065
X07625Y-066
T3
X089031Y-062031
X089031Y-065969
X091Y-064
T0
M30
