G04 (created by PCBNEW (2013-07-07 BZR 4022)-stable) date 1/29/2015 5:28:15 PM*
%MOIN*%
G04 Gerber Fmt 3.4, Leading zero omitted, Abs format*
%FSLAX34Y34*%
G01*
G70*
G90*
G04 APERTURE LIST*
%ADD10C,0.00590551*%
%ADD11C,0.0001*%
G04 APERTURE END LIST*
G54D10*
G54D11*
G36*
X80651Y-63953D02*
X80660Y-64261D01*
X80696Y-64567D01*
X80758Y-64870D01*
X80846Y-65167D01*
X80960Y-65458D01*
X81101Y-65741D01*
X81269Y-66013D01*
X81462Y-66273D01*
X81526Y-66349D01*
X81743Y-66582D01*
X81976Y-66790D01*
X82187Y-66947D01*
X82187Y-64971D01*
X82207Y-64941D01*
X82209Y-64939D01*
X82242Y-64904D01*
X82350Y-65014D01*
X82403Y-65067D01*
X82441Y-65100D01*
X82471Y-65118D01*
X82497Y-65125D01*
X82506Y-65125D01*
X82559Y-65112D01*
X82600Y-65072D01*
X82618Y-65036D01*
X82623Y-65011D01*
X82628Y-64960D01*
X82633Y-64889D01*
X82638Y-64800D01*
X82642Y-64700D01*
X82645Y-64608D01*
X82649Y-64479D01*
X82653Y-64377D01*
X82658Y-64296D01*
X82664Y-64233D01*
X82673Y-64183D01*
X82684Y-64142D01*
X82698Y-64106D01*
X82716Y-64071D01*
X82726Y-64054D01*
X82784Y-63973D01*
X82859Y-63906D01*
X82954Y-63851D01*
X83070Y-63805D01*
X83210Y-63769D01*
X83350Y-63744D01*
X83431Y-63732D01*
X83482Y-63723D01*
X83505Y-63714D01*
X83501Y-63702D01*
X83471Y-63686D01*
X83414Y-63662D01*
X83380Y-63649D01*
X83221Y-63581D01*
X83088Y-63514D01*
X82974Y-63446D01*
X82877Y-63375D01*
X82792Y-63298D01*
X82767Y-63272D01*
X82687Y-63176D01*
X82626Y-63076D01*
X82583Y-62968D01*
X82554Y-62845D01*
X82540Y-62703D01*
X82536Y-62582D01*
X82540Y-62435D01*
X82554Y-62311D01*
X82581Y-62201D01*
X82622Y-62101D01*
X82681Y-62003D01*
X82758Y-61900D01*
X82782Y-61872D01*
X82836Y-61813D01*
X82900Y-61749D01*
X82970Y-61684D01*
X83040Y-61623D01*
X83108Y-61569D01*
X83168Y-61524D01*
X83217Y-61493D01*
X83249Y-61480D01*
X83253Y-61480D01*
X83267Y-61491D01*
X83297Y-61520D01*
X83339Y-61565D01*
X83388Y-61621D01*
X83409Y-61646D01*
X83474Y-61721D01*
X83541Y-61793D01*
X83614Y-61867D01*
X83695Y-61943D01*
X83787Y-62028D01*
X83894Y-62122D01*
X84020Y-62228D01*
X84137Y-62326D01*
X84438Y-62576D01*
X84447Y-62249D01*
X84451Y-62118D01*
X84457Y-62013D01*
X84465Y-61929D01*
X84477Y-61863D01*
X84492Y-61811D01*
X84512Y-61768D01*
X84538Y-61730D01*
X84553Y-61711D01*
X84596Y-61668D01*
X84643Y-61634D01*
X84698Y-61609D01*
X84764Y-61592D01*
X84846Y-61582D01*
X84945Y-61579D01*
X85067Y-61581D01*
X85214Y-61590D01*
X85240Y-61592D01*
X85407Y-61602D01*
X85547Y-61610D01*
X85662Y-61614D01*
X85755Y-61614D01*
X85828Y-61610D01*
X85884Y-61601D01*
X85927Y-61588D01*
X85957Y-61570D01*
X85978Y-61547D01*
X85992Y-61518D01*
X85993Y-61516D01*
X86013Y-61478D01*
X86040Y-61465D01*
X86044Y-61465D01*
X86063Y-61471D01*
X86077Y-61491D01*
X86086Y-61529D01*
X86092Y-61588D01*
X86095Y-61671D01*
X86095Y-61720D01*
X86090Y-61885D01*
X86076Y-62033D01*
X86054Y-62159D01*
X86024Y-62261D01*
X85987Y-62339D01*
X85957Y-62376D01*
X85923Y-62407D01*
X85889Y-62430D01*
X85852Y-62448D01*
X85807Y-62461D01*
X85749Y-62471D01*
X85673Y-62477D01*
X85576Y-62481D01*
X85461Y-62484D01*
X85432Y-62495D01*
X85405Y-62515D01*
X85395Y-62527D01*
X85387Y-62543D01*
X85382Y-62567D01*
X85378Y-62603D01*
X85376Y-62656D01*
X85375Y-62730D01*
X85375Y-62829D01*
X85375Y-62838D01*
X85375Y-63130D01*
X85469Y-63130D01*
X85537Y-63133D01*
X85614Y-63139D01*
X85664Y-63145D01*
X85765Y-63168D01*
X85849Y-63205D01*
X85919Y-63260D01*
X85974Y-63333D01*
X86018Y-63426D01*
X86049Y-63542D01*
X86068Y-63682D01*
X86078Y-63847D01*
X86080Y-63957D01*
X86080Y-64195D01*
X86045Y-64195D01*
X86028Y-64193D01*
X86016Y-64182D01*
X86007Y-64156D01*
X85999Y-64110D01*
X85995Y-64075D01*
X85983Y-64001D01*
X85966Y-63944D01*
X85941Y-63901D01*
X85903Y-63870D01*
X85850Y-63850D01*
X85776Y-63837D01*
X85680Y-63829D01*
X85598Y-63824D01*
X85373Y-63815D01*
X85378Y-64169D01*
X85380Y-64287D01*
X85381Y-64378D01*
X85385Y-64450D01*
X85393Y-64504D01*
X85407Y-64546D01*
X85427Y-64581D01*
X85456Y-64613D01*
X85496Y-64646D01*
X85547Y-64684D01*
X85574Y-64705D01*
X85635Y-64752D01*
X85692Y-64798D01*
X85739Y-64837D01*
X85758Y-64855D01*
X85840Y-64946D01*
X85919Y-65060D01*
X85991Y-65188D01*
X86051Y-65322D01*
X86082Y-65411D01*
X86107Y-65521D01*
X86118Y-65647D01*
X86116Y-65779D01*
X86100Y-65907D01*
X86082Y-65985D01*
X86023Y-66148D01*
X85939Y-66297D01*
X85835Y-66428D01*
X85713Y-66539D01*
X85574Y-66628D01*
X85497Y-66663D01*
X85353Y-66708D01*
X85192Y-66736D01*
X85024Y-66745D01*
X84854Y-66734D01*
X84816Y-66728D01*
X84678Y-66697D01*
X84537Y-66647D01*
X84406Y-66584D01*
X84351Y-66551D01*
X84252Y-66476D01*
X84153Y-66384D01*
X84061Y-66282D01*
X83984Y-66177D01*
X83936Y-66096D01*
X83890Y-65998D01*
X83860Y-65911D01*
X83841Y-65824D01*
X83832Y-65726D01*
X83830Y-65639D01*
X83830Y-65470D01*
X83886Y-65470D01*
X83943Y-65470D01*
X83944Y-65616D01*
X83951Y-65731D01*
X83971Y-65826D01*
X84007Y-65908D01*
X84061Y-65987D01*
X84095Y-66025D01*
X84200Y-66120D01*
X84319Y-66191D01*
X84422Y-66230D01*
X84450Y-66237D01*
X84480Y-66244D01*
X84516Y-66248D01*
X84562Y-66252D01*
X84621Y-66254D01*
X84696Y-66256D01*
X84792Y-66257D01*
X84912Y-66257D01*
X85023Y-66257D01*
X85165Y-66257D01*
X85282Y-66256D01*
X85375Y-66255D01*
X85450Y-66253D01*
X85508Y-66250D01*
X85555Y-66246D01*
X85592Y-66240D01*
X85625Y-66233D01*
X85634Y-66231D01*
X85766Y-66188D01*
X85870Y-66134D01*
X85948Y-66067D01*
X86001Y-65986D01*
X86029Y-65891D01*
X86035Y-65815D01*
X86023Y-65708D01*
X85988Y-65620D01*
X85928Y-65546D01*
X85842Y-65487D01*
X85814Y-65473D01*
X85772Y-65454D01*
X85734Y-65443D01*
X85691Y-65436D01*
X85636Y-65433D01*
X85563Y-65433D01*
X85449Y-65437D01*
X85346Y-65453D01*
X85250Y-65481D01*
X85157Y-65525D01*
X85062Y-65586D01*
X84960Y-65667D01*
X84848Y-65769D01*
X84805Y-65810D01*
X84741Y-65872D01*
X84694Y-65915D01*
X84662Y-65940D01*
X84642Y-65949D01*
X84631Y-65946D01*
X84618Y-65931D01*
X84587Y-65896D01*
X84539Y-65844D01*
X84479Y-65776D01*
X84406Y-65695D01*
X84324Y-65602D01*
X84234Y-65502D01*
X84147Y-65405D01*
X83681Y-64882D01*
X83706Y-64844D01*
X83732Y-64805D01*
X83901Y-64984D01*
X84070Y-65162D01*
X84070Y-64476D01*
X84070Y-63790D01*
X83954Y-63790D01*
X83849Y-63798D01*
X83765Y-63822D01*
X83699Y-63866D01*
X83643Y-63933D01*
X83607Y-64000D01*
X83567Y-64082D01*
X83560Y-64735D01*
X83558Y-64899D01*
X83557Y-65035D01*
X83554Y-65148D01*
X83551Y-65238D01*
X83547Y-65311D01*
X83541Y-65369D01*
X83534Y-65413D01*
X83524Y-65449D01*
X83511Y-65478D01*
X83495Y-65503D01*
X83476Y-65527D01*
X83452Y-65553D01*
X83446Y-65559D01*
X83419Y-65587D01*
X83377Y-65627D01*
X83323Y-65676D01*
X83264Y-65730D01*
X83201Y-65786D01*
X83139Y-65839D01*
X83083Y-65887D01*
X83036Y-65926D01*
X83002Y-65953D01*
X82985Y-65963D01*
X82985Y-65963D01*
X82975Y-65951D01*
X82947Y-65917D01*
X82905Y-65866D01*
X82850Y-65799D01*
X82784Y-65718D01*
X82710Y-65627D01*
X82628Y-65527D01*
X82593Y-65485D01*
X82508Y-65382D01*
X82430Y-65286D01*
X82359Y-65199D01*
X82297Y-65124D01*
X82248Y-65063D01*
X82213Y-65020D01*
X82193Y-64997D01*
X82191Y-64993D01*
X82187Y-64971D01*
X82187Y-66947D01*
X82227Y-66977D01*
X82495Y-67143D01*
X82771Y-67282D01*
X83062Y-67397D01*
X83364Y-67487D01*
X83674Y-67551D01*
X83988Y-67588D01*
X84302Y-67599D01*
X84580Y-67584D01*
X84903Y-67538D01*
X85218Y-67465D01*
X85523Y-67365D01*
X85817Y-67239D01*
X86098Y-67088D01*
X86364Y-66913D01*
X86613Y-66715D01*
X86844Y-66495D01*
X87055Y-66255D01*
X87218Y-66034D01*
X87391Y-65753D01*
X87537Y-65461D01*
X87656Y-65160D01*
X87746Y-64853D01*
X87809Y-64540D01*
X87843Y-64224D01*
X87849Y-63906D01*
X87826Y-63588D01*
X87775Y-63271D01*
X87695Y-62958D01*
X87585Y-62649D01*
X87535Y-62530D01*
X87389Y-62238D01*
X87218Y-61963D01*
X87022Y-61705D01*
X86802Y-61463D01*
X86600Y-61276D01*
X86343Y-61074D01*
X86072Y-60897D01*
X85789Y-60747D01*
X85497Y-60624D01*
X85195Y-60527D01*
X84888Y-60458D01*
X84576Y-60416D01*
X84261Y-60401D01*
X83944Y-60414D01*
X83629Y-60455D01*
X83316Y-60525D01*
X83007Y-60623D01*
X82780Y-60715D01*
X82488Y-60861D01*
X82213Y-61032D01*
X81955Y-61228D01*
X81713Y-61448D01*
X81526Y-61650D01*
X81325Y-61907D01*
X81149Y-62175D01*
X81001Y-62455D01*
X80878Y-62743D01*
X80782Y-63039D01*
X80712Y-63341D01*
X80668Y-63646D01*
X80651Y-63953D01*
X80651Y-63953D01*
X80651Y-63953D01*
G37*
G36*
X84162Y-64094D02*
X84163Y-64284D01*
X84164Y-64411D01*
X84168Y-65063D01*
X84227Y-65017D01*
X84426Y-64885D01*
X84631Y-64779D01*
X84844Y-64702D01*
X85060Y-64653D01*
X85149Y-64642D01*
X85334Y-64624D01*
X85268Y-64596D01*
X85167Y-64559D01*
X85049Y-64527D01*
X84922Y-64500D01*
X84794Y-64482D01*
X84674Y-64471D01*
X84570Y-64470D01*
X84539Y-64473D01*
X84445Y-64482D01*
X84444Y-63585D01*
X84444Y-62687D01*
X84305Y-62573D01*
X84168Y-62457D01*
X84164Y-63109D01*
X84163Y-63281D01*
X84162Y-63475D01*
X84162Y-63681D01*
X84162Y-63890D01*
X84162Y-64094D01*
X84162Y-64094D01*
X84162Y-64094D01*
G37*
G36*
X83455Y-62922D02*
X83464Y-63104D01*
X83492Y-63262D01*
X83538Y-63396D01*
X83603Y-63507D01*
X83687Y-63595D01*
X83721Y-63621D01*
X83792Y-63659D01*
X83878Y-63690D01*
X83964Y-63710D01*
X84021Y-63715D01*
X84070Y-63715D01*
X84066Y-63044D01*
X84062Y-62374D01*
X83998Y-62328D01*
X83955Y-62302D01*
X83916Y-62288D01*
X83867Y-62284D01*
X83840Y-62284D01*
X83756Y-62292D01*
X83689Y-62317D01*
X83628Y-62364D01*
X83611Y-62382D01*
X83548Y-62467D01*
X83502Y-62571D01*
X83471Y-62696D01*
X83457Y-62845D01*
X83455Y-62922D01*
X83455Y-62922D01*
X83455Y-62922D01*
G37*
M02*
