M48
INCH,TZ
T10C0.032
T11C0.040
T12C0.075
T13C0.047
%
T10
X078500Y-62250
X078500Y-65750
X080000Y-60500
X080000Y-62500
X080000Y-65500
X080000Y-67500
X081000Y-60500
X081000Y-62500
X081000Y-65500
X082000Y-62500
X082000Y-65500
X082000Y-67500
X083000Y-62500
X083000Y-65500
X084250Y-60500
X084250Y-67500
X085000Y-63000
X085000Y-65000
X087000Y-63000
X087000Y-65000
X087750Y-60500
X087750Y-67500
T11
X076250Y-62000
X076250Y-63000
X076250Y-64000
X076250Y-65000
X076250Y-66000
T12
X089031Y-62031
X089031Y-65969
X091000Y-64000
T13
X089031Y-64000
X091000Y-62031
X091000Y-65969
X091984Y-62031
X091984Y-65969
M30

