G04 (created by PCBNEW (2013-07-07 BZR 4022)-stable) date 1/29/2015 5:28:15 PM*
%MOIN*%
G04 Gerber Fmt 3.4, Leading zero omitted, Abs format*
%FSLAX34Y34*%
G01*
G70*
G90*
G04 APERTURE LIST*
%ADD10C,0.00590551*%
%ADD11C,0.0001*%
%ADD12R,0.055X0.055*%
%ADD13C,0.055*%
%ADD14C,0.114173*%
%ADD15C,0.0492126*%
%ADD16R,0.06X0.06*%
%ADD17C,0.06*%
%ADD18C,0.01*%
G04 APERTURE END LIST*
G54D10*
G54D11*
G36*
X78660Y-67588D02*
X78657Y-67670D01*
X78648Y-67751D01*
X78631Y-67832D01*
X78608Y-67911D01*
X78577Y-67989D01*
X78540Y-68064D01*
X78495Y-68137D01*
X78443Y-68206D01*
X78426Y-68227D01*
X78368Y-68288D01*
X78306Y-68344D01*
X78250Y-68386D01*
X78250Y-67859D01*
X78245Y-67851D01*
X78244Y-67850D01*
X78236Y-67841D01*
X78207Y-67870D01*
X78193Y-67884D01*
X78182Y-67893D01*
X78174Y-67898D01*
X78168Y-67900D01*
X78165Y-67900D01*
X78151Y-67897D01*
X78140Y-67886D01*
X78135Y-67876D01*
X78134Y-67870D01*
X78133Y-67856D01*
X78131Y-67837D01*
X78130Y-67813D01*
X78129Y-67787D01*
X78128Y-67762D01*
X78127Y-67728D01*
X78126Y-67701D01*
X78125Y-67679D01*
X78123Y-67662D01*
X78121Y-67649D01*
X78118Y-67638D01*
X78114Y-67628D01*
X78109Y-67619D01*
X78106Y-67614D01*
X78091Y-67593D01*
X78071Y-67575D01*
X78046Y-67560D01*
X78015Y-67548D01*
X77977Y-67538D01*
X77940Y-67532D01*
X77919Y-67529D01*
X77905Y-67526D01*
X77899Y-67524D01*
X77900Y-67521D01*
X77908Y-67516D01*
X77923Y-67510D01*
X77932Y-67506D01*
X77974Y-67488D01*
X78010Y-67470D01*
X78040Y-67452D01*
X78066Y-67433D01*
X78089Y-67413D01*
X78096Y-67406D01*
X78117Y-67380D01*
X78133Y-67354D01*
X78145Y-67325D01*
X78152Y-67292D01*
X78156Y-67254D01*
X78157Y-67222D01*
X78156Y-67183D01*
X78152Y-67150D01*
X78145Y-67120D01*
X78134Y-67094D01*
X78118Y-67067D01*
X78098Y-67040D01*
X78092Y-67033D01*
X78077Y-67017D01*
X78060Y-67000D01*
X78041Y-66982D01*
X78023Y-66966D01*
X78005Y-66952D01*
X77988Y-66940D01*
X77976Y-66932D01*
X77967Y-66928D01*
X77966Y-66928D01*
X77962Y-66931D01*
X77954Y-66939D01*
X77943Y-66951D01*
X77930Y-66966D01*
X77924Y-66972D01*
X77907Y-66992D01*
X77889Y-67012D01*
X77870Y-67031D01*
X77848Y-67052D01*
X77823Y-67074D01*
X77795Y-67099D01*
X77761Y-67128D01*
X77730Y-67154D01*
X77650Y-67220D01*
X77648Y-67133D01*
X77646Y-67098D01*
X77645Y-67070D01*
X77643Y-67048D01*
X77640Y-67030D01*
X77636Y-67016D01*
X77630Y-67005D01*
X77623Y-66995D01*
X77619Y-66990D01*
X77608Y-66978D01*
X77595Y-66969D01*
X77580Y-66962D01*
X77563Y-66958D01*
X77541Y-66955D01*
X77515Y-66954D01*
X77482Y-66955D01*
X77443Y-66957D01*
X77436Y-66958D01*
X77391Y-66961D01*
X77354Y-66963D01*
X77324Y-66964D01*
X77299Y-66964D01*
X77279Y-66963D01*
X77264Y-66960D01*
X77253Y-66957D01*
X77245Y-66952D01*
X77239Y-66946D01*
X77235Y-66938D01*
X77235Y-66938D01*
X77230Y-66928D01*
X77223Y-66924D01*
X77222Y-66924D01*
X77217Y-66926D01*
X77213Y-66931D01*
X77210Y-66941D01*
X77209Y-66957D01*
X77208Y-66979D01*
X77208Y-66992D01*
X77209Y-67036D01*
X77213Y-67075D01*
X77219Y-67109D01*
X77227Y-67136D01*
X77237Y-67157D01*
X77245Y-67167D01*
X77254Y-67175D01*
X77263Y-67181D01*
X77273Y-67186D01*
X77285Y-67190D01*
X77300Y-67192D01*
X77321Y-67194D01*
X77346Y-67195D01*
X77377Y-67196D01*
X77385Y-67199D01*
X77392Y-67204D01*
X77395Y-67207D01*
X77397Y-67211D01*
X77398Y-67218D01*
X77399Y-67227D01*
X77400Y-67242D01*
X77400Y-67261D01*
X77400Y-67288D01*
X77400Y-67290D01*
X77400Y-67368D01*
X77375Y-67368D01*
X77357Y-67369D01*
X77336Y-67370D01*
X77323Y-67372D01*
X77296Y-67378D01*
X77274Y-67388D01*
X77255Y-67403D01*
X77240Y-67422D01*
X77229Y-67447D01*
X77220Y-67478D01*
X77215Y-67515D01*
X77212Y-67559D01*
X77212Y-67588D01*
X77212Y-67652D01*
X77221Y-67652D01*
X77226Y-67651D01*
X77229Y-67648D01*
X77231Y-67642D01*
X77234Y-67629D01*
X77235Y-67620D01*
X77238Y-67600D01*
X77242Y-67585D01*
X77249Y-67574D01*
X77259Y-67565D01*
X77273Y-67560D01*
X77293Y-67556D01*
X77319Y-67554D01*
X77340Y-67553D01*
X77400Y-67551D01*
X77399Y-67645D01*
X77399Y-67676D01*
X77398Y-67701D01*
X77397Y-67720D01*
X77395Y-67734D01*
X77392Y-67746D01*
X77386Y-67755D01*
X77378Y-67763D01*
X77368Y-67772D01*
X77354Y-67783D01*
X77347Y-67788D01*
X77331Y-67800D01*
X77315Y-67813D01*
X77303Y-67823D01*
X77298Y-67828D01*
X77276Y-67852D01*
X77255Y-67883D01*
X77236Y-67917D01*
X77220Y-67953D01*
X77211Y-67976D01*
X77205Y-68005D01*
X77202Y-68039D01*
X77202Y-68074D01*
X77207Y-68109D01*
X77211Y-68129D01*
X77227Y-68173D01*
X77250Y-68212D01*
X77277Y-68248D01*
X77310Y-68277D01*
X77347Y-68301D01*
X77367Y-68310D01*
X77406Y-68322D01*
X77449Y-68329D01*
X77494Y-68332D01*
X77539Y-68329D01*
X77549Y-68328D01*
X77586Y-68319D01*
X77623Y-68306D01*
X77658Y-68289D01*
X77673Y-68280D01*
X77699Y-68260D01*
X77726Y-68236D01*
X77750Y-68208D01*
X77771Y-68180D01*
X77784Y-68159D01*
X77796Y-68133D01*
X77804Y-68110D01*
X77809Y-68086D01*
X77811Y-68060D01*
X77812Y-68037D01*
X77812Y-67992D01*
X77797Y-67992D01*
X77782Y-67992D01*
X77782Y-68031D01*
X77780Y-68062D01*
X77774Y-68087D01*
X77765Y-68109D01*
X77750Y-68130D01*
X77741Y-68140D01*
X77713Y-68165D01*
X77682Y-68184D01*
X77654Y-68195D01*
X77647Y-68197D01*
X77639Y-68198D01*
X77629Y-68200D01*
X77617Y-68200D01*
X77601Y-68201D01*
X77581Y-68202D01*
X77555Y-68202D01*
X77524Y-68202D01*
X77494Y-68202D01*
X77456Y-68202D01*
X77425Y-68202D01*
X77400Y-68201D01*
X77380Y-68201D01*
X77364Y-68200D01*
X77352Y-68199D01*
X77342Y-68197D01*
X77333Y-68196D01*
X77331Y-68195D01*
X77296Y-68184D01*
X77268Y-68169D01*
X77247Y-68151D01*
X77233Y-68130D01*
X77226Y-68104D01*
X77224Y-68084D01*
X77227Y-68056D01*
X77237Y-68032D01*
X77253Y-68012D01*
X77276Y-67996D01*
X77283Y-67993D01*
X77294Y-67988D01*
X77304Y-67985D01*
X77316Y-67983D01*
X77331Y-67982D01*
X77350Y-67982D01*
X77380Y-67983D01*
X77408Y-67987D01*
X77433Y-67995D01*
X77458Y-68007D01*
X77484Y-68023D01*
X77511Y-68044D01*
X77541Y-68072D01*
X77552Y-68083D01*
X77569Y-68099D01*
X77582Y-68111D01*
X77590Y-68117D01*
X77596Y-68120D01*
X77598Y-68119D01*
X77602Y-68115D01*
X77610Y-68106D01*
X77623Y-68092D01*
X77639Y-68074D01*
X77658Y-68052D01*
X77680Y-68027D01*
X77704Y-68000D01*
X77727Y-67975D01*
X77852Y-67835D01*
X77845Y-67825D01*
X77838Y-67815D01*
X77793Y-67862D01*
X77748Y-67910D01*
X77748Y-67727D01*
X77748Y-67544D01*
X77779Y-67544D01*
X77807Y-67546D01*
X77829Y-67553D01*
X77847Y-67564D01*
X77862Y-67582D01*
X77871Y-67600D01*
X77882Y-67622D01*
X77884Y-67796D01*
X77884Y-67840D01*
X77885Y-67876D01*
X77886Y-67906D01*
X77886Y-67930D01*
X77887Y-67950D01*
X77889Y-67965D01*
X77891Y-67977D01*
X77894Y-67986D01*
X77897Y-67994D01*
X77901Y-68001D01*
X77907Y-68007D01*
X77913Y-68014D01*
X77914Y-68016D01*
X77922Y-68023D01*
X77933Y-68034D01*
X77947Y-68047D01*
X77963Y-68061D01*
X77980Y-68076D01*
X77996Y-68090D01*
X78011Y-68103D01*
X78024Y-68114D01*
X78033Y-68121D01*
X78037Y-68124D01*
X78037Y-68124D01*
X78040Y-68120D01*
X78047Y-68111D01*
X78059Y-68098D01*
X78073Y-68080D01*
X78091Y-68058D01*
X78111Y-68034D01*
X78133Y-68007D01*
X78142Y-67996D01*
X78164Y-67969D01*
X78185Y-67943D01*
X78204Y-67920D01*
X78221Y-67900D01*
X78234Y-67884D01*
X78243Y-67872D01*
X78248Y-67866D01*
X78249Y-67865D01*
X78250Y-67859D01*
X78250Y-68386D01*
X78240Y-68394D01*
X78168Y-68438D01*
X78094Y-68475D01*
X78017Y-68506D01*
X77936Y-68530D01*
X77853Y-68547D01*
X77770Y-68557D01*
X77686Y-68560D01*
X77612Y-68556D01*
X77526Y-68544D01*
X77442Y-68524D01*
X77361Y-68497D01*
X77282Y-68464D01*
X77207Y-68423D01*
X77136Y-68377D01*
X77070Y-68324D01*
X77008Y-68265D01*
X76952Y-68201D01*
X76909Y-68143D01*
X76862Y-68067D01*
X76823Y-67990D01*
X76792Y-67909D01*
X76768Y-67827D01*
X76751Y-67744D01*
X76742Y-67660D01*
X76740Y-67575D01*
X76746Y-67490D01*
X76760Y-67406D01*
X76781Y-67322D01*
X76811Y-67240D01*
X76824Y-67208D01*
X76863Y-67130D01*
X76909Y-67057D01*
X76961Y-66988D01*
X77019Y-66924D01*
X77073Y-66874D01*
X77142Y-66820D01*
X77214Y-66773D01*
X77290Y-66733D01*
X77368Y-66700D01*
X77448Y-66674D01*
X77530Y-66655D01*
X77613Y-66644D01*
X77697Y-66640D01*
X77781Y-66644D01*
X77866Y-66655D01*
X77949Y-66673D01*
X78032Y-66700D01*
X78092Y-66724D01*
X78170Y-66763D01*
X78243Y-66809D01*
X78312Y-66861D01*
X78376Y-66919D01*
X78426Y-66973D01*
X78480Y-67042D01*
X78527Y-67113D01*
X78567Y-67188D01*
X78599Y-67265D01*
X78625Y-67344D01*
X78643Y-67424D01*
X78655Y-67506D01*
X78660Y-67588D01*
X78660Y-67588D01*
X78660Y-67588D01*
G37*
G36*
X77723Y-67625D02*
X77723Y-67676D01*
X77723Y-67710D01*
X77722Y-67883D01*
X77706Y-67871D01*
X77653Y-67836D01*
X77598Y-67808D01*
X77542Y-67787D01*
X77484Y-67774D01*
X77460Y-67771D01*
X77411Y-67766D01*
X77429Y-67759D01*
X77455Y-67749D01*
X77487Y-67741D01*
X77521Y-67733D01*
X77555Y-67728D01*
X77587Y-67726D01*
X77615Y-67725D01*
X77623Y-67726D01*
X77648Y-67729D01*
X77648Y-67489D01*
X77648Y-67250D01*
X77685Y-67219D01*
X77722Y-67189D01*
X77723Y-67362D01*
X77723Y-67408D01*
X77723Y-67460D01*
X77723Y-67515D01*
X77723Y-67571D01*
X77723Y-67625D01*
X77723Y-67625D01*
X77723Y-67625D01*
G37*
G36*
X77912Y-67313D02*
X77910Y-67361D01*
X77902Y-67403D01*
X77890Y-67439D01*
X77873Y-67469D01*
X77850Y-67492D01*
X77841Y-67499D01*
X77822Y-67509D01*
X77799Y-67517D01*
X77776Y-67523D01*
X77761Y-67524D01*
X77748Y-67524D01*
X77749Y-67345D01*
X77750Y-67166D01*
X77767Y-67154D01*
X77779Y-67147D01*
X77789Y-67143D01*
X77802Y-67142D01*
X77809Y-67142D01*
X77832Y-67144D01*
X77850Y-67151D01*
X77866Y-67164D01*
X77871Y-67169D01*
X77887Y-67191D01*
X77900Y-67219D01*
X77908Y-67252D01*
X77911Y-67292D01*
X77912Y-67313D01*
X77912Y-67313D01*
X77912Y-67313D01*
G37*
G54D12*
X80000Y-65500D03*
G54D13*
X81000Y-65500D03*
X82000Y-65500D03*
X83000Y-65500D03*
X83000Y-62500D03*
X82000Y-62500D03*
X81000Y-62500D03*
X80000Y-62500D03*
X82000Y-67500D03*
X80000Y-67500D03*
X85000Y-63000D03*
X85000Y-65000D03*
X87000Y-65000D03*
X87000Y-63000D03*
G54D14*
X91000Y-64000D03*
X89031Y-62031D03*
X89031Y-65968D03*
G54D15*
X89031Y-64000D03*
X91000Y-65968D03*
X91000Y-62031D03*
X91984Y-62031D03*
X91984Y-65968D03*
G54D13*
X78500Y-62250D03*
X78500Y-65750D03*
X84250Y-60500D03*
X87750Y-60500D03*
X84250Y-67500D03*
X87750Y-67500D03*
G54D16*
X76250Y-66000D03*
G54D17*
X76250Y-65000D03*
X76250Y-64000D03*
X76250Y-63000D03*
X76250Y-62000D03*
G54D13*
X80000Y-60500D03*
X81000Y-60500D03*
G54D18*
X85000Y-62750D02*
X85000Y-62250D01*
X82000Y-62000D02*
X82000Y-62500D01*
X82250Y-61750D02*
X82000Y-62000D01*
X84500Y-61750D02*
X82250Y-61750D01*
X85000Y-62250D02*
X84500Y-61750D01*
X78500Y-62250D02*
X79750Y-62250D01*
X79750Y-62250D02*
X80000Y-62500D01*
X80000Y-62500D02*
X80000Y-60500D01*
X87500Y-60500D02*
X88750Y-60500D01*
X89031Y-60781D02*
X89031Y-62031D01*
X88750Y-60500D02*
X89031Y-60781D01*
X87000Y-65000D02*
X86500Y-65000D01*
X83000Y-63700D02*
X83000Y-62500D01*
X83300Y-64000D02*
X83000Y-63700D01*
X86000Y-64000D02*
X83300Y-64000D01*
X86300Y-64300D02*
X86000Y-64000D01*
X86300Y-64800D02*
X86300Y-64300D01*
X86500Y-65000D02*
X86300Y-64800D01*
X84250Y-67500D02*
X84250Y-66700D01*
X84700Y-66500D02*
X87500Y-66500D01*
X87500Y-66500D02*
X87800Y-66200D01*
X87800Y-66200D02*
X87800Y-63200D01*
X87800Y-63200D02*
X87600Y-63000D01*
X87600Y-63000D02*
X87000Y-63000D01*
X84450Y-66500D02*
X84700Y-66500D01*
X84250Y-66700D02*
X84450Y-66500D01*
X86500Y-63000D02*
X86200Y-62700D01*
X84500Y-61000D02*
X84500Y-60500D01*
X84700Y-61200D02*
X84500Y-61000D01*
X86000Y-61200D02*
X84700Y-61200D01*
X86200Y-61400D02*
X86000Y-61200D01*
X86200Y-62700D02*
X86200Y-61400D01*
X86500Y-63000D02*
X87000Y-63000D01*
X87750Y-67500D02*
X88750Y-67500D01*
X88750Y-67500D02*
X89031Y-67218D01*
X89031Y-67218D02*
X89031Y-65968D01*
X82000Y-65000D02*
X82000Y-64800D01*
X82000Y-65500D02*
X82000Y-65000D01*
X76900Y-65000D02*
X76250Y-65000D01*
X77500Y-64400D02*
X76900Y-65000D01*
X81600Y-64400D02*
X77500Y-64400D01*
X82000Y-64800D02*
X81600Y-64400D01*
X81000Y-62500D02*
X81000Y-63000D01*
X77000Y-63000D02*
X76250Y-63000D01*
X77250Y-63250D02*
X77000Y-63000D01*
X80750Y-63250D02*
X77250Y-63250D01*
X81000Y-63000D02*
X80750Y-63250D01*
X82750Y-64250D02*
X82500Y-64000D01*
X83000Y-64500D02*
X82750Y-64250D01*
X83000Y-65500D02*
X83000Y-64750D01*
X83000Y-64750D02*
X83000Y-64500D01*
X82500Y-64000D02*
X76250Y-64000D01*
G54D10*
G36*
X92280Y-68732D02*
X92271Y-68779D01*
X92254Y-68804D01*
X92229Y-68821D01*
X92183Y-68830D01*
X91396Y-68830D01*
X91396Y-65890D01*
X91335Y-65744D01*
X91224Y-65632D01*
X91079Y-65572D01*
X90921Y-65572D01*
X90775Y-65632D01*
X90664Y-65743D01*
X90604Y-65889D01*
X90603Y-66046D01*
X90664Y-66192D01*
X90775Y-66304D01*
X90920Y-66364D01*
X91078Y-66364D01*
X91224Y-66304D01*
X91335Y-66193D01*
X91395Y-66047D01*
X91396Y-65890D01*
X91396Y-68830D01*
X89752Y-68830D01*
X89752Y-65825D01*
X89752Y-61888D01*
X89642Y-61623D01*
X89440Y-61420D01*
X89231Y-61334D01*
X89231Y-60781D01*
X89216Y-60704D01*
X89216Y-60704D01*
X89201Y-60683D01*
X89172Y-60640D01*
X89172Y-60640D01*
X88891Y-60358D01*
X88826Y-60315D01*
X88750Y-60300D01*
X88127Y-60300D01*
X88110Y-60259D01*
X87991Y-60139D01*
X87834Y-60075D01*
X87665Y-60074D01*
X87509Y-60139D01*
X87389Y-60258D01*
X87332Y-60398D01*
X87315Y-60423D01*
X87300Y-60500D01*
X87315Y-60576D01*
X87332Y-60602D01*
X87389Y-60740D01*
X87508Y-60860D01*
X87665Y-60924D01*
X87834Y-60925D01*
X87990Y-60860D01*
X88110Y-60741D01*
X88127Y-60700D01*
X88667Y-60700D01*
X88831Y-60864D01*
X88831Y-61334D01*
X88623Y-61420D01*
X88420Y-61622D01*
X88310Y-61887D01*
X88310Y-62174D01*
X88420Y-62439D01*
X88622Y-62642D01*
X88887Y-62752D01*
X89174Y-62752D01*
X89439Y-62642D01*
X89642Y-62440D01*
X89752Y-62175D01*
X89752Y-61888D01*
X89752Y-65825D01*
X89642Y-65560D01*
X89440Y-65357D01*
X89427Y-65352D01*
X89427Y-63921D01*
X89367Y-63775D01*
X89256Y-63664D01*
X89110Y-63604D01*
X88953Y-63603D01*
X88807Y-63664D01*
X88695Y-63775D01*
X88635Y-63920D01*
X88635Y-64078D01*
X88695Y-64224D01*
X88806Y-64335D01*
X88952Y-64395D01*
X89109Y-64396D01*
X89255Y-64335D01*
X89367Y-64224D01*
X89427Y-64079D01*
X89427Y-63921D01*
X89427Y-65352D01*
X89175Y-65247D01*
X88888Y-65247D01*
X88623Y-65357D01*
X88420Y-65559D01*
X88310Y-65824D01*
X88310Y-66111D01*
X88420Y-66376D01*
X88622Y-66579D01*
X88831Y-66665D01*
X88831Y-67135D01*
X88667Y-67300D01*
X88127Y-67300D01*
X88110Y-67259D01*
X88000Y-67148D01*
X88000Y-66200D01*
X88000Y-63200D01*
X87984Y-63123D01*
X87984Y-63123D01*
X87970Y-63101D01*
X87941Y-63058D01*
X87941Y-63058D01*
X87741Y-62858D01*
X87676Y-62815D01*
X87600Y-62800D01*
X87377Y-62800D01*
X87360Y-62759D01*
X87241Y-62639D01*
X87084Y-62575D01*
X86915Y-62574D01*
X86759Y-62639D01*
X86639Y-62758D01*
X86622Y-62800D01*
X86582Y-62800D01*
X86400Y-62617D01*
X86400Y-61400D01*
X86384Y-61323D01*
X86384Y-61323D01*
X86370Y-61301D01*
X86341Y-61258D01*
X86341Y-61258D01*
X86141Y-61058D01*
X86076Y-61015D01*
X86000Y-61000D01*
X84782Y-61000D01*
X84700Y-60917D01*
X84700Y-60500D01*
X84684Y-60423D01*
X84667Y-60397D01*
X84610Y-60259D01*
X84491Y-60139D01*
X84334Y-60075D01*
X84165Y-60074D01*
X84009Y-60139D01*
X83889Y-60258D01*
X83825Y-60415D01*
X83824Y-60584D01*
X83889Y-60740D01*
X84008Y-60860D01*
X84165Y-60924D01*
X84300Y-60925D01*
X84300Y-61000D01*
X84315Y-61076D01*
X84358Y-61141D01*
X84558Y-61341D01*
X84558Y-61341D01*
X84601Y-61370D01*
X84623Y-61384D01*
X84623Y-61384D01*
X84700Y-61400D01*
X85917Y-61400D01*
X86000Y-61482D01*
X86000Y-62700D01*
X86015Y-62776D01*
X86058Y-62841D01*
X86358Y-63141D01*
X86358Y-63141D01*
X86401Y-63170D01*
X86423Y-63184D01*
X86423Y-63184D01*
X86499Y-63199D01*
X86500Y-63200D01*
X86622Y-63200D01*
X86639Y-63240D01*
X86758Y-63360D01*
X86915Y-63424D01*
X87084Y-63425D01*
X87240Y-63360D01*
X87360Y-63241D01*
X87377Y-63200D01*
X87517Y-63200D01*
X87600Y-63282D01*
X87600Y-66117D01*
X87425Y-66292D01*
X87425Y-64915D01*
X87360Y-64759D01*
X87241Y-64639D01*
X87084Y-64575D01*
X86915Y-64574D01*
X86759Y-64639D01*
X86639Y-64758D01*
X86622Y-64800D01*
X86582Y-64800D01*
X86500Y-64717D01*
X86500Y-64300D01*
X86499Y-64299D01*
X86484Y-64223D01*
X86484Y-64223D01*
X86470Y-64201D01*
X86441Y-64158D01*
X86441Y-64158D01*
X86141Y-63858D01*
X86076Y-63815D01*
X86000Y-63800D01*
X85425Y-63800D01*
X85425Y-62915D01*
X85360Y-62759D01*
X85241Y-62639D01*
X85200Y-62622D01*
X85200Y-62250D01*
X85187Y-62186D01*
X85184Y-62173D01*
X85184Y-62173D01*
X85141Y-62108D01*
X84641Y-61608D01*
X84576Y-61565D01*
X84500Y-61550D01*
X82250Y-61550D01*
X82173Y-61565D01*
X82151Y-61579D01*
X82108Y-61608D01*
X81858Y-61858D01*
X81815Y-61923D01*
X81800Y-62000D01*
X81800Y-62122D01*
X81759Y-62139D01*
X81639Y-62258D01*
X81575Y-62415D01*
X81574Y-62584D01*
X81639Y-62740D01*
X81758Y-62860D01*
X81915Y-62924D01*
X82084Y-62925D01*
X82240Y-62860D01*
X82360Y-62741D01*
X82424Y-62584D01*
X82425Y-62415D01*
X82360Y-62259D01*
X82241Y-62139D01*
X82200Y-62122D01*
X82200Y-62082D01*
X82332Y-61950D01*
X84417Y-61950D01*
X84800Y-62332D01*
X84800Y-62622D01*
X84759Y-62639D01*
X84639Y-62758D01*
X84575Y-62915D01*
X84574Y-63084D01*
X84639Y-63240D01*
X84758Y-63360D01*
X84915Y-63424D01*
X85084Y-63425D01*
X85240Y-63360D01*
X85360Y-63241D01*
X85424Y-63084D01*
X85425Y-62915D01*
X85425Y-63800D01*
X83382Y-63800D01*
X83200Y-63617D01*
X83200Y-62877D01*
X83240Y-62860D01*
X83360Y-62741D01*
X83424Y-62584D01*
X83425Y-62415D01*
X83360Y-62259D01*
X83241Y-62139D01*
X83084Y-62075D01*
X82915Y-62074D01*
X82759Y-62139D01*
X82639Y-62258D01*
X82575Y-62415D01*
X82574Y-62584D01*
X82639Y-62740D01*
X82758Y-62860D01*
X82800Y-62877D01*
X82800Y-63700D01*
X82815Y-63776D01*
X82858Y-63841D01*
X83158Y-64141D01*
X83158Y-64141D01*
X83201Y-64170D01*
X83223Y-64184D01*
X83223Y-64184D01*
X83299Y-64199D01*
X83300Y-64200D01*
X85917Y-64200D01*
X86100Y-64382D01*
X86100Y-64800D01*
X86115Y-64876D01*
X86158Y-64941D01*
X86358Y-65141D01*
X86358Y-65141D01*
X86401Y-65170D01*
X86423Y-65184D01*
X86423Y-65184D01*
X86500Y-65200D01*
X86622Y-65200D01*
X86639Y-65240D01*
X86758Y-65360D01*
X86915Y-65424D01*
X87084Y-65425D01*
X87240Y-65360D01*
X87360Y-65241D01*
X87424Y-65084D01*
X87425Y-64915D01*
X87425Y-66292D01*
X87417Y-66300D01*
X85425Y-66300D01*
X85425Y-64915D01*
X85360Y-64759D01*
X85241Y-64639D01*
X85084Y-64575D01*
X84915Y-64574D01*
X84759Y-64639D01*
X84639Y-64758D01*
X84575Y-64915D01*
X84574Y-65084D01*
X84639Y-65240D01*
X84758Y-65360D01*
X84915Y-65424D01*
X85084Y-65425D01*
X85240Y-65360D01*
X85360Y-65241D01*
X85424Y-65084D01*
X85425Y-64915D01*
X85425Y-66300D01*
X84700Y-66300D01*
X84450Y-66300D01*
X84373Y-66315D01*
X84351Y-66329D01*
X84308Y-66358D01*
X84108Y-66558D01*
X84065Y-66623D01*
X84050Y-66700D01*
X84050Y-67122D01*
X84009Y-67139D01*
X83889Y-67258D01*
X83825Y-67415D01*
X83824Y-67584D01*
X83889Y-67740D01*
X84008Y-67860D01*
X84165Y-67924D01*
X84334Y-67925D01*
X84490Y-67860D01*
X84610Y-67741D01*
X84674Y-67584D01*
X84675Y-67415D01*
X84610Y-67259D01*
X84491Y-67139D01*
X84450Y-67122D01*
X84450Y-66782D01*
X84532Y-66700D01*
X84700Y-66700D01*
X87500Y-66700D01*
X87576Y-66684D01*
X87641Y-66641D01*
X87941Y-66341D01*
X87941Y-66341D01*
X87970Y-66298D01*
X87984Y-66276D01*
X87984Y-66276D01*
X87999Y-66200D01*
X88000Y-66200D01*
X88000Y-67148D01*
X87991Y-67139D01*
X87834Y-67075D01*
X87665Y-67074D01*
X87509Y-67139D01*
X87389Y-67258D01*
X87325Y-67415D01*
X87324Y-67584D01*
X87389Y-67740D01*
X87508Y-67860D01*
X87665Y-67924D01*
X87834Y-67925D01*
X87990Y-67860D01*
X88110Y-67741D01*
X88127Y-67700D01*
X88750Y-67700D01*
X88826Y-67684D01*
X88891Y-67641D01*
X89172Y-67359D01*
X89172Y-67359D01*
X89201Y-67316D01*
X89216Y-67295D01*
X89216Y-67295D01*
X89231Y-67218D01*
X89231Y-67218D01*
X89231Y-66665D01*
X89439Y-66579D01*
X89642Y-66377D01*
X89752Y-66112D01*
X89752Y-65825D01*
X89752Y-68830D01*
X83425Y-68830D01*
X83425Y-65415D01*
X83360Y-65259D01*
X83241Y-65139D01*
X83200Y-65122D01*
X83200Y-64750D01*
X83200Y-64500D01*
X83184Y-64423D01*
X83184Y-64423D01*
X83170Y-64401D01*
X83141Y-64358D01*
X83141Y-64358D01*
X82891Y-64108D01*
X82891Y-64108D01*
X82891Y-64108D01*
X82641Y-63858D01*
X82576Y-63815D01*
X82500Y-63800D01*
X81425Y-63800D01*
X81425Y-62415D01*
X81425Y-60415D01*
X81360Y-60259D01*
X81241Y-60139D01*
X81084Y-60075D01*
X80915Y-60074D01*
X80759Y-60139D01*
X80639Y-60258D01*
X80575Y-60415D01*
X80574Y-60584D01*
X80639Y-60740D01*
X80758Y-60860D01*
X80915Y-60924D01*
X81084Y-60925D01*
X81240Y-60860D01*
X81360Y-60741D01*
X81424Y-60584D01*
X81425Y-60415D01*
X81425Y-62415D01*
X81360Y-62259D01*
X81241Y-62139D01*
X81084Y-62075D01*
X80915Y-62074D01*
X80759Y-62139D01*
X80639Y-62258D01*
X80575Y-62415D01*
X80574Y-62584D01*
X80639Y-62740D01*
X80758Y-62860D01*
X80800Y-62877D01*
X80800Y-62917D01*
X80667Y-63050D01*
X80425Y-63050D01*
X80425Y-62415D01*
X80360Y-62259D01*
X80241Y-62139D01*
X80200Y-62122D01*
X80200Y-60877D01*
X80240Y-60860D01*
X80360Y-60741D01*
X80424Y-60584D01*
X80425Y-60415D01*
X80360Y-60259D01*
X80241Y-60139D01*
X80084Y-60075D01*
X79915Y-60074D01*
X79759Y-60139D01*
X79639Y-60258D01*
X79575Y-60415D01*
X79574Y-60584D01*
X79639Y-60740D01*
X79758Y-60860D01*
X79800Y-60877D01*
X79800Y-62059D01*
X79750Y-62050D01*
X78877Y-62050D01*
X78860Y-62009D01*
X78741Y-61889D01*
X78584Y-61825D01*
X78415Y-61824D01*
X78259Y-61889D01*
X78139Y-62008D01*
X78075Y-62165D01*
X78074Y-62334D01*
X78139Y-62490D01*
X78258Y-62610D01*
X78415Y-62674D01*
X78584Y-62675D01*
X78740Y-62610D01*
X78860Y-62491D01*
X78877Y-62450D01*
X79575Y-62450D01*
X79574Y-62584D01*
X79639Y-62740D01*
X79758Y-62860D01*
X79915Y-62924D01*
X80084Y-62925D01*
X80240Y-62860D01*
X80360Y-62741D01*
X80424Y-62584D01*
X80425Y-62415D01*
X80425Y-63050D01*
X77332Y-63050D01*
X77141Y-62858D01*
X77076Y-62815D01*
X77000Y-62800D01*
X76700Y-62800D01*
X76700Y-61910D01*
X76631Y-61745D01*
X76505Y-61618D01*
X76339Y-61550D01*
X76160Y-61549D01*
X75995Y-61618D01*
X75868Y-61744D01*
X75800Y-61910D01*
X75799Y-62089D01*
X75868Y-62254D01*
X75994Y-62381D01*
X76160Y-62449D01*
X76339Y-62450D01*
X76504Y-62381D01*
X76631Y-62255D01*
X76699Y-62089D01*
X76700Y-61910D01*
X76700Y-62800D01*
X76654Y-62800D01*
X76631Y-62745D01*
X76505Y-62618D01*
X76339Y-62550D01*
X76160Y-62549D01*
X75995Y-62618D01*
X75868Y-62744D01*
X75800Y-62910D01*
X75799Y-63089D01*
X75868Y-63254D01*
X75994Y-63381D01*
X76160Y-63449D01*
X76339Y-63450D01*
X76504Y-63381D01*
X76631Y-63255D01*
X76654Y-63200D01*
X76917Y-63200D01*
X77108Y-63391D01*
X77108Y-63391D01*
X77151Y-63420D01*
X77173Y-63434D01*
X77173Y-63434D01*
X77250Y-63450D01*
X80750Y-63450D01*
X80826Y-63434D01*
X80891Y-63391D01*
X81141Y-63141D01*
X81141Y-63141D01*
X81170Y-63098D01*
X81184Y-63076D01*
X81184Y-63076D01*
X81199Y-63000D01*
X81200Y-63000D01*
X81200Y-62877D01*
X81240Y-62860D01*
X81360Y-62741D01*
X81424Y-62584D01*
X81425Y-62415D01*
X81425Y-63800D01*
X76654Y-63800D01*
X76631Y-63745D01*
X76505Y-63618D01*
X76339Y-63550D01*
X76160Y-63549D01*
X75995Y-63618D01*
X75868Y-63744D01*
X75800Y-63910D01*
X75799Y-64089D01*
X75868Y-64254D01*
X75994Y-64381D01*
X76160Y-64449D01*
X76339Y-64450D01*
X76504Y-64381D01*
X76631Y-64255D01*
X76654Y-64200D01*
X77500Y-64200D01*
X77423Y-64215D01*
X77401Y-64229D01*
X77358Y-64258D01*
X76817Y-64800D01*
X76654Y-64800D01*
X76631Y-64745D01*
X76505Y-64618D01*
X76339Y-64550D01*
X76160Y-64549D01*
X75995Y-64618D01*
X75868Y-64744D01*
X75800Y-64910D01*
X75799Y-65089D01*
X75868Y-65254D01*
X75994Y-65381D01*
X76160Y-65449D01*
X76339Y-65450D01*
X76504Y-65381D01*
X76631Y-65255D01*
X76654Y-65200D01*
X76900Y-65200D01*
X76976Y-65184D01*
X77041Y-65141D01*
X77582Y-64600D01*
X81517Y-64600D01*
X81800Y-64882D01*
X81800Y-65000D01*
X81800Y-65122D01*
X81759Y-65139D01*
X81639Y-65258D01*
X81575Y-65415D01*
X81574Y-65584D01*
X81639Y-65740D01*
X81758Y-65860D01*
X81915Y-65924D01*
X82084Y-65925D01*
X82240Y-65860D01*
X82360Y-65741D01*
X82424Y-65584D01*
X82425Y-65415D01*
X82360Y-65259D01*
X82241Y-65139D01*
X82200Y-65122D01*
X82200Y-65000D01*
X82200Y-64800D01*
X82199Y-64799D01*
X82184Y-64723D01*
X82184Y-64723D01*
X82170Y-64701D01*
X82141Y-64658D01*
X82141Y-64658D01*
X81741Y-64258D01*
X81676Y-64215D01*
X81600Y-64200D01*
X82417Y-64200D01*
X82608Y-64391D01*
X82608Y-64391D01*
X82608Y-64391D01*
X82800Y-64582D01*
X82800Y-64750D01*
X82800Y-65122D01*
X82759Y-65139D01*
X82639Y-65258D01*
X82575Y-65415D01*
X82574Y-65584D01*
X82639Y-65740D01*
X82758Y-65860D01*
X82915Y-65924D01*
X83084Y-65925D01*
X83240Y-65860D01*
X83360Y-65741D01*
X83424Y-65584D01*
X83425Y-65415D01*
X83425Y-68830D01*
X82425Y-68830D01*
X82425Y-67415D01*
X82360Y-67259D01*
X82241Y-67139D01*
X82084Y-67075D01*
X81915Y-67074D01*
X81759Y-67139D01*
X81639Y-67258D01*
X81575Y-67415D01*
X81574Y-67584D01*
X81639Y-67740D01*
X81758Y-67860D01*
X81915Y-67924D01*
X82084Y-67925D01*
X82240Y-67860D01*
X82360Y-67741D01*
X82424Y-67584D01*
X82425Y-67415D01*
X82425Y-68830D01*
X81425Y-68830D01*
X81425Y-65415D01*
X81360Y-65259D01*
X81241Y-65139D01*
X81084Y-65075D01*
X80915Y-65074D01*
X80759Y-65139D01*
X80639Y-65258D01*
X80575Y-65415D01*
X80574Y-65584D01*
X80639Y-65740D01*
X80758Y-65860D01*
X80915Y-65924D01*
X81084Y-65925D01*
X81240Y-65860D01*
X81360Y-65741D01*
X81424Y-65584D01*
X81425Y-65415D01*
X81425Y-68830D01*
X80529Y-68830D01*
X80529Y-67575D01*
X80525Y-67486D01*
X80525Y-65725D01*
X80525Y-65274D01*
X80524Y-65175D01*
X80486Y-65083D01*
X80416Y-65012D01*
X80324Y-64974D01*
X80112Y-64975D01*
X80050Y-65037D01*
X80050Y-65450D01*
X80462Y-65450D01*
X80525Y-65387D01*
X80525Y-65274D01*
X80525Y-65725D01*
X80525Y-65612D01*
X80462Y-65550D01*
X80050Y-65550D01*
X80050Y-65962D01*
X80112Y-66025D01*
X80324Y-66025D01*
X80416Y-65987D01*
X80486Y-65916D01*
X80524Y-65824D01*
X80525Y-65725D01*
X80525Y-67486D01*
X80518Y-67367D01*
X80460Y-67227D01*
X80367Y-67202D01*
X80297Y-67273D01*
X80297Y-67132D01*
X80272Y-67039D01*
X80075Y-66970D01*
X79950Y-66976D01*
X79950Y-65962D01*
X79950Y-65550D01*
X79950Y-65450D01*
X79950Y-65037D01*
X79887Y-64975D01*
X79675Y-64974D01*
X79583Y-65012D01*
X79513Y-65083D01*
X79475Y-65175D01*
X79474Y-65274D01*
X79475Y-65387D01*
X79537Y-65450D01*
X79950Y-65450D01*
X79950Y-65550D01*
X79537Y-65550D01*
X79475Y-65612D01*
X79474Y-65725D01*
X79475Y-65824D01*
X79513Y-65916D01*
X79583Y-65987D01*
X79675Y-66025D01*
X79887Y-66025D01*
X79950Y-65962D01*
X79950Y-66976D01*
X79867Y-66981D01*
X79727Y-67039D01*
X79702Y-67132D01*
X80000Y-67429D01*
X80297Y-67132D01*
X80297Y-67273D01*
X80070Y-67500D01*
X80367Y-67797D01*
X80460Y-67772D01*
X80529Y-67575D01*
X80529Y-68830D01*
X80297Y-68830D01*
X80297Y-67867D01*
X80000Y-67570D01*
X79929Y-67641D01*
X79929Y-67500D01*
X79632Y-67202D01*
X79539Y-67227D01*
X79470Y-67424D01*
X79481Y-67632D01*
X79539Y-67772D01*
X79632Y-67797D01*
X79929Y-67500D01*
X79929Y-67641D01*
X79702Y-67867D01*
X79727Y-67960D01*
X79924Y-68029D01*
X80132Y-68018D01*
X80272Y-67960D01*
X80297Y-67867D01*
X80297Y-68830D01*
X79029Y-68830D01*
X79029Y-65825D01*
X79018Y-65617D01*
X78960Y-65477D01*
X78867Y-65452D01*
X78797Y-65523D01*
X78797Y-65382D01*
X78772Y-65289D01*
X78575Y-65220D01*
X78367Y-65231D01*
X78227Y-65289D01*
X78202Y-65382D01*
X78500Y-65679D01*
X78797Y-65382D01*
X78797Y-65523D01*
X78570Y-65750D01*
X78867Y-66047D01*
X78960Y-66022D01*
X79029Y-65825D01*
X79029Y-68830D01*
X78797Y-68830D01*
X78797Y-66117D01*
X78500Y-65820D01*
X78429Y-65891D01*
X78429Y-65750D01*
X78132Y-65452D01*
X78039Y-65477D01*
X77970Y-65674D01*
X77981Y-65882D01*
X78039Y-66022D01*
X78132Y-66047D01*
X78429Y-65750D01*
X78429Y-65891D01*
X78202Y-66117D01*
X78227Y-66210D01*
X78424Y-66279D01*
X78632Y-66268D01*
X78772Y-66210D01*
X78797Y-66117D01*
X78797Y-68830D01*
X78750Y-68830D01*
X78750Y-68070D01*
X78750Y-67128D01*
X78119Y-66550D01*
X77229Y-66550D01*
X76800Y-66979D01*
X76800Y-66349D01*
X76800Y-65650D01*
X76762Y-65558D01*
X76691Y-65488D01*
X76599Y-65450D01*
X76500Y-65449D01*
X76362Y-65450D01*
X76300Y-65512D01*
X76300Y-65950D01*
X76737Y-65950D01*
X76800Y-65887D01*
X76800Y-65650D01*
X76800Y-66349D01*
X76800Y-66112D01*
X76737Y-66050D01*
X76300Y-66050D01*
X76300Y-66487D01*
X76362Y-66550D01*
X76500Y-66550D01*
X76599Y-66549D01*
X76691Y-66511D01*
X76762Y-66441D01*
X76800Y-66349D01*
X76800Y-66979D01*
X76650Y-67129D01*
X76650Y-68070D01*
X77229Y-68650D01*
X78170Y-68650D01*
X78750Y-68070D01*
X78750Y-68830D01*
X76200Y-68830D01*
X76200Y-66487D01*
X76200Y-66050D01*
X76200Y-65950D01*
X76200Y-65512D01*
X76137Y-65450D01*
X75999Y-65449D01*
X75900Y-65450D01*
X75808Y-65488D01*
X75737Y-65558D01*
X75699Y-65650D01*
X75700Y-65887D01*
X75762Y-65950D01*
X76200Y-65950D01*
X76200Y-66050D01*
X75762Y-66050D01*
X75700Y-66112D01*
X75699Y-66349D01*
X75737Y-66441D01*
X75808Y-66511D01*
X75900Y-66549D01*
X75999Y-66550D01*
X76137Y-66550D01*
X76200Y-66487D01*
X76200Y-68830D01*
X75767Y-68830D01*
X75720Y-68821D01*
X75695Y-68804D01*
X75678Y-68779D01*
X75669Y-68733D01*
X75669Y-59250D01*
X75681Y-59212D01*
X75700Y-59189D01*
X75727Y-59175D01*
X75783Y-59169D01*
X92183Y-59169D01*
X92229Y-59178D01*
X92254Y-59195D01*
X92271Y-59220D01*
X92280Y-59267D01*
X92280Y-61767D01*
X92208Y-61695D01*
X92063Y-61635D01*
X91905Y-61635D01*
X91760Y-61695D01*
X91648Y-61806D01*
X91588Y-61952D01*
X91588Y-62109D01*
X91648Y-62255D01*
X91759Y-62367D01*
X91905Y-62427D01*
X92062Y-62427D01*
X92208Y-62367D01*
X92280Y-62295D01*
X92280Y-65704D01*
X92208Y-65632D01*
X92063Y-65572D01*
X91905Y-65572D01*
X91760Y-65632D01*
X91720Y-65671D01*
X91720Y-63857D01*
X91611Y-63592D01*
X91408Y-63389D01*
X91396Y-63383D01*
X91396Y-61953D01*
X91335Y-61807D01*
X91224Y-61695D01*
X91079Y-61635D01*
X90921Y-61635D01*
X90775Y-61695D01*
X90664Y-61806D01*
X90604Y-61952D01*
X90603Y-62109D01*
X90664Y-62255D01*
X90775Y-62367D01*
X90920Y-62427D01*
X91078Y-62427D01*
X91224Y-62367D01*
X91335Y-62256D01*
X91395Y-62110D01*
X91396Y-61953D01*
X91396Y-63383D01*
X91144Y-63279D01*
X90857Y-63279D01*
X90592Y-63388D01*
X90389Y-63591D01*
X90279Y-63855D01*
X90279Y-64142D01*
X90388Y-64407D01*
X90591Y-64610D01*
X90855Y-64720D01*
X91142Y-64720D01*
X91407Y-64611D01*
X91610Y-64408D01*
X91720Y-64144D01*
X91720Y-63857D01*
X91720Y-65671D01*
X91648Y-65743D01*
X91588Y-65889D01*
X91588Y-66046D01*
X91648Y-66192D01*
X91759Y-66304D01*
X91905Y-66364D01*
X92062Y-66364D01*
X92208Y-66304D01*
X92280Y-66232D01*
X92280Y-68732D01*
X92280Y-68732D01*
G37*
G54D18*
X92280Y-68732D02*
X92271Y-68779D01*
X92254Y-68804D01*
X92229Y-68821D01*
X92183Y-68830D01*
X91396Y-68830D01*
X91396Y-65890D01*
X91335Y-65744D01*
X91224Y-65632D01*
X91079Y-65572D01*
X90921Y-65572D01*
X90775Y-65632D01*
X90664Y-65743D01*
X90604Y-65889D01*
X90603Y-66046D01*
X90664Y-66192D01*
X90775Y-66304D01*
X90920Y-66364D01*
X91078Y-66364D01*
X91224Y-66304D01*
X91335Y-66193D01*
X91395Y-66047D01*
X91396Y-65890D01*
X91396Y-68830D01*
X89752Y-68830D01*
X89752Y-65825D01*
X89752Y-61888D01*
X89642Y-61623D01*
X89440Y-61420D01*
X89231Y-61334D01*
X89231Y-60781D01*
X89216Y-60704D01*
X89216Y-60704D01*
X89201Y-60683D01*
X89172Y-60640D01*
X89172Y-60640D01*
X88891Y-60358D01*
X88826Y-60315D01*
X88750Y-60300D01*
X88127Y-60300D01*
X88110Y-60259D01*
X87991Y-60139D01*
X87834Y-60075D01*
X87665Y-60074D01*
X87509Y-60139D01*
X87389Y-60258D01*
X87332Y-60398D01*
X87315Y-60423D01*
X87300Y-60500D01*
X87315Y-60576D01*
X87332Y-60602D01*
X87389Y-60740D01*
X87508Y-60860D01*
X87665Y-60924D01*
X87834Y-60925D01*
X87990Y-60860D01*
X88110Y-60741D01*
X88127Y-60700D01*
X88667Y-60700D01*
X88831Y-60864D01*
X88831Y-61334D01*
X88623Y-61420D01*
X88420Y-61622D01*
X88310Y-61887D01*
X88310Y-62174D01*
X88420Y-62439D01*
X88622Y-62642D01*
X88887Y-62752D01*
X89174Y-62752D01*
X89439Y-62642D01*
X89642Y-62440D01*
X89752Y-62175D01*
X89752Y-61888D01*
X89752Y-65825D01*
X89642Y-65560D01*
X89440Y-65357D01*
X89427Y-65352D01*
X89427Y-63921D01*
X89367Y-63775D01*
X89256Y-63664D01*
X89110Y-63604D01*
X88953Y-63603D01*
X88807Y-63664D01*
X88695Y-63775D01*
X88635Y-63920D01*
X88635Y-64078D01*
X88695Y-64224D01*
X88806Y-64335D01*
X88952Y-64395D01*
X89109Y-64396D01*
X89255Y-64335D01*
X89367Y-64224D01*
X89427Y-64079D01*
X89427Y-63921D01*
X89427Y-65352D01*
X89175Y-65247D01*
X88888Y-65247D01*
X88623Y-65357D01*
X88420Y-65559D01*
X88310Y-65824D01*
X88310Y-66111D01*
X88420Y-66376D01*
X88622Y-66579D01*
X88831Y-66665D01*
X88831Y-67135D01*
X88667Y-67300D01*
X88127Y-67300D01*
X88110Y-67259D01*
X88000Y-67148D01*
X88000Y-66200D01*
X88000Y-63200D01*
X87984Y-63123D01*
X87984Y-63123D01*
X87970Y-63101D01*
X87941Y-63058D01*
X87941Y-63058D01*
X87741Y-62858D01*
X87676Y-62815D01*
X87600Y-62800D01*
X87377Y-62800D01*
X87360Y-62759D01*
X87241Y-62639D01*
X87084Y-62575D01*
X86915Y-62574D01*
X86759Y-62639D01*
X86639Y-62758D01*
X86622Y-62800D01*
X86582Y-62800D01*
X86400Y-62617D01*
X86400Y-61400D01*
X86384Y-61323D01*
X86384Y-61323D01*
X86370Y-61301D01*
X86341Y-61258D01*
X86341Y-61258D01*
X86141Y-61058D01*
X86076Y-61015D01*
X86000Y-61000D01*
X84782Y-61000D01*
X84700Y-60917D01*
X84700Y-60500D01*
X84684Y-60423D01*
X84667Y-60397D01*
X84610Y-60259D01*
X84491Y-60139D01*
X84334Y-60075D01*
X84165Y-60074D01*
X84009Y-60139D01*
X83889Y-60258D01*
X83825Y-60415D01*
X83824Y-60584D01*
X83889Y-60740D01*
X84008Y-60860D01*
X84165Y-60924D01*
X84300Y-60925D01*
X84300Y-61000D01*
X84315Y-61076D01*
X84358Y-61141D01*
X84558Y-61341D01*
X84558Y-61341D01*
X84601Y-61370D01*
X84623Y-61384D01*
X84623Y-61384D01*
X84700Y-61400D01*
X85917Y-61400D01*
X86000Y-61482D01*
X86000Y-62700D01*
X86015Y-62776D01*
X86058Y-62841D01*
X86358Y-63141D01*
X86358Y-63141D01*
X86401Y-63170D01*
X86423Y-63184D01*
X86423Y-63184D01*
X86499Y-63199D01*
X86500Y-63200D01*
X86622Y-63200D01*
X86639Y-63240D01*
X86758Y-63360D01*
X86915Y-63424D01*
X87084Y-63425D01*
X87240Y-63360D01*
X87360Y-63241D01*
X87377Y-63200D01*
X87517Y-63200D01*
X87600Y-63282D01*
X87600Y-66117D01*
X87425Y-66292D01*
X87425Y-64915D01*
X87360Y-64759D01*
X87241Y-64639D01*
X87084Y-64575D01*
X86915Y-64574D01*
X86759Y-64639D01*
X86639Y-64758D01*
X86622Y-64800D01*
X86582Y-64800D01*
X86500Y-64717D01*
X86500Y-64300D01*
X86499Y-64299D01*
X86484Y-64223D01*
X86484Y-64223D01*
X86470Y-64201D01*
X86441Y-64158D01*
X86441Y-64158D01*
X86141Y-63858D01*
X86076Y-63815D01*
X86000Y-63800D01*
X85425Y-63800D01*
X85425Y-62915D01*
X85360Y-62759D01*
X85241Y-62639D01*
X85200Y-62622D01*
X85200Y-62250D01*
X85187Y-62186D01*
X85184Y-62173D01*
X85184Y-62173D01*
X85141Y-62108D01*
X84641Y-61608D01*
X84576Y-61565D01*
X84500Y-61550D01*
X82250Y-61550D01*
X82173Y-61565D01*
X82151Y-61579D01*
X82108Y-61608D01*
X81858Y-61858D01*
X81815Y-61923D01*
X81800Y-62000D01*
X81800Y-62122D01*
X81759Y-62139D01*
X81639Y-62258D01*
X81575Y-62415D01*
X81574Y-62584D01*
X81639Y-62740D01*
X81758Y-62860D01*
X81915Y-62924D01*
X82084Y-62925D01*
X82240Y-62860D01*
X82360Y-62741D01*
X82424Y-62584D01*
X82425Y-62415D01*
X82360Y-62259D01*
X82241Y-62139D01*
X82200Y-62122D01*
X82200Y-62082D01*
X82332Y-61950D01*
X84417Y-61950D01*
X84800Y-62332D01*
X84800Y-62622D01*
X84759Y-62639D01*
X84639Y-62758D01*
X84575Y-62915D01*
X84574Y-63084D01*
X84639Y-63240D01*
X84758Y-63360D01*
X84915Y-63424D01*
X85084Y-63425D01*
X85240Y-63360D01*
X85360Y-63241D01*
X85424Y-63084D01*
X85425Y-62915D01*
X85425Y-63800D01*
X83382Y-63800D01*
X83200Y-63617D01*
X83200Y-62877D01*
X83240Y-62860D01*
X83360Y-62741D01*
X83424Y-62584D01*
X83425Y-62415D01*
X83360Y-62259D01*
X83241Y-62139D01*
X83084Y-62075D01*
X82915Y-62074D01*
X82759Y-62139D01*
X82639Y-62258D01*
X82575Y-62415D01*
X82574Y-62584D01*
X82639Y-62740D01*
X82758Y-62860D01*
X82800Y-62877D01*
X82800Y-63700D01*
X82815Y-63776D01*
X82858Y-63841D01*
X83158Y-64141D01*
X83158Y-64141D01*
X83201Y-64170D01*
X83223Y-64184D01*
X83223Y-64184D01*
X83299Y-64199D01*
X83300Y-64200D01*
X85917Y-64200D01*
X86100Y-64382D01*
X86100Y-64800D01*
X86115Y-64876D01*
X86158Y-64941D01*
X86358Y-65141D01*
X86358Y-65141D01*
X86401Y-65170D01*
X86423Y-65184D01*
X86423Y-65184D01*
X86500Y-65200D01*
X86622Y-65200D01*
X86639Y-65240D01*
X86758Y-65360D01*
X86915Y-65424D01*
X87084Y-65425D01*
X87240Y-65360D01*
X87360Y-65241D01*
X87424Y-65084D01*
X87425Y-64915D01*
X87425Y-66292D01*
X87417Y-66300D01*
X85425Y-66300D01*
X85425Y-64915D01*
X85360Y-64759D01*
X85241Y-64639D01*
X85084Y-64575D01*
X84915Y-64574D01*
X84759Y-64639D01*
X84639Y-64758D01*
X84575Y-64915D01*
X84574Y-65084D01*
X84639Y-65240D01*
X84758Y-65360D01*
X84915Y-65424D01*
X85084Y-65425D01*
X85240Y-65360D01*
X85360Y-65241D01*
X85424Y-65084D01*
X85425Y-64915D01*
X85425Y-66300D01*
X84700Y-66300D01*
X84450Y-66300D01*
X84373Y-66315D01*
X84351Y-66329D01*
X84308Y-66358D01*
X84108Y-66558D01*
X84065Y-66623D01*
X84050Y-66700D01*
X84050Y-67122D01*
X84009Y-67139D01*
X83889Y-67258D01*
X83825Y-67415D01*
X83824Y-67584D01*
X83889Y-67740D01*
X84008Y-67860D01*
X84165Y-67924D01*
X84334Y-67925D01*
X84490Y-67860D01*
X84610Y-67741D01*
X84674Y-67584D01*
X84675Y-67415D01*
X84610Y-67259D01*
X84491Y-67139D01*
X84450Y-67122D01*
X84450Y-66782D01*
X84532Y-66700D01*
X84700Y-66700D01*
X87500Y-66700D01*
X87576Y-66684D01*
X87641Y-66641D01*
X87941Y-66341D01*
X87941Y-66341D01*
X87970Y-66298D01*
X87984Y-66276D01*
X87984Y-66276D01*
X87999Y-66200D01*
X88000Y-66200D01*
X88000Y-67148D01*
X87991Y-67139D01*
X87834Y-67075D01*
X87665Y-67074D01*
X87509Y-67139D01*
X87389Y-67258D01*
X87325Y-67415D01*
X87324Y-67584D01*
X87389Y-67740D01*
X87508Y-67860D01*
X87665Y-67924D01*
X87834Y-67925D01*
X87990Y-67860D01*
X88110Y-67741D01*
X88127Y-67700D01*
X88750Y-67700D01*
X88826Y-67684D01*
X88891Y-67641D01*
X89172Y-67359D01*
X89172Y-67359D01*
X89201Y-67316D01*
X89216Y-67295D01*
X89216Y-67295D01*
X89231Y-67218D01*
X89231Y-67218D01*
X89231Y-66665D01*
X89439Y-66579D01*
X89642Y-66377D01*
X89752Y-66112D01*
X89752Y-65825D01*
X89752Y-68830D01*
X83425Y-68830D01*
X83425Y-65415D01*
X83360Y-65259D01*
X83241Y-65139D01*
X83200Y-65122D01*
X83200Y-64750D01*
X83200Y-64500D01*
X83184Y-64423D01*
X83184Y-64423D01*
X83170Y-64401D01*
X83141Y-64358D01*
X83141Y-64358D01*
X82891Y-64108D01*
X82891Y-64108D01*
X82891Y-64108D01*
X82641Y-63858D01*
X82576Y-63815D01*
X82500Y-63800D01*
X81425Y-63800D01*
X81425Y-62415D01*
X81425Y-60415D01*
X81360Y-60259D01*
X81241Y-60139D01*
X81084Y-60075D01*
X80915Y-60074D01*
X80759Y-60139D01*
X80639Y-60258D01*
X80575Y-60415D01*
X80574Y-60584D01*
X80639Y-60740D01*
X80758Y-60860D01*
X80915Y-60924D01*
X81084Y-60925D01*
X81240Y-60860D01*
X81360Y-60741D01*
X81424Y-60584D01*
X81425Y-60415D01*
X81425Y-62415D01*
X81360Y-62259D01*
X81241Y-62139D01*
X81084Y-62075D01*
X80915Y-62074D01*
X80759Y-62139D01*
X80639Y-62258D01*
X80575Y-62415D01*
X80574Y-62584D01*
X80639Y-62740D01*
X80758Y-62860D01*
X80800Y-62877D01*
X80800Y-62917D01*
X80667Y-63050D01*
X80425Y-63050D01*
X80425Y-62415D01*
X80360Y-62259D01*
X80241Y-62139D01*
X80200Y-62122D01*
X80200Y-60877D01*
X80240Y-60860D01*
X80360Y-60741D01*
X80424Y-60584D01*
X80425Y-60415D01*
X80360Y-60259D01*
X80241Y-60139D01*
X80084Y-60075D01*
X79915Y-60074D01*
X79759Y-60139D01*
X79639Y-60258D01*
X79575Y-60415D01*
X79574Y-60584D01*
X79639Y-60740D01*
X79758Y-60860D01*
X79800Y-60877D01*
X79800Y-62059D01*
X79750Y-62050D01*
X78877Y-62050D01*
X78860Y-62009D01*
X78741Y-61889D01*
X78584Y-61825D01*
X78415Y-61824D01*
X78259Y-61889D01*
X78139Y-62008D01*
X78075Y-62165D01*
X78074Y-62334D01*
X78139Y-62490D01*
X78258Y-62610D01*
X78415Y-62674D01*
X78584Y-62675D01*
X78740Y-62610D01*
X78860Y-62491D01*
X78877Y-62450D01*
X79575Y-62450D01*
X79574Y-62584D01*
X79639Y-62740D01*
X79758Y-62860D01*
X79915Y-62924D01*
X80084Y-62925D01*
X80240Y-62860D01*
X80360Y-62741D01*
X80424Y-62584D01*
X80425Y-62415D01*
X80425Y-63050D01*
X77332Y-63050D01*
X77141Y-62858D01*
X77076Y-62815D01*
X77000Y-62800D01*
X76700Y-62800D01*
X76700Y-61910D01*
X76631Y-61745D01*
X76505Y-61618D01*
X76339Y-61550D01*
X76160Y-61549D01*
X75995Y-61618D01*
X75868Y-61744D01*
X75800Y-61910D01*
X75799Y-62089D01*
X75868Y-62254D01*
X75994Y-62381D01*
X76160Y-62449D01*
X76339Y-62450D01*
X76504Y-62381D01*
X76631Y-62255D01*
X76699Y-62089D01*
X76700Y-61910D01*
X76700Y-62800D01*
X76654Y-62800D01*
X76631Y-62745D01*
X76505Y-62618D01*
X76339Y-62550D01*
X76160Y-62549D01*
X75995Y-62618D01*
X75868Y-62744D01*
X75800Y-62910D01*
X75799Y-63089D01*
X75868Y-63254D01*
X75994Y-63381D01*
X76160Y-63449D01*
X76339Y-63450D01*
X76504Y-63381D01*
X76631Y-63255D01*
X76654Y-63200D01*
X76917Y-63200D01*
X77108Y-63391D01*
X77108Y-63391D01*
X77151Y-63420D01*
X77173Y-63434D01*
X77173Y-63434D01*
X77250Y-63450D01*
X80750Y-63450D01*
X80826Y-63434D01*
X80891Y-63391D01*
X81141Y-63141D01*
X81141Y-63141D01*
X81170Y-63098D01*
X81184Y-63076D01*
X81184Y-63076D01*
X81199Y-63000D01*
X81200Y-63000D01*
X81200Y-62877D01*
X81240Y-62860D01*
X81360Y-62741D01*
X81424Y-62584D01*
X81425Y-62415D01*
X81425Y-63800D01*
X76654Y-63800D01*
X76631Y-63745D01*
X76505Y-63618D01*
X76339Y-63550D01*
X76160Y-63549D01*
X75995Y-63618D01*
X75868Y-63744D01*
X75800Y-63910D01*
X75799Y-64089D01*
X75868Y-64254D01*
X75994Y-64381D01*
X76160Y-64449D01*
X76339Y-64450D01*
X76504Y-64381D01*
X76631Y-64255D01*
X76654Y-64200D01*
X77500Y-64200D01*
X77423Y-64215D01*
X77401Y-64229D01*
X77358Y-64258D01*
X76817Y-64800D01*
X76654Y-64800D01*
X76631Y-64745D01*
X76505Y-64618D01*
X76339Y-64550D01*
X76160Y-64549D01*
X75995Y-64618D01*
X75868Y-64744D01*
X75800Y-64910D01*
X75799Y-65089D01*
X75868Y-65254D01*
X75994Y-65381D01*
X76160Y-65449D01*
X76339Y-65450D01*
X76504Y-65381D01*
X76631Y-65255D01*
X76654Y-65200D01*
X76900Y-65200D01*
X76976Y-65184D01*
X77041Y-65141D01*
X77582Y-64600D01*
X81517Y-64600D01*
X81800Y-64882D01*
X81800Y-65000D01*
X81800Y-65122D01*
X81759Y-65139D01*
X81639Y-65258D01*
X81575Y-65415D01*
X81574Y-65584D01*
X81639Y-65740D01*
X81758Y-65860D01*
X81915Y-65924D01*
X82084Y-65925D01*
X82240Y-65860D01*
X82360Y-65741D01*
X82424Y-65584D01*
X82425Y-65415D01*
X82360Y-65259D01*
X82241Y-65139D01*
X82200Y-65122D01*
X82200Y-65000D01*
X82200Y-64800D01*
X82199Y-64799D01*
X82184Y-64723D01*
X82184Y-64723D01*
X82170Y-64701D01*
X82141Y-64658D01*
X82141Y-64658D01*
X81741Y-64258D01*
X81676Y-64215D01*
X81600Y-64200D01*
X82417Y-64200D01*
X82608Y-64391D01*
X82608Y-64391D01*
X82608Y-64391D01*
X82800Y-64582D01*
X82800Y-64750D01*
X82800Y-65122D01*
X82759Y-65139D01*
X82639Y-65258D01*
X82575Y-65415D01*
X82574Y-65584D01*
X82639Y-65740D01*
X82758Y-65860D01*
X82915Y-65924D01*
X83084Y-65925D01*
X83240Y-65860D01*
X83360Y-65741D01*
X83424Y-65584D01*
X83425Y-65415D01*
X83425Y-68830D01*
X82425Y-68830D01*
X82425Y-67415D01*
X82360Y-67259D01*
X82241Y-67139D01*
X82084Y-67075D01*
X81915Y-67074D01*
X81759Y-67139D01*
X81639Y-67258D01*
X81575Y-67415D01*
X81574Y-67584D01*
X81639Y-67740D01*
X81758Y-67860D01*
X81915Y-67924D01*
X82084Y-67925D01*
X82240Y-67860D01*
X82360Y-67741D01*
X82424Y-67584D01*
X82425Y-67415D01*
X82425Y-68830D01*
X81425Y-68830D01*
X81425Y-65415D01*
X81360Y-65259D01*
X81241Y-65139D01*
X81084Y-65075D01*
X80915Y-65074D01*
X80759Y-65139D01*
X80639Y-65258D01*
X80575Y-65415D01*
X80574Y-65584D01*
X80639Y-65740D01*
X80758Y-65860D01*
X80915Y-65924D01*
X81084Y-65925D01*
X81240Y-65860D01*
X81360Y-65741D01*
X81424Y-65584D01*
X81425Y-65415D01*
X81425Y-68830D01*
X80529Y-68830D01*
X80529Y-67575D01*
X80525Y-67486D01*
X80525Y-65725D01*
X80525Y-65274D01*
X80524Y-65175D01*
X80486Y-65083D01*
X80416Y-65012D01*
X80324Y-64974D01*
X80112Y-64975D01*
X80050Y-65037D01*
X80050Y-65450D01*
X80462Y-65450D01*
X80525Y-65387D01*
X80525Y-65274D01*
X80525Y-65725D01*
X80525Y-65612D01*
X80462Y-65550D01*
X80050Y-65550D01*
X80050Y-65962D01*
X80112Y-66025D01*
X80324Y-66025D01*
X80416Y-65987D01*
X80486Y-65916D01*
X80524Y-65824D01*
X80525Y-65725D01*
X80525Y-67486D01*
X80518Y-67367D01*
X80460Y-67227D01*
X80367Y-67202D01*
X80297Y-67273D01*
X80297Y-67132D01*
X80272Y-67039D01*
X80075Y-66970D01*
X79950Y-66976D01*
X79950Y-65962D01*
X79950Y-65550D01*
X79950Y-65450D01*
X79950Y-65037D01*
X79887Y-64975D01*
X79675Y-64974D01*
X79583Y-65012D01*
X79513Y-65083D01*
X79475Y-65175D01*
X79474Y-65274D01*
X79475Y-65387D01*
X79537Y-65450D01*
X79950Y-65450D01*
X79950Y-65550D01*
X79537Y-65550D01*
X79475Y-65612D01*
X79474Y-65725D01*
X79475Y-65824D01*
X79513Y-65916D01*
X79583Y-65987D01*
X79675Y-66025D01*
X79887Y-66025D01*
X79950Y-65962D01*
X79950Y-66976D01*
X79867Y-66981D01*
X79727Y-67039D01*
X79702Y-67132D01*
X80000Y-67429D01*
X80297Y-67132D01*
X80297Y-67273D01*
X80070Y-67500D01*
X80367Y-67797D01*
X80460Y-67772D01*
X80529Y-67575D01*
X80529Y-68830D01*
X80297Y-68830D01*
X80297Y-67867D01*
X80000Y-67570D01*
X79929Y-67641D01*
X79929Y-67500D01*
X79632Y-67202D01*
X79539Y-67227D01*
X79470Y-67424D01*
X79481Y-67632D01*
X79539Y-67772D01*
X79632Y-67797D01*
X79929Y-67500D01*
X79929Y-67641D01*
X79702Y-67867D01*
X79727Y-67960D01*
X79924Y-68029D01*
X80132Y-68018D01*
X80272Y-67960D01*
X80297Y-67867D01*
X80297Y-68830D01*
X79029Y-68830D01*
X79029Y-65825D01*
X79018Y-65617D01*
X78960Y-65477D01*
X78867Y-65452D01*
X78797Y-65523D01*
X78797Y-65382D01*
X78772Y-65289D01*
X78575Y-65220D01*
X78367Y-65231D01*
X78227Y-65289D01*
X78202Y-65382D01*
X78500Y-65679D01*
X78797Y-65382D01*
X78797Y-65523D01*
X78570Y-65750D01*
X78867Y-66047D01*
X78960Y-66022D01*
X79029Y-65825D01*
X79029Y-68830D01*
X78797Y-68830D01*
X78797Y-66117D01*
X78500Y-65820D01*
X78429Y-65891D01*
X78429Y-65750D01*
X78132Y-65452D01*
X78039Y-65477D01*
X77970Y-65674D01*
X77981Y-65882D01*
X78039Y-66022D01*
X78132Y-66047D01*
X78429Y-65750D01*
X78429Y-65891D01*
X78202Y-66117D01*
X78227Y-66210D01*
X78424Y-66279D01*
X78632Y-66268D01*
X78772Y-66210D01*
X78797Y-66117D01*
X78797Y-68830D01*
X78750Y-68830D01*
X78750Y-68070D01*
X78750Y-67128D01*
X78119Y-66550D01*
X77229Y-66550D01*
X76800Y-66979D01*
X76800Y-66349D01*
X76800Y-65650D01*
X76762Y-65558D01*
X76691Y-65488D01*
X76599Y-65450D01*
X76500Y-65449D01*
X76362Y-65450D01*
X76300Y-65512D01*
X76300Y-65950D01*
X76737Y-65950D01*
X76800Y-65887D01*
X76800Y-65650D01*
X76800Y-66349D01*
X76800Y-66112D01*
X76737Y-66050D01*
X76300Y-66050D01*
X76300Y-66487D01*
X76362Y-66550D01*
X76500Y-66550D01*
X76599Y-66549D01*
X76691Y-66511D01*
X76762Y-66441D01*
X76800Y-66349D01*
X76800Y-66979D01*
X76650Y-67129D01*
X76650Y-68070D01*
X77229Y-68650D01*
X78170Y-68650D01*
X78750Y-68070D01*
X78750Y-68830D01*
X76200Y-68830D01*
X76200Y-66487D01*
X76200Y-66050D01*
X76200Y-65950D01*
X76200Y-65512D01*
X76137Y-65450D01*
X75999Y-65449D01*
X75900Y-65450D01*
X75808Y-65488D01*
X75737Y-65558D01*
X75699Y-65650D01*
X75700Y-65887D01*
X75762Y-65950D01*
X76200Y-65950D01*
X76200Y-66050D01*
X75762Y-66050D01*
X75700Y-66112D01*
X75699Y-66349D01*
X75737Y-66441D01*
X75808Y-66511D01*
X75900Y-66549D01*
X75999Y-66550D01*
X76137Y-66550D01*
X76200Y-66487D01*
X76200Y-68830D01*
X75767Y-68830D01*
X75720Y-68821D01*
X75695Y-68804D01*
X75678Y-68779D01*
X75669Y-68733D01*
X75669Y-59250D01*
X75681Y-59212D01*
X75700Y-59189D01*
X75727Y-59175D01*
X75783Y-59169D01*
X92183Y-59169D01*
X92229Y-59178D01*
X92254Y-59195D01*
X92271Y-59220D01*
X92280Y-59267D01*
X92280Y-61767D01*
X92208Y-61695D01*
X92063Y-61635D01*
X91905Y-61635D01*
X91760Y-61695D01*
X91648Y-61806D01*
X91588Y-61952D01*
X91588Y-62109D01*
X91648Y-62255D01*
X91759Y-62367D01*
X91905Y-62427D01*
X92062Y-62427D01*
X92208Y-62367D01*
X92280Y-62295D01*
X92280Y-65704D01*
X92208Y-65632D01*
X92063Y-65572D01*
X91905Y-65572D01*
X91760Y-65632D01*
X91720Y-65671D01*
X91720Y-63857D01*
X91611Y-63592D01*
X91408Y-63389D01*
X91396Y-63383D01*
X91396Y-61953D01*
X91335Y-61807D01*
X91224Y-61695D01*
X91079Y-61635D01*
X90921Y-61635D01*
X90775Y-61695D01*
X90664Y-61806D01*
X90604Y-61952D01*
X90603Y-62109D01*
X90664Y-62255D01*
X90775Y-62367D01*
X90920Y-62427D01*
X91078Y-62427D01*
X91224Y-62367D01*
X91335Y-62256D01*
X91395Y-62110D01*
X91396Y-61953D01*
X91396Y-63383D01*
X91144Y-63279D01*
X90857Y-63279D01*
X90592Y-63388D01*
X90389Y-63591D01*
X90279Y-63855D01*
X90279Y-64142D01*
X90388Y-64407D01*
X90591Y-64610D01*
X90855Y-64720D01*
X91142Y-64720D01*
X91407Y-64611D01*
X91610Y-64408D01*
X91720Y-64144D01*
X91720Y-63857D01*
X91720Y-65671D01*
X91648Y-65743D01*
X91588Y-65889D01*
X91588Y-66046D01*
X91648Y-66192D01*
X91759Y-66304D01*
X91905Y-66364D01*
X92062Y-66364D01*
X92208Y-66304D01*
X92280Y-66232D01*
X92280Y-68732D01*
M02*
